<svg xmlns="http://www.w3.org/2000/svg" width="170" height="123" viewBox="-1 -40 170 123">
  <defs>
    <style>
      .a {
        fill: #edeced;
      }

      .a, .b {
        fill-rule: evenodd;
      }

      .b {
        fill: #ed1c2e;
      }
    </style>
  </defs>
  <title>logo-Adobe</title>
  <g>
    <path class="a" d="M66.69,70.66L64.38,81.39H59.08l8.77-38.87h6.29l8.25,38.87H77L74.77,70.66H66.69Zm7.44-4.33-1.79-9.29c-0.52-2.65-1-6.11-1.44-8.88H70.67c-0.4,2.83-1,6.4-1.5,8.88l-1.85,9.29h6.81Z" transform="translate(-0.91 -41.48)"/>
    <path class="a" d="M102.63,41.48v32.7c0,2.13.12,5.25,0.23,7.21H98.19L97.85,78H97.67a6.64,6.64,0,0,1-5.88,3.86c-5.19,0-8.36-5.65-8.36-14.36,0-9.92,4.21-14.59,8.65-14.59a5.2,5.2,0,0,1,5,3.17h0.12V41.48h5.42ZM97.21,64c0-.52,0-1.15-0.06-1.73-0.29-2.54-1.73-4.73-3.69-4.73-3.4,0-4.56,4.73-4.56,9.92,0,5.77,1.5,9.8,4.38,9.8,1.21,0,2.83-.63,3.75-4a8.17,8.17,0,0,0,.17-1.79V64h0Z" transform="translate(-0.91 -41.48)"/>
    <path class="a" d="M115.55,81.85c-5.59,0-9.63-4.79-9.63-14.42,0-10.21,4.79-14.53,9.92-14.53,5.54,0,9.52,5,9.52,14.42,0,11.13-5.48,14.53-9.75,14.53h-0.06Zm0.17-4.27c3.35,0,4.09-5.94,4.09-10.21s-0.75-10.21-4.21-10.21-4.27,6-4.27,10.21c0,4.67.81,10.21,4.33,10.21h0.06Z" transform="translate(-0.91 -41.48)"/>
    <path class="a" d="M128.62,41.48H134V56.53h0.12A6.39,6.39,0,0,1,140,52.9c4.79,0,7.79,5.42,7.79,14,0,10-4.09,14.94-8.71,14.94-2.77,0-4.33-1.5-5.54-4h-0.23l-0.29,3.52h-4.67c0.12-1.9.23-5.08,0.23-7.21V41.48h0Zm5.42,30a5.24,5.24,0,0,0,.23,1.73c0.86,3.4,2.54,4.09,3.63,4.09,3.23,0,4.44-4.27,4.44-10,0-5.36-1.27-9.69-4.5-9.69-1.79,0-3.23,2.13-3.63,4.15a10.63,10.63,0,0,0-.17,1.9v7.84h0Z" transform="translate(-0.91 -41.48)"/>
    <path class="a" d="M155.82,68.47c0.06,7.21,3.17,9,6.46,9a11.39,11.39,0,0,0,4.84-1l0.81,3.92a15.54,15.54,0,0,1-6.69,1.33c-7,0-10.73-5.31-10.73-14,0-9.17,4.21-14.82,10-14.82s8.54,5.59,8.54,12.63c0,1.38-.06,2.25-0.12,3l-13.15-.06h0ZM164,64.61c0.06-5-1.67-7.61-3.81-7.61-2.83,0-4.1,4.1-4.27,7.61H164Z" transform="translate(-0.91 -41.48)"/>
    <polygon class="b" points="27.61 1.14 43.81 1.14 43.81 39.91 27.61 1.14 27.61 1.14"/>
    <polygon class="b" points="16.21 1.14 0 1.14 0 39.91 16.21 1.14 16.21 1.14"/>
    <polygon class="b" points="21.91 15.43 32.23 39.91 25.47 39.91 22.38 32.11 14.83 32.11 21.91 15.43 21.91 15.43"/>
  </g>
</svg>
