<svg xmlns="http://www.w3.org/2000/svg" width="170" height="123" viewBox="-1 -20 170 123">
  <defs>
    <style>
      .a {
        fill: #edeced;
      }

      .b {
        fill: #f6aa1e;
      }

      .c {
        fill: #fcd291;
      }

      .d {
        fill: #f6aa1d;
      }

      .e {
        fill: #f6aa1c;
      }
    </style>
  </defs>
  <title>logo-aws</title>
  <path class="a" d="M82.55,95.66a3.62,3.62,0,0,1-2.43-2,4.86,4.86,0,0,0-.06,1.27c0,0.27,0,.39-0.35.36a6.24,6.24,0,0,0-1,0c-0.31,0-.42-0.06-0.41-0.39,0-1.06,0-2.12,0-3.19q0-7.78,0-15.57c0-.38.1-0.5,0.47-0.47a4.79,4.79,0,0,0,1,0c0.36,0,.41.11,0.41,0.43,0,2,0,4.1,0,6.15v0.42l0.23-.34a3.26,3.26,0,0,1,4.89-.82,5.53,5.53,0,0,1,2,3.21A12.63,12.63,0,0,1,87,92.35a5.76,5.76,0,0,1-1.93,2.59,5,5,0,0,1-1.63.71H82.55ZM80,88.24a13,13,0,0,0,.19,2.35,3.94,3.94,0,0,0,1.28,2.49,2.1,2.1,0,0,0,2.95-.14,3.85,3.85,0,0,0,1-1.61,12.05,12.05,0,0,0,.21-5.66,3.91,3.91,0,0,0-1.16-2.26,2,2,0,0,0-2.93,0,4.05,4.05,0,0,0-.88,1.25A8.48,8.48,0,0,0,80,88.24Z" transform="translate(-1.16 -28.86)"/>
  <path class="a" d="M70.61,95.11a2.57,2.57,0,0,0-.8-0.24,4.72,4.72,0,0,1-3-2.95,11.63,11.63,0,0,1,.11-8.64A4.66,4.66,0,0,1,70,80.37a4.21,4.21,0,0,1,4.74,1.85,8.49,8.49,0,0,1,1.32,4.38c0,0.39,0,.79,0,1.18s-0.09.53-.52,0.52c-2.35,0-4.7,0-7.06,0-0.45,0-.54.09-0.49,0.54a7,7,0,0,0,.76,2.68A2.74,2.74,0,0,0,71.72,93a2.47,2.47,0,0,0,1.68-1.14,4.85,4.85,0,0,0,.66-1.43,0.26,0.26,0,0,1,.34-0.24l1.34,0.22c0.12,0,.29,0,0.23.24a5.44,5.44,0,0,1-3,4.11c-0.4.17-.84,0.19-1.25,0.34H70.61Zm0.55-8.83h2.69c0.11,0,.29.08,0.27-0.17A4.75,4.75,0,0,0,72.9,83a2.45,2.45,0,0,0-3.47,0A4.65,4.65,0,0,0,68.15,86c0,0.23.07,0.27,0.28,0.27h2.73Z" transform="translate(-1.16 -28.86)"/>
  <path class="b" d="M45.56,28.86c1.14,0.6,2.34,1,3.52,1.55s2.28,1,3.5,1.51l-2.64,1-4.6,1.7a0.75,0.75,0,0,1-.61,0L38.61,32a0.88,0.88,0,0,1-.13-0.09,0.81,0.81,0,0,1,.41-0.22L45.21,29a0.34,0.34,0,0,0,.26-0.16h0.09Z" transform="translate(-1.16 -28.86)"/>
  <path class="b" d="M67.79,28.86c1.28,0.64,2.63,1.15,3.94,1.73,1,0.44,2,.86,3.09,1.33l-2.16.81-5.07,1.87a0.74,0.74,0,0,1-.61,0c-2-.87-4-1.72-6-2.58a2.38,2.38,0,0,1-.24-0.14c1.47-.63,2.9-1.24,4.33-1.87a26.61,26.61,0,0,0,2.63-1.18h0.09Z" transform="translate(-1.16 -28.86)"/>
  <path class="c" d="M1.19,65.63s0,0,0,0q0-1.46,0-2.92s0,0,0,0c0,0.17,0,.33,0,0.5C1.2,64,1.11,64.83,1.19,65.63Z" transform="translate(-1.16 -28.86)"/>
  <path class="a" d="M74.62,56.63a5,5,0,0,1,4.81-3.44c2.46,0,3.85,1.39,4.77,3.53a5.2,5.2,0,0,1,3.59-3.35,5.1,5.1,0,0,1,6.29,3.17,10.65,10.65,0,0,1,.35,3.24q0,6.65,0,13.3c0,0.92-.17,1.09-1.08,1.09h-3.1a0.74,0.74,0,0,1-.85-0.86q0-6,0-11.93a12.62,12.62,0,0,0-.08-1.54,2,2,0,0,0-2.83-1.69,2.72,2.72,0,0,0-1.75,2.59A29.76,29.76,0,0,0,84.64,64c0,3.05,0,6.1,0,9.15a0.79,0.79,0,0,1-1,1h-3.1a0.79,0.79,0,0,1-1-1q0-5.69,0-11.39a7.86,7.86,0,0,0-.26-2.3A1.89,1.89,0,0,0,77.54,58a2.07,2.07,0,0,0-2.17,1.19,5.49,5.49,0,0,0-.49,2.43c0,3.83,0,7.65,0,11.48,0,0.87-.21,1.08-1.06,1.08h-3.1a0.77,0.77,0,0,1-.91-0.87q0-9.43,0-18.86a0.76,0.76,0,0,1,.86-0.87h3.14a0.72,0.72,0,0,1,.81.85C74.62,55.16,74.62,55.89,74.62,56.63Z" transform="translate(-1.16 -28.86)"/>
  <path class="a" d="M113.44,63.26c0,1.27,0,2.55,0,3.82a5,5,0,0,0,1,3.26,4.57,4.57,0,0,1,.41.6,0.71,0.71,0,0,1-.17,1c-0.83.73-1.65,1.48-2.48,2.22a0.86,0.86,0,0,1-1.38,0,7.6,7.6,0,0,1-1.57-1.88c-0.18-.31-0.29-0.27-0.52,0a7.15,7.15,0,0,1-3.63,2.21,8.18,8.18,0,0,1-3.61,0A4.61,4.61,0,0,1,98,71.35a6.9,6.9,0,0,1,1.14-7A7.42,7.42,0,0,1,103.52,62a40.59,40.59,0,0,1,4.41-.6,0.35,0.35,0,0,0,.39-0.44,10.76,10.76,0,0,0-.14-2.08,2,2,0,0,0-1.66-1.6,2.87,2.87,0,0,0-3.61,2.14,0.72,0.72,0,0,1-1,.68c-1-.12-2-0.22-2.93-0.35-0.74-.1-0.89-0.35-0.72-1.09a6.24,6.24,0,0,1,3.8-4.61,10.46,10.46,0,0,1,7.59-.29,5.28,5.28,0,0,1,3.78,5.31c0,1.4,0,2.79,0,4.19h0Zm-5.12,2.52c0-.44,0-0.77,0-1.1a0.24,0.24,0,0,0-.31-0.31,9.39,9.39,0,0,0-2.86.45,3.12,3.12,0,0,0-2.09,2.1,4.28,4.28,0,0,0-.09,1.89,2.22,2.22,0,0,0,3.75,1.45,3.88,3.88,0,0,0,1.15-1.6A7.67,7.67,0,0,0,108.31,65.78Z" transform="translate(-1.16 -28.86)"/>
  <path class="a" d="M157.81,57c0.2-.39.38-0.78,0.59-1.16a4.62,4.62,0,0,1,4.63-2.5,4.86,4.86,0,0,1,4.75,4.61,24.15,24.15,0,0,1,.18,3q0,6.22,0,12.43a0.77,0.77,0,0,1-.92.94h-3.23a0.76,0.76,0,0,1-.9-0.91q0-5.35,0-10.7a11.11,11.11,0,0,0-.23-2.89,2,2,0,0,0-1.71-1.7,2.26,2.26,0,0,0-2.3,1.29,7.84,7.84,0,0,0-.73,3.62c0,3.4,0,6.8,0,10.2,0,0.94-.17,1.1-1.11,1.1h-3a0.78,0.78,0,0,1-.93-0.89q0-9.4,0-18.81a0.76,0.76,0,0,1,.86-0.87c1,0,2.06,0,3.1,0a0.72,0.72,0,0,1,.82.85c0,0.8,0,1.6,0,2.4h0.09Z" transform="translate(-1.16 -28.86)"/>
  <path class="a" d="M133.69,63.94a13.52,13.52,0,0,1,1.71-7,7.64,7.64,0,0,1,13.05,0,12.78,12.78,0,0,1,1.71,5.36,14.23,14.23,0,0,1-.79,6.79,8.07,8.07,0,0,1-5.31,5.27,7.43,7.43,0,0,1-9-4A14,14,0,0,1,133.69,63.94Zm5.38-.22a20.53,20.53,0,0,0,.1,2.67,7.94,7.94,0,0,0,.82,3.09,2.2,2.2,0,0,0,3.92.09,5.14,5.14,0,0,0,.65-1.78,24.21,24.21,0,0,0,.22-5.71,10.74,10.74,0,0,0-.57-3.25,2.23,2.23,0,0,0-2.07-1.57,2.26,2.26,0,0,0-2.33,1.33,5,5,0,0,0-.37,1A14.82,14.82,0,0,0,139.08,63.71Z" transform="translate(-1.16 -28.86)"/>
  <path class="a" d="M124.13,67.22a13.34,13.34,0,0,1,5.78,1c1.8,0.79,1.74,1,1.72,2.6,0,0.56,0,1.12,0,1.68,0,0.79-.45,1.07-1.14.73a13.35,13.35,0,0,0-12.28.07,0.63,0.63,0,0,1-1-.5q0-1.68,0-3.37a3.13,3.13,0,0,1,.62-1.63q3.35-4.92,6.68-9.86l0.24-.38a0.4,0.4,0,0,0-.39-0.08h-5.6a0.72,0.72,0,0,1-.86-0.87c0-.83,0-1.67,0-2.5a0.7,0.7,0,0,1,.8-0.81h11.75a0.69,0.69,0,0,1,.79.74q0,1.18,0,2.37a2.52,2.52,0,0,1-.61,1.3l-5.33,7.81Z" transform="translate(-1.16 -28.86)"/>
  <path class="d" d="M23.18,89.61l-3-1.29c-2.33-1-4.65-2.06-7-3.07a0.51,0.51,0,0,1-.38-0.56q0.14-6.42.24-12.84c0-.34.07-0.41,0.41-0.28q4.7,1.89,9.41,3.75a0.4,0.4,0,0,1,.31.42q0,6.85,0,13.7A1,1,0,0,1,23.18,89.61Z" transform="translate(-1.16 -28.86)"/>
  <path class="d" d="M24.25,51.43l1.88,0.75c2.6,1,5.2,2.08,7.81,3.11a0.54,0.54,0,0,1,.4.59q0,6.65,0,13.3c0,0.41-.09.44-0.44,0.28q-4.77-2.13-9.56-4.22A0.48,0.48,0,0,1,24,64.71q0.13-6.49.25-13C24.23,51.65,24.24,51.56,24.25,51.43Z" transform="translate(-1.16 -28.86)"/>
  <path class="d" d="M1.19,65.63c-0.07-.8,0-1.6,0-2.39,0-.17,0-0.33,0-0.5,0.06-3.46,0-6.92,0-10.38,0-.4.37-0.41,0.69-0.28,3.12,1.25,6.38,2.43,9.51,3.67,0.2,0.08.19,0.23,0.18,0.48,0,4.58,0,9.17,0,13.75a0.33,0.33,0,0,1,0,.13C8.15,68.62,4.59,67.13,1.19,65.63Z" transform="translate(-1.16 -28.86)"/>
  <path class="d" d="M57,32.65l2.58,1,7.26,2.89a0.44,0.44,0,0,1,.38.46q0,6.85,0,13.7a0.66,0.66,0,0,1,0,.09,0.35,0.35,0,0,1-.33-0.08L57.2,46.49A0.45,0.45,0,0,1,56.89,46c0.06-2.65.11-5.31,0.14-8C57.05,36.26,57,34.5,57,32.65Z" transform="translate(-1.16 -28.86)"/>
  <path class="d" d="M34.35,71.44v0.43q0,6.13,0,12.25a0.53,0.53,0,0,1-.39.59c-2.83,1.13-5.65,2.29-8.47,3.43-0.5.2-.5,0.2-0.5-0.36q0-6.19,0-12.39a0.49,0.49,0,0,1,.35-0.58c2.88-1.08,5.75-2.18,8.63-3.27Z" transform="translate(-1.16 -28.86)"/>
  <path class="e" d="M69,42.88c0-2.08,0-4.16,0-6.24a0.5,0.5,0,0,1,.38-0.56q4.25-1.6,8.49-3.23c0.41-.16.47-0.06,0.47,0.34q0,6.12,0,12.25A0.5,0.5,0,0,1,78,46c-2.82,1.13-5.64,2.28-8.46,3.43-0.49.2-.49,0.2-0.49-0.35Q69,46,69,42.88Z" transform="translate(-1.16 -28.86)"/>
  <path class="e" d="M45.48,51.51v0.38q0,6.12,0,12.24a0.53,0.53,0,0,1-.4.59q-4.26,1.71-8.5,3.45c-0.34.14-.45,0.13-0.45-0.29q0-6.26,0-12.52a0.44,0.44,0,0,1,.29-0.53q4.4-1.65,8.79-3.33A0.25,0.25,0,0,1,45.48,51.51Z" transform="translate(-1.16 -28.86)"/>
  <path class="e" d="M13.37,62.12c0-2.08,0-4.16,0-6.24a0.49,0.49,0,0,1,.38-0.56q4.25-1.6,8.49-3.23c0.36-.14.48-0.13,0.48,0.32q0,6.12,0,12.24a0.5,0.5,0,0,1-.37.56c-2.82,1.13-5.64,2.28-8.46,3.43-0.51.21-.51,0.2-0.51-0.34Q13.37,65.21,13.37,62.12Z" transform="translate(-1.16 -28.86)"/>
  <path class="d" d="M44.75,42.9c0,1.94,0,3.88,0,5.83,0,0.32-.32.42-0.67,0.31Q40,47.85,36,46.7a0.43,0.43,0,0,1-.37-0.49q0-6.44,0-12.89c0-.31,0-0.4.37-0.26,2.81,1.18,5.77,2.32,8.58,3.49,0.26,0.11.17,0.27,0.17,0.53,0,1.94,0,3.88,0,5.83C44.7,42.9,44.79,42.9,44.75,42.9Z" transform="translate(-1.16 -28.86)"/>
  <path class="d" d="M47,50.63V46.86c0-3.05,0-6.1,0-9.15A0.6,0.6,0,0,1,47.46,37c2.5-1,5-2.12,7.49-3.18l0.42-.17c0,0.16,0,.29,0,0.42q0,6.17,0,12.34a0.46,0.46,0,0,1-.27.54c-2.64,1.18-5.27,2.39-7.91,3.58Z" transform="translate(-1.16 -28.86)"/>
  <path class="a" d="M61,91.79L63,83c0.13-.57.26-1.15,0.38-1.73a0.32,0.32,0,0,1,.4-0.31,7.14,7.14,0,0,0,1.09,0c0.36,0,.35.12,0.29,0.39q-0.94,3.9-1.87,7.8c-0.44,1.85-.88,3.7-1.3,5.56a0.46,0.46,0,0,1-.59.47,3.08,3.08,0,0,0-.91,0c-0.48.08-.6-0.17-0.68-0.57-0.52-2.58-1.06-5.15-1.58-7.73-0.15-.74-0.25-1.49-0.39-2.31a3.17,3.17,0,0,0-.3,1.11q-0.93,4.6-1.83,9.21a0.28,0.28,0,0,1-.35.29c-0.09,0-.18,0-0.27,0a2.35,2.35,0,0,1-1.36-.09,2.86,2.86,0,0,1-.38-1.32L50.44,81.51c0-.16-0.07-0.32-0.12-0.53,0.58,0,1.13,0,1.69,0,0.24,0,.25.14,0.29,0.32q1.09,5.19,2.18,10.38a0.41,0.41,0,0,0,.14.3l1-4.72,1.2-5.91A0.36,0.36,0,0,1,57.21,81a8.26,8.26,0,0,0,1.23,0,0.34,0.34,0,0,1,.42.34q1,5.1,2,10.19A3,3,0,0,0,61,91.79Z" transform="translate(-1.16 -28.86)"/>
  <path class="a" d="M108.05,88.33c-1.2,0-2.4,0-3.6,0-0.38,0-.45.11-0.42,0.46a6.07,6.07,0,0,0,1,3.11,2.63,2.63,0,0,0,4.55-.21,5.51,5.51,0,0,0,.54-1.24c0.05-.18.11-0.24,0.31-0.2,0.46,0.1.92,0.16,1.39,0.24,0.16,0,.29.05,0.24,0.28-0.45,1.81-1.25,3.4-3.12,4.06a4.71,4.71,0,0,1-6.18-2.88,10.69,10.69,0,0,1-.68-4.19,10.42,10.42,0,0,1,.79-4.48,4.67,4.67,0,0,1,3.7-2.94,4.23,4.23,0,0,1,4.27,2,8.39,8.39,0,0,1,1.29,4.47,2.45,2.45,0,0,1-.06,1.41c-0.25.31-.91,0.08-1.39,0.09C109.81,88.34,108.93,88.33,108.05,88.33Zm-0.91-2h2.73c0.13,0,.32.07,0.3-0.2a4.37,4.37,0,0,0-1.44-3.31,2.39,2.39,0,0,0-3,0,4.42,4.42,0,0,0-1.61,3.19c0,0.32.09,0.37,0.37,0.37C105.38,86.29,106.26,86.3,107.14,86.3Z" transform="translate(-1.16 -28.86)"/>
  <path class="a" d="M152.57,88.12c-1.23,0-2.46,0-3.69,0-0.29,0-.39.06-0.35,0.37a7.73,7.73,0,0,0,.61,2.5,3,3,0,0,0,2.16,1.83,2.44,2.44,0,0,0,2.56-1,4.58,4.58,0,0,0,.76-1.58A0.26,0.26,0,0,1,155,90c0.44,0.11.89,0.16,1.34,0.23,0.15,0,.3,0,0.24.28a6.82,6.82,0,0,1-1.54,3,4.72,4.72,0,0,1-7.54-1.36,9.24,9.24,0,0,1-.89-3.77,12.06,12.06,0,0,1,.62-5,4.84,4.84,0,0,1,3.28-3.2,4.28,4.28,0,0,1,4.92,2A8,8,0,0,1,156.61,86c0.05,0.59,0,1.18.09,1.77,0,0.32-.1.38-0.39,0.38C155.06,88.11,153.82,88.12,152.57,88.12Zm-0.91-2h2.73c0.13,0,.34.08,0.3-0.19a4.7,4.7,0,0,0-1.32-3.19,2.41,2.41,0,0,0-3.27,0,4.61,4.61,0,0,0-1.49,3.21c0,0.3.16,0.23,0.31,0.23h2.73Z" transform="translate(-1.16 -28.86)"/>
  <path class="a" d="M162.85,95c-2.45,0-4-1.31-4.49-3.79-0.17-.79-0.17-0.79.62-0.94a2.22,2.22,0,0,1,1-.16,1.27,1.27,0,0,1,.3.94,2.82,2.82,0,0,0,4,1.65,2.16,2.16,0,0,0,1-2.53,1.56,1.56,0,0,0-.89-0.92c-0.95-.43-2-0.69-2.93-1.09l-0.79-.35a4.06,4.06,0,0,1,.85-7.52,5.2,5.2,0,0,1,2.69.1A3.79,3.79,0,0,1,166.91,84a0.21,0.21,0,0,1-.22.27l-0.41,0a2.77,2.77,0,0,1-1,.13,1,1,0,0,1-.35-0.87,2.34,2.34,0,0,0-2.9-1.33,1.81,1.81,0,0,0-1.67,1.73,1.42,1.42,0,0,0,.92,1.47c1,0.42,2.11.8,3.17,1.2l0.51,0.2A3.55,3.55,0,0,1,167.32,91a4.08,4.08,0,0,1-3.46,3.94A5,5,0,0,1,162.85,95Z" transform="translate(-1.16 -28.86)"/>
  <path class="a" d="M96,95c-2.44,0-4-1.34-4.47-3.9,0,0,0,0,0,0-0.12-.62-0.12-0.62.48-0.75L93,90.1c0.25-.06.41,0,0.41,0.28a1.76,1.76,0,0,0,.07.4,2.69,2.69,0,0,0,3.74,2,2.13,2.13,0,0,0,1.37-2.55,1.6,1.6,0,0,0-.95-1c-0.9-.43-1.88-0.66-2.79-1.05l-1-.44a3.53,3.53,0,0,1-2.07-3.14,3.85,3.85,0,0,1,1.73-3.81,4.8,4.8,0,0,1,5.42.44A4.6,4.6,0,0,1,100.1,84c0,0.15-.08.18-0.19,0.2l-1.35.21a0.25,0.25,0,0,1-.33-0.25,2.44,2.44,0,0,0-3.62-1.82,1.62,1.62,0,0,0-1,1.51,1.5,1.5,0,0,0,1,1.55c1.1,0.5,2.25.87,3.39,1.27a3.55,3.55,0,0,1,2.62,3.56A4.26,4.26,0,0,1,96,95Z" transform="translate(-1.16 -28.86)"/>
  <path class="a" d="M136.11,87.79a11.13,11.13,0,0,1,.73-4.53,4.56,4.56,0,0,1,3.62-3,4,4,0,0,1,4.64,2.83,2.21,2.21,0,0,1,.29,1.51c-0.2.37-.93,0.26-1.42,0.4a0.26,0.26,0,0,1-.39-0.26,4,4,0,0,0-.39-1.2,2.25,2.25,0,0,0-3.67-.71,4.36,4.36,0,0,0-1.35,2.8,11.81,11.81,0,0,0,.31,5.26,3.33,3.33,0,0,0,.75,1.28,2.41,2.41,0,0,0,4-.42,4.39,4.39,0,0,0,.59-1.84c0-.31.14-0.42,0.45-0.35s0.81,0.13,1.21.19c0.16,0,.24.07,0.21,0.26a7,7,0,0,1-1.27,3.36,4.19,4.19,0,0,1-6.89-.26,7.84,7.84,0,0,1-1.27-3.69A10.12,10.12,0,0,1,136.11,87.79Z" transform="translate(-1.16 -28.86)"/>
  <path class="a" d="M125.38,92l0.9-3.26c0.7-2.52,1.4-5,2.09-7.55a0.39,0.39,0,0,1,.46-0.35,11.69,11.69,0,0,0,1.23,0c0.28,0,.32.05,0.24,0.33-0.6,2-1.18,4.06-1.77,6.09-0.72,2.48-1.45,5-2.16,7.43a0.41,0.41,0,0,1-.49.37,3.26,3.26,0,0,1-1.33-.07,2.23,2.23,0,0,1-.45-1.28c-1.21-4.13-2.41-8.26-3.62-12.38-0.11-.38-0.1-0.54.36-0.49a3.6,3.6,0,0,1,1.42.09,2.42,2.42,0,0,1,.47,1.37c0.77,2.82,1.63,5.62,2.32,8.47,0.1,0.41.18,0.83,0.27,1.24h0.07Z" transform="translate(-1.16 -28.86)"/>
  <path class="b" d="M41.86,50.68l-7.28,2.69a0.58,0.58,0,0,1-.47,0L27.9,50.7a0.27,0.27,0,0,1,.26-0.21l6.38-2.75a0.63,0.63,0,0,1,.55,0l6.63,2.85A0.88,0.88,0,0,1,41.86,50.68Z" transform="translate(-1.16 -28.86)"/>
  <path class="b" d="M16.71,70.62L23.5,67.7a0.53,0.53,0,0,1,.44,0l6.85,2.95-2.14.8-5.11,1.88a0.69,0.69,0,0,1-.56,0l-6.1-2.61A1.38,1.38,0,0,1,16.71,70.62Z" transform="translate(-1.16 -28.86)"/>
  <path class="b" d="M5.08,51.13l5.16-2.22,1.54-.66a0.6,0.6,0,0,1,.52,0L19,51.09a0.52,0.52,0,0,1,.09.09l-2,.77L11.9,53.83a0.69,0.69,0,0,1-.56,0L5.25,51.26A1,1,0,0,1,5.08,51.13Z" transform="translate(-1.16 -28.86)"/>
  <path class="a" d="M116.1,83c0.29-.53.51-1,0.77-1.36,0.92-1.44,2.36-1.08,3.38-.31a0.27,0.27,0,0,1,.06.36l-0.54,1.95a4.9,4.9,0,0,0-1-.45,1.81,1.81,0,0,0-2,1.36,10.91,10.91,0,0,0-.42,3.46c0,2.23,0,4.46,0,6.69,0,0.39-.11.5-0.48,0.46a7.76,7.76,0,0,0-1.09,0c-0.24,0-.34-0.06-0.3-0.3a0.87,0.87,0,0,0,0-.14q0-6.67,0-13.33c0-.34.05-0.5,0.44-0.46a2.66,2.66,0,0,1,1.14.08,1.78,1.78,0,0,1,.09,1.17C116.11,82.36,116.1,82.6,116.1,83Z" transform="translate(-1.16 -28.86)"/>
  <path class="a" d="M133.84,88.12c0,2.23,0,4.46,0,6.69,0,0.32-.09.42-0.4,0.39-0.48,0-1.12.2-1.39-.1a2.53,2.53,0,0,1-.07-1.36c0-4.1,0-8.19,0-12.29,0-.38.1-0.51,0.48-0.47a5.31,5.31,0,0,0,1,0c0.33,0,.4.1,0.39,0.41C133.84,83.63,133.84,85.88,133.84,88.12Z" transform="translate(-1.16 -28.86)"/>
  <path class="a" d="M133.84,77.12a2,2,0,0,1-.09,1.23,3,3,0,0,1-1.27.08c-0.44,0-.52-0.13-0.51-0.52,0-.65,0-1.3,0-2a0.25,0.25,0,0,1,.31-0.31c0.42,0,.85,0,1.27,0,0.26,0,.29.11,0.29,0.32S133.84,76.68,133.84,77.12Z" transform="translate(-1.16 -28.86)"/>
  <path class="a" d="M67,71a6,6,0,0,0-.39-0.56,5,5,0,0,1-1-3.22c0-1.31,0-2.61,0-3.92h0c0-1.41,0-2.82,0-4.24A5.15,5.15,0,0,0,62,53.94a10.52,10.52,0,0,0-7.77.2,6.24,6.24,0,0,0-3.84,4.63c-0.17.73,0,1,.72,1.09,1,0.13,2,.23,2.93.35a0.72,0.72,0,0,0,1-.68,2.91,2.91,0,0,1,3.78-2.09,2,2,0,0,1,1.46,1.42,6.57,6.57,0,0,1,.17,2.44c0,0.37-.46.22-0.71,0.25a35.55,35.55,0,0,0-4.45.65,6.75,6.75,0,0,0-4.89,3.57,7.16,7.16,0,0,0-.25,5.7,4.68,4.68,0,0,0,3.53,3.09,8.22,8.22,0,0,0,3.57,0,6.91,6.91,0,0,0,3.6-2.17c0.32-.33.43-0.24,0.63,0.09A7.47,7.47,0,0,0,63,74.23a0.87,0.87,0,0,0,1.42,0L66.82,72A0.72,0.72,0,0,0,67,71Zm-6.54-6.16c0,0.32,0,.64,0,1.05A7.7,7.7,0,0,1,60,68.78a3.93,3.93,0,0,1-1.08,1.55A2.23,2.23,0,0,1,55.1,69a4.16,4.16,0,0,1,.1-2,3.3,3.3,0,0,1,2.55-2.21,10.8,10.8,0,0,1,2.34-.3C60.37,64.47,60.46,64.56,60.44,64.84Z" transform="translate(-1.16 -28.86)"/>
</svg>
