<svg xmlns="http://www.w3.org/2000/svg" width="170" height="123" viewBox="0 0 170 123">
  <defs>
    <style>
      .a, .d {
        fill: #231f20;
      }

      .a, .c, .e {
        fill-rule: evenodd;
      }

      .b, .e {
        fill: #fff;
      }
    </style>
  </defs>
  <title>logo-tinbender</title>
  <g>
    <path class="a" d="M83.43,118.63c-4.43,0-15.82-.38-25.82-3.93-2-.72-4-1.46-6-2.19-8.47-3.16-16.47-6.15-25.36-6.15H25.78a1.5,1.5,0,0,1-1.5-1.5v-10h-1.7A4.18,4.18,0,0,1,20,94a3.69,3.69,0,0,1-1.09-2.42v-1.3a12.67,12.67,0,0,0-1.42-4.86,41.34,41.34,0,0,0-5-6.8c-3.85-4.36-9.12-10.34-9.12-22C3.38,48.3,6.56,43.6,7,43l7.55-11.72V29.18A1.5,1.5,0,0,1,16,27.68c1.71-.08,3.59-0.63,3.88-1.14,0,0,.28-0.61-0.14-2.91l-0.05-.27c-0.33-1.77-.53-2.84.11-4a4.47,4.47,0,0,1,2.54-1.89l0.19-.08A132.86,132.86,0,0,1,43,11.1a199.62,199.62,0,0,1,40.31-5l1.41,0h0.37l1.39,0a204,204,0,0,1,41.18,5,132.68,132.68,0,0,1,20.62,6.34c1.2,0.49,2.48,1.16,2.89,2.34a6,6,0,0,1-.09,3.44c-0.54,2.64-.22,3.32-0.22,3.33,0.28,0.49,2.2,1.06,3.88,1.13a1.5,1.5,0,0,1,1.43,1.5v2.13L163.75,43c0.41,0.57,3.6,5.27,3.6,13.56,0,11.7-5.27,17.68-9.12,22a41.19,41.19,0,0,0-5,6.8,12.62,12.62,0,0,0-1.42,4.92V91.5a3.37,3.37,0,0,1-.58,2.08,3.28,3.28,0,0,1-2.58,1.26h-2.2v10a1.5,1.5,0,0,1-1.5,1.5h-0.48c-8.45,0-16,2.79-24.08,5.74-2.35.86-4.78,1.75-7.29,2.6-10.44,3.52-21.86,3.9-26.29,3.9H85.54C85.33,118.6,84.59,118.63,83.43,118.63Z" transform="translate(-1.88 -4.58)"/>
    <path class="b" d="M86.51,7.58a202.11,202.11,0,0,1,40.83,5,133.44,133.44,0,0,1,20.39,6.27,3.66,3.66,0,0,1,2,1.45c0.21,0.6.18,1.06-.14,2.65s-0.55,3.5-.06,4.36c1,1.7,5.11,1.89,5.11,1.89v2.57l7.81,12.13s3.34,4.44,3.34,12.71h0c0,10.84-4.67,16.43-8.75,21a43,43,0,0,0-5.2,7.06,14,14,0,0,0-1.61,5.59v1.27a1.82,1.82,0,0,1-.33,1.18,1.89,1.89,0,0,1-1.36.59h-2.27a1.33,1.33,0,0,0-1.4,1.49v10h-0.48c-11.2,0-20.62,4.64-31.85,8.42-10.41,3.51-22,3.82-25.81,3.82H85.53s-0.77,0-2.1,0c-4.52,0-15.59-.39-25.32-3.84-11.16-4-20.64-8.42-31.83-8.42h-0.5v-10a1.33,1.33,0,0,0-1.4-1.49h-1.8A2.91,2.91,0,0,1,21,92.89a2.27,2.27,0,0,1-.58-1.38V90.29a14,14,0,0,0-1.61-5.59,43,43,0,0,0-5.2-7.06C9.55,73,4.88,67.43,4.88,56.59c0-8.27,3.34-12.71,3.34-12.71L16,31.75V29.18s4.14-.19,5.11-1.89c0.45-.78.31-2.41,0-3.92-0.32-1.76-.5-2.55-0.11-3.25a3.49,3.49,0,0,1,2-1.32,133.66,133.66,0,0,1,20.32-6.24,197.23,197.23,0,0,1,40-5l1.36,0h0.43l1.38,0m0-3-1.44,0H84.74l-1.39,0A201.33,201.33,0,0,0,42.7,9.64,134.33,134.33,0,0,0,21.91,16l-0.19.08a5.91,5.91,0,0,0-3.28,2.55c-0.9,1.61-.62,3.1-0.27,5l0,0.27a11,11,0,0,1,.21,1.79,9.41,9.41,0,0,1-2.55.49,3,3,0,0,0-2.85,3v1.69L5.73,42.2c-0.6.85-3.85,5.88-3.85,14.39,0,12.27,5.71,18.75,9.5,23a40.37,40.37,0,0,1,4.83,6.54,11.16,11.16,0,0,1,1.23,4.21v1.13q0,0.09,0,.18A5.15,5.15,0,0,0,19,95.15a5.6,5.6,0,0,0,3.55,1.19h0.2v8.52a3,3,0,0,0,3,3h0.5c8.61,0,16.13,2.8,24.83,6.05,1.94,0.72,3.94,1.47,6,2.2,10.22,3.63,21.82,4,26.33,4,1.1,0,1.84,0,2.11,0H86.8c4.5,0,16.12-.39,26.77-4,2.53-.85,5-1.75,7.33-2.62,8.25-3,15.38-5.65,23.56-5.65h0.48a3,3,0,0,0,3-3V96.34h0.74a4.72,4.72,0,0,0,3.8-1.94,4.86,4.86,0,0,0,.82-2.94V90.38a11.08,11.08,0,0,1,1.23-4.21,40.37,40.37,0,0,1,4.83-6.54c3.78-4.29,9.5-10.76,9.5-23,0-8.51-3.26-13.55-3.85-14.39l-7.3-11.33V29.18a3,3,0,0,0-2.86-3,9.39,9.39,0,0,1-2.54-.49,12.09,12.09,0,0,1,.28-2.17,7.33,7.33,0,0,0,0-4.23c-0.61-1.75-2.32-2.65-3.74-3.23A134.12,134.12,0,0,0,128,9.64,205.75,205.75,0,0,0,86.51,4.58h0Z" transform="translate(-1.88 -4.58)"/>
  </g>
  <g>
    <path class="c" d="M85.14,9.22c4.87-.16,23,0.62,41,4.82A115.72,115.72,0,0,1,148,21s-1.61,4.84-.41,7.16S152.64,31,152.64,31v2.13l7.58,11.35s3.66,4.31,3.66,12.33h0c0,10.52-5,15.94-8.91,20.42a41.74,41.74,0,0,0-5,6.85,13.59,13.59,0,0,0-1.56,5.42v2.12h-3.53A1.75,1.75,0,0,0,143,93.44v9.73c-11.07-.13-20.15,4.8-31.17,8.6C99.65,116,85.5,115.64,85.5,115.64s-14.32.39-26.58-3.87c-11-3.82-19.94-8.34-31.25-8.53V93.48a1.78,1.78,0,0,0-1.81-1.9h-3.5v-3A11.77,11.77,0,0,0,20.8,84a41.74,41.74,0,0,0-5-6.85c-4-4.48-8.91-9.9-8.91-20.42,0-8,3.66-12.33,3.66-12.33l7.58-11.35V31s3.5-.32,4.71-2.81-0.21-7.08-.21-7.08a117.42,117.42,0,0,1,22-7c17.77-4.16,35.17-5,40.1-4.81h0.42Z" transform="translate(-1.88 -4.58)"/>
    <path class="b" d="M86.48,11.17A194.1,194.1,0,0,1,125.65,16a119,119,0,0,1,20,6.18c-0.45,1.93-.86,4.92.2,7a7.67,7.67,0,0,0,4.84,3.47v1.12l0.33,0.5,7.58,11.35,0.06,0.09,0.06,0.08s3.2,3.95,3.2,11.07c0,9.59-4.36,14.53-8.21,18.88l-0.21.24a43.43,43.43,0,0,0-5.29,7.19,15.62,15.62,0,0,0-1.81,6.31v0.23h-1.6A3.69,3.69,0,0,0,141,93.44v7.79c-7.91.31-14.84,3-22.15,5.81-2.48,1-5,1.95-7.7,2.86-10.13,3.49-21.65,3.76-24.94,3.76h-1.7c-3.31,0-14.89-.27-25-3.77-2.41-.84-4.73-1.71-7-2.56-7.51-2.83-14.63-5.51-22.94-6V93.48a3.74,3.74,0,0,0-3.77-3.86H24.33v-1.1a13.57,13.57,0,0,0-1.81-5.43,43.43,43.43,0,0,0-5.29-7.19L17,75.65c-3.85-4.36-8.21-9.29-8.21-18.88,0-7.12,3.17-11,3.19-11.06l0.07-.09,0.06-.09,7.58-11.35,0.33-.5V32.57A7.15,7.15,0,0,0,24.57,29c1-2.06.68-5,.32-6.81A120.87,120.87,0,0,1,45.08,16,189.83,189.83,0,0,1,83.4,11.18l1.26,0h0.55l1.27,0m0-2-1.33,0H84.72l-1.32,0A191.36,191.36,0,0,0,44.63,14a117.42,117.42,0,0,0-22,7s1.4,4.63.21,7.08S18.09,31,18.09,31v2.1L10.51,44.43S6.85,48.74,6.85,56.77c0,10.52,5,15.94,8.91,20.42a41.74,41.74,0,0,1,5,6.85,11.77,11.77,0,0,1,1.56,4.58v3h3.51a1.78,1.78,0,0,1,1.8,1.9v9.76c11.31,0.19,20.24,4.71,31.25,8.53,10.36,3.6,22.19,3.88,25.61,3.88h1.7c3,0,15.06-.24,25.58-3.87,10.88-3.75,19.86-8.6,30.74-8.6H143V93.44a1.73,1.73,0,0,1,1.82-1.86h3.57V89.46A13.59,13.59,0,0,1,149.92,84a41.74,41.74,0,0,1,5-6.85c4-4.48,8.91-9.9,8.91-20.42h0c0-8-3.66-12.33-3.66-12.33l-7.58-11.35V31s-3.84-.42-5.06-2.78S148,21,148,21a115.72,115.72,0,0,0-21.88-7A196.11,196.11,0,0,0,86.48,9.21h0Z" transform="translate(-1.88 -4.58)"/>
  </g>
  <g>
    <path class="b" d="M39.79,78l-0.28,0V49.28l-2.67,0V46.89h8v2.33l-3.1,0,0,28.42-0.28,0L39.79,78h0Z" transform="translate(-1.88 -4.58)"/>
    <path class="b" d="M49.12,76.71l-0.33,0,0-29.86H51L51,76.49l-0.33,0-1.54.18h0Z" transform="translate(-1.88 -4.58)"/>
    <path class="b" d="M63.94,75.3l-0.38,0Q60.79,64.73,58,53.83l0,22-0.33,0L56.11,76l-0.33,0,0.06-29.1h2.94q2.52,9.59,5,18.92l0-18.92h2.23L66,75.16l-0.36,0-1.73.12h0Z" transform="translate(-1.88 -4.58)"/>
    <path class="b" d="M100.19,74.76l-0.38,0Q97,64,94.21,53.54q0,10.52,0,21H93.89l-1.55,0L92,74.15l0-27.25h2.94q2.54,9,5.1,18.17l0-18.17h2.23l0,27.58-0.36.36-1.73-.08h0Z" transform="translate(-1.88 -4.58)"/>
    <path class="b" d="M76.74,74.64q-3.17.1-6.34,0.26l0-28h6.32l1.59,1.76V58.3l-1.19,1.25,1.19,1.38V73l-1.59,1.65h0ZM76,58.59V49H72.65v9.65l2.56,0H76Zm0,14.18V61.24H75.26l-2.63.05V72.89l2.7-.1h0.1l0.59,0h0Z" transform="translate(-1.88 -4.58)"/>
    <path class="b" d="M134.44,60V49.24H133.7l-2.22,0V59.83L133.61,60h0.24l0.59,0h0Zm-5.13,17.31q0-15.21,0-30.43h5.89l1.59,2v11l-1.18,1.33,1.18,1.67V78.41l-2.31-.36h0q0-5.82,0-11.64V63l-0.59,0h-0.17l-2.19-.16v3.37q0,5.74,0,11.48Z" transform="translate(-1.88 -4.58)"/>
    <path class="b" d="M83,74.5V73Q83,60,83,46.89h6.27V49H85.19q0,4.77,0,9.54h3.93v2.64H85.19q0,5.46,0,10.92h4.08v2.42q-3.15,0-6.29,0h0Z" transform="translate(-1.88 -4.58)"/>
    <path class="b" d="M118.68,76.08V73.73l-0.05-26.84h6.7v2.25l-4.49,0,0,10.17,3.93,0.19v2.85l-3.93-.23,0,11.64,4.49,0.47v2.62q-3.34-.41-6.69-0.74h0Z" transform="translate(-1.88 -4.58)"/>
    <path class="b" d="M112.66,75.53l-0.62,0q-2.85-.23-5.71-0.4v-1l0-26.69V46.89h6.32l1.59,1.83V49l0,23.94v1Zm-1.37-2.06,0.42,0,0-24.46h-3.17l0,24.26,2.63,0.18h0.13Z" transform="translate(-1.88 -4.58)"/>
  </g>
  <g>
    <path class="b" d="M44.43,90.22a0.93,0.93,0,0,1-1.13-1.1V86a0.94,0.94,0,0,1,1.17-1.12h2.27L47,86.28H45.23a0.21,0.21,0,0,0-.25.26v2c0,0.25,0,.3.32,0.3h1.83l-0.35,1.43H44.43Z" transform="translate(-1.88 -4.58)"/>
    <path class="b" d="M50.87,88.56v1.66H49.16V84.85h3.23A1,1,0,0,1,53.59,86v1.41a0.78,0.78,0,0,1-.78.86,0.55,0.55,0,0,1,.41.44l0.51,1.47H51.88L51.41,88.8a0.32,0.32,0,0,0-.32-0.24H50.87Zm0.61-1.22c0.38,0,.47-0.1.47-0.38V86.53a0.27,0.27,0,0,0-.3-0.32H50.84v1.13h0.64Z" transform="translate(-1.88 -4.58)"/>
    <path class="b" d="M55.47,90.22l1.32-5.37h2.36l1.33,5.37H58.77l-0.11-.58H57.31l-0.12.58H55.47Zm2.07-1.72h0.88L58,86.3Z" transform="translate(-1.88 -4.58)"/>
    <path class="b" d="M64.09,86.28V87H66v1.27H64.08v1.91H62.46V84.85H66l0.29,1.43H64.09Z" transform="translate(-1.88 -4.58)"/>
    <path class="b" d="M68.44,84.85H72.2l0.3,1.43H71.21v3.94H69.43V86.28H68.14Z" transform="translate(-1.88 -4.58)"/>
    <path class="b" d="M77.35,84.85h3.21a1,1,0,0,1,1.17,1.2v3a1,1,0,0,1-1.17,1.21H77.35V84.85Zm2.5,3.94c0.21,0,.25-0.05.25-0.26v-2c0-.21,0-0.26-0.26-0.26H79v2.51h0.87Z" transform="translate(-1.88 -4.58)"/>
    <path class="b" d="M83.95,84.85h1.65v5.37H83.95V84.85Z" transform="translate(-1.88 -4.58)"/>
    <path class="b" d="M88.17,90.22l-0.29-1.43h2.2c0.07,0,.1,0,0.1-0.11V88.31a0.1,0.1,0,0,0-.12-0.12H88.9a0.88,0.88,0,0,1-1.09-1.09V86A1,1,0,0,1,89,84.85h2.61l0.29,1.43H89.53c-0.07,0-.09,0-0.09.11v0.41a0.09,0.09,0,0,0,.11.12h1.27a0.89,0.89,0,0,1,1.1,1.1v1.06a0.94,0.94,0,0,1-1.15,1.13H88.17Z" transform="translate(-1.88 -4.58)"/>
    <path class="b" d="M94,84.85H97.8l0.3,1.43H96.81v3.94H95V86.28H93.75Z" transform="translate(-1.88 -4.58)"/>
    <path class="b" d="M100.13,84.85h1.65v5.37h-1.65V84.85Z" transform="translate(-1.88 -4.58)"/>
    <path class="b" d="M104,90.22V84.85h1.69v3.94h1.9l-0.35,1.43H104Z" transform="translate(-1.88 -4.58)"/>
    <path class="b" d="M109.61,90.22V84.85h1.69v3.94h1.9l-0.35,1.43h-3.23Z" transform="translate(-1.88 -4.58)"/>
    <path class="b" d="M116.84,86.28v0.65h1.87V88.2h-1.87v0.59H119l-0.35,1.43H115.2V84.85h3.54L119,86.28h-2.19Z" transform="translate(-1.88 -4.58)"/>
    <path class="b" d="M122.8,88.56v1.66h-1.71V84.85h3.23a1,1,0,0,1,1.19,1.2v1.41a0.78,0.78,0,0,1-.78.86,0.55,0.55,0,0,1,.41.44l0.51,1.47h-1.84l-0.48-1.42a0.32,0.32,0,0,0-.32-0.24H122.8Zm0.61-1.22c0.37,0,.47-0.1.47-0.38V86.53a0.27,0.27,0,0,0-.3-0.32h-0.82v1.13h0.64Z" transform="translate(-1.88 -4.58)"/>
    <path class="b" d="M129.22,84.85l0.65,2,0.58-2h2l-1.68,3.64v1.73h-1.82V88.49l-1.7-3.64h2Z" transform="translate(-1.88 -4.58)"/>
  </g>
  <path class="d" d="M22.26,103.25" transform="translate(-1.88 -4.58)"/>
  <g>
    <path class="b" d="M74.53,26.47a0.56,0.56,0,0,1-.42-0.14c-0.17-.17-1.61-2.56-1.61-2.56a1.7,1.7,0,0,0-.86-0.69,1.17,1.17,0,0,0-1,.86A15.26,15.26,0,0,0,70,28.18v0a15.26,15.26,0,0,0,.64,4.25,1.17,1.17,0,0,0,1,.86,1.7,1.7,0,0,0,.86-0.69s1.44-2.39,1.61-2.56a0.56,0.56,0,0,1,.42-0.14H76s3.21-.09,3.71,0a0.85,0.85,0,0,1,.64.49,3.23,3.23,0,0,1,.59.48,3.77,3.77,0,0,0,1,.52l1,0.67,0.19,0.56,0.33,0.67,0.15,0.44h0.44s4.74,0.07,5.52,0,0.69,0,.69,0l0.08,0,0.07-.59a0.76,0.76,0,0,1,.23-0.46,0.58,0.58,0,0,0,.25-0.33,2.72,2.72,0,0,1,.85-2.27,9.05,9.05,0,0,1,2.81-1.92,15,15,0,0,1,3.91-.54s3.5-.13,4.91-0.27a1.79,1.79,0,0,0,1.64-.86,3.12,3.12,0,0,0-2.19-.68l-9.57-.09-0.37-.12-0.6-.46L91.93,25,92,24.63A3.7,3.7,0,0,0,92,24.24a1.38,1.38,0,0,0-.8,0H90.43l-0.29.06L90,24.14,90,24.3l-0.26.05-0.26.23H88.9l-0.73,0-0.29-.16-0.09-.1L87.53,24H87.15L87,24.13,86.73,24l-0.3.48H85.7l-0.51-.22-0.33.2-0.89,0-1,.05-0.33-.22-0.21.4-0.49-.09-0.16-.45-0.21-.54-0.13.24-0.24.24-0.31.44-0.55.08L80,24.89,80,25.32,80,25.5,80,25.61,80,25.79l-0.7.06L79,26,78.47,26l-1,.13-0.63.09-0.4,0-0.35,0-0.18-.1H75.32l-0.11.19-0.12-.25L75,26.34l-0.05-.08-0.09.15-0.23-.09Z" transform="translate(-1.88 -4.58)"/>
    <polygon class="b" points="81.84 32.11 82.08 30.63 82.71 30.08 83.9 29.93 82.59 30.77 81.84 32.11"/>
    <polygon class="b" points="88.26 30.22 88.26 33.16 87.82 36.2 88 33.31 88.07 31.84 87.8 32.48 87.43 32.03 87.57 31.47 87.57 29.84 88.26 30.22"/>
    <polygon class="b" points="81.96 32.11 82.71 31.58 83.49 31.01 84.3 30.57 85.48 30.4 84.1 30.97 82.3 32.19 81.96 32.11"/>
    <polygon class="b" points="82.06 33.54 83.2 32.56 84.46 32.19 86.62 31.3 87.19 31.3 85.72 31.99 84.02 32.76 83.43 32.94 82.17 35.06 82.06 33.54"/>
    <polygon class="b" points="87.39 32.36 85.54 32.96 84.28 33.36 82.29 34.58 81.96 35.05 82.41 35.45 84.63 33.54 85 33.33 87.39 32.36"/>
    <polygon class="b" points="86.63 30.36 84.79 31.3 84.79 31.62 85.72 31.09 86.21 31.09 86.63 30.36"/>
    <polygon class="b" points="87.19 32.42 85.16 33.09 83.77 33.9 83.2 34.47 82.06 35.77 83.41 34.72 84.63 33.74 86.5 33.09 87.43 33.18 87.19 32.42"/>
    <polygon class="b" points="87.19 31.3 86.98 34.43 86.98 36.73 87.88 36.2 87.68 34.09 87.92 32.42 87.72 31.62 87.43 30.73 87.19 31.3"/>
    <polygon class="b" points="81.62 32.19 81.62 31.91 81.57 30.57 82.12 30.94 82.3 32.19 82.55 34.09 82.55 35.77 82.55 36.75 81.79 36.52 81.62 35 81.62 33.74 81.62 32.19"/>
    <polygon class="b" points="81.73 30.29 82.62 30.23 82.3 31.62 83 30.73 84.14 30 84.55 29.91 85.04 29.84 86.45 29.93 87.29 29.91 86.09 30.3 84.88 30.17 84.35 30.47 83.77 30.57 83.04 31.09 82.06 32.19 82.08 30.89 81.73 30.29"/>
    <polygon class="b" points="81.62 36.42 82.27 35.65 82.55 36.42 84.32 35.65 85.11 35.04 85.94 34.45 87.43 32.86 86.07 35.1 85.28 35.77 83.77 36.18 82.55 36.75 82.08 36.22 81.62 36.42"/>
    <polygon class="b" points="82.65 36.81 83.55 36.88 84.92 36.88 85.99 36.47 87.5 36.37 87.82 35.59 86.33 35.84 85.39 36.1 86.87 34.76 87.82 34.01 87.14 33.69 84.04 35.9 82.65 36.81"/>
    <polygon class="b" points="82.3 35.74 83.02 35.13 83.42 34.84 83.95 34.28 84.36 33.87 83.64 34.91 82.3 35.74"/>
    <polygon class="b" points="87.33 30 86.85 30.32 86.45 31.06 87.01 30.71 86.8 31.13 87.08 30.9 87.19 31.3 87.52 30.04 87.33 30"/>
    <polygon class="b" points="86.35 26.24 86.35 25.82 86.35 25.48 85.84 25.63 86.19 25.23 86.6 25.02 87.43 24.21 86.9 25.29 86.74 25.69 87.53 25.49 86.69 26 86.35 26.24"/>
    <polygon points="86.36 25.58 86.6 25.02 87.35 24.5 87.89 24.21 87.16 24.93 86.36 25.58"/>
    <polygon points="85.22 23.56 85.36 24.16 85.08 25.02 84.82 25.57 84.97 24.56 85.22 23.56"/>
    <polygon points="86.69 25.98 87.3 25.39 87.56 24.73 87.49 24.1 87.05 25.02 86.69 25.98"/>
    <polygon points="84.3 24.05 84.3 25.17 84.53 26.56 84.5 25.28 84.44 24.16 84.65 24.65 84.56 24.08 84.82 23.89 84.82 22.65 84.3 24.05"/>
    <polygon class="b" points="99.65 21.1 98.13 21.22 97.69 21.48 98.49 21.56 99.58 21.27 99.14 21.57 99.68 21.36 99.92 21.58 100.44 21.37 101.36 21.22 99.65 21.1"/>
    <path d="M87.42,28.69l-0.09-.85,0.13,0.26,0.06-.44L87.39,27a1.61,1.61,0,0,1,.26.82A4.76,4.76,0,0,0,87.42,28.69Z" transform="translate(-1.88 -4.58)"/>
    <polygon points="86.12 26.8 86.36 26.27 87.41 24.17 87.06 24.95 86.36 25.48 85.63 25.68 86.12 25.12 86.72 24.69 87.9 23.65 87.14 25.2 86.91 25.78 88.05 25.49 86.79 26.05 86.12 26.8"/>
    <polygon points="85.84 24.81 86.36 23.71 87.14 23.03 88.03 22.84 86.72 23.56 86.2 24.33 87.14 23.43 87.59 23.28 86.98 23.87 85.84 24.81"/>
  </g>
  <polygon points="76.77 22.57 77.02 22.39 77.33 21.74 76.9 22.23 76.97 21.78 76.78 22.08 76.56 21.98 76.33 22.91 76.77 22.57"/>
  <polygon class="b" points="86.74 30.11 87.37 30.07 87.59 29.71 87.02 30.04 87.24 29.63 86.96 29.86 86.79 29.69 86.16 30.06 86.74 30.11"/>
  <polygon class="b" points="83.06 30.06 83.69 30.01 83.92 29.66 83.35 29.98 83.56 29.58 83.28 29.8 83.11 29.63 82.94 29.93 83.06 30.06"/>
  <polygon class="b" points="87.24 29.15 87.27 28.92 86.16 29.52 86.06 29.73 86.42 29.57 86.39 29.73 86.76 29.42 87.08 29.43 87.24 29.15"/>
  <g>
    <g>
      <path class="b" d="M63.77,102.29a0.24,0.24,0,0,1-.18.07H61.85a0.19,0.19,0,0,1-.18-0.08l-0.39-.4a0.21,0.21,0,0,1-.07-0.16V101a0.1,0.1,0,0,1,.09-0.1h0.62a0.1,0.1,0,0,1,.09.1v0.51h1.21l0,0,0.12-.11a0.05,0.05,0,0,0,0,0v-0.83a0.08,0.08,0,0,0,0,0l-0.11-.11,0,0H61.83a0.23,0.23,0,0,1-.16-0.08l-0.39-.4a0.25,0.25,0,0,1-.07-0.18V98a0.27,0.27,0,0,1,.07-0.19l0.38-.4a0.19,0.19,0,0,1,.18-0.07H63.6a0.26,0.26,0,0,1,.18.07l0.38,0.4a0.23,0.23,0,0,1,.07.19v0.75a0.09,0.09,0,0,1-.1.1H63.51a0.09,0.09,0,0,1-.09-0.1V98.25H62.22l-0.05,0-0.12.11a0.05,0.05,0,0,0,0,0v0.83a0.08,0.08,0,0,0,0,0l0.12,0.12,0.05,0H63.6a0.24,0.24,0,0,1,.18.07l0.38,0.4a0.27,0.27,0,0,1,.07.19v1.6a0.28,0.28,0,0,1-.07.19Z" transform="translate(-1.88 -4.58)"/>
      <path class="b" d="M67,102.36a0.1,0.1,0,0,1-.09-0.1V97.49a0.1,0.1,0,0,1,.09-0.1h2.15a0.21,0.21,0,0,1,.18.07l0.38,0.4a0.25,0.25,0,0,1,.07.19v1.83a0.24,0.24,0,0,1-.07.19l-0.38.4a0.23,0.23,0,0,1-.18.08H67.76v1.72a0.1,0.1,0,0,1-.09.1H67Zm2-2.82a0,0,0,0,0,0,0v-1.1a0,0,0,0,0,0,0l-0.12-.12H67.76v1.43h1.12Z" transform="translate(-1.88 -4.58)"/>
      <path class="b" d="M75,102.29a0.3,0.3,0,0,1-.23.07H73.08a0.22,0.22,0,0,1-.16-0.07l-0.39-.41a0.24,0.24,0,0,1-.07-0.16V98a0.25,0.25,0,0,1,.07-0.17l0.39-.4a0.2,0.2,0,0,1,.18-0.07h1.75a0.23,0.23,0,0,1,.18.07l0.38,0.4a0.27,0.27,0,0,1,.07.19v3.66a0.23,0.23,0,0,1-.07.19Zm-0.38-.88a0.07,0.07,0,0,0,0,0V98.43a0.06,0.06,0,0,0,0,0l-0.12-.11,0,0h-1l0,0-0.12.11a0.06,0.06,0,0,0,0,0v2.93a0.07,0.07,0,0,0,0,0l0.1,0.1h1.15Z" transform="translate(-1.88 -4.58)"/>
      <path class="b" d="M80.52,102.36a0.16,0.16,0,0,1-.13-0.1l-0.9-2.13-0.46.68v1.45a0.1,0.1,0,0,1-.09.1H78.31a0.1,0.1,0,0,1-.09-0.1V97.49a0.1,0.1,0,0,1,.09-0.1h0.62a0.1,0.1,0,0,1,.09.1v1.84l1.19-1.84a0.16,0.16,0,0,1,.12-0.1h0.84c0.09,0,.16.06,0.1,0.13L80,99.36l1.28,2.84c0,0.09,0,.16-0.07.16H80.52Z" transform="translate(-1.88 -4.58)"/>
      <path class="b" d="M86.45,102.36a0.15,0.15,0,0,1-.13-0.11l-0.26-1H84.55l-0.26,1a0.16,0.16,0,0,1-.13.11H83.56a0.1,0.1,0,0,1-.1-0.11l1.34-4.77a0.13,0.13,0,0,1,.09-0.11h0.8a0.11,0.11,0,0,1,.1.1l1.33,4.77a0.09,0.09,0,0,1-.1.11H86.45ZM85.3,98.62l-0.51,1.82h1Z" transform="translate(-1.88 -4.58)"/>
      <path class="b" d="M91.72,102.36a0.16,0.16,0,0,1-.13-0.1l-1.19-3.08v3.08a0.1,0.1,0,0,1-.09.1H89.69a0.09,0.09,0,0,1-.09-0.1V97.49a0.09,0.09,0,0,1,.09-0.1h0.83a0.11,0.11,0,0,1,.1.1l1,2.86,0,0.2V97.49a0.1,0.1,0,0,1,.09-0.1h0.62a0.1,0.1,0,0,1,.09.1v4.77a0.1,0.1,0,0,1-.09.1H91.72Z" transform="translate(-1.88 -4.58)"/>
      <path class="b" d="M95.38,102.36a0.09,0.09,0,0,1-.09-0.1V97.49a0.09,0.09,0,0,1,.09-0.1h2.46a0.09,0.09,0,0,1,.09.1v0.66a0.1,0.1,0,0,1-.09.1H96.1v1.21h1.38a0.1,0.1,0,0,1,.1.1v0.66a0.1,0.1,0,0,1-.1.1H96.1v1.2h1.74a0.1,0.1,0,0,1,.09.1v0.66a0.09,0.09,0,0,1-.09.1H95.38Z" transform="translate(-1.88 -4.58)"/>
      <path class="b" d="M100.59,103.08a0.08,0.08,0,0,1-.12-0.06v-1.5a0.1,0.1,0,0,1,.09-0.1h0.62a0.1,0.1,0,0,1,.1.1v1.11a0.12,0.12,0,0,1-.1.12Z" transform="translate(-1.88 -4.58)"/>
      <path class="b" d="M108.24,102.36a0.1,0.1,0,0,1-.1-0.1l-0.73-2.21-0.72,2.21a0.1,0.1,0,0,1-.09.1h-0.67a0.11,0.11,0,0,1-.09-0.1l-0.36-4.77a0.1,0.1,0,0,1,.09-0.1h0.62a0.1,0.1,0,0,1,.1.1l0.19,3L107,99a0.14,0.14,0,0,1,.12-0.1h0.54a0.15,0.15,0,0,1,.13.1l0.54,1.48,0.19-3a0.09,0.09,0,0,1,.09-0.1h0.62a0.1,0.1,0,0,1,.09.1L109,102.26a0.1,0.1,0,0,1-.09.1h-0.66Z" transform="translate(-1.88 -4.58)"/>
      <path class="b" d="M114.47,102.36a0.15,0.15,0,0,1-.13-0.11l-0.26-1h-1.51l-0.26,1a0.15,0.15,0,0,1-.13.11h-0.59a0.1,0.1,0,0,1-.1-0.11l1.34-4.77a0.13,0.13,0,0,1,.09-0.11h0.8a0.11,0.11,0,0,1,.1.1l1.33,4.77a0.09,0.09,0,0,1-.1.11h-0.59Zm-1.15-3.75-0.51,1.82h1Z" transform="translate(-1.88 -4.58)"/>
    </g>
    <path class="e" d="M121.12,100.52l-0.59-.59V99.8l0.59-.59h0.13l0.59,0.59v0.13l-0.59.59h-0.13Z" transform="translate(-1.88 -4.58)"/>
    <path class="e" d="M55.56,100.52L55,99.93V99.8l0.59-.59h0.13l0.59,0.59v0.13l-0.59.59H55.56Z" transform="translate(-1.88 -4.58)"/>
  </g>
</svg>
