<svg xmlns="http://www.w3.org/2000/svg" width="170" height="123" viewBox="-1 5 170 123">
<style type="text/css">
	.st0{fill:#ededed;}
</style>
<title>logo-LRWCo</title>
<g>
	<path class="st0" d="M1.7,62.5h1.8V52.1H1.7v-2.1H9v2.1H6.6v10.4h4.8v-3h2.7v5.2H1.7V62.5z"/>
	<path class="st0" d="M22.8,63.1L22.8,63.1c-1,1.4-1.9,1.8-3.5,1.8c-2,0-3.7-1.1-3.7-3.4c0-3.5,3.5-3.5,6.1-3.5h1.1v-0.8
		c0-1.2-0.9-1.6-2-1.6c-1.2,0-1.9,0.5-2,1.7H16c0.2-3,2.7-3.5,5.1-3.5c3.4,0,4.5,1.4,4.5,4.6v4.2h1.3v2h-4.1L22.8,63.1L22.8,63.1z
		 M21.3,59.8c-1.5,0-2.9,0.2-2.9,1.7c0,1,0.7,1.5,1.6,1.5c1.8,0,2.8-1.3,2.7-3.1L21.3,59.8L21.3,59.8z"/>
	<path class="st0" d="M27.8,62.6h1.5v-11h-1.5v-2h4.5v9l3.1-2.4v0H34v-2h6v2h-1.1L36.3,58l3,4.6h1.2v2h-5.7v-2H36l-1.9-2.9l-1.9,1.5
		v1.4h1.2v2h-5.7V62.6z"/>
	<path class="st0" d="M45,60.2c0,1.7,1,2.7,2.6,2.7c1,0,1.8-0.4,2.1-1.6h2.8c-0.5,2.5-2.6,3.6-5,3.6c-3.7,0-5.6-2.2-5.6-5.7
		c0-3.3,2.2-5.4,5.6-5.4c2.5,0,4.6,1.5,5,4c0.1,0.8,0.2,1.6,0.1,2.4H45z M49.7,58.3c0-1.5-0.8-2.5-2.3-2.5c-1.5,0-2.3,1.1-2.3,2.5
		H49.7z"/>
	<path class="st0" d="M60.4,62.5h2V52.1h-2v-2.1h8.4c2.6,0,5.1,0.4,5.1,4.2c0,2-1.5,3.3-3.4,3.4v0c2,0.1,2.5,1.6,3,3.2l0.5,1.8h1.5
		v2.1h-4l-1.2-4.1c-0.3-1.2-0.8-2-2.4-2h-2.3v4h1.8v2.1h-7V62.5z M65.6,56.4h2.4c1.3,0,3-0.4,3-2.2c0-1.8-1.2-2.1-2.5-2.1h-2.8V56.4
		z"/>
	<path class="st0" d="M87.9,59.4c0,3.5-2.3,5.6-5.6,5.6c-3.3,0-5.6-2.1-5.6-5.6s2.3-5.6,5.6-5.6C85.6,53.8,87.9,55.9,87.9,59.4z
		 M82.3,62.8c1.9,0,2.5-1.8,2.5-3.4c0-1.7-0.6-3.4-2.5-3.4s-2.5,1.8-2.5,3.4S80.4,62.8,82.3,62.8z"/>
	<path class="st0" d="M100.4,59.4c0,3.5-2.3,5.6-5.6,5.6c-3.3,0-5.6-2.1-5.6-5.6s2.3-5.6,5.6-5.6C98.1,53.8,100.4,55.9,100.4,59.4z
		 M94.8,62.8c1.9,0,2.5-1.8,2.5-3.4c0-1.7-0.6-3.4-2.5-3.4s-2.5,1.8-2.5,3.4S92.9,62.8,94.8,62.8z"/>
	<path class="st0" d="M102.1,60.9h2.4c0,1.3,1,2,2.2,2c0.7,0,1.6-0.2,1.6-1.2c0-2.2-6.2,0-6.2-4.7c0-2.2,1.9-3.2,3.8-3.2
		c1.2,0,2.1,0.3,2.8,1.4h0v-1.1h2.2v3.5h-2.4c0-1.2-0.8-1.8-1.9-1.8c-0.6,0-1.6,0.1-1.6,1.1c0,2.1,6.2,0,6.2,4.6
		c0,1.9-1.5,3.4-3.8,3.4c-1.6,0-2.5-0.6-3.1-1.5h0v1.1h-2.2L102.1,60.9L102.1,60.9z"/>
	<path class="st0" d="M116.3,60.2c0,1.7,1,2.7,2.6,2.7c1,0,1.8-0.4,2.1-1.6h2.8c-0.5,2.5-2.6,3.6-5,3.6c-3.7,0-5.6-2.2-5.6-5.7
		c0-3.3,2.2-5.4,5.6-5.4c2.5,0,4.6,1.5,5,4c0.1,0.8,0.2,1.6,0.1,2.4H116.3z M120.9,58.3c0-1.5-0.8-2.5-2.3-2.5
		c-1.5,0-2.3,1.1-2.3,2.5H120.9z"/>
	<path class="st0" d="M138.2,56.2H137l-3.6,8.5h-3.6l-3.6-8.5h-1.1v-2h5.9v2h-1.6l2.3,6l2.3-6h-1.6v-2h5.6V56.2z"/>
	<path class="st0" d="M142.5,60.2c0,1.7,1,2.7,2.6,2.7c1,0,1.8-0.4,2.1-1.6h2.8c-0.5,2.5-2.6,3.6-5,3.6c-3.7,0-5.6-2.2-5.6-5.7
		c0-3.3,2.2-5.4,5.6-5.4c2.5,0,4.6,1.5,5,4c0.1,0.8,0.2,1.6,0.1,2.4H142.5z M147.2,58.3c0-1.5-0.8-2.5-2.3-2.5
		c-1.5,0-2.3,1.1-2.3,2.5H147.2z"/>
	<path class="st0" d="M151.8,62.6h1.5v-11h-1.5v-2h4.5v13h1.5v2h-5.9V62.6z"/>
	<path class="st0" d="M166.2,56.2h-2.8v5.1c0,0.8,0,1.6,0.9,1.6s0.9-1.1,0.9-1.6h1.8c0.1,2.4-0.8,3.7-3.3,3.7c-2,0-3.3-1.5-3.3-3
		v-5.8h-1.7v-2h1.7v-2l3-1.1v3.1h2.8V56.2z"/>
	<path class="st0" d="M23,70h-1l-3.1,12.6h-3.9l-2.8-11.6h0L9.4,82.5H5.5L2.5,70h-1v-2.1h6.1V70h-2l1.9,9.3h0l2.9-11.4h4l2.7,11.4h0
		l2.1-9.3h-2v-2.1H23C23,67.8,23,70,23,70z"/>
	<path class="st0" d="M23.9,80.5h1.5V74h-1.5v-2h4.5v8.5h1.5v2h-5.9V80.5z M28.3,70.5h-3.1v-3h3.1L28.3,70.5L28.3,70.5z"/>
	<path class="st0" d="M31.6,80.5h1.5V74h-1.5v-2h4.2v1.8h0c0.7-1.3,2.1-2.1,3.6-2.1c2.8,0,3.8,1.5,3.8,4.1v4.7h1.5v2h-5.8v-2h1.3V76
		c0-1.1-0.6-2.1-1.8-2.1c-1.6,0-2.3,1.5-2.3,2.8v3.8h1.3v2h-5.8L31.6,80.5L31.6,80.5z"/>
	<path class="st0" d="M49.6,78.1c0,1.7,1,2.7,2.6,2.7c1,0,1.8-0.4,2.1-1.6h2.8c-0.5,2.5-2.6,3.6-5,3.6c-3.7,0-5.6-2.2-5.6-5.7
		c0-3.3,2.2-5.4,5.6-5.4c2.5,0,4.6,1.5,5,4c0.1,0.8,0.2,1.6,0.1,2.4H49.6z M54.3,76.2c0-1.5-0.8-2.5-2.3-2.5c-1.5,0-2.3,1.1-2.3,2.5
		H54.3z"/>
	<path class="st0" d="M79.4,73.3h-2.8c0-2.2-1.5-3.6-3.7-3.6c-3.3,0-4.3,3-4.3,5.9c0,2.8,1.4,5.2,4.5,5.2c1.8,0,3.3-1.4,3.4-3.2
		c0,0,0,0,0-0.1h3c-0.1,4.1-3.6,5.4-6.5,5.4c-5.2,0-7.7-3.3-7.7-7.6c0-4.5,2.3-7.8,7-7.8c1.8,0,3.2,0.5,4.2,2l0,0v-1.7h2.8
		L79.4,73.3L79.4,73.3z"/>
	<path class="st0" d="M92.5,77.3c0,3.5-2.3,5.6-5.6,5.6c-3.3,0-5.6-2.1-5.6-5.6s2.3-5.6,5.6-5.6C90.2,71.7,92.5,73.8,92.5,77.3z
		 M86.9,80.7c1.9,0,2.5-1.8,2.5-3.4c0-1.7-0.6-3.4-2.5-3.4s-2.5,1.8-2.5,3.4C84.3,78.9,84.9,80.7,86.9,80.7L86.9,80.7z"/>
	<path class="st0" d="M93.7,80.5h1.5V74h-1.5v-2h4.2v1.8h0c0.7-1.3,2.1-2.1,3.6-2.1c1.6,0,2.7,0.5,3.5,2c0.7-1.3,1.9-2,3.4-2
		c2.3,0,3.9,1,4,3.4v5.4h1.5v2H108v-2h1.3V76c0-1.1-0.4-2.1-1.8-2.1c-1.6,0-2.3,1.3-2.3,2.7v4h1.3v2h-5.7v-2h1.4V76
		c0-1.1-0.6-2.1-1.8-2.1c-1.6,0-2.3,1.5-2.3,2.8v3.8h1.3v2h-5.8L93.7,80.5L93.7,80.5z"/>
	<path class="st0" d="M115,84.3h1.5V74H115v-2h4.2v1.9h0c0.9-1.5,2-2.2,3.5-2.2c2.7,0,4.7,1.9,4.7,5.7c0,2.8-1.5,5.4-4.5,5.4
		c-1.6,0-2.5-0.4-3.4-1.8h0v3.3h1.6v2H115V84.3L115,84.3z M124.4,77.3c0-1.7-0.6-3.4-2.5-3.4c-1.8,0-2.6,1.6-2.6,3.3
		c0,2.2,0.6,3.6,2.9,3.6C123.4,80.7,124.4,79.6,124.4,77.3L124.4,77.3z"/>
	<path class="st0" d="M136.1,81L136.1,81c-1,1.4-1.9,1.8-3.5,1.8c-2,0-3.7-1.1-3.7-3.4c0-3.5,3.5-3.6,6.1-3.6h1.1v-0.8
		c0-1.2-0.9-1.6-2-1.6c-1.2,0-1.9,0.5-2,1.7h-2.8c0.2-3,2.7-3.5,5.1-3.5c3.4,0,4.5,1.4,4.5,4.6v4.2h1.3v2h-4.1L136.1,81L136.1,81z
		 M134.6,77.7c-1.5,0-2.9,0.2-2.9,1.7c0,1,0.7,1.5,1.6,1.5c1.8,0,2.8-1.3,2.7-3.1L134.6,77.7L134.6,77.7z"/>
	<path class="st0" d="M141.6,80.5h1.5V74h-1.5v-2h4.2v1.8h0c0.7-1.3,2.1-2.1,3.6-2.1c2.8,0,3.8,1.5,3.8,4.1v4.7h1.5v2h-5.8v-2h1.3
		V76c0-1.1-0.6-2.1-1.8-2.1c-1.6,0-2.3,1.5-2.3,2.8v3.8h1.3v2h-5.8L141.6,80.5L141.6,80.5z"/>
	<path class="st0" d="M169,74h-1l-5,10.2c-0.8,1.7-1.6,2.4-3.6,2.4c-0.6,0-1.1-0.1-1.7-0.2v-2.1c0.5,0.1,1,0.1,1.6,0.2
		c0.9,0,1.4-0.9,1.7-1.9L157,74h-1v-2h5.9v2h-1.6l2.3,5.4L165,74h-1.6v-2h5.6C169,72,169,74,169,74z"/>
</g>
</svg>
