<svg xmlns="http://www.w3.org/2000/svg" width="170" height="123" viewBox="-1 -5 170 123">
<style type="text/css">
	.st0{fill:#7DC142;}
	.st1{fill:#EDEDED;}
</style>
<title>logo-Limelyte</title>
<g>
	<path class="st0" d="M93.1,82.3c0.1,0.8,0.6,1.6,1.3,2c0.9,0.6,2,0.9,3.1,0.8c0.4,0,0.7,0,1.1-0.1v3c-0.4,0-0.7,0-1.1,0
		c-2.1,0-4.2-0.5-6.1-1.5c-1.5-0.7-2.5-2.1-2.8-3.8c0,0,0-0.4,0-0.9l-0.1-28.9h4.3L93.1,82.3z"/>
	<path class="st0" d="M100.3,52.8h4.4v19.3c0,0.9,0.5,1.7,1.3,2.1c1,0.6,2,0.9,3.2,0.8c1.1,0,2.2-0.3,3.1-0.8
		c0.8-0.4,1.3-1.2,1.3-2.1V52.8h4.4v19.9c-0.2,1.3-1,2.5-2.1,3.3c-1.3,1-2.9,1.6-4.5,1.9v10.3H107V77.8c-1.8-0.2-3.5-0.9-4.9-2
		c-1.2-0.9-1.9-2.2-1.9-3.7c0-0.2,0-0.4,0.1-0.7C100.3,71.4,100.3,52.8,100.3,52.8z"/>
	<polygon class="st0" points="122.7,53 140.7,53 140.7,55.9 133.6,55.9 133.6,88.1 129.2,88.1 129.2,55.9 122.7,55.9 	"/>
	<path class="st0" d="M153.6,88.1c-1.1,0-2.2-0.1-3.2-0.4c-0.9-0.2-1.8-0.6-2.7-1.1c-0.7-0.4-1.4-1-1.9-1.6s-0.8-1.3-1-2v-0.1
		c-0.1-0.2-0.1-0.8-0.1-1.1V59.2c0-0.3,0-0.5,0-0.8l0-0.1c0.3-1.7,1.4-3.1,2.9-3.8c1.8-1.1,3.9-1.6,6-1.5c2.3-0.1,4.5,0.5,6.4,1.7
		c1.5,0.8,2.5,2.4,2.6,4.1c0,0.2,0,0.4-0.1,0.7v11c-0.1,1.3-0.6,2.5-1.6,3.3c-1.1,1-2.5,1.7-4,2.1l-7.7,2.6v3.9c0,0.9,0.5,1.6,1.3,2
		c0.9,0.6,2,0.9,3.1,0.8c1.1,0,2.2-0.3,3.1-0.8c0.7-0.4,1.2-1.2,1.3-2h0.1v-0.1h4.4l0,0c-0.1,1.7-1,3.3-2.6,4.1
		c-1.8,1.2-3.9,1.8-6,1.8L153.6,88.1L153.6,88.1z M149.2,75.2l0.7-0.2l0,0l6-2c1.4-0.6,2.1-1.4,2.1-2.4l0,0h0.1V58.8H158
		c-0.1-0.8-0.5-1.6-1.3-2c-0.9-0.6-2-0.9-3.1-0.9s-2.2,0.3-3.1,0.9c-0.8,0.4-1.3,1.2-1.3,2L149.2,75.2L149.2,75.2z"/>
</g>
<path class="st1" d="M2.4,82.8c0.3,1.7,1.4,3.1,2.9,3.9c1.9,1,4,1.6,6.1,1.6c0.4,0,0.7,0,1.1,0h0.1V85h-0.1c-0.3,0.1-0.7,0.1-1,0.1
	c-1.1,0-2.1-0.3-3-0.8c-0.7-0.4-1.2-1.1-1.3-1.9L6.8,52.9v-0.1H2.3l0.1,29.1C2.3,82.4,2.4,82.8,2.4,82.8z"/>
<path class="st1" d="M54.1,58.9v29.2h4.5v-1.4c0-0.9,0-2.1,0-3.8v-24c0-1.6-0.9-3-2.6-4.1c-1.9-1.2-4.1-1.8-6.3-1.7
	c-2.4-0.1-4.7,0.6-6.7,2c-2-1.4-4.3-2.1-6.7-2c-2.2-0.1-4.4,0.5-6.3,1.7c-1.6,0.8-2.6,2.4-2.6,4.1c0,0.1,0,0.3,0.1,0.4v22.3
	c-0.1,0.2-0.1,0.4-0.1,0.7c0,1.8,0,3.1,0,4c0,0.6,0,1.1,0.1,1.7h4.4V58.9c0-0.9,0.5-1.6,1.3-2c0.9-0.6,2-0.9,3.1-0.8
	c1.1,0,2.1,0.3,3,0.8c0.8,0.4,1.3,1.1,1.3,2v22.9c0,0.2,0,0.4,0,0.7v1.9c0,0.7,0,1.5,0,2.4v1.4h4.6V58.9c0-0.9,0.5-1.6,1.3-2
	c0.9-0.6,2-0.9,3.1-0.8c1.1,0,2.2,0.3,3.1,0.8C53.5,57.3,54.1,58,54.1,58.9z"/>
<rect x="16" y="57.9" class="st1" width="4.7" height="30.4"/>
<path class="st1" d="M79.3,54.6L79.3,54.6c-1.9-1.2-4.1-1.8-6.4-1.7c-2.1-0.1-4.3,0.5-6.1,1.6c-1.8,1.1-2.8,2.4-3,3.9v0.1
	c0,0.1,0,0.2,0,0.3c0,0,0,0,0,0.1c0,0,0,0,0,0.1s0,0.2,0,0.3v22.5c0,0.1,0,0.2,0,0.3c0,0.1,0,0.1,0,0.2c0,0.2,0,0.4,0.1,0.6V83
	c0.1,0.8,0.5,1.5,1,2.1c0.6,0.7,1.2,1.2,2,1.7c0.9,0.5,1.8,0.9,2.7,1.1c1.1,0.3,2.2,0.4,3.3,0.4h0.5c2.1,0,4.2-0.6,6-1.8
	c1.5-0.9,2.5-2.4,2.6-4.2v-0.2h-4.8v0.1h-0.1v0.2c0,0.8-0.5,1.5-1.2,1.9c-0.9,0.6-1.9,0.8-3,0.8s-2.1-0.3-3.1-0.8
	c-0.7-0.4-1.2-1.1-1.2-1.9v-3.8l7.6-2.5c1.5-0.4,2.9-1.1,4-2.1c1-0.9,1.6-2.1,1.7-3.4v-11c0-0.2,0-0.5,0-0.7
	C81.9,57,80.9,55.4,79.3,54.6z M69.1,74.8L69.1,74.8L68.6,75V58.8c0.1-0.8,0.5-1.5,1.2-1.9c0.9-0.6,2-0.9,3.1-0.8
	c1.1,0,2.1,0.2,3.1,0.8c0.7,0.4,1.2,1.1,1.2,1.9V59h0.1v11.3h-0.1v0.2c0,1-0.7,1.7-2,2.3L69.1,74.8z"/>
<rect x="15.8" y="52.5" class="st1" width="5.3" height="3.9"/>
<polygon class="st1" points="0,95.2 1.8,95.2 1.8,101.2 3.8,101.2 3.8,95.2 5.6,95.2 5.8,93.6 0,93.6 "/>
<polygon class="st1" points="10.3,98 12.2,98 12.2,96.5 10.3,96.5 10.3,95.2 12.6,95.2 12.8,93.6 8.3,93.6 8.3,101.2 12.9,101.2
	12.9,99.6 10.3,99.6 "/>
<path class="st1" d="M18.7,99.8c-0.4,0-0.8-0.2-1-0.5c-0.3-0.4-0.4-1-0.4-2.2c-0.1-0.6,0.1-1.2,0.5-1.7c0.2-0.2,0.5-0.3,0.9-0.3
	s0.8,0.1,1.1,0.4l0.8-1.5c-0.6-0.4-1.3-0.6-2-0.6c-1.3-0.1-2.5,0.6-3.1,1.8c-0.4,0.7-0.6,1.6-0.5,2.4c-0.1,1,0.3,2,0.9,2.8
	c0.6,0.7,1.6,1.1,2.5,1.1c0.9,0.1,1.7-0.2,2.4-0.8L20,99.3C19.7,99.6,19.2,99.8,18.7,99.8z"/>
<polygon class="st1" points="26.9,96.4 25.4,96.4 25.4,93.6 23.4,93.6 23.4,101.2 25.4,101.2 25.4,98 26.9,98 26.9,101.2
	28.9,101.2 28.9,93.6 26.9,93.6 "/>
<path class="st1" d="M36.2,95.9c0,0.5,0,1.3,0.1,1.7c-0.2-0.5-0.4-1-0.6-1.5l-1.4-2.6h-1.9v7.7h1.9V99c0-0.7,0-1.3-0.1-2
	c0.2,0.5,0.4,1,0.6,1.4l1.4,2.7h2v-7.7h-1.8v2.5H36.2z"/>
<path class="st1" d="M44.5,93.4c-2,0-3.5,1.4-3.5,4.2c0,2.3,1.2,3.8,3.5,3.8c2.8,0,3.5-2.1,3.5-4.3C47.8,95.4,47.1,93.4,44.5,93.4z
	 M44.5,99.8c-0.8,0-1.3-0.5-1.3-2.4c0-1.5,0.4-2.4,1.3-2.4s1.2,0.5,1.2,2.4S45.3,99.8,44.5,99.8L44.5,99.8z"/>
<polygon class="st1" points="52.7,93.6 50.7,93.6 50.7,101.2 54.9,101.2 55.3,99.6 52.7,99.6 "/>
<path class="st1" d="M60.6,93.4c-2,0-3.5,1.4-3.5,4.2c0,2.3,1.2,3.8,3.5,3.8c2.8,0,3.5-2.1,3.5-4.3C64,95.4,63.3,93.4,60.6,93.4z
	 M60.6,99.8c-0.8,0-1.3-0.5-1.3-2.4c0-1.5,0.4-2.4,1.3-2.4c0.9,0,1.2,0.5,1.2,2.4S61.5,99.8,60.6,99.8L60.6,99.8z"/>
<path class="st1" d="M70,95c0.6,0,1.1,0.2,1.6,0.6l1.1-1.2c-0.7-0.6-1.7-1-2.7-1c-0.6,0-1.2,0.1-1.8,0.4c-2,1.4-2.5,4.2-1.2,6.2
	c0.6,0.9,1.7,1.4,2.8,1.3c1,0,1.9-0.2,2.8-0.8v-3.8h-3.1l0.2,1.6h0.9v1.2c-0.2,0.1-0.5,0.1-0.7,0.1c-0.9,0-1.4-0.8-1.4-2.3
	C68.6,95.8,69,95,70,95z"/>
<path class="st1" d="M78.3,95.2c-0.1,0.3-0.3,0.7-0.4,1c-0.2-0.5-0.2-0.7-0.4-1.1l-0.7-1.6h-2.4l2.4,4.5v3.2h2V98l2.5-4.4H79
	L78.3,95.2z"/>
<path class="st1" d="M90.9,95c0.6,0,1.1,0.2,1.6,0.6l1.1-1.2c-0.7-0.6-1.7-1-2.7-1c-0.6,0-1.2,0.1-1.8,0.4c-2,1.4-2.5,4.2-1.2,6.2
	c0.6,0.9,1.7,1.4,2.8,1.3c1,0,1.9-0.2,2.8-0.8v-3.8h-3.1l0.2,1.6h0.9v1.2c-0.2,0.1-0.5,0.1-0.7,0.1c-0.9,0-1.4-0.8-1.4-2.3
	C89.4,95.8,89.8,95,90.9,95z"/>
<path class="st1" d="M100.6,97.9c1-0.2,1.7-1.1,1.6-2.2c0-1.3-0.7-2.2-3-2.2h-2.6v7.7h2v-3c0.4,0,0.6,0.1,0.9,0.9l0.8,2.2h2.3
	c-0.2-0.6-0.9-2-1.2-2.5C101.2,98.4,100.9,98.1,100.6,97.9z M99.1,96.8h-0.6v-1.6h0.6c0.6,0,0.9,0.2,0.9,0.7c0,0.4-0.3,0.8-0.7,0.8
	C99.2,96.8,99.1,96.8,99.1,96.8L99.1,96.8z"/>
<path class="st1" d="M108.2,93.4c-2,0-3.5,1.4-3.5,4.2c0,2.3,1.2,3.8,3.5,3.8c2.8,0,3.4-2.1,3.4-4.3
	C111.5,95.4,110.8,93.4,108.2,93.4z M108.2,99.8c-0.8,0-1.3-0.5-1.3-2.4c0-1.5,0.4-2.4,1.3-2.4s1.2,0.5,1.2,2.4S109,99.8,108.2,99.8
	L108.2,99.8z"/>
<path class="st1" d="M118.2,98.6c0,0.8-0.2,1.2-0.9,1.2c-0.5,0-0.9-0.4-1-0.9c0-0.1,0-0.2,0-0.3v-5h-2v5.2c-0.1,0.6,0,1.2,0.4,1.6
	c0.6,0.7,1.6,1.1,2.5,1c1.1,0.1,2.1-0.3,2.7-1.2c0.2-0.4,0.2-0.8,0.2-1.3v-5.3h-2L118.2,98.6L118.2,98.6z"/>
<path class="st1" d="M126,93.6h-2.5v7.7h2v-2.7h0.6c2.5,0,3-1.4,3-2.6C129.1,94.2,128,93.6,126,93.6z M126,96.9h-0.6v-1.8h0.7
	c0.4-0.1,0.7,0.1,0.8,0.5c0,0.1,0,0.2,0,0.3C127,96.8,126.7,96.9,126,96.9L126,96.9z"/>
<path class="st1" d="M132.3,99.3c-0.6,0-1.1,0.5-1.1,1.1c0,0.3,0.1,0.5,0.3,0.8c0.2,0.1,0.3,0.3,0.4,0.5c-0.1,0.3-0.4,0.6-0.8,0.6
	l0.8,0.7c0.5-0.1,0.9-0.4,1.2-0.8s0.5-0.9,0.5-1.4c0.1-0.7-0.3-1.4-1.1-1.5C132.4,99.3,132.3,99.3,132.3,99.3z"/>
<rect x="140.5" y="93.6" class="st1" width="2" height="7.7"/>
<path class="st1" d="M149.8,95.9c0,0.5,0,1.3,0.1,1.7c-0.2-0.5-0.4-1-0.6-1.5l-1.4-2.6H146v7.7h1.9V99c0-0.7,0-1.3-0.1-2
	c0.2,0.5,0.4,1,0.6,1.4l1.4,2.7h2v-7.7h-1.9L149.8,95.9L149.8,95.9z"/>
<path class="st1" d="M158.1,99.8c-0.4,0-0.8-0.2-1-0.5c-0.3-0.4-0.4-1-0.4-2.2c-0.1-0.6,0.1-1.2,0.5-1.7c0.2-0.2,0.5-0.3,0.9-0.3
	s0.8,0.1,1.1,0.4L160,94c-0.6-0.4-1.3-0.6-2-0.6c-1.3-0.1-2.5,0.6-3.1,1.8c-0.4,0.7-0.6,1.6-0.5,2.4c-0.1,1,0.3,2,0.9,2.8
	c0.6,0.7,1.6,1.1,2.5,1.1c0.9,0.1,1.7-0.2,2.4-0.8l-0.9-1.3C159.1,99.6,158.6,99.8,158.1,99.8z"/>
<path class="st1" d="M163.4,99.2c-0.6-0.1-1.2,0.4-1.2,1c-0.1,0.6,0.4,1.2,1,1.2c0.1,0,0.1,0,0.2,0c0.6,0.1,1.2-0.4,1.2-1
	c0.1-0.6-0.4-1.2-1-1.2C163.5,99.2,163.5,99.2,163.4,99.2z"/>
<g>
	<path class="st1" d="M100.1,32.2c0-1.2-0.2-2.4-0.4-3.5L102,28l-0.5-1.7c-0.4-1.3-0.9-2.5-1.5-3.6l-0.8-1.5l-2.2,1
		c-0.7-1-1.4-1.9-2.2-2.8l1.6-1.9l-1.4-1c-1-0.9-2.1-1.6-3.3-2.2l-1.5-0.8l-1.2,2c-1.1-0.5-2.2-0.8-3.4-1.1l0.3-2.5l-1.7-0.2
		c-0.8-0.1-1.7-0.2-2.5-0.2c-0.5,0-1,0-1.4,0l-1.7,0.1l0.2,2.4c-1.2,0.2-2.3,0.5-3.4,0.9l-1-2.1l-1.6,0.8c-1.2,0.6-2.3,1.3-3.4,2.1
		L68,16.8l1.5,1.9c-0.9,0.8-1.7,1.7-2.4,2.6L65,20.1l-1,1.6c-0.7,1.1-1.2,2.3-1.7,3.6l-0.6,1.6l2.3,0.8c-0.3,1.2-0.5,2.3-0.6,3.5
		l-2.3,0.1l0.1,1.7c0,1.3,0.2,2.6,0.5,3.9l0.4,1.7l2.2-0.5c0.3,1,0.8,2,1.3,2.9l-2,1.3l1,1.5c0.7,1.1,1.5,2.1,2.4,3.1l1.2,1.2
		l1.7-1.7c0.9,0.7,1.8,1.4,2.8,1.9l-1.2,2l2,1.1c1.2,0.5,2.5,1,3.8,1.3l1.7,0.4l0.6-2.6c0.7,0.1,1.3,0.1,2,0.1c0.5,0,0.9,0,1.4-0.1
		l0.4,2.5l1.7-0.2c0.8-0.1,1.6-0.3,2.3-0.5c0.5-0.1,1-0.3,1.5-0.4l1.7-0.6l-0.9-2.6c1.1-0.6,2.2-1.2,3.2-2l1.9,1.8l1.3-1.2
		c0.9-0.9,1.8-2,2.5-3.1l1-1.4l-2-1.3c0.5-0.8,0.9-1.7,1.3-2.6l2.2,0.7l0.5-1.7c0.4-1.3,0.6-2.6,0.8-3.9l0.2-1.7L100.1,32.2z
		 M81.7,48c-8.6,0-15.6-7-15.6-15.6s7-15.6,15.6-15.6s15.6,7,15.6,15.6C97.3,41,90.3,48,81.7,48z"/>
	<path class="st1" d="M81.7,40.1c-4.3,0-7.7-3.5-7.7-7.7s3.5-7.7,7.7-7.7c4.3,0,7.7,3.5,7.7,7.7C89.5,36.7,86,40.1,81.7,40.1
		 M81.7,25.6c-3.8,0-6.8,3.1-6.8,6.8s3.1,6.8,6.8,6.8s6.8-3.1,6.8-6.8l0,0C88.6,28.6,85.5,25.6,81.7,25.6z"/>
	<path class="st1" d="M92.5,32.9c0-0.2,0-0.3,0-0.5c0-0.9-0.1-1.9-0.4-2.8l1.1-0.3l-0.1-0.4c-0.2-0.7-0.5-1.4-0.9-2.1L92,26.4
		l-1,0.5c-0.5-0.9-1.2-1.8-2-2.5l0.8-0.9l-0.3-0.3c-0.6-0.5-1.2-0.9-1.9-1.3l-0.4-0.2l-0.6,1c-1-0.5-2-0.8-3.1-1l0.2-1.2l-0.4-0.1
		c-0.8-0.1-1.5-0.1-2.3-0.1h-0.4l0.1,1.2c-1.1,0.1-2.1,0.4-3.1,0.8l-0.5-1l-0.4,0.2c-0.7,0.3-1.4,0.7-2,1.2L74.2,23l0.7,0.9
		c-0.8,0.7-1.6,1.5-2.2,2.4l-1-0.6l-0.2,0.4c-0.4,0.7-0.7,1.4-1,2.1l-0.2,0.4l1,0.4c-0.3,1.1-0.5,2.1-0.5,3.2h-1v0.4
		c0,0.8,0.1,1.5,0.3,2.3l0.1,0.4l1-0.2c0.3,1,0.7,1.9,1.2,2.8l-0.9,0.6l0.2,0.4c0.4,0.6,0.9,1.2,1.4,1.8l0.3,0.3l0.8-0.8
		C75,41,76,41.6,77,42.1l-0.5,1.1l0.4,0.2c0.7,0.3,1.4,0.6,2.2,0.7l0.4,0.1l0.4-1.2c0.6,0.1,1.2,0.1,1.8,0.2c0.5,0,0.9,0,1.4-0.1
		l0.2,1.3l0.4-0.1c0.5-0.1,0.9-0.2,1.4-0.3c0.3-0.1,0.6-0.2,0.9-0.3l0.4-0.1L86,42.4c1-0.4,2-1,2.8-1.8l0.9,0.9l0.3-0.3
		c0.5-0.5,1-1.1,1.4-1.8l0.2-0.4l-1-0.6c0.6-0.8,1-1.7,1.3-2.6l1,0.3l0.1-0.4c0.2-0.7,0.4-1.5,0.4-2.2V33L92.5,32.9z M81.7,41.4
		c-5,0-9.1-4.1-9.1-9.1s4.1-9.1,9.1-9.1s9.1,4.1,9.1,9.1C90.8,37.4,86.7,41.4,81.7,41.4z"/>
	<path class="st1" d="M81.9,40.3c-4.3,0-7.8-3.5-7.8-7.8s3.5-7.9,7.8-7.9s7.8,3.5,7.8,7.8l0,0C89.7,36.8,86.2,40.3,81.9,40.3z
		 M81.9,25.8c-3.7,0-6.7,3-6.7,6.7s3,6.7,6.7,6.7s6.7-3,6.7-6.7S85.6,25.8,81.9,25.8z"/>
	<path class="st1" d="M81.7,29.3c-1.7,0-3.1,1.4-3.1,3.1c0,1.7,1.4,3.1,3.1,3.1s3.1-1.4,3.1-3.1C84.8,30.7,83.4,29.3,81.7,29.3z
		 M81.7,34.6c-1.2,0-2.2-1-2.2-2.2s1-2.2,2.2-2.2s2.2,1,2.2,2.2S82.9,34.6,81.7,34.6L81.7,34.6z"/>
</g>
<g>
	<path class="st1" d="M117.2,12.1L117.2,12.1c0-0.8-0.1-1.6-0.3-2.3l1.3-0.4L118,8.6c-0.2-0.7-0.5-1.4-0.9-2.1l-0.4-0.7l-1.2,0.7
		c-0.4-0.7-0.9-1.3-1.5-1.8l0.9-1.1L114.3,3c-0.6-0.5-1.2-0.9-1.9-1.3l-0.7-0.4L111,2.5c-0.7-0.3-1.5-0.6-2.2-0.7l0.2-1.4l-0.8-0.1
		c-0.5-0.1-1-0.1-1.5-0.1l0,0h-0.8l-0.8,0.1l0.1,1.4c-0.8,0.1-1.5,0.3-2.3,0.6L102.3,1l-0.8,0.4c-0.7,0.3-1.3,0.7-1.9,1.2l-0.7,0.5
		l0.9,1.1c-0.6,0.5-1.1,1.1-1.6,1.7L97,5.2l-0.4,0.7c-0.4,0.6-0.7,1.3-1,2l-0.3,0.8l1.3,0.5c-0.2,0.8-0.3,1.5-0.4,2.3l-1.3,0.1v0.8
		c0,0.8,0.1,1.5,0.3,2.2l0.2,0.8l1.2-0.3c0.2,0.7,0.5,1.4,0.9,2l-1.2,0.8l0.4,0.8c0.4,0.6,0.9,1.2,1.4,1.8l0.6,0.6l1-1
		c0.6,0.5,1.3,1,2,1.4l-1.1,1l1.3,0.7c0.7,0.3,1.4,0.6,2.2,0.7L105,24l0.3-1.4c0.4,0.1,0.9,0.1,1.3,0.1c0.3,0,0.7,0,1,0l0.2,1.5
		l0.8-0.1c0.5-0.1,0.9-0.2,1.4-0.3c0.3-0.1,0.5-0.2,0.9-0.3l0.8-0.3l-0.5-1.5c0.7-0.4,1.4-0.8,2.1-1.3l1.1,1l0.6-0.6
		c0.5-0.5,1-1.1,1.4-1.8l0.5-0.7l-1.1-0.8c0.3-0.6,0.6-1.2,0.9-1.8l1.2,0.4l0.2-0.8c0.2-0.7,0.4-1.5,0.4-2.2l0.1-0.8L117.2,12.1z
		 M106.7,21.2c-5,0-9.1-4.1-9.1-9.1s4.1-9.1,9.1-9.1s9.1,4.1,9.1,9.1C115.8,17.1,111.7,21.2,106.7,21.2z"/>
	<path class="st1" d="M106.7,16.6c-2.5,0-4.5-2-4.5-4.5s2-4.5,4.5-4.5s4.5,2,4.5,4.5S109.2,16.6,106.7,16.6 M106.7,8.1
		c-2.2,0-4,1.8-4,4s1.8,4,4,4s4-1.8,4-4S108.9,8.1,106.7,8.1z"/>
	<path class="st1" d="M113,12.4c0-0.1,0-0.2,0-0.3c0-0.5-0.1-1.1-0.2-1.6l0.6-0.2l-0.1-0.2c-0.1-0.4-0.3-0.8-0.5-1.2l-0.1-0.2
		L112.1,9c-0.3-0.5-0.7-1-1.1-1.5l0.4-0.5l-0.2-0.2c-0.3-0.3-0.7-0.5-1.1-0.8l-0.2-0.1l-0.3,0.6c-0.6-0.3-1.2-0.5-1.8-0.6l0.1-0.7
		h-0.3c-0.4,0-0.9,0-1.3,0H106v0.7c-0.6,0.1-1.2,0.2-1.8,0.5l-0.3-0.6l-0.2,0.1c-0.4,0.2-0.8,0.4-1.1,0.7l-0.2,0.2l0.4,0.5
		c-0.5,0.4-0.9,0.9-1.3,1.4l-0.6-0.3l-0.1,0.2c-0.2,0.4-0.4,0.8-0.6,1.2l-0.1,0.2l0.6,0.2c-0.2,0.6-0.3,1.2-0.3,1.9h-0.6v0.3
		c0,0.4,0.1,0.9,0.2,1.3l0.1,0.3l0.6-0.1c0.2,0.6,0.4,1.1,0.7,1.6l-0.6,0.4L101,16c0.3,0.4,0.5,0.7,0.8,1l0.2,0.3l0.5-0.5
		c0.5,0.4,1,0.8,1.6,1.1l-0.3,0.7l0.2,0.1c0.4,0.2,0.8,0.3,1.3,0.4l0.2,0.1l0.2-0.8c0.3,0.1,0.7,0.1,1,0.1s0.5,0,0.8-0.1l0.1,0.8
		h0.3c0.3,0,0.5-0.1,0.8-0.2l0.5-0.1l0.2-0.1l-0.2-0.8c0.6-0.2,1.1-0.6,1.6-1l0.5,0.5l0.2-0.2c0.3-0.3,0.6-0.6,0.8-1l0.1-0.2
		l-0.5-0.5c0.3-0.5,0.6-1,0.7-1.5l0.6,0.2l0.1-0.2c0.1-0.4,0.2-0.9,0.3-1.3v-0.3L113,12.4z M106.7,17.4c-2.9,0-5.3-2.4-5.3-5.3
		s2.4-5.3,5.3-5.3s5.3,2.4,5.3,5.3S109.6,17.4,106.7,17.4L106.7,17.4z"/>
	<path class="st1" d="M106.8,16.7c-2.5,0-4.6-2-4.6-4.6s2-4.6,4.6-4.6c2.5,0,4.6,2,4.6,4.6l0,0C111.4,14.6,109.3,16.7,106.8,16.7z
		 M106.8,8.2c-2.1,0-3.9,1.7-3.9,3.9s1.7,3.9,3.9,3.9c2.1,0,3.9-1.7,3.9-3.9l0,0C110.7,10,109,8.2,106.8,8.2L106.8,8.2z"/>
	<path class="st1" d="M106.7,10.3c-1,0-1.8,0.8-1.8,1.8s0.8,1.8,1.8,1.8s1.8-0.8,1.8-1.8l0,0C108.5,11.1,107.7,10.3,106.7,10.3z
		 M106.7,13.4c-0.7,0-1.3-0.5-1.3-1.2s0.5-1.3,1.2-1.3s1.3,0.5,1.3,1.2l0,0C108,12.8,107.4,13.4,106.7,13.4L106.7,13.4z"/>
</g>
</svg>
