<?xml version="1.0" encoding="utf-8"?>
<!-- Generator: Adobe Illustrator 19.2.1, SVG Export Plug-In . SVG Version: 6.00 Build 0)  -->
<svg version="1.1" id="Layer_1" xmlns="http://www.w3.org/2000/svg" xmlns:xlink="http://www.w3.org/1999/xlink" x="0px" y="0px"
	 viewBox="0 0 170 123" style="enable-background:new 0 0 170 123;" xml:space="preserve">
<style type="text/css">
	.st0{fill:#EDEDED;}
	.st1{fill:#6BC5CA;}
</style>
<title>logo-Milkshakeinteractive</title>
<g>
	<polygon class="st0" points="38,72.8 38,64.5 39.7,64.5 39.7,72.8 38,72.8 	"/>
	<polygon class="st0" points="46.4,72.8 46.4,64.5 47.9,64.5 51.8,70.1 51.8,64.5 53.2,64.5 53.2,72.8 51.6,72.8 47.8,67.1 
		47.8,72.8 46.4,72.8 	"/>
	<polygon class="st0" points="61.9,72.8 61.9,65.6 58.9,65.6 58.9,64.5 66.6,64.5 66.6,65.6 63.6,65.6 63.6,72.8 61.9,72.8 	"/>
	<polygon class="st0" points="72.3,72.8 72.3,64.5 77.6,64.5 77.6,65.6 74.1,65.6 74.1,67.9 76.9,67.9 76.9,69 74.1,69 74.1,71.6 
		77.8,71.6 77.8,72.7 72.3,72.7 	"/>
	<g>
		<path class="st0" d="M85.4,68.3h0.4c1.2,0,1.9-0.5,1.9-1.5c0-0.7-0.6-1.1-1.7-1.1h-0.6V68.3z M83.8,72.8v-8.3h3.1
			c1.7,0,2.5,0.7,2.5,2.1c0,0.5-0.1,1-0.4,1.4c-0.3,0.4-0.7,0.8-1.2,1l2.7,3.9h-2.1l-2.1-3.4h-0.9v3.4L83.8,72.8L83.8,72.8z"/>
	</g>
	<path class="st0" d="M98,69.5h2.6l-1.3-3.3L98,69.5z M95.4,72.8l3.2-8.3h1.7l3.2,8.3h-1.7l-0.9-2.2h-3.4l-0.8,2.2H95.4z"/>
	<g>
		<path class="st0" d="M116,72.4c-0.9,0.4-1.9,0.6-2.9,0.5c-1.2,0.1-2.3-0.3-3.2-1.1c-1.5-1.9-1.5-4.5,0-6.4
			c0.9-0.8,2.1-1.2,3.3-1.1c0.9,0,1.8,0.1,2.7,0.3V66c-0.8-0.3-1.7-0.5-2.5-0.5c-0.8,0-1.5,0.3-2,0.8c-0.5,0.7-0.8,1.5-0.7,2.4
			c-0.1,0.8,0.2,1.7,0.8,2.3c0.6,0.6,1.3,0.9,2.1,0.8c0.9,0,1.7-0.2,2.5-0.6L116,72.4L116,72.4z"/>
	</g>
	<polygon class="st0" points="124.2,72.8 124.2,65.6 121.2,65.6 121.2,64.5 128.9,64.5 128.9,65.6 125.9,65.6 125.9,72.8 
		124.2,72.8 	"/>
	<polygon class="st0" points="134.6,72.8 134.6,64.5 136.4,64.5 136.4,72.8 134.6,72.8 	"/>
	<polygon class="st0" points="145.2,72.8 142.1,64.5 144,64.5 146.4,70.9 148.7,64.5 149.9,64.5 147,72.8 145.2,72.8 	"/>
	<polygon class="st0" points="155.7,72.8 155.7,64.5 160.8,64.5 160.8,65.6 157.4,65.6 157.4,67.9 160.2,67.9 160.2,69 157.4,69 
		157.4,71.6 161.1,71.6 161.1,72.7 155.7,72.7 	"/>
	<g>
		<polygon class="st0" points="4.8,19.8 11,28.1 11.8,30 13,37.6 11.4,37.8 10.2,30.6 9.5,29.2 3.5,20.9 		"/>
		<g>
			<path class="st1" d="M65.2,40.7c0.4,0,0.8,0,1.2-0.2c0.3-0.1,0.6-0.3,0.9-0.6c0.2-0.2,0.4-0.5,0.5-0.8c0.1-0.3,0.2-0.6,0.2-0.9
				c0-0.3-0.1-0.6-0.2-0.9c-0.1-0.2-0.3-0.5-0.5-0.6c-0.2-0.2-0.5-0.3-0.8-0.4c-0.3-0.1-0.6-0.1-0.9-0.1c-0.5,0-0.9,0.1-1.3,0.3
				c-0.3,0.1-0.6,0.4-0.9,0.6c-0.4,0.4-0.6,1-0.6,1.5c0,0.6,0.2,1.2,0.6,1.6C64,40.5,64.6,40.7,65.2,40.7"/>
			<path class="st0" d="M15.7,76.5c-4.3,0-7.7-2-7.7-4.6c0-1.8,2.1-3,3.5-3.7l0.2-0.2c0-0.3,0-0.6-0.1-0.9L5.7,47l1.5-0.4l5.9,20.2
				c0.1,0.5,0.1,0.8,0.1,1.2v0.5L12.8,69l-0.6,0.5c-1.6,0.7-2.7,1.6-2.7,2.3c0,1.5,2.5,3.1,6.2,3.1s6.2-1.6,6.2-3.1
				c0-0.7-1.1-1.6-2.7-2.3L19,69.4L18.6,69l-0.3-0.6V68c0-0.4,0-0.8,0.1-1.1l5.7-27.1l1.5,0.3l-5.7,27c-0.1,0.3-0.1,0.6-0.1,0.9
				l0.1,0.2c1.1,0.5,3.5,1.7,3.5,3.7C23.4,74.5,20,76.5,15.7,76.5z"/>
			<path class="st1" d="M166.5,50.8c-0.5,0.4-1,0.9-1.5,1.2c-0.6,0.4-1.2,0.8-1.9,1.2c-0.6,0.4-1.3,0.7-2,0.9
				c-0.6,0.2-1.3,0.4-2,0.4c-0.2,0-0.4,0-0.6-0.1c-0.2,0-0.3-0.1-0.5-0.2c-0.2-0.1-0.3-0.3-0.5-0.4c-0.2-0.2-0.3-0.4-0.5-0.7
				c0.9-0.2,1.7-0.6,2.5-1c0.7-0.4,1.4-0.9,2-1.5c0.6-0.6,1.1-1.3,1.5-2c0.4-0.6,0.6-1.4,0.6-2.1c0-0.6-0.1-1.1-0.3-1.6
				c-0.2-0.5-0.5-0.9-0.9-1.2c-0.4-0.3-0.8-0.6-1.3-0.8c-0.5-0.2-1.1-0.3-1.6-0.3c-0.7,0-1.4,0.1-2,0.4c-0.6,0.2-1.1,0.6-1.6,1
				c-0.5,0.4-0.9,0.9-1.2,1.4c-0.4,0.6-0.6,1.2-0.9,1.8c-0.2,0.6-0.5,1.3-0.7,2.1c-0.2,0.7-0.3,1.4-0.3,2.1c0,0.3,0,0.7,0.1,1
				l-0.2,0.2c-0.2,0.3-0.5,0.6-0.8,0.9c-0.3,0.3-0.5,0.5-0.8,0.8c-0.2,0.2-0.5,0.4-0.8,0.6c-0.2,0.1-0.4,0.2-0.7,0.2
				c-0.3,0-0.6-0.1-0.9-0.2c-0.2-0.2-0.3-0.5-0.3-0.8c0-0.5,0.1-0.9,0.3-1.3c0.2-0.5,0.5-0.9,0.8-1.3c0.3-0.5,0.6-0.9,1-1.3
				c0.4-0.4,0.7-0.9,1-1.3c0.3-0.5,0.6-1,0.9-1.6c0.3-0.5,0.4-1,0.4-1.6c0-0.4-0.1-0.8-0.2-1.2c-0.1-0.3-0.3-0.6-0.5-0.9
				c-0.2-0.2-0.4-0.4-0.7-0.6c-0.3-0.1-0.5-0.2-0.8-0.2c-0.5,0-1.1,0.1-1.6,0.3c-0.4,0.1-0.8,0.3-1.2,0.6c-0.4,0.3-0.7,0.7-1,1.1
				c-0.4,0.6-0.9,1.1-1.3,1.7c-0.4,0.5-0.9,1.1-1.3,1.7l-1.2,1.6l-0.4-0.2l1.9-2.8l0.6-1.1c0.3-0.5,0.6-1.2,1-2
				c0.4-0.8,0.8-1.7,1.2-2.7c0.4-1,0.8-2,1.1-3c0.3-1,0.6-2.1,0.9-3.1c0.2-0.9,0.3-1.9,0.3-2.9c0-0.5,0-0.9-0.1-1.4
				c-0.1-0.4-0.2-0.8-0.4-1.1c-0.2-0.3-0.5-0.6-0.8-0.7c-0.4-0.2-0.9-0.3-1.3-0.3c-0.7,0-1.3,0.1-1.9,0.4c-0.6,0.3-1.1,0.7-1.6,1.1
				c-0.5,0.5-0.9,1.1-1.3,1.7c-0.4,0.6-0.7,1.3-1,2c-0.3,0.7-0.6,1.5-0.8,2.2l-0.6,2.2c-0.2,0.7-0.3,1.3-0.5,2l-0.3,1.6
				c-0.2,1.2-0.4,2.5-0.5,3.8c-0.1,1.3-0.3,2.6-0.3,3.8c-0.1,0.8-0.1,1.6-0.2,2.4c-0.3,0.4-0.7,0.8-1,1.2c-0.3,0.4-0.4,0.5-0.7,0.7
				c-0.2,0.2-0.5,0.4-0.7,0.6c-0.2,0.2-0.5,0.3-0.7,0.4c-0.2,0.1-0.5,0.2-0.7,0.2c-0.3,0-0.5-0.2-0.6-0.4c-0.1-0.4-0.1-0.7-0.1-1.1
				c0-0.7,0.1-1.4,0.3-2.1l0.5-2.2c0.1-0.7,0.3-1.3,0.4-1.9c0.1-0.5,0.2-1.1,0.2-1.7c0-0.3,0-0.5-0.1-0.8c0-0.2-0.1-0.3-0.2-0.5
				c-0.1-0.1-0.2-0.2-0.4-0.2c-0.1,0-0.3,0-0.4,0h-0.7h-0.4c-0.1,0-0.3,0-0.4-0.1c-0.1-0.1-0.2-0.1-0.3-0.3l-0.3-0.4
				c-0.1-0.1-0.2-0.2-0.3-0.3c-0.2-0.1-0.4-0.2-0.6-0.1c-0.7,0-1.5,0.2-2.1,0.5c-0.7,0.3-1.4,0.7-2,1.2c-0.6,0.5-1.2,1.2-1.7,1.8
				c-0.6,0.8-1.1,1.6-1.5,2.5c-0.4,0.9-0.7,1.8-1,2.7c0,0.2-0.1,0.4-0.1,0.5c-0.3,0.3-0.6,0.6-0.8,0.9c-0.3,0.3-0.5,0.5-0.8,0.7
				c-0.3,0.2-0.5,0.4-0.8,0.6c-0.3,0.2-0.6,0.3-0.8,0.4c-0.3,0.1-0.5,0.2-0.8,0.2c-0.2,0-0.4-0.2-0.5-0.4c-0.1-0.3-0.2-0.7-0.2-1
				c0-0.8,0.1-1.5,0.3-2.2c0.3-0.9,0.6-1.7,1.1-2.5c0.5-0.8,0.8-1.6,1.1-2.5c0.2-0.7,0.3-1.4,0.3-2.1c0-0.3,0-0.6-0.1-0.9
				c-0.1-0.2-0.2-0.4-0.3-0.5c-0.1-0.1-0.3-0.2-0.5-0.3c-0.1,0-0.3-0.1-0.4-0.1c-0.6,0-1.2,0.2-1.7,0.5c-0.8,0.6-1.5,1.2-2.2,1.9
				c-0.8,0.7-1.5,1.5-2.1,2.3c-0.5,0.7-1,1.3-1.4,1.9l-0.3-0.2l1.2-2.3c0.5-0.9,0.9-1.8,1.4-2.8c0.5-1,1-2,1.5-3.1
				c0.5-1.1,0.9-2.1,1.2-3.1c0.3-1,0.6-2,0.9-3c0.2-0.9,0.3-1.7,0.3-2.6c0-0.5,0-1-0.1-1.4c-0.1-0.4-0.2-0.8-0.4-1.1
				c-0.2-0.3-0.5-0.6-0.9-0.7c-0.4-0.2-0.9-0.3-1.4-0.2c-1,0-2.1,0.3-2.9,0.9c-0.9,0.7-1.6,1.5-2.2,2.5c-0.7,1.1-1.2,2.3-1.6,3.6
				c-0.5,1.4-0.8,2.8-1,4.3l-0.7,4.5c-0.2,1.5-0.4,3-0.5,4.4c-0.1,1.4-0.1,2.7-0.1,3.9v0.3c-0.4,0.2-0.8,0.4-1.2,0.6l-1.4,0.6
				c-0.4,0.2-0.8,0.4-1.2,0.7c0-0.7,0-1.3,0.1-2c0.1-0.5,0.1-1,0-1.6c-0.1-0.4-0.2-0.7-0.2-1l-0.3-0.8c-0.1-0.3-0.1-0.5-0.2-0.8
				c-0.1-0.3-0.1-0.6-0.1-0.9c0.1-0.2,0.2-0.4,0.4-0.5l0.7-0.8c0.2-0.3,0.5-0.6,0.7-0.9c0.2-0.2,0.3-0.5,0.3-0.8c0-0.1,0-0.3,0-0.4
				c0-0.2-0.1-0.4-0.2-0.5c-0.2-0.2-0.4-0.3-0.6-0.4c-0.4-0.1-0.8-0.2-1.2-0.2c-0.3,0-0.6,0-0.8,0.1c-0.2,0.1-0.5,0.2-0.7,0.3
				c-0.2,0.1-0.4,0.3-0.6,0.5c-0.2,0.2-0.3,0.4-0.5,0.6c-0.7,0.8-1.2,1.5-1.6,2.1l-1.1,1.4l-0.8,1c-0.2,0.3-0.5,0.7-0.9,1.1
				c-0.3,0.4-0.7,0.8-1.1,1.2l-0.4,0.3V51c-0.2,0.2-0.4,0.4-0.6,0.7l-0.1,0.1l-0.4,0.3L92,52.4c-0.2,0.1-0.3,0.3-0.5,0.5
				c-0.2,0.2-0.3,0.4-0.4,0.6c-0.1,0.1-0.1,0.3-0.2,0.5l-0.4,0.3c-0.2,0.2-0.5,0.4-0.8,0.6C89.6,55,89.3,55,89.1,55
				c-0.3,0-0.6-0.1-0.9-0.3c-0.2-0.2-0.3-0.5-0.3-0.8c0-0.5,0.1-0.9,0.3-1.3c0.2-0.5,0.5-0.9,0.8-1.3c0.3-0.5,0.6-0.9,1-1.3
				c0.4-0.4,0.7-0.9,1-1.3c0.3-0.5,0.6-1,0.9-1.6c0.2-0.5,0.4-1,0.4-1.6c0-0.4-0.1-0.8-0.2-1.2c-0.1-0.3-0.3-0.6-0.5-0.9
				c-0.2-0.2-0.4-0.4-0.7-0.6c-0.3-0.1-0.5-0.2-0.8-0.2c-0.5,0-1.1,0.1-1.6,0.2c-0.4,0.1-0.8,0.3-1.2,0.6c-0.4,0.3-0.7,0.7-1,1.1
				c-0.4,0.6-0.9,1.1-1.3,1.7c-0.4,0.5-0.9,1.1-1.3,1.7l-1.3,1.7l-0.4-0.2l1.9-2.8l0.6-1.1c0.3-0.5,0.6-1.2,1-2
				c0.4-0.8,0.8-1.7,1.2-2.7c0.4-1,0.8-2,1.1-3c0.3-1,0.6-2.1,0.9-3.1c0.2-0.9,0.3-1.9,0.3-2.9c0-0.5,0-0.9-0.1-1.4
				c-0.1-0.4-0.2-0.8-0.4-1.1c-0.2-0.3-0.5-0.6-0.8-0.7c-0.4-0.2-0.9-0.3-1.3-0.3c-0.6,0-1.3,0.1-1.9,0.4c-0.6,0.3-1.1,0.7-1.6,1.1
				c-0.5,0.5-0.9,1.1-1.3,1.7c-0.8,1.3-1.4,2.8-1.8,4.3l-0.6,2.2c-0.2,0.7-0.3,1.3-0.5,2l-0.3,1.5c-0.2,1.2-0.4,2.5-0.5,3.8
				c-0.1,1.3-0.3,2.6-0.3,3.8c-0.1,0.9-0.1,1.7-0.2,2.5c-0.7,0.5-1.3,1-2,1.4l-0.9,0.6c-0.3,0.2-0.6,0.3-0.9,0.5
				c-0.3,0.1-0.6,0.2-0.8,0.3c-0.2,0.1-0.5,0.1-0.7,0.1c-0.1,0-0.2-0.1-0.3-0.2c-0.1-0.2-0.2-0.3-0.3-0.5c-0.1-0.2-0.2-0.5-0.2-0.7
				c-0.1-0.3-0.1-0.5-0.1-0.8V52c0-0.2,0-0.4,0.1-0.6c0.1-0.2,0.1-0.4,0.2-0.6c0.1-0.2,0.1-0.4,0.2-0.5c0-0.1,0.1-0.3,0.2-0.4
				c0.5-0.9,1.1-1.9,1.6-2.9s1.2-2,1.7-3c0.6-1,1.1-2.1,1.6-3.1c0.5-1,1-2.1,1.4-3.1c0.4-1,0.7-2,0.9-3.1c0.2-1,0.3-2,0.3-3
				c0-0.4,0-0.8-0.1-1.2c-0.1-0.4-0.2-0.7-0.4-1c-0.2-0.3-0.4-0.6-0.7-0.7c-0.4-0.2-0.8-0.3-1.2-0.3c-0.7,0-1.4,0.2-2,0.6
				c-0.7,0.4-1.3,0.9-1.8,1.5c-0.6,0.7-1.2,1.5-1.7,2.3c-0.6,0.9-1.1,1.9-1.5,2.9c-0.6,1.3-1,2.7-1.4,4.1L68,42.4L67.5,45
				c-0.3,1.4-0.4,2.7-0.5,4.1c0,1.1,0.1,2.3,0.3,3.4c0.1,0.3,0.1,0.6,0.2,0.9l-0.4,0.3c-0.4,0.4-0.9,0.7-1.4,1
				c-0.4,0.2-0.8,0.4-1.3,0.4c-0.3,0-0.6-0.1-0.6-0.4c-0.1-0.4-0.2-0.7-0.2-1.1c0-0.5,0.1-1.1,0.2-1.6c0.2-0.6,0.3-1.2,0.4-1.8
				c0.1-0.7,0.3-1.5,0.5-2.2c0.3-0.8,0.5-1.5,0.6-2.1l0.4-1.5c0.1-0.3,0.1-0.7,0.2-1c0-0.2-0.1-0.5-0.2-0.6
				c-0.2-0.2-0.6-0.3-0.9-0.2c-0.3,0-0.5,0-0.8,0.1c-0.3,0.1-0.6,0.1-0.8,0.3c-0.3,0.1-0.5,0.3-0.8,0.5c-0.2,0.2-0.4,0.4-0.4,0.7
				c-0.1,0.4-0.3,1.2-0.7,2.4c-0.4,1.5-0.7,2.5-0.9,3c-0.2,0.7-0.3,1.3-0.4,2c-0.2,0.3-0.4,0.5-0.6,0.7c-0.2,0.2-0.5,0.6-0.8,0.9
				c-0.2,0.3-0.5,0.5-0.8,0.7c-0.2,0.2-0.5,0.4-0.8,0.5c-0.2,0.1-0.5,0.2-0.8,0.2c-0.4,0-0.7-0.1-1-0.3c-0.3-0.3-0.4-0.6-0.3-1
				c0-0.5,0.1-1.1,0.2-1.6c0.1-0.7,0.3-1.5,0.4-2.3l0.5-2.7l0.5-2.9l0.5-2.9c0.2-1,0.3-1.9,0.3-2.9c0-0.9-0.1-1.8-0.3-2.7
				c-0.1-0.8-0.4-1.5-0.7-2.3c-0.3-0.6-0.7-1.1-1.3-1.5c-0.5-0.4-1.1-0.6-1.7-0.5c-0.9,0-1.8,0.2-2.7,0.7c-0.9,0.5-1.7,1.2-2.4,2
				c-0.8,1-1.5,2-2,3.1c-0.6,1.3-1.1,2.7-1.5,4.2h-0.3c0.1-0.7,0.2-1.4,0.3-2c0-0.3,0-0.5,0.1-0.8c0.1-0.3,0.1-0.5,0.1-0.7
				c0-0.2,0-0.4,0.1-0.6c0-0.2,0-0.3,0-0.4c0-0.8-0.1-1.6-0.2-2.4c-0.1-0.6-0.4-1.2-0.7-1.7c-0.3-0.4-0.6-0.8-1-1
				c-0.4-0.2-0.9-0.3-1.3-0.3c-0.7,0-1.4,0.2-2,0.5c-0.7,0.4-1.4,0.9-2,1.5c-0.7,0.7-1.3,1.5-1.9,2.3c-0.6,1-1.2,2-1.7,3
				c-0.6,1.2-1.1,2.4-1.5,3.6c-0.5,1.3-0.9,2.6-1.2,4c0.2-0.7,0.4-1.5,0.6-2.4c0.2-0.9,0.4-1.7,0.5-2.6l0.4-2.5
				c0.1-0.7,0.2-1.3,0.2-2c0-0.7,0-1.4-0.1-2.1c-0.1-0.6-0.3-1.1-0.5-1.6c-0.2-0.4-0.6-0.8-1-1c-0.5-0.3-1.1-0.4-1.6-0.4
				c-0.5,0-1.1,0.1-1.6,0.3c-0.6,0.2-1.2,0.6-1.6,1.1c-0.2,0.2-0.4,0.4-0.5,0.6c-0.6,0.6-1.1,1.3-1.5,2c-0.3,0.5-0.5,1-0.7,1.5
				c-0.4-0.5-1.2-0.7-1.8-0.5c0.7-1,0.5-2.4-0.4-3.2c0-0.1,0-0.2,0-0.3c0-2.4-2-4.4-4.4-4.4c-1.9,0-3.5,1.2-4.1,2.9
				c-0.6-0.3-1.2-0.4-1.9-0.3c-0.7,0.1-1.3,0.4-1.7,0.9c-0.2-0.1-2.5-1.5-4.2,0.4c-1.1,1.1-1.1,2.9,0,4c-0.8-0.1-1.5,0.6-1.6,1.4
				c0,0.2,0,0.3,0,0.5c-0.3,0-0.5,0.2-0.5,0.5c0,0.1,0,0.2,0.1,0.2c-0.4,0.1-0.8,0.3-1.1,0.5c-0.5,0.3-0.8,0.8-1,1.3
				c-0.2,0.7-0.1,1.4,0.1,2.1c0.4,0.8,1.1,1.3,1.9,1.4C3,44.5,2.7,45,2.9,45.6C3,45.8,3.3,46,3.5,46.1c-0.1,0.2-0.1,0.5,0.1,0.7
				c0,0,0,0,0.1,0c-0.1,0.4-0.1,0.8,0,1.1c0.1,0.5,0.6,0.9,1.1,0.9c0.1,0,0.2,0,0.3-0.1c0,0.1,0,0.1,0,0.2c0,0.3,0.2,0.5,0.5,0.5h0
				c-0.1,0.5,0.2,0.9,0.6,1c0.2,0,0.4,0,0.5,0c0.1,0.4,0.5,0.7,1,0.6c0,0,0,0,0,0c0.8-0.2,0.5-1.2,0.5-1.2l-0.8-3.1
				c-0.2-0.4-0.4-0.8-0.7-1.1c-0.2-0.8-0.3-1.5-0.3-2.3v-1c0-0.5,0-0.9,0.1-1.1c0.1-0.3,0.3-0.5,0.6-0.4l0.5-0.1
				c0.5,0,0.6,0.7,1.6,0.6c0.9,0,0.6,1.1,2.4,1.1c1.7,0,1.3-1.7,3-2c0.2,0,1.2-0.1,1.5-0.1h2.4c0.6,0,1.2,0.1,1.8,0.3
				c0.5,0.1,1.1,0.2,1.6,0.2c0.7,0,0.8,0.2,1.4,0.2c0.6,0,1.4,0.1,1.4,0.1c0.3,0.1,0.7-0.1,0.8-0.4c0.1-0.6-0.2-1.2-0.8-1.3
				c0.1-0.1,0.2-0.2,0.3-0.3c0.3-0.3,0.5-0.7,0.8-1c0.2-0.3,0.5-0.5,0.8-0.8V37c0.2-0.2,0.4-0.3,0.5-0.5c0.3-0.3,0.7-0.5,1.1-0.7
				c0.3-0.2,0.6-0.2,0.9-0.3c0.1,0,0.3,0,0.3,0.1c0.1,0.1,0.1,0.2,0.2,0.3c0,0.1,0,0.3,0,0.4v0.4l0.1,3.1c0,0.9,0,1.9-0.1,2.8
				l-0.3,2.7c-0.1,0.9-0.3,1.8-0.6,2.7c-0.3,1-0.6,2-0.8,3l-0.7,3.4c-0.1,0.4-0.1,0.7-0.2,1.1c0,0.4-0.1,0.8-0.1,1.2
				c0,0.2,0.1,0.4,0.2,0.6c0.1,0.2,0.3,0.3,0.5,0.4c0.2,0.1,0.4,0.2,0.7,0.3c0.3,0.1,0.5,0.1,0.8,0.1c0.2,0,0.5,0,0.7-0.1
				c0.2,0,0.5-0.1,0.7-0.2c0.2-0.1,0.4-0.3,0.6-0.5c0.2-0.2,0.3-0.5,0.3-0.8l0.8-3.2l0.9-3.5c0.3-1.2,0.7-2.4,1.1-3.6
				c0.4-1.2,0.9-2.3,1.4-3.4c0.5-1.1,0.9-2.1,1.4-3.1c0.4-0.8,0.9-1.7,1.4-2.5c0.4-0.6,0.8-1.1,1.3-1.6c0.2-0.3,0.6-0.5,1-0.6
				c0.3,0,0.6,0.1,0.9,0.3c0.2,0.2,0.4,0.5,0.5,0.8c0.1,0.4,0.2,0.9,0.2,1.3v1.7c0,1-0.1,2.1-0.3,3.1c-0.2,1.1-0.4,2.2-0.6,3.4
				c-0.2,1.1-0.4,2.3-0.6,3.4c-0.2,1.1-0.4,2.2-0.6,3.1c-0.2,0.9-0.3,1.7-0.4,2.4c-0.2,0.5-0.1,1,0.1,1.4c0,0.3,0,0.7,0.1,1
				c0.1,0.3,0.2,0.5,0.4,0.7c0.2,0.2,0.3,0.3,0.6,0.4c0.2,0.1,0.4,0.1,0.6,0.1c0.2,0,0.4,0,0.7-0.1c0.2-0.1,0.4-0.2,0.6-0.3
				c0.2-0.1,0.4-0.3,0.5-0.5c0.2-0.2,0.3-0.5,0.3-0.7c0.2-1,0.4-2.1,0.5-3.3c0.2-1.1,0.4-2.3,0.7-3.6c0.3-1.3,0.6-2.5,0.8-3.7
				c0.2-1.1,0.6-2.3,0.9-3.4c0.4-1.1,0.8-2.1,1.2-3c0.4-0.8,0.8-1.6,1.3-2.4c0.4-0.6,0.9-1.2,1.5-1.6c0.5-0.4,1.1-0.6,1.7-0.6
				c0.3,0,0.5,0.1,0.7,0.2c0.2,0.2,0.3,0.4,0.4,0.6c0.1,0.3,0.2,0.7,0.2,1v1.3c0,0.7-0.1,1.5-0.2,2.2l-0.5,2.6l-0.4,2.6l-0.5,2.6
				l-0.4,2.5c-0.1,0.7-0.2,1.5-0.3,2.3v0.3v0.3c0,0.7,0.1,1.4,0.4,2c0.2,0.5,0.6,1,1,1.5c0.4,0.4,0.9,0.7,1.4,0.9
				c0.5,0.2,1.1,0.3,1.7,0.3c0.6,0,1.2-0.1,1.8-0.3c0.6-0.2,1.2-0.5,1.7-0.9c0.3-0.2,0.5-0.4,0.8-0.6c0.1,0.3,0.2,0.6,0.5,0.9
				c0.2,0.3,0.6,0.5,0.9,0.6c0.4,0.2,0.9,0.2,1.4,0.2c0.6,0,1.3-0.1,1.9-0.3c0.7-0.2,1.4-0.5,2-0.8c0.6-0.3,1.2-0.7,1.8-1.1h0.1
				c0.3,0.6,0.7,1.1,1.1,1.5c0.4,0.5,1,0.7,1.6,0.7c0.4,0,0.8-0.1,1.2-0.1c0.4-0.1,0.9-0.2,1.3-0.4c0.4-0.2,0.9-0.3,1.3-0.5l1.2-0.6
				c0.4-0.2,0.8-0.5,1.2-0.7V56c0,0.4,0.1,0.7,0.3,1.1c0.1,0.3,0.3,0.6,0.6,0.7c0.3,0.2,0.7,0.3,1.1,0.3c0.3,0,0.6-0.1,0.9-0.2
				c0.3-0.2,0.6-0.5,0.8-0.8l4.6-8.1c0.2-0.5,0.6-0.9,0.9-1.3c0.2-0.2,0.4-0.3,0.7-0.3c0.1,0,0.3,0.1,0.3,0.2
				c0.1,0.2,0.1,0.4,0.1,0.5c0,0.1-0.1,0.2-0.1,0.2c-0.1,0.1-0.2,0.2-0.3,0.3l-0.4,0.4l-0.5,0.5c-0.4,0.5-0.8,1.1-1.1,1.7
				c-0.3,0.5-0.5,1-0.6,1.5c-0.1,0.4-0.3,0.8-0.3,1.2c-0.1,0.3-0.1,0.6-0.1,0.9c0,0.4,0,0.7,0.1,1.1c0.1,0.4,0.3,0.7,0.6,1
				c0.3,0.3,0.7,0.5,1.1,0.7c0.6,0.2,1.2,0.3,1.8,0.3c0.6,0,1.2-0.1,1.8-0.2c0.6-0.2,1.2-0.4,1.8-0.6c0.6-0.3,1.1-0.6,1.6-1
				c0.1,0.2,0.1,0.3,0.2,0.4c0.3,0.4,0.6,0.7,1,0.9c0.4,0.2,0.9,0.4,1.4,0.5c0.6,0.1,1.1,0.2,1.7,0.2c0.9,0,1.8-0.1,2.7-0.3
				c1-0.2,1.9-0.4,2.8-0.8c0.9-0.3,1.8-0.7,2.7-1.1l0.5-0.3v0.2c0,0.4,0.1,0.7,0.2,1.1c0.1,0.3,0.2,0.5,0.5,0.7
				c0.2,0.2,0.5,0.3,0.8,0.3c0.2,0,0.5,0,0.6-0.2c0.2-0.1,0.3-0.3,0.5-0.5c0.2-0.3,0.3-0.5,0.4-0.8c0.1-0.3,0.3-0.8,0.6-1.2
				c0.5-0.9,1-1.9,1.5-2.7c0.6-0.9,1.1-1.7,1.7-2.4c0.5-0.7,1-1.3,1.4-1.8c0.3-0.3,0.6-0.6,0.9-0.9h0.3c-0.1,0.1-0.2,0.2-0.2,0.3
				c-0.1,0.2-0.2,0.5-0.4,0.8c-0.1,0.3-0.3,0.7-0.5,1.1c-0.2,0.4-0.3,0.8-0.5,1.2c-0.1,0.4-0.3,0.8-0.3,1.3
				c-0.1,0.4-0.1,0.8-0.1,1.1c0,0.5,0.1,1,0.2,1.5c0.2,0.5,0.4,1,0.7,1.5c0.3,0.4,0.6,0.8,1,1.1c0.5,0.3,1,0.5,1.5,0.4
				c0.4,0,0.8-0.1,1.2-0.2c0.4-0.1,0.9-0.3,1.3-0.5c0.4-0.2,0.8-0.4,1.2-0.6c0.4-0.2,0.8-0.5,1.1-0.7l0.7-0.5
				c0.2,0.5,0.5,0.9,0.8,1.3c0.4,0.4,0.8,0.7,1.3,0.9c0.5,0.2,1,0.3,1.5,0.3c0.5,0,1-0.1,1.4-0.2c0.5-0.2,0.9-0.4,1.4-0.6
				c0.4-0.2,0.8-0.5,1.2-0.8c0.3-0.3,0.6-0.6,0.9-0.9c0.3,0.7,0.7,1.4,1.2,1.9c0.5,0.4,1.1,0.7,1.7,0.7c0.6,0,1.2-0.2,1.7-0.4
				c0.6-0.3,1.1-0.6,1.6-1c0.3-0.3,0.7-0.6,1-0.9v0.2c0,0.4,0.1,0.7,0.3,1.1c0.1,0.3,0.3,0.6,0.6,0.7c0.3,0.2,0.7,0.3,1.1,0.3
				c0.3,0,0.6-0.1,0.9-0.2c0.3-0.2,0.6-0.5,0.8-0.8l4.6-8.1c0.2-0.5,0.6-0.9,0.9-1.2c0.2-0.2,0.4-0.3,0.7-0.3c0.1,0,0.3,0.1,0.3,0.2
				c0.1,0.2,0.1,0.4,0.1,0.5c0,0.1,0,0.2-0.1,0.3c-0.1,0.1-0.2,0.2-0.3,0.3l-0.4,0.4l-0.5,0.5c-0.4,0.5-0.8,1.1-1.1,1.7
				c-0.3,0.5-0.5,1-0.7,1.5c-0.1,0.4-0.3,0.8-0.3,1.2c-0.1,0.3-0.1,0.6-0.1,0.9c0,0.4,0,0.7,0.1,1.1c0.1,0.4,0.3,0.7,0.6,1
				c0.3,0.3,0.7,0.5,1.1,0.7c0.6,0.2,1.2,0.3,1.8,0.3c0.6,0,1.2-0.1,1.8-0.2c0.6-0.2,1.2-0.4,1.8-0.6c0.6-0.3,1.1-0.6,1.6-1
				c0.1-0.1,0.3-0.2,0.4-0.4l0.2,0.2c0.5,0.6,1.1,1.1,1.8,1.5c0.8,0.4,1.7,0.6,2.6,0.5c0.6,0,1.3-0.1,1.9-0.2
				c0.6-0.1,1.2-0.3,1.8-0.6c0.6-0.2,1.1-0.5,1.6-0.8c0.5-0.3,1-0.6,1.5-1c1.1-0.8,2-1.6,2.9-2.6L166.5,50.8z M71.1,45.6
				c0.1-1.3,0.3-2.5,0.5-3.7v0l0.4-2.1l0.7-2.3c0.3-1.1,0.7-2.2,1.2-3.3c0.3-0.6,0.6-1.1,1-1.6c0.2-0.3,0.5-0.5,0.9-0.6
				c0.1,0,0.1,0.1,0.1,0.3c0,0.2,0,0.5,0,0.8c-0.1,1.1-0.3,2.1-0.7,3.1c-0.3,1.1-0.8,2.2-1.2,3.4c-0.5,1.1-1,2.2-1.5,3.3
				C72.1,43.8,71.6,44.8,71.1,45.6z M80.9,47.4c0.1-1.3,0.2-2.6,0.4-3.9l0.2-1.7l0.3-1.9c0.1-0.7,0.2-1.3,0.4-1.9l0.5-1.9
				c0.3-0.7,0.5-1.3,0.7-1.8c0.2-0.5,0.4-1,0.6-1.4c0.2-0.3,0.4-0.6,0.7-0.9c0.2-0.2,0.6-0.3,0.9-0.3c0.2,0,0.3,0.2,0.3,0.5
				c0,0.3-0.1,0.6-0.1,0.9c-0.1,0.3-0.2,0.7-0.3,1.1c-0.1,0.4-0.3,0.8-0.4,1.2c-0.2,0.4-0.3,0.8-0.5,1.2l-0.4,1.1
				c-0.1,0.3-0.2,0.6-0.3,0.9c-0.2,0.5-0.4,1.1-0.6,1.8l-0.7,2.3l-0.8,2.4L80.9,47.4z M98.7,54.2L98.7,54.2
				c-0.1,0.3-0.2,0.6-0.3,0.8c-0.2,0.2-0.4,0.4-0.6,0.5c-0.3,0.1-0.7,0.2-1,0.2c-0.3,0-0.6-0.1-0.9-0.2c-0.2-0.1-0.5-0.3-0.7-0.5
				l-0.5-0.6c-0.1-0.1-0.3-0.2-0.4-0.2l4.3-4.6l0.2,0.6c0.1,0.3,0.1,0.7,0,1c0,0.4,0,0.7,0,1.1c0,0.3,0.1,0.6,0.1,0.9
				C98.8,53.5,98.8,53.8,98.7,54.2z M110.4,44.8l-0.9,2.2c0.1-1.2,0.3-2.4,0.5-3.7l0.2-1.7l0.3-1.8c0.1-0.6,0.2-1.2,0.4-1.8
				c0.2-0.6,0.3-1.2,0.5-1.8c0.5-1.3,1.2-2.6,1.9-3.9c0.5-0.9,0.9-1.3,1.2-1.3s0.4,0.4,0.3,1.2c0,0.8-0.2,1.6-0.4,2.4
				c-0.4,1.4-0.8,2.7-1.3,4.1c-0.2,0.5-0.4,1-0.7,1.7l-0.9,2.1L110.4,44.8z M130.1,50.6c-0.1,0.4-0.2,0.9-0.3,1.3
				c-0.1,0.5-0.3,1-0.6,1.5c-0.2,0.4-0.5,0.9-0.8,1.2c-0.3,0.3-0.6,0.5-1.1,0.5c-0.2,0-0.4-0.1-0.6-0.2c-0.2-0.1-0.3-0.3-0.4-0.5
				c-0.1-0.2-0.2-0.4-0.2-0.7c0-0.3-0.1-0.5-0.1-0.8c0-0.5,0.1-1,0.2-1.5c0.2-0.6,0.4-1.2,0.6-1.8c0.3-0.6,0.6-1.2,0.9-1.7
				c0.3-0.4,0.6-0.9,1-1.2c0.3-0.3,0.7-0.6,1.2-0.9c0.4-0.2,0.8-0.3,1.3-0.3L130.1,50.6z M141.8,47.4c0.1-1.3,0.2-2.6,0.4-3.9
				l0.2-1.7l0.3-1.9c0.1-0.7,0.2-1.3,0.4-1.9l0.5-1.9c0.3-0.7,0.5-1.3,0.7-1.8c0.2-0.5,0.4-1,0.6-1.4c0.2-0.3,0.4-0.6,0.7-0.9
				c0.2-0.2,0.6-0.3,0.9-0.3c0.2,0,0.3,0.2,0.3,0.5c0,0.3-0.1,0.6-0.1,0.9c-0.1,0.3-0.2,0.7-0.3,1.1c-0.1,0.4-0.3,0.8-0.4,1.2
				c-0.2,0.4-0.3,0.8-0.5,1.2l-0.4,1.1c-0.1,0.3-0.2,0.6-0.3,0.9c-0.2,0.5-0.4,1.1-0.6,1.8l-0.7,2.3l-0.8,2.4L141.8,47.4z
				 M156.8,49.8c0-0.4,0.1-0.8,0.3-1.2c0.2-0.5,0.3-0.9,0.5-1.2c0.1-0.3,0.3-0.6,0.5-0.9c0.5-0.6,1.2-0.9,2-0.9
				c0.3,0,0.5,0.2,0.6,0.5c0.2,0.3,0.3,0.7,0.3,1.1c-0.1,0.5-0.2,0.9-0.5,1.2c-0.3,0.4-0.7,0.9-1.1,1.2c-0.4,0.3-0.8,0.5-1.2,0.7
				c-0.4,0.2-0.8,0.3-1.2,0.3C156.8,50.4,156.8,50.1,156.8,49.8z"/>
		</g>
	</g>
</g>
</svg>
