<svg xmlns="http://www.w3.org/2000/svg" width="170" height="123" viewBox="-21 0 170 123">
  <defs>
    <style>
      .a {
        fill: #ededed;
      }
    </style>
  </defs>
  <title>logo-CodePen</title>
  <g>
    <path class="a" d="M84,1A60.55,60.55,0,1,0,144.55,61.5,60.55,60.55,0,0,0,84,1ZM84,112.1a50.6,50.6,0,1,1,50.6-50.6A50.66,50.66,0,0,1,84,112.1Z" transform="translate(-23.45 -0.95)"/>
    <path class="a" d="M121.41,49.67s0-.09,0-0.14,0-.18-0.06-0.27,0-.1-0.05-0.16-0.05-.16-0.08-0.23l-0.07-.16L121,48.5l-0.09-.15-0.14-.2L120.67,48l-0.16-.17-0.13-.13-0.18-.15-0.15-.11-0.05,0L85.78,24.6a3.22,3.22,0,0,0-3.57,0L48,47.42l-0.05,0-0.14.11-0.18.15-0.13.13L47.33,48l-0.11.14-0.13.2L47,48.5l-0.11.21-0.07.16c0,0.08-.06.16-0.08,0.23l-0.05.16c0,0.09,0,.18-0.06.27s0,0.09,0,.14a3.11,3.11,0,0,0,0,.42V72.91a3.16,3.16,0,0,0,0,.42s0,0.09,0,.14,0,0.18.06,0.27l0.05,0.16c0,0.08.05,0.16,0.08,0.24l0.07,0.16L47,74.5l0.09,0.15,0.13,0.2L47.33,75l0.16,0.17,0.13,0.13,0.18,0.15,0.14,0.11,0.05,0L82.22,98.4a3.21,3.21,0,0,0,3.57,0L120,75.58l0.05,0,0.15-.11,0.18-.15,0.13-.13,0.16-.17,0.11-.14,0.14-.2L121,74.5l0.11-.21,0.07-.16c0-.08.06-0.16,0.08-0.24s0-.1.05-0.16,0-.18.06-0.27l0-.14a3.36,3.36,0,0,0,0-.42V50.09A3.3,3.3,0,0,0,121.41,49.67ZM87.22,33.29l25.21,16.8-11.26,7.53L87.22,48.3v-15Zm-6.44,0v15L66.83,57.63,55.57,50.1ZM53,56.12l8,5.38-8,5.38V56.12ZM80.78,89.71L55.57,72.9l11.26-7.53L80.78,74.7v15ZM84,69.11L72.62,61.5,84,53.89,95.38,61.5Zm3.22,20.6v-15l13.95-9.33,11.26,7.53ZM115,66.88l-8-5.38,8-5.38V66.88Z" transform="translate(-23.45 -0.95)"/>
  </g>
</svg>
