<?xml version="1.0" encoding="utf-8"?>
<!-- Generator: Adobe Illustrator 19.2.1, SVG Export Plug-In . SVG Version: 6.00 Build 0)  -->
<svg version="1.1" id="Layer_1" xmlns="http://www.w3.org/2000/svg" xmlns:xlink="http://www.w3.org/1999/xlink" x="0px" y="0px"
	 viewBox="0 0 170 123" style="enable-background:new 0 0 170 123;" xml:space="preserve">
<style type="text/css">
	.st0{fill:#CB3727;}
</style>
<title>logo-Milkshakeinteractive</title>
<g>
	<path class="st0" d="M1.2,50.8v-4.5h12.7v4.5H9.7v25.3H5.3V50.8H1.2z"/>
	<path class="st0" d="M23.3,63.2h-3.4v13h-4.4V46.3h4.4v12.3h3.4V46.3h4.4v29.8h-4.4V63.2z"/>
	<path class="st0" d="M29.7,76.1l4.5-29.8h5.4l4.5,29.8h-4.3L39,70.1h-4.2L34,76.1H29.7z M37.1,56L37,55.3h-0.2L36.7,56l-1.3,9.4h3
		L37.1,56z"/>
	<path class="st0" d="M43.7,50.8v-4.5h12.7v4.5h-4.1v25.3h-4.4V50.8H43.7z"/>
	<path class="st0" d="M72.1,76.1l-2.3-12.6h-1.2v12.6h-4.4V46.3h4.4c5.2,0,7.5,3,7.5,8.6c0,3-0.8,5.6-2.4,6.8l2.8,14.4H72.1z
		 M68.7,59.5c0.6,0,1.4-0.1,2.1-0.6c0.6-0.6,1.2-1.7,1.2-3.8c0-2.1-0.5-3.2-1.2-3.8c-0.6-0.6-1.5-0.6-2.1-0.6V59.5z"/>
	<path class="st0" d="M78.9,46.3h10v4.5h-5.6v7.8h4.1v4.8h-4.1v8.2h5.6v4.5h-10V46.3z"/>
	<path class="st0" d="M91.4,76.1V46.3h3.4c4.1,0,6.2,0.8,7.4,3.1c1.1,2.3,1.3,6,1.3,11.8s-0.2,9.5-1.3,11.8
		c-1.2,2.3-3.4,3.1-7.4,3.1H91.4z M95.8,71.8c1.5,0,2.4-0.2,2.8-1.6c0.2-0.7,0.4-1.7,0.4-3.2c0-1.4,0-3.3,0-5.8s0-4.3,0-5.8
		c0-1.4-0.2-2.4-0.4-3.2c-0.4-1.4-1.3-1.6-2.8-1.6V71.8z"/>
	<path class="st0" d="M120.5,63.2h-3.4v13h-4.4V46.3h4.4v12.3h3.4V46.3h4.4v29.8h-4.4V63.2z"/>
	<path class="st0" d="M128.1,46.3h10v4.5h-5.6v7.8h4.1v4.8h-4.1v8.2h5.6v4.5h-10V46.3z"/>
	<path class="st0" d="M139.4,76.1l4.5-29.8h5.4l4.5,29.8h-4.3l-0.8-6.1h-4.2l-0.8,6.1H139.4z M146.9,56l-0.1-0.8h-0.2l-0.1,0.8
		l-1.3,9.4h3L146.9,56z"/>
	<path class="st0" d="M155.8,76.1V46.3h3.4c4.1,0,6.2,0.8,7.4,3.1c1.1,2.3,1.3,6,1.3,11.8s-0.2,9.5-1.3,11.8
		c-1.2,2.3-3.4,3.1-7.4,3.1H155.8z M160.2,71.8c1.5,0,2.4-0.2,2.8-1.6c0.2-0.7,0.4-1.7,0.4-3.2c0-1.4,0-3.3,0-5.8s0-4.3,0-5.8
		c0-1.4-0.2-2.4-0.4-3.2c-0.4-1.4-1.3-1.6-2.8-1.6V71.8z"/>
</g>
</svg>
