<svg xmlns="http://www.w3.org/2000/svg" width="170" height="123" viewBox="0 -55 170 123">
  <defs>
    <style>
      .a {
        fill: #292526;
      }

      .b {
        fill: #2b2526;
      }

      .c {
        fill: #ededed;
      }

      .d {
        fill: #a61d20;
      }

      .e {
        fill: #282324;
      }

      .f {
        fill: #282425;
      }

      .g {
        fill: #231f20;
      }
    </style>
  </defs>
  <title>logo-EMID</title>
  <path class="a" d="M22.34,74a0.7,0.7,0,0,1-.08-0.58l0.08-.06q5.77-5.77,11.55-11.53c0.27-.27.21-0.39,0-0.63Q28.18,55.52,22.5,49.84a3.93,3.93,0,0,0-5.92,0L8.39,58c-0.24.24-.47,0.49-0.7,0.74A0.59,0.59,0,0,1,7,58.58c-0.14-.29.22-0.36,0.33-0.55a1.34,1.34,0,0,1,.21-0.22l8.67-8.69A5.12,5.12,0,0,1,19,47.83a4.51,4.51,0,0,1,3.82,1.31q6,6,12,12c0.38,0.38.22,0.62-.08,0.92L22.84,73.88,22.75,74H22.34Z" transform="translate(-1 -46.02)"/>
  <path class="b" d="M1,58.27a0.35,0.35,0,0,0,.23-0.17L13,46.28a0.39,0.39,0,0,0,.2-0.27h0.41a0.54,0.54,0,0,1,.09.68,1.21,1.21,0,0,0-.47.38q-5.5,5.5-11,11c-0.33.33-.34,0.5,0,0.83,3.79,3.76,7.59,7.52,11.33,11.33a4.1,4.1,0,0,0,5.83,0c2.81-2.86,5.67-5.68,8.51-8.52a1.37,1.37,0,0,0,.39-0.47,0.49,0.49,0,0,1,.71.17c0.16,0.29-.16.37-0.29,0.5-1.73,1.75-3.48,3.49-5.22,5.24l-3.73,3.76a4.68,4.68,0,0,1-6.11.32,12.14,12.14,0,0,1-1-1L1.34,59c-0.11-.11-0.22-0.2-0.34-0.3V58.27Z" transform="translate(-1 -46.02)"/>
  <path class="c" d="M92.5,58.28c0-3.08,0-6.16,0-9.23,0-.42.13-0.48,0.51-0.48h17.09A2.44,2.44,0,0,1,112.53,51c-0.05,4.91,0,9.83,0,14.74a2.39,2.39,0,0,1-2,2.24c-0.71,0-1.41.07-2.12,0.07-5.12,0-10.24,0-15.36,0-0.42,0-.53-0.08-0.53-0.52C92.51,64.47,92.5,61.37,92.5,58.28Zm15.42,0.09c0-1.8,0-3.61,0-5.41,0-.33-0.08-0.42-0.42-0.42q-5,0-10,0c-0.33,0-.42.08-0.42,0.42q0,5.36,0,10.72c0,0.33.08,0.42,0.42,0.42q5,0,10,0c0.33,0,.42-0.08.42-0.42C107.91,61.91,107.92,60.14,107.92,58.37Z" transform="translate(-1 -46.02)"/>
  <path class="c" d="M48.29,68.07c-3.18,0-6.36,0-9.55,0-0.39,0-.47-0.1-0.47-0.47q0-9.29,0-18.58c0-.38.09-0.47,0.47-0.47q9.55,0,19.09,0c0.38,0,.48.09,0.47,0.47q0,1.53,0,3.06c0,0.38-.09.47-0.47,0.47-4.78,0-9.56,0-14.34,0-0.42,0-.54.1-0.52,0.52,0,1,0,1.91,0,2.86,0,0.34.09,0.42,0.42,0.42,3.3,0,6.6,0,9.9,0,0.43,0,.54.1,0.52,0.52,0,1,0,2,0,3,0,0.34-.09.42-0.42,0.41-3.3,0-6.6,0-9.9,0-0.43,0-.54.1-0.52,0.52,0,1,0,1.94,0,2.91,0,0.39.1,0.47,0.47,0.47,4.78,0,9.56,0,14.34,0,0.43,0,.53.1,0.52,0.53,0,1,0,2,0,3.06,0,0.34-.09.41-0.42,0.41h-9.6Z" transform="translate(-1 -46.02)"/>
  <path class="c" d="M146.72,69L131.3,57v0.69c0,3.32,0,6.63,0,10,0,0.35-.07.46-0.44,0.45-1.28,0-2.55,0-3.83,0-0.26,0-.35-0.05-0.35-0.33,0-6.68,0-13.37,0-20.18l15.42,12V59.08c0-3.35,0-6.7,0-10.05,0-.38.09-0.48,0.47-0.47,1.26,0,2.52,0,3.78,0,0.29,0,.36.08,0.36,0.37C146.72,55.59,146.72,62.26,146.72,69Z" transform="translate(-1 -46.02)"/>
  <path class="c" d="M77.62,57.38c-0.56.7-1.09,1.35-1.6,2L73.25,63c-0.16.21-.35,0.4-0.51,0.62-0.44.58-.41,0.56-0.87,0-0.89-1.16-1.8-2.3-2.7-3.45L67,57.35c-0.36,1.66-.72,3.28-1.08,4.9-0.41,1.83-.83,3.66-1.21,5.49a0.34,0.34,0,0,1-.4.33c-1.34,0-2.69,0-4,0C60,68.08,60,67.95,60,67.74c0.44-1.86.89-3.71,1.31-5.57,0.49-2.18,1-4.37,1.44-6.55,0.53-2.37,1.09-4.74,1.61-7.12a5.26,5.26,0,0,1,.2-0.84,1.89,1.89,0,0,1,.58.7c1.48,1.9,3,3.78,4.45,5.68,0.91,1.16,1.79,2.34,2.7,3.52,1.68-2.19,3.34-4.39,5-6.55,0.82-1,1.65-2.08,2.43-3.15A0.37,0.37,0,0,1,80,47.69a0.32,0.32,0,0,1,.13.3q1,4.33,1.94,8.66c0.57,2.5,1.16,5,1.71,7.5,0.27,1.22.51,2.45,0.82,3.66,0.05,0.21,0,.27-0.21.27H80.17c-0.18,0-.2-0.07-0.23-0.23q-0.7-3.28-1.42-6.56c-0.24-1.11-.5-2.21-0.77-3.31A1.76,1.76,0,0,0,77.62,57.38Z" transform="translate(-1 -46.02)"/>
  <path class="d" d="M28.31,61.25a1.38,1.38,0,0,1-.39.47c-2.84,2.84-5.7,5.66-8.51,8.52a4.1,4.1,0,0,1-5.83,0C9.85,66.41,6.05,62.66,2.26,58.89c-0.33-.33-0.33-0.5,0-0.83q5.52-5.48,11-11a1.21,1.21,0,0,1,.47-0.38l2.47,2.43L7.56,57.81a1.34,1.34,0,0,0-.21.22c-0.11.19-.48,0.25-0.33,0.55a0.59,0.59,0,0,0,.69.19l2.44,2.49c-0.13.19-.19,0.36,0.05,0.51a0.42,0.42,0,0,0,.56,0L11,61.45l7.81-7.81c0.31-.31.63-0.61,1-0.91,0.86,0.79,1.69,1.61,2.47,2.48-0.45.46-.89,0.93-1.35,1.38l-7.66,7.66c-0.1.1-.31,0.17-0.21,0.35a0.48,0.48,0,0,0,.44.29,1.89,1.89,0,0,0,.25,0l2.49,2.46a0.33,0.33,0,0,0,0,.55c0.24,0.2.37,0,.52-0.08s0.19-.19.29-0.29l8.34-8.34a1.34,1.34,0,0,1,.46-0.39Z" transform="translate(-1 -46.02)"/>
  <path class="c" d="M159.46,48.57c2.86,0,5.72,0,8.57,0,0.36,0,.45.09,0.44,0.44q0,1.56,0,3.11c0,0.36-.09.44-0.44,0.44-4.78,0-9.56,0-14.34,0-0.44,0-.55.09-0.55,0.55q0,5.26,0,10.51c0,0.39.09,0.5,0.49,0.5l14.34,0c0.38,0,.52.07,0.5,0.49,0,1,0,2.08,0,3.11,0,0.3-.06.4-0.38,0.4-5.67,0-11.33,0-17,0a2.3,2.3,0,0,1-2.57-1.79,1.62,1.62,0,0,1-.06-0.54c0-4.88,0-9.76,0-14.65a2.36,2.36,0,0,1,2.48-2.5C153.77,48.56,156.62,48.57,159.46,48.57Z" transform="translate(-1 -46.02)"/>
  <path class="c" d="M90.87,58.32c0,3.1,0,6.19,0,9.29,0,0.38-.08.48-0.47,0.47-1.26,0-2.52,0-3.78,0-0.29,0-.37-0.08-0.36-0.36q0-9.39,0-18.78c0-.29.07-0.37,0.36-0.37,1.28,0,2.55,0,3.83,0,0.33,0,.42.08,0.42,0.42C90.86,52.09,90.87,55.2,90.87,58.32Z" transform="translate(-1 -46.02)"/>
  <path class="c" d="M120.48,58.27c0-3.08,0-6.16,0-9.24,0-.38.09-0.48,0.47-0.47,1.26,0,2.52,0,3.78,0,0.29,0,.36.08,0.36,0.37q0,9.39,0,18.78c0,0.29-.08.37-0.36,0.36-1.28,0-2.55,0-3.83,0-0.34,0-.42-0.09-0.42-0.42C120.48,64.53,120.48,61.4,120.48,58.27Z" transform="translate(-1 -46.02)"/>
  <path class="c" d="M10.14,61.25L7.7,58.76c0.23-.25.46-0.5,0.7-0.74l8.19-8.18a3.93,3.93,0,0,1,5.92,0q5.68,5.68,11.37,11.35c0.24,0.24.29,0.36,0,.63q-5.79,5.76-11.55,11.53l-0.08.06a28.24,28.24,0,0,0-2.49-2.49l3.73-3.76c1.74-1.75,3.49-3.48,5.22-5.24,0.13-.13.46-0.21,0.29-0.5a0.49,0.49,0,0,0-.71-0.17l-2.44-2.48c0.13-.17.25-0.32,0-0.5a0.39,0.39,0,0,0-.55,0L25,58.58l-7.67,7.67c-0.36.36-.73,0.71-1.1,1.06l-2.49-2.46a1.23,1.23,0,0,1,.36-0.42q4.34-4.35,8.7-8.68c0.28-.28.22-0.43-0.05-0.61a0.46,0.46,0,0,0-.48.06c-0.78-.87-1.61-1.69-2.47-2.48,0.1-.16.32-0.29,0.06-0.5a0.41,0.41,0,0,0-.63,0L19,52.49c-2.18,2.18-4.35,4.36-6.54,6.53A31.41,31.41,0,0,1,10.14,61.25Z" transform="translate(-1 -46.02)"/>
  <path class="e" d="M22.26,55.21a0.46,0.46,0,0,1,.48-0.06c0.28,0.18.34,0.33,0.05,0.61q-4.36,4.33-8.7,8.68a1.23,1.23,0,0,0-.36.42,2,2,0,0,1-.25,0A0.48,0.48,0,0,1,13,64.61c-0.09-.18.12-0.26,0.21-0.35l7.66-7.66C21.37,56.14,21.82,55.67,22.26,55.21Z" transform="translate(-1 -46.02)"/>
  <path class="f" d="M10.14,61.25A31.41,31.41,0,0,0,12.44,59c2.19-2.17,4.36-4.35,6.54-6.53l0.25-.25a0.41,0.41,0,0,1,.63,0c0.26,0.22,0,.34-0.06.5-0.32.3-.64,0.6-1,0.91L11,61.45l-0.29.29a0.42,0.42,0,0,1-.56,0C9.95,61.61,10,61.44,10.14,61.25Z" transform="translate(-1 -46.02)"/>
  <path class="g" d="M16.23,67.31c0.37-.35.74-0.7,1.1-1.06L25,58.58l0.33-.32a0.39,0.39,0,0,1,.55,0c0.25,0.18.13,0.34,0,.5a1.34,1.34,0,0,0-.46.39l-8.34,8.34c-0.1.1-.19,0.2-0.29,0.29s-0.28.28-.52,0.08A0.33,0.33,0,0,1,16.23,67.31Z" transform="translate(-1 -46.02)"/>
</svg>
