<svg xmlns="http://www.w3.org/2000/svg" width="170" height="123" viewBox="0 -47 170 123">
  <defs>
    <style>
      .a {
        fill: #fff;
      }
    </style>
  </defs>
  <title>logo-BHW1</title>
  <g>
    <path class="a" d="M31.54,54.27a9.4,9.4,0,0,0,5.58-8.85V45.3a9.12,9.12,0,0,0-2.77-6.77C31.77,36,28,34.8,22.83,34.8H1.33V75.7H22.95c10,0,16-4.29,16-11.48V64.1c0-4.78-2.36-7.93-7.4-9.83m-6.59-6.57c0,2-1.66,3-4.93,3H13.34V44.62h6.91c2.14,0,4.69.52,4.69,3v0.11ZM13.34,59.41h8.2c2.33,0,5.1.55,5.1,3.15v0.11c0,2.79-3.12,3.2-5,3.2H13.34V59.41Z" transform="translate(-1.33 -34.68)"/>
    <polygon class="a" points="66.67 15.08 53.02 15.08 53.02 0.11 40.72 0.11 40.72 41.02 53.02 41.02 53.02 25.82 66.67 25.82 66.67 41.02 78.97 41.02 78.97 0.11 66.67 0.11 66.67 15.08"/>
    <polygon class="a" points="134.57 0.11 127.75 22.2 120.19 0 109.74 0 102.19 22.2 95.37 0.11 82.36 0.11 96.38 41.3 106.95 41.3 114.82 19.2 122.75 41.3 133.32 41.3 147.34 0.11 134.57 0.11"/>
    <polygon class="a" points="153.44 41.02 165.68 41.02 165.68 0.1 151.16 0.1 147.63 10.33 153.44 10.33 153.44 41.02"/>
    <path class="a" d="M98.24,81.63L97,84.52h2.49ZM102,87.39h-1.34L100,85.65H96.54l-0.74,1.75h-1.3l3.18-7.28h1.18Z" transform="translate(-1.33 -34.68)"/>
    <path class="a" d="M105.89,81.32h-1.43v4.92h1.43a2.46,2.46,0,1,0,0-4.92m0,6.08h-2.7V80.16h2.7a3.62,3.62,0,1,1,0,7.23" transform="translate(-1.33 -34.68)"/>
    <polygon class="a" points="114.55 45.52 115.92 45.52 112.91 52.8 111.8 52.8 108.79 45.52 110.2 45.52 112.38 51.07 114.55 45.52"/>
    <polygon class="a" points="122.49 46.61 118.4 46.61 118.4 48.49 122.03 48.49 122.03 49.63 118.4 49.63 118.4 51.57 122.54 51.57 122.54 52.71 117.13 52.71 117.13 45.48 122.49 45.48 122.49 46.61"/>
    <path class="a" d="M128.53,81.32h-1.85v2.43h1.86A1.28,1.28,0,0,0,130,82.52a1.24,1.24,0,0,0-1.5-1.21m1.52,6.08-1.78-2.52h-1.59v2.52h-1.27V80.16h3.22c1.66,0,2.69.88,2.69,2.29a2.17,2.17,0,0,1-1.73,2.2l2,2.74h-1.5Z" transform="translate(-1.33 -34.68)"/>
    <polygon class="a" points="134.52 52.71 133.24 52.71 133.24 46.65 130.94 46.65 130.94 45.48 136.81 45.48 136.81 46.65 134.52 46.65 134.52 52.71"/>
    <rect class="a" x="138.05" y="45.47" width="1.27" height="7.23"/>
    <path class="a" d="M145.33,83.2c1.53,0.37,2.32.92,2.32,2.13,0,1.36-1.06,2.17-2.58,2.17a4.45,4.45,0,0,1-3-1.16l0.76-.91a3.33,3.33,0,0,0,2.28.94,1.07,1.07,0,0,0,1.28-.92c0-.53-0.29-0.81-1.63-1.12-1.54-.37-2.41-0.83-2.41-2.17a2.21,2.21,0,0,1,2.47-2.11,4,4,0,0,1,2.62.91l-0.68,1a3.29,3.29,0,0,0-2-.74,1,1,0,0,0-1.18.87c0,0.57.33,0.82,1.72,1.15" transform="translate(-1.33 -34.68)"/>
    <rect class="a" x="147.86" y="45.47" width="1.27" height="7.23"/>
    <polygon class="a" points="156.11 45.48 157.36 45.48 157.36 52.71 156.29 52.71 152.3 47.56 152.3 52.71 151.05 52.71 151.05 45.48 152.23 45.48 156.11 50.48 156.11 45.48"/>
    <path class="a" d="M164,87.52a3.59,3.59,0,0,1-3.75-3.73A3.69,3.69,0,0,1,164,80a3.9,3.9,0,0,1,2.78,1l-0.81,1a2.83,2.83,0,0,0-2-.77,2.59,2.59,0,0,0,.11,5.16,3,3,0,0,0,1.75-.55V84.46h-1.85V83.35H167v3a4.6,4.6,0,0,1-3,1.13" transform="translate(-1.33 -34.68)"/>
  </g>
</svg>
