<svg xmlns="http://www.w3.org/2000/svg" width="170" height="123" viewBox="-3 -20 170 123">
<style type="text/css">
	.st0{fill:#646465;}
	.st1{fill:#B4D07B;}
</style>
<title>logo-benniditos</title>
<g>
	<path class="st0" d="M34,15.1c6.6-1.6,13.4,1.1,16,7.9c4.6-1.5,9.1-1.4,13.2,1.6c3.7-3,7.9-3.4,12.4-2.5c-0.5-2.7,0.4-5.4,2.4-7.3
		c1.5-1.5,3.5-2.2,5.6-2.2c4.4,0.1,8,3.7,7.9,8.1c0,0.4,0,0.8-0.1,1.2l3.7-1l-0.1-6.1l1.7-0.1c2.4-0.1,4.8-0.1,7.2-0.2
		c0.3,0,0.6-0.1,0.8-0.3c3.1-3.1,8.1-3.1,11.2-0.1c0.3,0.3,0.6,0.6,0.8,1c0.2,0.3,0.6,0.5,1,0.5c2.2-0.1,4.5-0.1,6.7-0.2h0.8
		l0.1,5.2h3.5l0.1,0.7c3.4-1.6,7.3-1.8,10.7-0.3l1.1-5.6l14.5-0.4l-1.9,4.9l8.8-0.2c0,0.2,0.1,0.4,0.1,0.6c0.1,4.4,0.2,8.7,0.3,13.1
		c0,0.2,0,0.3,0,0.5c-0.1,0.3,0,0.7,0.2,1c1.4,2.6,1.7,5.7,0.9,8.5c-0.8,3.3-3.5,5.8-6.9,6.3c-1.1,0.1-2.2,0.2-3.4,0.3h-0.8l0.4,0.6
		c2.5,4.2,2.5,9.4,0,13.6c-1.9,3.4-5.3,5.6-9.1,6c-3.5,0.5-7.1-0.4-9.9-2.6c-1-0.8-1.9-1.8-2.6-2.9l-0.4-0.6
		c-5,2.9-10.2,3.9-15.7,1.2c-2.2,2.9-5.5,4.8-9.2,5.3l0.2,8.7l-16.8,0.4c-0.2-5-0.2-10.1-0.4-15.1l-1.2,0.3
		c-2.5,0.7-5.1,0.5-7.4-0.7c-0.3-0.2-0.7-0.2-1,0c-4.3,2.4-9.7,1.5-13-2.2l-0.4-0.4l-0.6,0.4c-2.6,1.7-5.7,2.5-8.9,2.4
		c-3.4-0.1-6.5-1.6-8.8-4.1l-0.2-0.3l-0.3-0.3l-1,0.4L42,61.8c-0.3,0.1-0.5,0.3-0.5,0.6c-1.1,4.9-4.3,7.8-9.1,9.1
		c-1,0.2-2,0.4-3,0.4h-0.5l0.2,8.8c-0.6,0.2-16.6,0.6-17.5,0.5l-0.7-27.4L1,54.1c0-0.8-0.1-1.6-0.1-2.4C0.8,46.8,0.7,41.9,0.6,37
		c-0.2-5.6-0.3-11.1-0.5-16.7c0-1.5-0.1-3-0.1-4.4C-0.3,9.4,3.6,3.6,9.6,1.4c3-1.1,6.1-1.6,9.3-1.4c3.5,0.1,6.8,1.3,9.6,3.3
		c2.9,2.1,4.9,5.2,5.4,8.8c0.1,0.8,0.1,1.6,0.2,2.3C34,14.7,34,14.9,34,15.1z M27.6,19.7l0.4-0.5c0.7-0.8,1.3-1.8,1.6-2.8
		c0.5-2,0.3-4.1-0.5-5.9c-1.1-2.3-3-4.1-5.4-5c-4-1.7-8.5-1.7-12.5,0C6.7,7,3.8,11.3,4.2,15.9c0.1,2.3,0.1,4.7,0.2,7
		c0.1,3.4,0.2,6.8,0.2,10.2C4.7,38.4,4.9,43.6,5,48.8c0,0.3,0,0.6,0.1,1l8.8-0.2c0.2-1.4,0.6-2.8,1.4-4c0.2-0.4,0.4-0.8,0.3-1.2
		c-0.1-4.2-0.2-8.4-0.3-12.6c-0.1-5.2-0.3-10.5-0.4-15.7c0-0.6,0-1.1,0.2-1.6c0.2-0.7,0.8-1.2,1.5-1.2c0.3,0,0.6,0,0.8,0
		c0.8,0.1,1.5,0.6,1.8,1.3c0.2,0.9-0.1,1.8-0.9,2.3c-0.3,0.2-0.7,0.3-1,0.4c-0.2,0.1-0.3,0.1-0.5,0.1l0.2,7c0.3,0,0.7,0,1,0
		c0.7,0.1,1.3,0.2,2,0.4c0.7,0.2,1.2,0.8,1.2,1.5c0.2,0.9-0.3,1.8-1.1,2.2c-0.7,0.4-1.4,0.6-2.2,0.7c-0.3,0-0.5,0.1-0.8,0.2l0.2,8.4
		c1.3,0,2.4,0,3.6,0c1.1,0,2.1-0.1,3.2-0.3c2.2-0.3,4.2-1.4,5.8-3c0.2-0.2,0.3-0.4,0.5-0.6c-2.9-4.2-3.3-8.4-0.5-12.7
		C29.2,20.7,28.4,20.1,27.6,19.7z M33.6,53.8l0.4-0.5c0.8-1,1.2-2.2,1.2-3.5c0.1-2.5-1.1-4.9-3.3-6.2c-1.4-1-3-1.6-4.8-1.7
		c-2.6-0.3-5.2,0.1-7.5,1.2c-2.1,1-3.6,2.8-4.2,5c-0.2,1-0.3,2-0.3,3c0.1,3.7,0.2,7.4,0.3,11.1c0.1,4.7,0.2,9.4,0.4,14.2
		c0,0.2,0,0.5,0,0.8l8.4-0.2c0-0.9,0-1.8,0-2.6c-0.1-3.4-0.2-6.9-0.2-10.3c-0.1-3.9-0.2-7.8-0.3-11.8c0-0.6-0.1-1.3,0-1.9
		c0.1-1.4,0.9-1.6,2-1.4c0.5,0.1,1,0.5,1.1,1c0.1,0.6-0.1,1.1-0.5,1.5c-0.2,0.2-0.5,0.3-0.7,0.4c-0.2,0.1-0.4,0.1-0.6,0.2l0.2,5.6
		c0.4,0,0.6,0,0.9,0c0.4,0,0.9,0.1,1.3,0.2c0.8,0.2,1.2,1.1,1,1.8c-0.1,0.4-0.4,0.7-0.7,0.9c-0.3,0.2-0.7,0.3-1,0.4
		c-0.4,0.1-0.9,0.2-1.4,0.3l0.2,6.8c1.8,0.1,3.7,0,5.5-0.2c4-0.8,6.4-3.6,6.3-7.7c0.1-2.5-1.2-4.8-3.3-6.1
		C33.7,54,33.7,53.9,33.6,53.8L33.6,53.8z M102.8,66.8c0.2,0,0.4,0,0.6,0c1.5,0,2.9-0.3,4.3-0.8c2.7-0.9,4.8-3.2,5.4-6
		c0.1-0.4,0.1-0.8-0.1-1.1c-0.3-0.6-0.5-1.3-0.7-2c-0.7-2.5-1.3-4.9-2-7.4c-0.1-0.4-0.3-0.8-0.7-1c-2.6-2-6.1-2.7-9.3-1.9
		c-3.8,0.9-6.1,3.4-7.1,7.1c-0.5,2-0.6,4-0.5,6c0.2,5,0.2,10,0.4,15.1c0,0.2,0,0.5,0,0.8l8.6-0.2c0-0.4,0-0.6,0-0.9
		c-0.1-3.5-0.2-6.9-0.3-10.4c-0.1-2.3-0.1-4.5-0.2-6.8c0-0.5,0.1-1.1,0.2-1.6c0.2-0.7,0.9-1.1,1.6-1.1c0.7-0.1,1.3,0.2,1.7,0.8
		c0.8,0.9,0.6,2.2-0.2,3c-0.3,0.2-0.6,0.4-0.9,0.4c-0.2,0-0.3,0.1-0.5,0.1l-0.7,0.2L102.8,66.8z M73.7,43.7l-6.6,0.2
		c0,0.2,0,0.3,0,0.4c0.1,3.5,0.2,7,0.3,10.4c0,0.6,0.1,1.3,0.3,1.9c0.8,3.5,4.3,5.7,7.8,4.9c0.1,0,0.3-0.1,0.4-0.1
		c1.2-0.4,2.2-1,3.1-1.8l0.5-0.5c0.6,0.4,1,0.8,1.6,1.2c2.4,1.6,5.6,1.5,7.8-0.3c1.8-1.3,2.8-3.5,2.7-5.7c-0.1-3.6-0.2-7.1-0.3-10.7
		c0-0.1,0-0.2,0-0.3c-2.2-0.1-4.4,0-6.6,0.2c0,0.4,0,0.8,0,1.2c0.1,2.8,0.2,5.6,0.2,8.4c0,0.4-0.1,0.8-0.2,1.1
		c-0.2,0.5-0.8,0.7-1.3,0.5c-0.3-0.1-0.4-0.3-0.5-0.6c-0.1-0.4-0.1-0.8-0.1-1.2c-0.1-2.4-0.1-4.9-0.2-7.3c0-0.7-0.1-1.4-0.1-2.2
		l-6.6,0.2c0,0.3,0,0.6,0,0.9c0.1,2.8,0.2,5.6,0.2,8.4c0,0.5,0,1.1-0.2,1.6c-0.1,0.5-0.7,0.8-1.2,0.6c0,0-0.1,0-0.1,0
		c-0.4-0.2-0.6-0.5-0.6-0.9c-0.1-0.6-0.1-1.1-0.1-1.7c-0.1-2.7-0.1-5.3-0.2-8C73.7,44.3,73.7,44.1,73.7,43.7z M110.5,45.6
		c0.1,0.3,0.1,0.4,0.1,0.6l1.8,6.9c0.4,1.4,0.7,2.9,1.2,4.3c0.8,3,3.4,5.2,6.5,5.5c2.9,0.4,5.9-0.4,8.2-2.1c1.5-1,2.6-2.6,3.1-4.5
		c0.3-1.4,0.3-2.9-0.1-4.2l-2.8-10.6c-0.1-0.2-0.1-0.4-0.2-0.7l-7.5,2c0,0.2,0.1,0.3,0.1,0.4c0.9,3.3,1.7,6.6,2.6,9.9
		c0.1,0.4,0.2,0.7,0.2,1.1c0.1,0.6-0.3,1.2-0.9,1.4c-0.6,0.3-1.3,0-1.5-0.6c0,0,0,0,0,0c-0.2-0.4-0.4-0.9-0.5-1.3
		c-0.7-2.7-1.4-5.3-2.1-8c-0.2-0.7-0.4-1.3-0.6-2L110.5,45.6z M133.2,42.7c0,0.2,0,0.3,0,0.4c-0.1,4.3-0.2,8.5-0.3,12.8
		c-0.1,1.4,0.1,2.8,0.4,4.1c0.6,2.6,2.4,4.7,4.8,5.7c1,0.4,2.1,0.6,3.1,0.7c2.7,0.3,5.4-0.9,7.1-3c1.9-2.3,2.5-5.4,1.7-8.2
		c-0.6-2.7-2.6-4.9-5.3-5.7c-1.3-0.3-2.7-0.4-4-0.3c-0.2,0-0.4,0-0.6,0.1l-0.1,6.4c0.6-0.1,1.1-0.2,1.7-0.2c1.2,0,2.1,1,2.2,2.1
		c0.1,1.3-0.8,2.4-2.1,2.5c-1.1,0.1-2.1-0.6-2.4-1.6c-0.1-0.5-0.2-1-0.2-1.5c0.1-4.1,0.2-8.2,0.3-12.4c0-0.6,0-1.1,0-1.7L133.2,42.7
		z M98.3,25.3c-0.9,0-1.7,0-2.4,0c-2.5,0.1-4.7,1.4-6,3.5c-1.1,1.7-1.5,3.7-1.2,5.6c0.1,3.2,2.1,5.9,5,7.2c1.6,0.7,3.3,0.8,5,0.5
		c3-0.4,5.5-2.5,6.4-5.4c0.6-1.7,0.8-3.5,0.7-5.2c-0.1-2.8-0.1-5.5-0.2-8.3c0-0.6-0.1-1.2-0.3-1.8c-0.1-0.3-0.2-0.5-0.2-0.8
		c0-0.5,0-1.1,0-1.7L99.2,19c0,0.3,0,0.5,0,0.7c0.1,4.3,0.2,8.6,0.3,12.9c0,0.5,0,1,0,1.5c-0.2,1.4-1.5,2.3-2.8,2.2
		c-1-0.1-1.8-0.8-2.1-1.8c-0.4-1.3,0.4-2.8,1.7-3.1c0.3-0.1,0.6-0.1,0.9-0.1c0.4,0,0.8,0.1,1.2,0.2L98.3,25.3z M157.9,24.2h-0.4
		c-1.8,0-3.6,0.1-5.5,0.2c-0.9,0-1.8,0.3-2.5,0.9c-2,1.5-2.8,4.1-2,6.5c0.5,1.5,1.4,2.8,2.6,3.8c0.7,0.6,1.4,1.1,2.1,1.6
		c0.3,0.3,0.6,0.6,0.9,0.9c0.3,0.4,0.2,0.9-0.1,1.2c-0.1,0.1-0.3,0.2-0.5,0.2c-0.3,0.1-0.7,0.1-1,0.1c-2.9,0.1-5.8,0.2-8.7,0.2
		c-0.8-0.1-1.6,0.2-2.2,0.8c-0.5,0.4-1,0.7-1.5,1.1l1.8,0.1c0,1.5-0.1,3-0.1,4.5h0.6l12.6-0.3c0.6,0,1.1-0.1,1.6-0.1
		c1.7-0.2,3.1-1.5,3.6-3.2c0.4-1.3,0.4-2.7,0-4c-0.5-1.7-1.4-3.3-2.7-4.5c-0.6-0.6-1.2-1.2-1.8-1.7c-0.2-0.2-0.4-0.4-0.6-0.7
		c-0.3-0.3-0.3-0.8,0-1.1c0.2-0.2,0.4-0.2,0.6-0.2c0.9,0,1.7-0.1,2.6-0.1c0.2,0,0.4,0,0.6-0.1L157.9,24.2z M134.4,41.3
		c4.7,0,8.5-3.7,8.5-8.4s-3.7-8.5-8.4-8.5c-4.6,0-8.4,3.7-8.5,8.3c-0.1,4.7,3.6,8.6,8.3,8.7C134.3,41.3,134.3,41.3,134.4,41.3
		L134.4,41.3z M65.6,49.5c0-0.1,0-0.1,0-0.2c-1.5-4.7-6.6-7.2-11.2-5.7c-0.3,0.1-0.5,0.2-0.8,0.3c-4,1.8-6.1,6.3-4.8,10.5
		c0.9,3.2,3.6,5.6,6.9,6c3,0.4,6.1-0.5,8.4-2.4c0.6-0.5,1.1-1,1.7-1.6L62,52.8c-0.7,0.6-1.2,1.1-1.8,1.5c-0.9,0.6-2,0.9-3.1,0.7
		c-1.4-0.2-2.5-1.4-2.6-2.9c-0.2-1.4,0.4-2.7,1.5-3.5c0.9-0.5,2-0.3,2.7,0.5l-3.1,1.8l2,3.3L65.6,49.5z M79.4,42.3
		c0-0.1,0-0.2,0.1-0.3c-0.1-3.2-0.1-6.4-0.2-9.6c0-3-2.1-5.5-4.9-6.2c-1.9-0.5-4-0.5-5.9,0.2c-2,0.6-3.6,2.2-4.1,4.2
		c-0.2,0.8-0.3,1.6-0.3,2.5c0,3,0.1,5.9,0.2,8.9c0,0.2,0,0.3,0.1,0.6l6.2-0.2c0-0.3,0-0.5,0-0.8c-0.1-2.7-0.1-5.3-0.2-8
		c0-0.4,0-0.9,0.2-1.3c0.1-0.5,0.5-0.8,1-0.8c0.7-0.1,1.3,0.3,1.4,0.9c0,0.1,0,0.1,0,0.2c0.1,0.5,0.1,0.9,0.1,1.4
		c0.1,2.5,0.1,5.1,0.2,7.6c0,0.2,0,0.4,0.1,0.7L79.4,42.3z M54.1,42.5c0-0.1,0-0.3,0-0.4c-0.1-2.5-0.2-5.1-0.2-7.6
		c0-0.5,0-0.9,0.1-1.4c0.1-0.6,0.6-1,1.2-0.9c0.6-0.1,1.1,0.3,1.2,0.8c0.1,0.4,0.2,0.8,0.2,1.2c0.1,2.4,0.1,4.8,0.2,7.2
		c0,0.2,0,0.5,0,0.8c1.3,0,2.5,0.2,3.7,0.6c0.8,0.2,1.7,0.2,2.5,0.1c0-0.2,0-0.3,0-0.4c0-3.2,0-6.5-0.2-9.7c-0.1-2.8-2-5.2-4.6-5.9
		c-1.4-0.4-2.9-0.5-4.3-0.3c-4.2,0.5-6.4,3.4-6.3,6.9c0.1,2.8,0.1,5.6,0.2,8.4c0,0.5,0.1,0.9,0.1,1.3c1.4,0,2.7,0,4,0
		C52.6,43,53.4,42.8,54.1,42.5z M38.3,29.4c2.7-1.6,5.3-3,7.8-4.6c-0.4-1.3-1.1-2.5-2-3.4c-1.7-1.7-4-2.6-6.5-2.5
		c-4.4,0-8,3.4-8.3,7.8c-0.2,2.4,0.6,4.9,2.3,6.7c2,2.1,5,3,7.9,2.4c0.7-0.1,1.4-0.5,2.1-0.7c1-0.3,2-0.8,2.9-1.5
		c0.7-0.5,1.3-1,1.8-1.7l-3.5-3.4c-0.3,0.3-0.6,0.6-0.9,0.9c-1,1-2.4,1.4-3.8,1.3c-0.8,0-1.6-0.4-2.2-1.1c-1.1-1.4-1.1-3.5,0-4.9
		c0.8-1.1,2.4-1.3,3.5-0.5c0.1,0.1,0.3,0.2,0.4,0.4l-3.2,1.9L38.3,29.4z M121,25.1l-0.1-5.2c-2.1,0.1-4.2,0-6.2,0.2c0,0.7,0,1.3,0,2
		c0.1,4.3,0.2,8.6,0.3,12.9c0,1.1,0.2,2.2,0.7,3.3c0.6,1.4,1.8,2.4,3.2,2.8c2,0.5,4.2,0.3,6.1-0.5l-0.1-4.5c-0.7,0-1.3,0-1.9,0
		c-0.8,0-1.5-0.6-1.6-1.4c-0.1-1.4-0.2-2.7-0.2-4.1l3.5-0.2c0-1.8,0-3.5-0.2-5.3L121,25.1L121,25.1z M43.8,35.7
		c-1.4,0.2-2.8,0.7-4,1.4c-2.6,1.6-4.1,4.5-3.7,7.5c0.1,1.2,0.4,2.4,0.8,3.6l3.4,9.2c0.1,0.2,0.2,0.4,0.3,0.7l6.9-2.6l-0.2-0.7
		c-1-2.7-2-5.3-3-8c-0.2-0.6-0.4-1.2-0.4-1.8c-0.1-1,0.5-1.8,1.5-2c0.1,0,0.2,0,0.4,0c0.2,0,0.5,0,0.8,0L43.8,35.7z M86.8,26
		l-6.2,0.1c0,0.2,0,0.4,0,0.6c0,1.6,0,3.1,0.1,4.7c0.1,3.3,0.2,6.7,0.2,10.1c0,0.3,0,0.5,0.1,0.8c2.1,0,4.2,0,6.2-0.2L86.8,26z
		 M113.9,41.5c0-0.4,0-0.7,0-1c-0.1-2-0.2-3.9-0.2-5.9c-0.1-2.9-0.2-5.8-0.2-8.8c0-0.2,0-0.4-0.1-0.5l-6.1,0.1c0,0.3,0,0.5,0,0.6
		c0.1,4.9,0.2,9.9,0.3,14.8c0,0.2,0,0.5,0.1,0.8L113.9,41.5z M87.2,20.6c0-2.1-1.7-3.7-3.8-3.7c-2.1,0-3.7,1.7-3.7,3.8
		c0,2.1,1.7,3.7,3.8,3.7C85.6,24.4,87.2,22.7,87.2,20.6z M113.6,18.6c-0.7-1.7-2.5-2.7-4.3-2.3c-1.6,0.4-2.7,1.7-2.9,3.3
		c-0.1,1.5,0.7,3,2.1,3.7c1.4,0.7,3.1,0.4,4.2-0.7c0.4-0.3,0.6-0.8,0.5-1.3c-0.1-0.8,0-1.7,0-2.6L113.6,18.6z M146,27
		c0.9-2.5,1.9-5,2.8-7.5l-4.8,0.2l-1.4,7.5L146,27z"/>
	<path class="st1" d="M27.6,19.7c0.8,0.5,1.6,1,2.2,1.7c-2.8,4.3-2.4,8.5,0.5,12.7c-0.1,0.2-0.3,0.4-0.5,0.6
		c-1.5,1.6-3.6,2.6-5.8,2.9c-1,0.2-2.1,0.2-3.2,0.3c-1.2,0-2.3,0-3.6,0l-0.2-8.4c0.3-0.1,0.6-0.1,0.8-0.2c0.8-0.1,1.5-0.3,2.2-0.6
		c0.8-0.4,1.3-1.3,1.1-2.3c-0.1-0.7-0.5-1.3-1.2-1.5c-0.7-0.2-1.3-0.3-2-0.4c-0.3,0-0.7,0-1,0l-0.2-7c0.2,0,0.3-0.1,0.5-0.1
		c0.3-0.1,0.7-0.3,1-0.4c0.7-0.5,1.1-1.4,0.9-2.3c-0.3-0.8-1-1.3-1.8-1.4c-0.3,0-0.6,0-0.8,0c-0.7,0-1.3,0.5-1.5,1.2
		C15,14.9,14.9,15.5,15,16c0.1,5.2,0.3,10.5,0.4,15.7c0.1,4.2,0.2,8.4,0.3,12.6c0,0.4-0.1,0.9-0.3,1.2c-0.7,1.2-1.2,2.6-1.4,4
		l-8.8,0.2c0-0.4-0.1-0.7-0.1-1c-0.2-5.2-0.3-10.4-0.4-15.6c-0.1-3.4-0.2-6.8-0.2-10.2c-0.1-2.3-0.1-4.7-0.2-7
		c-0.4-4.7,2.5-9,6.9-10.5c4-1.7,8.5-1.7,12.5,0c2.4,0.9,4.3,2.7,5.4,5c0.8,1.9,1,4,0.5,5.9c-0.3,1-0.8,2-1.5,2.8L27.6,19.7z"/>
	<path class="st1" d="M33.6,53.8c0.1,0.1,0.1,0.1,0.2,0.2c2.2,1.3,3.5,3.6,3.4,6.1c0.1,4-2.3,6.9-6.3,7.7c-1.8,0.3-3.7,0.4-5.5,0.3
		l-0.2-6.8c0.5-0.1,1-0.2,1.4-0.3c0.3-0.1,0.7-0.2,1-0.4c0.7-0.4,1-1.3,0.6-2c-0.2-0.3-0.5-0.6-0.9-0.7c-0.4-0.1-0.9-0.2-1.3-0.2
		c-0.3,0-0.5,0-0.9,0l-0.1-5.6c0.2,0,0.4-0.1,0.6-0.2c0.3-0.1,0.5-0.2,0.7-0.4c0.4-0.3,0.7-0.9,0.5-1.5c-0.1-0.5-0.6-0.9-1.1-1
		c-1.1-0.2-1.9,0-2,1.4c0,0.6,0,1.3,0,1.9c0.1,3.9,0.2,7.8,0.3,11.8c0.1,3.4,0.2,6.9,0.2,10.3c0,0.8,0,1.7,0,2.6l-8.4,0.2
		c0-0.3,0-0.6,0-0.8c-0.1-4.7-0.2-9.4-0.4-14.2c-0.1-3.7-0.2-7.4-0.3-11.1c-0.1-1,0-2,0.3-3c0.6-2.2,2.1-4,4.2-5
		c2.3-1.2,4.9-1.6,7.5-1.2c1.7,0.1,3.3,0.7,4.8,1.7c2.1,1.3,3.4,3.7,3.2,6.2c0,1.3-0.4,2.5-1.2,3.5L33.6,53.8z"/>
	<path class="st1" d="M102.8,66.8l-0.2-7.7l0.7-0.2c0.2,0,0.3-0.1,0.5-0.1c1.1-0.3,1.8-1.4,1.6-2.5c-0.1-0.3-0.2-0.6-0.4-0.9
		c-0.4-0.6-1-0.9-1.7-0.8c-0.7,0-1.4,0.5-1.6,1.1c-0.1,0.5-0.2,1-0.2,1.6c0,2.3,0.1,4.5,0.2,6.8c0.1,3.5,0.1,6.9,0.2,10.4
		c0,0.3,0,0.6,0,0.9l-8.6,0.2c0-0.3,0-0.5,0-0.8c-0.1-5-0.2-10-0.4-15.1c-0.1-2,0-4,0.5-6c1-3.7,3.2-6.2,7.1-7.1
		c3.2-0.9,6.7-0.2,9.3,1.9c0.3,0.2,0.6,0.6,0.7,1c0.7,2.5,1.3,4.9,2,7.4c0.2,0.7,0.4,1.4,0.7,2c0.2,0.4,0.2,0.8,0.1,1.1
		c-0.6,2.8-2.7,5.1-5.4,6c-1.4,0.5-2.8,0.8-4.3,0.8C103.2,66.9,103,66.9,102.8,66.8z"/>
	<path class="st1" d="M73.7,43.7c0,0.3,0,0.6,0,0.8c0.1,2.7,0.1,5.3,0.2,8c0,0.6,0.1,1.1,0.1,1.7c0,0.4,0.2,0.8,0.6,0.9
		c0.5,0.2,1,0,1.2-0.5c0,0,0-0.1,0-0.1c0.1-0.5,0.2-1,0.2-1.6c0-2.8-0.1-5.6-0.2-8.4c0-0.3,0-0.5,0-0.9l6.6-0.2
		c0,0.8,0.1,1.5,0.1,2.2c0.1,2.4,0.1,4.9,0.2,7.3c0,0.4,0.1,0.8,0.2,1.2c0.2,0.5,0.7,0.8,1.3,0.6c0.3-0.1,0.5-0.3,0.6-0.5
		c0.1-0.4,0.2-0.8,0.2-1.2c0-2.8-0.1-5.5-0.1-8.3c0-0.4,0-0.8,0-1.2c2.2-0.2,4.4-0.3,6.6-0.2c0,0.1,0,0.2,0,0.3
		c0.1,3.6,0.2,7.1,0.3,10.7c0.1,2.2-0.9,4.3-2.7,5.7c-2.2,1.8-5.4,1.9-7.8,0.3c-0.5-0.3-1-0.8-1.6-1.2l-0.5,0.5
		c-0.9,0.9-1.9,1.5-3.1,1.9c-3.5,1-7.1-0.9-8.1-4.4c0-0.2-0.1-0.3-0.1-0.5c-0.2-0.6-0.3-1.3-0.3-1.9c-0.1-3.5-0.2-7-0.3-10.4
		c0-0.1,0-0.2,0-0.4L73.7,43.7z"/>
	<path class="st1" d="M110.5,45.6l7.5-2c0.2,0.7,0.4,1.4,0.6,2c0.7,2.7,1.4,5.3,2.1,8c0.1,0.5,0.3,0.9,0.5,1.3
		c0.2,0.6,0.9,0.9,1.5,0.7c0,0,0,0,0,0c0.6-0.2,1-0.7,0.9-1.4c0-0.4-0.1-0.7-0.2-1.1c-0.9-3.3-1.7-6.6-2.6-9.9c0-0.1,0-0.2-0.1-0.4
		l7.5-2c0.1,0.3,0.2,0.5,0.2,0.7l2.8,10.5c0.4,1.4,0.4,2.8,0.1,4.2c-0.4,1.8-1.5,3.4-3.1,4.5c-2.4,1.7-5.3,2.5-8.2,2.1
		c-3.1-0.3-5.7-2.5-6.5-5.5c-0.5-1.4-0.8-2.9-1.2-4.3l-1.8-6.9C110.6,46,110.6,45.9,110.5,45.6z"/>
	<path class="st1" d="M133.1,42.7l6.5,0.2c0,0.6,0,1.2,0,1.7c-0.1,4.1-0.2,8.2-0.3,12.4c0,0.5,0,1,0.2,1.5c0.4,1.2,1.7,1.9,2.9,1.5
		c1-0.3,1.7-1.3,1.6-2.4c-0.1-1.2-1.1-2.1-2.3-2.1c-0.6,0-1.1,0.1-1.7,0.2l0.2-6.4c0.2,0,0.4-0.1,0.6-0.1c1.3-0.1,2.7,0,4,0.3
		c2.7,0.8,4.7,2.9,5.2,5.7c0.8,2.9,0.2,5.9-1.7,8.2c-1.7,2.1-4.4,3.3-7.1,3c-1.1,0-2.1-0.3-3.1-0.7c-2.4-1-4.2-3.1-4.8-5.7
		c-0.4-1.3-0.5-2.7-0.4-4.1c0.1-4.3,0.2-8.5,0.3-12.8C133.1,43,133.1,42.9,133.1,42.7z"/>
	<path class="st1" d="M98.3,25.3l0.1,6.1c-0.5-0.1-0.8-0.1-1.2-0.2c-1.4-0.1-2.6,0.9-2.7,2.3c0,0.3,0,0.6,0.1,0.9
		c0.4,1.3,1.8,2.1,3.1,1.7c0.9-0.3,1.6-1.1,1.8-2.1c0-0.5,0-1,0-1.5c-0.1-4.3-0.2-8.6-0.3-12.9c0-0.2,0-0.5,0-0.7l5.9-0.1
		c0,0.6,0,1.2,0,1.7c0,0.3,0.1,0.6,0.2,0.8c0.2,0.6,0.3,1.2,0.3,1.8c0.1,2.8,0.1,5.5,0.2,8.3c0.1,1.8-0.1,3.6-0.7,5.2
		c-0.9,2.9-3.4,5-6.4,5.4c-1.7,0.3-3.4,0.2-5-0.5c-2.9-1.2-4.9-4-5.1-7.2c-0.2-2,0.2-3.9,1.3-5.6c1.3-2.1,3.5-3.4,6-3.5
		C96.7,25.3,97.4,25.3,98.3,25.3z"/>
	<path class="st1" d="M157.9,24.2l0.2,5.9c-0.2,0-0.4,0.1-0.6,0.1c-0.9,0-1.7,0-2.6,0.1c-0.4-0.1-0.8,0.2-0.9,0.6
		c0,0.2,0,0.5,0.2,0.6c0.2,0.3,0.4,0.5,0.6,0.7c0.6,0.6,1.2,1.1,1.8,1.7c1.3,1.2,2.2,2.8,2.7,4.5c0.4,1.3,0.4,2.7,0,4
		c-0.4,1.7-1.8,2.9-3.6,3.2c-0.5,0.1-1.1,0.1-1.6,0.1l-12.6,0.3h-0.6c0-1.5,0-2.9,0.1-4.5l-1.8-0.1c0.5-0.3,1-0.7,1.5-1.1
		c0.6-0.6,1.4-0.8,2.2-0.8c2.9,0,5.8-0.1,8.7-0.2c0.3,0,0.7,0,1-0.1c0.5,0,0.8-0.4,0.8-0.9c0-0.2-0.1-0.3-0.2-0.5
		c-0.3-0.4-0.6-0.7-0.9-0.9c-0.7-0.6-1.4-1.1-2.1-1.6c-1.2-1-2.2-2.3-2.6-3.8c-0.8-2.4,0-5,2-6.5c0.7-0.6,1.6-0.9,2.5-0.9
		c1.8,0,3.6-0.1,5.5-0.2L157.9,24.2z"/>
	<path class="st1" d="M134.4,41.3c-4.7-0.1-8.4-3.9-8.4-8.6s3.9-8.4,8.6-8.4s8.4,3.9,8.4,8.6c0,0.1,0,0.2,0,0.3
		C142.7,37.8,138.9,41.3,134.4,41.3z M134.5,30.6c-1.3,0-2.3,1-2.3,2.2c0,1.3,1.1,2.3,2.3,2.3c1.2,0,2.2-1,2.3-2.2
		C136.8,31.7,135.8,30.6,134.5,30.6C134.5,30.6,134.5,30.6,134.5,30.6z"/>
	<path class="st1" d="M65.6,49.5l-8,4.7l-2-3.3l3.1-1.8c-0.7-0.8-1.8-0.9-2.7-0.5c-1.2,0.8-1.8,2.2-1.5,3.5c0.1,1.5,1.2,2.7,2.6,2.9
		c1.1,0.2,2.2-0.1,3.1-0.7c0.6-0.4,1.2-1,1.8-1.5l3.8,3.6c-0.6,0.6-1.1,1.1-1.7,1.6c-2.3,1.9-5.4,2.8-8.4,2.4
		c-3.3-0.4-6.1-2.8-6.9-6c-1.3-4.2,0.7-8.8,4.8-10.5c4.5-2,9.7,0.1,11.7,4.6c0.1,0.3,0.2,0.5,0.3,0.8C65.6,49.4,65.6,49.5,65.6,49.5
		z"/>
	<path class="st1" d="M79.4,42.3l-6.2,0.2c0-0.2,0-0.5-0.1-0.7c-0.1-2.5-0.1-5.1-0.2-7.6c0-0.5,0-0.9-0.1-1.4c0-0.7-0.6-1.2-1.3-1.1
		c-0.1,0-0.1,0-0.2,0c-0.5,0-0.9,0.3-1,0.8c-0.1,0.4-0.2,0.9-0.2,1.3c0,2.7,0.1,5.3,0.2,8c0,0.2,0,0.5,0,0.8l-6.2,0.1
		c0-0.2-0.1-0.4-0.1-0.6c-0.1-3-0.2-5.9-0.2-8.9c0-0.8,0.1-1.7,0.3-2.5c0.5-2,2.1-3.6,4.1-4.2c1.9-0.7,4-0.8,5.9-0.2
		c2.9,0.6,4.9,3.2,4.9,6.2c0.1,3.2,0.2,6.4,0.2,9.6C79.4,42.1,79.4,42.2,79.4,42.3z"/>
	<path class="st1" d="M54.1,42.5c-0.7,0.4-1.4,0.6-2.2,0.6c-1.3,0-2.6,0-4,0c0-0.4-0.1-0.8-0.1-1.3c-0.1-2.8-0.1-5.6-0.2-8.4
		c-0.1-3.5,2.1-6.4,6.3-6.9c1.4-0.2,2.9-0.1,4.3,0.3c2.6,0.7,4.5,3.1,4.6,5.8c0.1,3.2,0.2,6.5,0.3,9.7c0,0.1,0,0.2,0,0.4
		c-0.8,0.1-1.7,0.1-2.5-0.1c-1.2-0.4-2.5-0.5-3.7-0.5c0-0.3,0-0.5,0-0.8c-0.1-2.4-0.1-4.8-0.2-7.2c0-0.4-0.1-0.8-0.2-1.2
		c-0.1-0.6-0.7-0.9-1.2-0.8c-0.6-0.1-1.1,0.4-1.2,0.9c-0.1,0.5-0.1,0.9-0.1,1.4c0.1,2.5,0.1,5.1,0.2,7.6
		C54.1,42.2,54.1,42.3,54.1,42.5z"/>
	<path class="st1" d="M38.3,29.4l-1.8-3l3.2-1.9c-0.9-1.1-2.5-1.2-3.6-0.3c-0.1,0.1-0.3,0.3-0.4,0.4c-1.1,1.4-1.1,3.5,0,4.9
		c0.5,0.6,1.3,1,2.2,1.1c1.4,0.1,2.8-0.3,3.8-1.3c0.3-0.3,0.6-0.6,0.9-0.9l3.5,3.4c-0.5,0.6-1.1,1.2-1.8,1.7
		c-0.8,0.7-1.8,1.2-2.9,1.5c-0.7,0.2-1.4,0.5-2.1,0.7c-2.9,0.6-5.9-0.3-7.9-2.4c-1.7-1.8-2.5-4.2-2.3-6.7c0.3-4.3,3.9-7.7,8.3-7.8
		c2.4-0.1,4.7,0.8,6.5,2.5c0.9,1,1.6,2.1,2,3.4C43.5,26.3,40.9,27.8,38.3,29.4z"/>
	<path class="st1" d="M121,25h3.5c0.2,1.7,0.1,3.5,0.2,5.3l-3.5,0.2c0,1.4,0,2.8,0.2,4.1c0,0.8,0.8,1.5,1.6,1.4c0.6,0,1.2,0,1.9,0
		l0.1,4.5c-1.9,0.8-4.1,1-6.1,0.5c-1.5-0.4-2.6-1.4-3.2-2.8c-0.4-1-0.7-2.2-0.7-3.3c-0.1-4.3-0.2-8.6-0.3-12.9c0-0.6,0-1.2,0-2
		c2-0.2,4.1-0.1,6.2-0.2L121,25z"/>
	<path class="st1" d="M43.8,35.7l2.7,7.3c-0.3,0-0.5,0-0.8,0c-1-0.1-1.8,0.7-1.8,1.6c0,0.1,0,0.2,0,0.4c0,0.6,0.2,1.2,0.4,1.8
		c1,2.7,2,5.3,3,8l0.2,0.7L40.6,58c-0.1-0.2-0.2-0.4-0.3-0.7l-3.4-9.2c-0.4-1.1-0.7-2.3-0.8-3.5c-0.3-3,1.1-5.9,3.7-7.5
		C41,36.4,42.4,35.9,43.8,35.7z"/>
	<path class="st1" d="M86.8,26l0.4,16.1c-2.1,0.2-4.1,0.2-6.2,0.2c0-0.3-0.1-0.5-0.1-0.8c-0.1-3.3-0.2-6.7-0.2-10.1
		c0-1.6-0.1-3.1-0.1-4.7c0-0.2,0-0.3,0-0.6L86.8,26z"/>
	<path class="st1" d="M113.9,41.5l-6.2,0.1c0-0.3-0.1-0.5-0.1-0.8c-0.1-4.9-0.2-9.9-0.3-14.8c0-0.2,0-0.4,0-0.6l6.1-0.1
		c0,0.2,0.1,0.4,0.1,0.5c0.1,2.9,0.1,5.8,0.2,8.8c0.1,2,0.2,3.9,0.2,5.9C113.9,40.8,113.9,41.1,113.9,41.5z"/>
	<path class="st1" d="M87.2,20.6c0,2.1-1.6,3.7-3.7,3.8c-2.1,0-3.8-1.6-3.8-3.7c0-2.1,1.6-3.8,3.7-3.8
		C85.5,16.9,87.2,18.5,87.2,20.6z"/>
	<path class="st1" d="M113.6,18.6l-0.3,0.2c0,0.9,0,1.7,0,2.6c0,0.5-0.1,0.9-0.5,1.3c-1.1,1.1-2.8,1.4-4.2,0.7
		c-1.4-0.7-2.2-2.1-2.1-3.7c0.2-1.6,1.3-2.9,2.9-3.3C111.1,15.9,113,16.9,113.6,18.6z"/>
	<path class="st1" d="M146,27l-3.4,0.1l1.4-7.6l4.8-0.2C147.9,22.1,147,24.5,146,27z"/>
	<path class="st0" d="M134.5,30.6c1.2,0,2.3,1,2.3,2.3c0,0,0,0,0,0c0,1.2-1,2.2-2.3,2.2c-1.3,0-2.3-1-2.3-2.3
		C132.2,31.6,133.2,30.6,134.5,30.6z"/>
</g>
</svg>
