<svg xmlns="http://www.w3.org/2000/svg" width="170" height="123" viewBox="-1 -8 170 123">
<style type="text/css">
	.st0{fill:#00C87C;}
	.st1{fill:#EDEDED;}
</style>
<title>logo-gravityjack</title>
<g>
	<g>
		<path class="st0" d="M13.9,74.1H9.4v-5.6C4.7,68,1,64,1,59.2V49.1h22.3v15.7C23.3,69.9,19.1,74.1,13.9,74.1z M12.1,71.3h1.8
			c3.6,0,6.6-2.9,6.6-6.6V51.9H3.8v7.4c0,3.6,2.9,6.6,6.6,6.6h3.6c0.5,0,1-0.4,1-1v-7.4H9.4v1.8c0,0.5,0.4,1,1,1h1.8V63h-1.8
			c-2.1,0-3.8-1.7-3.8-3.8v-4.6h11.1v10.1c0,2.1-1.7,3.8-3.8,3.8h-1.8V71.3z"/>
	</g>
	<g>
		<g>
			<path class="st1" d="M30.6,59c0-4.1,3.1-6.7,6.9-6.7c2.7,0,4.4,1.4,5.4,2.9l-2.3,1.2c-0.6-0.9-1.7-1.7-3.1-1.7
				c-2.4,0-4.1,1.8-4.1,4.3c0,2.5,1.7,4.3,4.1,4.3c1.1,0,2.2-0.5,2.8-1v-1.6h-3.4v-2.4h6.2v5c-1.3,1.5-3.2,2.5-5.5,2.5
				C33.7,65.8,30.6,63.1,30.6,59z"/>
		</g>
		<g>
			<path class="st1" d="M53.2,65.5l-2.6-4.6h-2v4.6h-2.8v-13H52c2.7,0,4.4,1.8,4.4,4.2c0,2.3-1.4,3.5-2.8,3.9l2.9,4.9H53.2z
				 M53.5,56.7c0-1.1-0.8-1.8-1.9-1.8h-2.9v3.5h2.9C52.7,58.5,53.5,57.8,53.5,56.7z"/>
		</g>
		<path class="st1" d="M60.7,65.5h-3.2l5-13h3.5l5,13h-3.2l-3.6-10.2L60.7,65.5z"/>
		<path class="st1" d="M132.1,65.5h-3.2l5-13h3.5l5,13h-3.2l-3.6-10.2L132.1,65.5z"/>
		<g>
			<path class="st1" d="M75.6,65.5l-5-13h3.2l3.6,10l3.6-10h3.2l-5,13H75.6z"/>
		</g>
		<g>
			<path class="st1" d="M85.8,65.5v-13h2.8v13H85.8z"/>
		</g>
		<g>
			<path class="st1" d="M94.6,65.5V55h-3.8v-2.4h8.8l1.6,2.4h-3.8v10.6H94.6z"/>
		</g>
		<g>
			<path class="st1" d="M107.1,65.5v-5.3l-5-7.7h3.2l3.2,5.2l3.2-5.2h3.2l-5,7.7v5.3H107.1z"/>
		</g>
		<g>
			<path class="st1" d="M119.7,64.5l1.2-2.1c0.5,0.5,1.2,0.9,2.1,0.9c1.2,0,2-0.8,2-2.1v-8.7h2.8v8.7c0,3.1-1.9,4.5-4.6,4.5
				C121.9,65.7,120.7,65.4,119.7,64.5z"/>
		</g>
		<g>
			<path class="st1" d="M142.9,59c0-4,3-6.7,6.9-6.7c2.9,0,4.5,1.6,5.4,3.2l-2.4,1.2c-0.5-1.1-1.7-1.9-3.1-1.9
				c-2.4,0-4.1,1.8-4.1,4.3c0,2.5,1.7,4.3,4.1,4.3c1.3,0,2.5-0.8,3.1-1.9l2.4,1.1c-0.9,1.6-2.6,3.2-5.4,3.2
				C145.9,65.7,142.9,63,142.9,59z"/>
		</g>
		<g>
			<path class="st1" d="M165,65.5l-3.9-5.2l-1,1.2v4h-2.8v-13h2.8v5.8l4.6-5.8h3.4l-5.2,6.1l5.5,6.9H165z"/>
		</g>
	</g>
</g>
</svg>
