<svg xmlns="http://www.w3.org/2000/svg" width="170" height="123" viewBox="-3 -55 170 123">
  <defs>
    <style>
      .a {
        fill: #ededed;
      }

      .b {
        fill: #f37920;
      }
    </style>
  </defs>
  <title>logo-Zipline</title>
  <g>
    <g>
      <g>
        <g>
          <path class="a" d="M30.86,71.26a0.81,0.81,0,1,1-1,.79A0.9,0.9,0,0,1,30.86,71.26ZM30.2,74.1h1.33v5.69H30.2V74.1Z" transform="translate(-5.86 -48.63)"/>
          <path class="a" d="M37.63,74.1H39V75h0a2.63,2.63,0,0,1,2.3-1c1.36,0,2.55.66,2.55,2.17v3.67H42.52V76.43A1.41,1.41,0,0,0,40.92,75a1.76,1.76,0,0,0-2,1.9v2.93H37.63V74.1Z" transform="translate(-5.86 -48.63)"/>
          <path class="a" d="M53.61,75H51.7v2.58c0,0.64,0,1.31,1,1.31a2.37,2.37,0,0,0,1-.16v1a3.62,3.62,0,0,1-1.2.2c-2.05,0-2.08-1-2.08-1.93V75H48.83V74.1h1.54V72.5H51.7v1.6h1.91V75Z" transform="translate(-5.86 -48.63)"/>
          <path class="a" d="M60.32,77.34c0,1,1.14,1.66,2.37,1.66a2.61,2.61,0,0,0,1.93-.85l1,0.63a4.05,4.05,0,0,1-3.1,1.17c-2.22,0-3.61-1.3-3.61-3s1.52-3,3.62-3c2.47,0,3.42,1.53,3.42,3v0.37H60.32Zm4.2-.86a1.74,1.74,0,0,0-2-1.65,2,2,0,0,0-2.18,1.65h4.2Z" transform="translate(-5.86 -48.63)"/>
          <path class="a" d="M71.53,74.1h1.33V75h0A2.51,2.51,0,0,1,75,74a2.24,2.24,0,0,1,.59.07l-0.06,1.16a3.08,3.08,0,0,0-.66-0.09c-1.3,0-2,.58-2,1.83v2.86H71.53V74.1Z" transform="translate(-5.86 -48.63)"/>
          <path class="a" d="M81,74.79A4.72,4.72,0,0,1,83.81,74c2.06,0,2.92.92,2.92,1.9v2.91a7,7,0,0,0,.06,1H85.61a7.91,7.91,0,0,1-.05-0.87h0a2.9,2.9,0,0,1-2.46,1c-1.3,0-2.43-.6-2.43-1.71,0-1.47,1.73-2,3.86-2h1V76c0-.58-0.54-1.2-1.68-1.2a3.28,3.28,0,0,0-2,.65Zm3.76,2.26c-1.26,0-2.79.18-2.79,1.09,0,0.65.59,0.93,1.5,0.93a1.72,1.72,0,0,0,2-1.66V77.05H84.78Z" transform="translate(-5.86 -48.63)"/>
          <path class="a" d="M97.67,75.61A2.47,2.47,0,0,0,95.93,75a2,2,0,0,0-2.19,2A2,2,0,0,0,96,78.93a2.31,2.31,0,0,0,1.7-.63l0.95,0.77a3.9,3.9,0,0,1-2.66.88c-2.17,0-3.67-1.21-3.67-3S93.8,74,96,74a4,4,0,0,1,2.69.9Z" transform="translate(-5.86 -48.63)"/>
          <path class="a" d="M107.54,75h-1.91v2.58c0,0.64,0,1.31,1,1.31a2.34,2.34,0,0,0,.95-0.16v1a3.55,3.55,0,0,1-1.2.2c-2.06,0-2.08-1-2.08-1.93V75h-1.54V74.1h1.54V72.5h1.32v1.6h1.91V75Z" transform="translate(-5.86 -48.63)"/>
          <path class="a" d="M114,71.26a0.81,0.81,0,1,1,0,1.58A0.81,0.81,0,1,1,114,71.26Zm-0.66,2.83h1.33v5.69h-1.33V74.1Z" transform="translate(-5.86 -48.63)"/>
          <path class="a" d="M120,74.1h1.54l2.1,4.36,2-4.36H127l-2.76,5.69H122.8Z" transform="translate(-5.86 -48.63)"/>
          <path class="a" d="M133.19,77.34c0,1,1.14,1.66,2.37,1.66a2.59,2.59,0,0,0,1.92-.85l1,0.63a4.06,4.06,0,0,1-3.11,1.17c-2.22,0-3.61-1.3-3.61-3s1.52-3,3.62-3c2.48,0,3.42,1.53,3.42,3v0.37h-5.62Zm4.21-.86a1.74,1.74,0,0,0-2-1.65,2,2,0,0,0-2.17,1.65h4.21Z" transform="translate(-5.86 -48.63)"/>
        </g>
        <path class="a" d="M18.46,76.85l5.24,3.93,0.94-.92-4-3,4-3-0.94-.92Z" transform="translate(-5.86 -48.63)"/>
        <path class="a" d="M142.95,73.84l4,3-4,3,0.95,0.92,5.24-3.93-5.24-3.93Z" transform="translate(-5.86 -48.63)"/>
      </g>
      <g>
        <g>
          <path class="b" d="M43.36,68.37V48.89h20.4a7.28,7.28,0,0,1,4,.87,3.29,3.29,0,0,1,1.25,2.91V57q0,3.78-5.3,3.79H48.82v7.59H43.36Zm18-16.11H48.82v5.15H61.4q2.52,0,2.52-1.56v-2Q63.91,52.26,61.4,52.26Z" transform="translate(-5.86 -48.63)"/>
          <path class="b" d="M155.62,60.77q5.3,0,5.3-3.78V52.66a3.29,3.29,0,0,0-1.26-2.9,7.25,7.25,0,0,0-4-.87h-20.4v0h-0.15V68.37h20.4a7.22,7.22,0,0,0,4-.88,3.29,3.29,0,0,0,1.26-2.91V63.41h-5.15v0c0,1-.84,1.56-2.51,1.56H140.69V60.77h14.94Zm-14.94-8.52h12.57c1.68,0,2.52.52,2.52,1.56v2c0,1-.84,1.56-2.52,1.56H140.69V52.25Z" transform="translate(-5.86 -48.63)"/>
          <path class="b" d="M113.3,52.23h12.54c1.67,0,2.5.52,2.5,1.55V68.33h5.14V52.64a3.29,3.29,0,0,0-1.26-2.89,7.2,7.2,0,0,0-4-.87H107.86V68.33h5.44V52.23Z" transform="translate(-5.86 -48.63)"/>
          <g>
            <rect class="b" x="28.37" y="0.24" width="5.5" height="3.47"/>
            <rect class="b" x="28.37" y="4.78" width="5.5" height="14.96"/>
          </g>
          <path class="b" d="M14.49,65L31.64,50.83V48.89H11.16a7.3,7.3,0,0,0-4,.87,3.3,3.3,0,0,0-1.26,2.91v1.17H11v0q0-1.56,2.51-1.56h9.39l-16.81,14v2.11H26.33a7.31,7.31,0,0,0,4-.87,3.31,3.31,0,0,0,1.25-2.91V63.41H26.49v0c0,1-.84,1.57-2.52,1.57H14.49Z" transform="translate(-5.86 -48.63)"/>
          <path class="b" d="M77.11,48.9H71.65V68.4H92a7.27,7.27,0,0,0,4-.88,3.29,3.29,0,0,0,1.26-2.91V63.44H92.2v0Q92.2,65,89.69,65H77.11V48.9Z" transform="translate(-5.86 -48.63)"/>
        </g>
        <g>
          <rect class="b" x="94.07" y="0.24" width="5.5" height="3.47"/>
          <rect class="b" x="94.07" y="4.78" width="5.5" height="14.96"/>
        </g>
      </g>
    </g>
    <path class="a" d="M165.39,48.63a2.48,2.48,0,0,1,1.19.31,2.22,2.22,0,0,1,.9.89,2.43,2.43,0,0,1,0,2.41,2.25,2.25,0,0,1-.89.9,2.43,2.43,0,0,1-2.41,0,2.26,2.26,0,0,1-.9-0.9,2.42,2.42,0,0,1,0-2.41,2.23,2.23,0,0,1,.91-0.89A2.48,2.48,0,0,1,165.39,48.63Zm0,0.4a2.06,2.06,0,0,0-1,.26,1.87,1.87,0,0,0-.75.75,2,2,0,0,0,0,2,1.9,1.9,0,0,0,.75.75,2,2,0,0,0,2,0,1.89,1.89,0,0,0,.75-0.75,2,2,0,0,0,0-2,1.86,1.86,0,0,0-.75-0.75A2.06,2.06,0,0,0,165.39,49Zm-0.72,3.07V50h0.72a1.76,1.76,0,0,1,.54.06,0.52,0.52,0,0,1,.26.2,0.54,0.54,0,0,1,.1.31,0.56,0.56,0,0,1-.16.4,0.65,0.65,0,0,1-.44.19,0.58,0.58,0,0,1,.18.11,2.41,2.41,0,0,1,.31.42l0.26,0.41H166l-0.19-.33a1.7,1.7,0,0,0-.35-0.49,0.44,0.44,0,0,0-.27-0.07H165V52.1h-0.34ZM165,50.92h0.41a0.66,0.66,0,0,0,.4-0.09,0.3,0.3,0,0,0,.06-0.4,0.31,0.31,0,0,0-.14-0.11,1.07,1.07,0,0,0-.34,0H165v0.63Z" transform="translate(-5.86 -48.63)"/>
  </g>
</svg>
