<svg xmlns="http://www.w3.org/2000/svg" width="170" height="123" viewBox="-1 -30 170 123">
  <defs>
    <style>
      .a {
        fill: #fff;
      }
    </style>
  </defs>
  <title>logo-Synergy</title>
  <g>
    <path class="a" d="M67.29,44.16A20.15,20.15,0,0,1,69.47,37a10.94,10.94,0,0,1,1.25-1.89c0.42,2.42-1.77,3.6-2.33,5.59,0.55-.77,1-1.46,1.53-2.13a0.57,0.57,0,0,1,.64-0.32,0.63,0.63,0,0,1,.34.56c0.22,0.92.44,1.83,0.66,2.75a2.12,2.12,0,0,1-.49,2c-0.6.69-1.19,1.39-1.8,2.08-0.44.5-.78,0.44-0.92-0.23-0.2-.89-0.3-1.8-0.45-2.78-0.37,2,1,4-.27,6-0.4-.44-0.13-1-0.36-1.39v-3.1Z" transform="translate(-1 -27.48)"/>
    <path class="a" d="M88.26,27.48c0.19,0.17.33,0.47,0,.47-1.83,0-3.67,1-5.48-.06a0.71,0.71,0,0,1-.12-0.12,0.83,0.83,0,0,1,.47-0.29h5.16Z" transform="translate(-1 -27.48)"/>
    <path class="a" d="M84,46.23a3.84,3.84,0,0,0-2.06.69l-3.42,2.14c-1.09.68-1.8,0.52-2.41-.59s-1.34-2.53-2-3.82-0.47-1.92.71-2.81c1-.76,2-1.5,3.06-2.22a5.12,5.12,0,0,0,1.67-1.92,2.91,2.91,0,0,0-.11-3.1c-0.4-.6-0.77-1.21-1.17-1.8a0.84,0.84,0,0,1,.25-1.33,19.45,19.45,0,0,1,4.52-2.05,1.4,1.4,0,0,1,1.42.39c0.65,0.61,1.3,1.22,1.91,1.85a0.89,0.89,0,0,1-.26,1.63c-1.14.6-2.32,1.13-3.45,1.73a3.71,3.71,0,0,0-1.59,5.68c0.56,0.93,1.1,1.88,1.69,2.79a4.27,4.27,0,0,0,6.12,1.39c1.15-.7,2.28-1.43,3.42-2.14s1.81-.53,2.42.58q1.09,2,2.09,4a1.73,1.73,0,0,1-.58,2.42c-1.1.83-2.22,1.63-3.34,2.41a5,5,0,0,0-1.76,2.07,2.79,2.79,0,0,0,.17,2.86c0.4,0.6.79,1.19,1.21,1.78a0.82,0.82,0,0,1-.28,1.31,18.68,18.68,0,0,1-4.47,1.95A1.3,1.3,0,0,1,86.72,62a11,11,0,0,1-2.5-2.34c-0.45-.57,0-1,0.51-1.29,1.13-.55,2.28-1.07,3.4-1.64,2.34-1.2,2.94-3.27,1.61-5.52-0.58-1-1.17-2-1.79-2.94A4.35,4.35,0,0,0,84,46.23Z" transform="translate(-1 -27.48)"/>
    <path class="a" d="M92.4,39.71A1.54,1.54,0,0,1,91.61,41c-1.47.89-2.93,1.79-4.42,2.65a1.57,1.57,0,0,1-2.36-.58q-1.4-2.16-2.73-4.38a1.31,1.31,0,0,1,.42-1.95,32.12,32.12,0,0,1,4.8-2.49,1.45,1.45,0,0,1,1.72.44,35.87,35.87,0,0,1,3.15,4.39A2.57,2.57,0,0,1,92.4,39.71Z" transform="translate(-1 -27.48)"/>
    <path class="a" d="M78.57,52a1.18,1.18,0,0,1,.63-1.16c1.48-.88,2.94-1.78,4.43-2.64a1.62,1.62,0,0,1,2.37.59q1.35,2.09,2.65,4.22a1.35,1.35,0,0,1-.54,2.16c-1.64.87-3.33,1.67-5,2.5a0.71,0.71,0,0,1-1-.31C81,55.88,80,54.43,78.9,53A1.44,1.44,0,0,1,78.57,52Z" transform="translate(-1 -27.48)"/>
    <path class="a" d="M103.46,41.42a2.61,2.61,0,0,1-.09.49c-0.17.41-.21,1-0.69,1.09s-0.57-.61-0.73-1a18.35,18.35,0,0,0-1.62-3.4c-1-1.4-1.8-1.58-3.27-.75-0.52.3-1,.62-1.56,0.91a1.34,1.34,0,0,1-2-.37q-1.57-2-3.06-4.13A0.87,0.87,0,0,1,91,32.77c0.89-.32,1.8-0.57,2.71-0.82a1.73,1.73,0,0,1,1.76.63,28.13,28.13,0,0,1,2.29,2.78,7.36,7.36,0,0,0,1.57,1.69,1.16,1.16,0,0,0,1.63,0c0.29-.26.6-0.38,0.86,0A15.55,15.55,0,0,1,103.46,41.42Z" transform="translate(-1 -27.48)"/>
    <path class="a" d="M80,63a12,12,0,0,1-5-2.5,0.32,0.32,0,0,1,.1-0.11c0.34-.08.81,0.23,1-0.21a1.1,1.1,0,0,0-.39-1.08C74.9,58.09,74,57.07,73.22,56s-0.66-1.38.44-2c0.6-.34,1.19-0.69,1.79-1a1.37,1.37,0,0,1,2,.37q1.55,2,3,4.06c0.49,0.68.32,1.16-.49,1.44s-1.48.44-2.22,0.66-1,.74-0.42,1.42a10,10,0,0,0,2.36,1.69A0.46,0.46,0,0,1,80,63Z" transform="translate(-1 -27.48)"/>
    <path class="a" d="M99.33,54.14a3.2,3.2,0,0,1-.82,1.76,19.72,19.72,0,0,1-3.17,2.49A0.92,0.92,0,0,1,93.78,58c-0.41-.69-0.82-1.38-1.21-2.08a1.33,1.33,0,0,1,.34-2c1.36-1.05,2.75-2.06,4.14-3.06a0.79,0.79,0,0,1,1.32.19A13.74,13.74,0,0,1,99.33,54.14Z" transform="translate(-1 -27.48)"/>
    <path class="a" d="M71.58,37.35A2.07,2.07,0,0,1,72.27,36a28.3,28.3,0,0,1,3.12-2.55c0.87-.6,1.25-0.5,1.77.41,0.38,0.67.77,1.34,1.13,2a1.42,1.42,0,0,1-.4,2c-1.37,1-2.77,2-4.15,3-0.44.32-.69,0.25-0.91-0.24A20,20,0,0,1,71.58,37.35Z" transform="translate(-1 -27.48)"/>
    <path class="a" d="M69.11,47.91a1.53,1.53,0,0,1,.41-1c0.63-.7,1.27-1.39,1.94-2.06A0.76,0.76,0,0,1,72.8,45c0.75,1.41,1.43,2.86,2.14,4.3a0.6,0.6,0,0,1-.11.71l-2.41,2.9a0.62,0.62,0,0,1-1.09,0A17,17,0,0,1,69.11,47.91Z" transform="translate(-1 -27.48)"/>
    <path class="a" d="M103.12,49c0.06,1.86-1.18,3.08-2.25,4.35-0.28.34-.65,0.2-0.76-0.25-0.27-1.08-.55-2.16-0.77-3.25a1.72,1.72,0,0,1,.48-1.49c0.66-.75,1.3-1.51,2-2.26,0.44-.5.78-0.45,1,0.19A10.64,10.64,0,0,1,103.12,49Z" transform="translate(-1 -27.48)"/>
    <path class="a" d="M82.4,63.35c-1.84,0-3.06-1.17-4.35-2.18-0.4-.31-0.26-0.66.25-0.78L81,59.77a1,1,0,0,1,.81.19l3.29,2a0.6,0.6,0,0,1,.44.57,0.63,0.63,0,0,1-.65.45C84,63.12,83.21,63.23,82.4,63.35Z" transform="translate(-1 -27.48)"/>
    <path class="a" d="M96.49,31.57a2.26,2.26,0,0,1,1.39.47,10.9,10.9,0,0,1,2.52,3c0.16,0.3.5,0.65,0,1a1,1,0,0,1-1.39.15,2.17,2.17,0,0,1-.3-0.31A41.11,41.11,0,0,0,96,32.52a0.65,0.65,0,0,1-.26-0.68A0.68,0.68,0,0,1,96.49,31.57Z" transform="translate(-1 -27.48)"/>
    <path class="a" d="M77.65,31.14a1.17,1.17,0,0,1-1-.91c-0.24-.49.24-0.65,0.54-0.81A16.76,16.76,0,0,1,80.76,28a1.49,1.49,0,0,1,.76,0c0.43,0.13,1.06.16,1.12,0.65s-0.6.57-1,.75c-1,.49-2.08,1-3.12,1.43A2.24,2.24,0,0,1,77.65,31.14Z" transform="translate(-1 -27.48)"/>
    <path class="a" d="M99.64,56.87a2.09,2.09,0,0,1-.55,1.31,17.94,17.94,0,0,1-2.77,2.41c-0.31.21-.68,0.7-1.07,0.11s-0.67-1.06,0-1.57c0.5-.38,1-0.74,1.5-1.14,0.64-.52,1.26-1.07,1.89-1.6a0.7,0.7,0,0,1,.75-0.29A0.73,0.73,0,0,1,99.64,56.87Z" transform="translate(-1 -27.48)"/>
    <path class="a" d="M71.37,35a1.76,1.76,0,0,1,.25-1.14,15,15,0,0,1,3.3-3.09c0.22-.16.51-0.26,0.67,0a1.28,1.28,0,0,1,.31,1.41,1.85,1.85,0,0,1-.47.49,33.51,33.51,0,0,0-3.17,2.62,0.64,0.64,0,0,1-.67.28A0.57,0.57,0,0,1,71.37,35Z" transform="translate(-1 -27.48)"/>
    <path class="a" d="M89.73,63.57a1.24,1.24,0,0,1-.21,0c-0.45-.16-1.13-0.14-1.2-0.66s0.61-.56,1-0.73c1.09-.5,2.2-1,3.3-1.46a1,1,0,0,1,1.26.08c0.72,0.73.7,1-.22,1.43A16.41,16.41,0,0,1,89.73,63.57Z" transform="translate(-1 -27.48)"/>
    <path class="a" d="M68.53,48.64a0.56,0.56,0,0,1,.45.45c0.53,1.39,1.16,2.74,1.8,4.09A1.12,1.12,0,0,1,70,54.68a0.47,0.47,0,0,1-.53-0.33,16,16,0,0,1-1.6-4.16A1.57,1.57,0,0,1,68.53,48.64Z" transform="translate(-1 -27.48)"/>
    <path class="a" d="M74.66,59.85a1.69,1.69,0,0,1-1.24-.43,16.65,16.65,0,0,1-2.58-2.84c-0.21-.28-0.68-0.62-0.13-1a1,1,0,0,1,1.46-.09c0.26,0.27.46,0.58,0.69,0.86L75,58.92a0.67,0.67,0,0,1,.29.74A0.62,0.62,0,0,1,74.66,59.85Z" transform="translate(-1 -27.48)"/>
    <path class="a" d="M103.65,42.86c0.5,2,.42,5-0.21,5.9C103.39,46.84,102.29,44.9,103.65,42.86Z" transform="translate(-1 -27.48)"/>
    <path class="a" d="M100.32,56.52c-0.35-2.34,1.64-3.47,2.55-5.15A12.54,12.54,0,0,1,100.32,56.52Z" transform="translate(-1 -27.48)"/>
    <path class="a" d="M82.63,63.61c1.86,0,3.73-1.14,5.82.2A14.94,14.94,0,0,1,82.63,63.61Z" transform="translate(-1 -27.48)"/>
  </g>
  <g>
    <path class="a" d="M11.64,76.51H6.48c-0.6,0-1.2,0-1.8,0C3.77,76.44,3.52,76.08,3.55,75s0-1.22.9-1.22H8V71H4.81c-2.42,0-3.29.63-3.81,2.76v2.75c0.52,1.84,1.24,2.24,3.36,2.24h6c1.6,0,2.11.66,1.72,2.21a1,1,0,0,1-1.24.71H1v2.58c0.52,0,.62-0.08,1-0.08,3.32,0,6.61-.05,9.92-0.09a2.61,2.61,0,0,0,2.73-1.85,11.12,11.12,0,0,0,.17-2.89C14.63,77.39,13.6,76.52,11.64,76.51Z" transform="translate(-1 -27.48)"/>
    <path class="a" d="M135.94,71.17a1,1,0,0,0-1.11.77c-1.15,2.82-2.34,5.63-3.56,8.54-1.22-2.79-2.43-5.47-3.57-8.17A1.83,1.83,0,0,0,125.9,71,1.86,1.86,0,0,0,124,72.21c-1.23,2.72-2.46,5.43-3.72,8.2a4,4,0,0,1-.22-0.4c-1.09-2.69-2.17-5.39-3.29-8.07a1.25,1.25,0,0,0-.75-0.72,25.59,25.59,0,0,0-2.69,0,1.38,1.38,0,0,0,0,.3q2.47,5.9,5,11.79a1.75,1.75,0,0,0,1.55,1.15,1.87,1.87,0,0,0,1.91-1c0.37-.7.69-1.43,1-2.14l3-6.3c1.23,2.75,2.41,5.38,3.58,8a2,2,0,0,0,1.88,1.48,2.06,2.06,0,0,0,1.94-1.52l2.88-6.5c0.75-1.7,1.49-3.4,2.29-5.22C137.47,71.18,136.7,71.23,135.94,71.17Z" transform="translate(-1 -27.48)"/>
    <path class="a" d="M168.92,81.34c0-.54,0-1.09,0-1.63a2,2,0,0,0-1.21-2.18,4.46,4.46,0,0,0,.84-1,5,5,0,0,0-.14-4,1.76,1.76,0,0,0-.69-0.68,6.23,6.23,0,0,0-2.87-.71Q159.78,71,154.71,71H153V84.08c5,0,8.79.07,12.93,0C167.44,84,169,83.37,168.92,81.34Zm-4.44.39c-2.66,0-5.48,0-8.48,0V78h2.21c2.18,0,4.35.3,6.53,0.35,0.46,0,1.35.22,1.35,1.77A1.52,1.52,0,0,1,164.48,81.73Zm0-5.37c-2.66,0-5.48,0-8.48,0V73h2.21c2.18,0,4.35.12,6.53,0.17,0.46,0,1.35.13,1.35,1.67A1.44,1.44,0,0,1,164.48,76.36Z" transform="translate(-1 -27.48)"/>
    <path class="a" d="M74.64,79.6a3,3,0,0,0,2.77-3q0-1,0-2.06a3.06,3.06,0,0,0-3-3.13c-4.05-.09-8.4,0-12.4,0V84h3V79.55a2.08,2.08,0,0,0,.76.39l6.31,3.89a1.86,1.86,0,0,0,.84.33c1.52,0,3.05,0,4.78,0l-7.42-4.3C71.79,79.77,73.22,79.73,74.64,79.6ZM65,77.54V73.76h8.38A1,1,0,0,1,74,74c0.87,0.75.49,1.76,0.43,2.64a1.62,1.62,0,0,1-1.21.91C70.48,77.58,67,77.54,65,77.54Z" transform="translate(-1 -27.48)"/>
    <path class="a" d="M45.22,71H42v9.4c-1-.82-1.57-1.58-2.41-2.38-2.24-2.16-4.37-4.33-6.59-6.52a2.11,2.11,0,0,0-2.25-.4c-0.87.22-.72,1-0.72,1.63,0,2.75,0,5.5,0,8.25v3h3V75.09c1,0.9,1.82,1.7,2.71,2.54,2.18,2.05,4.3,4.13,6.49,6.18a2.08,2.08,0,0,0,2.27.46c0.85-.3.79-1,0.79-1.7,0-3.52,0-7.16,0-10.69C45.26,71.63,45.23,71,45.22,71Z" transform="translate(-1 -27.48)"/>
    <path class="a" d="M51.64,81.67c-1.25,0-1.81-.91-1.86-2.15,0-.36-0.06-0.51-0.06-1.51H61V76H50V75.57C50,74,50.12,73,51.68,73H55V71.1c-2,.09-3.49.12-5.19,0.26A2.91,2.91,0,0,0,47,74c-0.11,2.44-.1,4.9,0,7.34a2.75,2.75,0,0,0,2.37,2.53,17.45,17.45,0,0,0,2.79.26c2.69,0,5.5,0,8.19,0,0.19,0-.36,0,0.64-0.05V81.67H51.64Z" transform="translate(-1 -27.48)"/>
    <path class="a" d="M143.1,81.33a1.53,1.53,0,0,1-1.71-1.5c-0.05-.52,0-0.83,0-1.83H152V76H141.38s0-.3,0-0.52c0-1.6.07-1.84,1.65-1.84,1.08,0,2,.12,3,0.12V71.1c-2,.09-3.2.07-4.89,0.28a2.73,2.73,0,0,0-2.62,2.75c-0.11,2.11-.13,4.23-0.07,6.34,0,1.25.35,2.59,1.73,3.1a7.48,7.48,0,0,0,2.57.5c3.14,0.06,5.28,0,9.28,0V81h-0.48C148.72,81,145.91,81.34,143.1,81.33Z" transform="translate(-1 -27.48)"/>
    <path class="a" d="M87,76v2h3.77c0.14,3-.34,3.16-1.68,3.2-1.95.05-3.9,0.27-5.84,0.23-1.05,0-1.52-.27-1.59-1.29a36.09,36.09,0,0,1,0-4.9c0.09-1.22.58-1.49,1.82-1.5s2.53,0,3.53,0V71.1c-2,.09-3.66.09-5.43,0.28a3,3,0,0,0-2.78,3.1c-0.08,1.89-.12,3.78-0.08,5.66,0.06,2.81,1.13,3.77,3.56,3.9,2.62,0.14,5.25.13,7.87,0,2-.1,3.1-1,3.34-2.73A39.56,39.56,0,0,0,93.53,76H87Z" transform="translate(-1 -27.48)"/>
    <path class="a" d="M26.8,71.2a2.77,2.77,0,0,0-1.43.55c-1.57,1.31-3.08,2.68-4.64,4.05l-4.85-4.32a0.93,0.93,0,0,0-.49-0.29c-1.19,0-2.38,0-3.82,0L15,74.3c1.31,1.18,2.64,2.34,3.93,3.54a1,1,0,0,1,.24.69c0,1.85,0,3.47,0,5.47h2.92c0-2,0-3.65,0-5.48a1.24,1.24,0,0,1,.36-0.84c1.93-1.75,3.9-3.45,5.85-5.18,0.43-.38.81-0.8,1.34-1.32C28.57,71.17,27.68,71.12,26.8,71.2Z" transform="translate(-1 -27.48)"/>
    <path class="a" d="M106.18,71.2a1.46,1.46,0,0,0-.81.33c-1.68,1.4-3.34,2.83-5,4.26-1.22-1.1-2.44-2.21-3.67-3.29A4.36,4.36,0,0,0,95,71.24a23.73,23.73,0,0,0-3.82-.06l1.95,1.72L98,77.23a2.13,2.13,0,0,1,1,1.89c-0.11,1.64,0,2.88,0,4.88h2.84c0-2,0-3.42,0-5.13a1.33,1.33,0,0,1,.56-1.25c0.94-.74,1.76-1.6,2.64-2.41,1.24-1.13,2.48-2.25,3.73-3.37,0.21-.19.45-0.34,0.87-0.66C108.23,71.18,107.2,71.16,106.18,71.2Z" transform="translate(-1 -27.48)"/>
  </g>
  <g>
    <path class="a" d="M14.16,92.76a2.54,2.54,0,0,1-.94.18,2.51,2.51,0,0,1-1.08-.22,2.43,2.43,0,0,1-.81-0.6,2.61,2.61,0,0,1-.5-0.87,3,3,0,0,1-.17-1,3.8,3.8,0,0,1,.16-1.12,2.75,2.75,0,0,1,.48-0.93,2.34,2.34,0,0,1,.8-0.64,2.48,2.48,0,0,1,1.12-.24,3.23,3.23,0,0,1,.82.1,2.08,2.08,0,0,1,.69.32,1.9,1.9,0,0,1,.51.55,2.18,2.18,0,0,1,.28.81H14.82a1.41,1.41,0,0,0-.2-0.53,1.26,1.26,0,0,0-.35-0.36A1.57,1.57,0,0,0,13.79,88a2.19,2.19,0,0,0-.57-0.07,1.63,1.63,0,0,0-1.41.71,2.25,2.25,0,0,0-.33.73,3.35,3.35,0,0,0-.11.84,2.71,2.71,0,0,0,.12.81,2.11,2.11,0,0,0,.35.68,1.73,1.73,0,0,0,.58.47,1.71,1.71,0,0,0,.79.18A1.92,1.92,0,0,0,14,92.21a1.53,1.53,0,0,0,.88-0.93,1.83,1.83,0,0,0,.1-0.69H13.23V90h2.35v2.83H15.13l-0.19-.67A1.78,1.78,0,0,1,14.16,92.76Z" transform="translate(-1 -27.48)"/>
    <path class="a" d="M20.56,92.43a2.2,2.2,0,0,1-1.56.52,2.44,2.44,0,0,1-1.62-.49,1.94,1.94,0,0,1-.58-1.57V87.45H17.5v3.43A1.46,1.46,0,0,0,17.89,92a1.53,1.53,0,0,0,1.11.37A1.38,1.38,0,0,0,20,92a1.52,1.52,0,0,0,.36-1.09V87.45h0.71v3.43A2,2,0,0,1,20.56,92.43Z" transform="translate(-1 -27.48)"/>
    <path class="a" d="M24.68,87.45l2.1,5.37H26L25.4,91.2H23.13l-0.6,1.62H21.8l2.09-5.37h0.79Zm0.5,3.15-0.9-2.51h0L23.36,90.6h1.82Z" transform="translate(-1 -27.48)"/>
    <path class="a" d="M30,87.45a1.77,1.77,0,0,1,1.2.38,1.29,1.29,0,0,1,.43,1,1.63,1.63,0,0,1-.22.86,1.14,1.14,0,0,1-.71.5v0a1,1,0,0,1,.38.15,0.83,0.83,0,0,1,.23.25,1.15,1.15,0,0,1,.13.33,3.44,3.44,0,0,1,.06.38q0,0.2,0,.4a3.42,3.42,0,0,0,0,.4,2.43,2.43,0,0,0,.09.37,0.92,0.92,0,0,0,.17.31H31a0.45,0.45,0,0,1-.1-0.23,2.28,2.28,0,0,1,0-.32q0-.18,0-0.38a2.64,2.64,0,0,0,0-.4q0-.2-0.08-0.37a0.88,0.88,0,0,0-.14-0.31,0.71,0.71,0,0,0-.26-0.21,1,1,0,0,0-.42-0.08H28.2v2.29H27.49V87.45H30Zm0.15,2.44a1,1,0,0,0,.39-0.15,0.8,0.8,0,0,0,.27-0.29,1,1,0,0,0,.1-0.48,1,1,0,0,0-.23-0.66A0.93,0.93,0,0,0,30,88.05H28.2v1.87h1.49A2.87,2.87,0,0,0,30.16,89.89Z" transform="translate(-1 -27.48)"/>
    <path class="a" d="M35.07,87.45l2.1,5.37H36.38L35.79,91.2H33.52l-0.6,1.62H32.19l2.09-5.37h0.79Zm0.5,3.15-0.9-2.51h0L33.75,90.6h1.82Z" transform="translate(-1 -27.48)"/>
    <path class="a" d="M38.63,87.45l2.83,4.36h0V87.45h0.68v5.37H41.37l-2.81-4.31h0v4.31H37.87V87.45h0.76Z" transform="translate(-1 -27.48)"/>
    <path class="a" d="M42.92,88.05v-0.6h4.3v0.6H45.42v4.77H44.71V88.05H42.92Z" transform="translate(-1 -27.48)"/>
    <path class="a" d="M51.7,87.45v0.6h-3v1.71h2.79v0.6H48.7v1.86h3v0.6H48V87.45H51.7Z" transform="translate(-1 -27.48)"/>
    <path class="a" d="M56.47,87.45v0.6h-3v1.71h2.79v0.6H53.48v1.86h3v0.6H52.76V87.45h3.71Z" transform="translate(-1 -27.48)"/>
    <path class="a" d="M59.38,87.45a2.68,2.68,0,0,1,1.91.63A2.53,2.53,0,0,1,62,90a4.35,4.35,0,0,1-.15,1.2,2.24,2.24,0,0,1-.47.88,2,2,0,0,1-.81.55,3.22,3.22,0,0,1-1.16.19H57.54V87.45h1.84Zm0.06,4.77,0.3,0a1.69,1.69,0,0,0,.38-0.09,1.75,1.75,0,0,0,.4-0.21,1.36,1.36,0,0,0,.36-0.37A2.06,2.06,0,0,0,61.15,91a3.07,3.07,0,0,0,.1-0.85,3.6,3.6,0,0,0-.09-0.86,1.65,1.65,0,0,0-.31-0.65,1.36,1.36,0,0,0-.55-0.41,2.2,2.2,0,0,0-.84-0.14h-1.2v4.17h1.19Z" transform="translate(-1 -27.48)"/>
    <path class="a" d="M67.64,87.45a1.67,1.67,0,0,1,1.23.42,1.85,1.85,0,0,1,0,2.34,1.64,1.64,0,0,1-1.23.41H66v2.2H65.29V87.45h2.35ZM67.4,90a1.28,1.28,0,0,0,.89-0.25A0.94,0.94,0,0,0,68.58,89a0.93,0.93,0,0,0-.28-0.73,1.31,1.31,0,0,0-.89-0.25H66v2h1.4Z" transform="translate(-1 -27.48)"/>
    <path class="a" d="M74.05,87.45v0.6h-3v1.71h2.79v0.6H71.06v1.86h3v0.6H70.35V87.45h3.71Z" transform="translate(-1 -27.48)"/>
    <path class="a" d="M77.65,87.45a1.77,1.77,0,0,1,1.2.38,1.29,1.29,0,0,1,.43,1,1.63,1.63,0,0,1-.22.86,1.14,1.14,0,0,1-.71.5v0a1,1,0,0,1,.38.15,0.83,0.83,0,0,1,.23.25,1.15,1.15,0,0,1,.13.33,3.44,3.44,0,0,1,.06.38q0,0.2,0,.4a3.42,3.42,0,0,0,0,.4,2.43,2.43,0,0,0,.09.37,0.92,0.92,0,0,0,.17.31h-0.8a0.45,0.45,0,0,1-.1-0.23,2.28,2.28,0,0,1,0-.32q0-.18,0-0.38a2.64,2.64,0,0,0,0-.4q0-.2-0.08-0.37a0.88,0.88,0,0,0-.14-0.31A0.71,0.71,0,0,0,78,90.61a1,1,0,0,0-.42-0.08H75.84v2.29H75.12V87.45h2.53Zm0.15,2.44a1,1,0,0,0,.39-0.15,0.8,0.8,0,0,0,.27-0.29,1,1,0,0,0,.1-0.48,1,1,0,0,0-.23-0.66,0.93,0.93,0,0,0-.73-0.26H75.84v1.87h1.49A2.87,2.87,0,0,0,77.8,89.89Z" transform="translate(-1 -27.48)"/>
    <path class="a" d="M84,87.45v0.6H81.17v1.71h2.47v0.6H81.17v2.46H80.46V87.45H84Z" transform="translate(-1 -27.48)"/>
    <path class="a" d="M84.82,89.08a2.66,2.66,0,0,1,.49-0.9,2.37,2.37,0,0,1,.81-0.62,2.81,2.81,0,0,1,2.24,0,2.38,2.38,0,0,1,.81.62,2.67,2.67,0,0,1,.48.9,3.54,3.54,0,0,1,0,2.11,2.66,2.66,0,0,1-.48.9,2.33,2.33,0,0,1-.81.62,2.85,2.85,0,0,1-2.24,0,2.32,2.32,0,0,1-.81-0.62,2.66,2.66,0,0,1-.49-0.9A3.53,3.53,0,0,1,84.82,89.08Zm0.66,1.86a2.17,2.17,0,0,0,.33.71,1.69,1.69,0,0,0,.58.51,1.95,1.95,0,0,0,1.68,0,1.69,1.69,0,0,0,.58-0.51A2.17,2.17,0,0,0,89,90.94a3.09,3.09,0,0,0,0-1.6,2.17,2.17,0,0,0-.33-0.71,1.69,1.69,0,0,0-.58-0.51,1.95,1.95,0,0,0-1.68,0,1.69,1.69,0,0,0-.58.51,2.17,2.17,0,0,0-.33.71A3.1,3.1,0,0,0,85.47,90.94Z" transform="translate(-1 -27.48)"/>
    <path class="a" d="M93.38,87.45a1.77,1.77,0,0,1,1.2.38,1.3,1.3,0,0,1,.43,1,1.63,1.63,0,0,1-.22.86,1.14,1.14,0,0,1-.71.5v0a1,1,0,0,1,.38.15,0.83,0.83,0,0,1,.23.25,1.14,1.14,0,0,1,.13.33,3.52,3.52,0,0,1,.06.38q0,0.2,0,.4a3.46,3.46,0,0,0,0,.4,2.46,2.46,0,0,0,.09.37,0.91,0.91,0,0,0,.17.31H94.4a0.45,0.45,0,0,1-.1-0.23,2.25,2.25,0,0,1,0-.32c0-.12,0-0.24,0-0.38a2.6,2.6,0,0,0,0-.4q0-.2-0.08-0.37A0.87,0.87,0,0,0,94,90.82a0.71,0.71,0,0,0-.26-0.21,1,1,0,0,0-.42-0.08H91.57v2.29H90.85V87.45h2.53Zm0.15,2.44a1,1,0,0,0,.39-0.15,0.81,0.81,0,0,0,.27-0.29A1,1,0,0,0,94.3,89a1,1,0,0,0-.23-0.66,0.93,0.93,0,0,0-.73-0.26H91.57v1.87h1.49A2.87,2.87,0,0,0,93.53,89.89Z" transform="translate(-1 -27.48)"/>
    <path class="a" d="M97.18,87.45L98.87,92l1.7-4.51h1v5.37h-0.68V88.35h0l-1.68,4.47H98.57l-1.68-4.47h0v4.47H96.2V87.45h1Z" transform="translate(-1 -27.48)"/>
    <path class="a" d="M105.17,87.45l2.1,5.37h-0.79l-0.59-1.62h-2.27L103,92.82h-0.73l2.09-5.37h0.79Zm0.5,3.15-0.9-2.51h0l-0.91,2.51h1.82Z" transform="translate(-1 -27.48)"/>
    <path class="a" d="M108.73,87.45l2.83,4.36h0V87.45h0.68v5.37h-0.78l-2.81-4.31h0v4.31H108V87.45h0.76Z" transform="translate(-1 -27.48)"/>
    <path class="a" d="M116.83,88.21a1.66,1.66,0,0,0-1-.29,1.75,1.75,0,0,0-.82.18,1.62,1.62,0,0,0-.56.49,2.09,2.09,0,0,0-.33.7,3.11,3.11,0,0,0-.11.81,3.47,3.47,0,0,0,.11.87,2.07,2.07,0,0,0,.33.71,1.61,1.61,0,0,0,.57.49,1.77,1.77,0,0,0,.83.18,1.6,1.6,0,0,0,.63-0.12,1.42,1.42,0,0,0,.47-0.32,1.49,1.49,0,0,0,.31-0.49,2.05,2.05,0,0,0,.14-0.62h0.71a2.44,2.44,0,0,1-.7,1.58,2.26,2.26,0,0,1-1.63.56,2.59,2.59,0,0,1-1.09-.21,2.14,2.14,0,0,1-.77-0.59,2.53,2.53,0,0,1-.46-0.89,3.79,3.79,0,0,1-.15-1.1,3.58,3.58,0,0,1,.17-1.1,2.65,2.65,0,0,1,.49-0.9,2.26,2.26,0,0,1,.8-0.61,2.57,2.57,0,0,1,1.09-.22,2.76,2.76,0,0,1,.8.11,2.15,2.15,0,0,1,.67.33,1.87,1.87,0,0,1,.49.55,2,2,0,0,1,.26.76h-0.71A1.33,1.33,0,0,0,116.83,88.21Z" transform="translate(-1 -27.48)"/>
    <path class="a" d="M122.91,87.45v0.6h-3v1.71h2.79v0.6h-2.79v1.86h3v0.6H119.2V87.45h3.71Z" transform="translate(-1 -27.48)"/>
    <path class="a" d="M127,87.45v2.31h2.83V87.45h0.71v5.37h-0.71V90.36H127v2.46h-0.71V87.45H127Z" transform="translate(-1 -27.48)"/>
    <path class="a" d="M131.72,89.08a2.67,2.67,0,0,1,.49-0.9,2.38,2.38,0,0,1,.81-0.62,2.81,2.81,0,0,1,2.24,0,2.38,2.38,0,0,1,.81.62,2.67,2.67,0,0,1,.49.9,3.54,3.54,0,0,1,0,2.11,2.67,2.67,0,0,1-.49.9,2.33,2.33,0,0,1-.81.62,2.85,2.85,0,0,1-2.24,0,2.33,2.33,0,0,1-.81-0.62,2.67,2.67,0,0,1-.49-0.9A3.54,3.54,0,0,1,131.72,89.08Zm0.66,1.86a2.18,2.18,0,0,0,.33.71,1.69,1.69,0,0,0,.58.51,1.95,1.95,0,0,0,1.69,0,1.69,1.69,0,0,0,.58-0.51,2.18,2.18,0,0,0,.33-0.71,3.1,3.1,0,0,0,0-1.6,2.18,2.18,0,0,0-.33-0.71,1.69,1.69,0,0,0-.58-0.51,1.95,1.95,0,0,0-1.69,0,1.69,1.69,0,0,0-.58.51,2.18,2.18,0,0,0-.33.71A3.1,3.1,0,0,0,132.38,90.94Z" transform="translate(-1 -27.48)"/>
    <path class="a" d="M140.45,88.18a1.52,1.52,0,0,0-.91-0.26,2.18,2.18,0,0,0-.44,0,1.18,1.18,0,0,0-.39.15,0.79,0.79,0,0,0-.27.28,0.87,0.87,0,0,0-.1.44,0.56,0.56,0,0,0,.15.4,1.08,1.08,0,0,0,.39.25,3.27,3.27,0,0,0,.55.16l0.63,0.14L140.68,90a2.06,2.06,0,0,1,.55.27,1.31,1.31,0,0,1,.39.44,1.53,1.53,0,0,1,0,1.4,1.58,1.58,0,0,1-.49.5,2.14,2.14,0,0,1-.67.28,3.28,3.28,0,0,1-.74.09,3.15,3.15,0,0,1-.85-0.11,2.11,2.11,0,0,1-.71-0.34,1.62,1.62,0,0,1-.48-0.59,1.89,1.89,0,0,1-.18-0.85h0.68a1.21,1.21,0,0,0,.13.58,1.2,1.2,0,0,0,.35.4,1.46,1.46,0,0,0,.5.23,2.28,2.28,0,0,0,.59.08,2.67,2.67,0,0,0,.49,0,1.43,1.43,0,0,0,.44-0.15,0.83,0.83,0,0,0,.44-0.78,0.68,0.68,0,0,0-.15-0.45,1.09,1.09,0,0,0-.39-0.28,2.87,2.87,0,0,0-.55-0.18l-0.63-.14-0.63-.17a2.27,2.27,0,0,1-.55-0.25,1.11,1.11,0,0,1-.54-1,1.42,1.42,0,0,1,.17-0.7,1.44,1.44,0,0,1,.44-0.49,2,2,0,0,1,.62-0.29,2.76,2.76,0,0,1,.72-0.09,2.88,2.88,0,0,1,.77.1,1.75,1.75,0,0,1,.62.31,1.49,1.49,0,0,1,.42.53,1.89,1.89,0,0,1,.17.76h-0.68A1.12,1.12,0,0,0,140.45,88.18Z" transform="translate(-1 -27.48)"/>
    <path class="a" d="M142.24,88.05v-0.6h4.3v0.6h-1.79v4.77H144V88.05h-1.79Z" transform="translate(-1 -27.48)"/>
    <path class="a" d="M148.06,87.45v5.37h-0.71V87.45h0.71Z" transform="translate(-1 -27.48)"/>
    <path class="a" d="M150.2,87.45L153,91.81h0V87.45h0.68v5.37h-0.78l-2.81-4.31h0v4.31h-0.68V87.45h0.76Z" transform="translate(-1 -27.48)"/>
    <path class="a" d="M158.29,92.76a2.54,2.54,0,0,1-.94.18,2.51,2.51,0,0,1-1.08-.22,2.43,2.43,0,0,1-.81-0.6,2.62,2.62,0,0,1-.5-0.87,3,3,0,0,1-.17-1,3.81,3.81,0,0,1,.16-1.12,2.75,2.75,0,0,1,.48-0.93,2.34,2.34,0,0,1,.8-0.64,2.48,2.48,0,0,1,1.12-.24,3.23,3.23,0,0,1,.82.1,2.08,2.08,0,0,1,.69.32,1.9,1.9,0,0,1,.51.55,2.18,2.18,0,0,1,.28.81h-0.71a1.41,1.41,0,0,0-.2-0.53,1.27,1.27,0,0,0-.35-0.36,1.57,1.57,0,0,0-.48-0.21,2.19,2.19,0,0,0-.57-0.07,1.63,1.63,0,0,0-1.41.71,2.25,2.25,0,0,0-.33.73,3.35,3.35,0,0,0-.11.84,2.7,2.7,0,0,0,.12.81,2.11,2.11,0,0,0,.35.68,1.73,1.73,0,0,0,.58.47,1.71,1.71,0,0,0,.79.18,1.92,1.92,0,0,0,.74-0.14,1.53,1.53,0,0,0,.88-0.93,1.82,1.82,0,0,0,.1-0.69h-1.71V90h2.35v2.83h-0.45l-0.19-.67A1.78,1.78,0,0,1,158.29,92.76Z" transform="translate(-1 -27.48)"/>
  </g>
</svg>
