<svg xmlns="http://www.w3.org/2000/svg" width="170" height="123" viewBox="0 0 170 123">
<style type="text/css">
	<!-- .st0{fill-rule:evenodd;clip-rule:evenodd;fill:#EC9832;stroke:#EC9832;stroke-width:0.4094;stroke-miterlimit:3.8637;} -->
	.st0{fill-rule:evenodd;clip-rule:evenodd;fill:#EC9832;}
	.st1{fill-rule:evenodd;clip-rule:evenodd;fill:#FFFFFF;}
	.st2{fill-rule:evenodd;clip-rule:evenodd;fill:#EDEDED;}
	.st3{fill-rule:evenodd;clip-rule:evenodd;fill:#EC9832;}
	.st4{fill:none;}
</style>
<title>logo-14four</title>
<g>
	<path class="st0" d="M93.5,32.4c-1.1-2.3-1-3.4-0.8-4.1c0.2-0.9,0-1.1-0.5-0.8c-1.2,0.8-1,1.7-1.1,2.4c-0.6,3-4.9,1.9-2.7-2.7
		c1.5-3.1,0.1-4.8-0.5-5.6c-2.2-2.8-1.8-4-1.4-4.8c0.6-1.1,0.6-1.6-0.1-1.3c-1.2,0.6-3.1,2.4-2.8,5.5c0.1,0.6,0,1.6,0.5,2.9
		c1.3,3-2.7,4.6-4,2.5c-0.6-1-0.1-2.7,0.1-3c0.2-0.2,0.3-1.1-0.7-0.4c-0.5,0.4-2.4,2-2,5.3c0.1,1,0.4,1.7-1.3,4.1
		c-0.8,1.4-1.2,3-1.2,4.7c0,5.4,4.4,9.8,9.8,9.8c5.4,0,9.8-4.4,9.8-9.8C94.7,35.4,94.3,33.8,93.5,32.4z"/>
</g>
<polygon class="st1" points="81.4,32.1 84,32.1 84,35.5 89.8,35.5 89.8,41.5 87.2,41.5 87.2,38.1 84,38.1 84,41.5 81.4,41.5
	81.4,38.1 79.9,38.1 79.9,35.5 81.4,35.5 "/>
<g>
	<g>
		<path class="st2" d="M31,98.1C15.1,95.3,5.3,92,2.2,90.8C0.9,90.2,1,89.1,1,89.1V51.3c0,0-0.1-1.1,1.5-1.7
			c5.7-2.1,28.2-9.5,65.5-11.2c5-0.2,5.9-0.3,5.9-0.3s0.1,1.2,0.4,2.1c-0.3,0-2.2,0.1-5.8,0.2c-42.5,1.8-65.2,11-65.2,11V89
			c0,0,10.4,4.2,30.3,7.5c0,0,0.4,0.1,1.2,0.2c-0.1,0.3-0.4,0.5-1.2,0.8C32.9,97.6,31.7,97.9,31,98.1z"/>
	</g>
</g>
<g>
	<g>
		<path class="st2" d="M167.9,90.8c-3.2,1.2-13,4.6-28.9,7.4c-0.7-0.2-1.9-0.5-2.5-0.7c-0.8-0.2-1.2-0.5-1.2-0.8
			c0.9-0.1,1.2-0.2,1.2-0.1c20-3.3,30.4-7.5,30.4-7.5V51.5c0,0-22.7-9.2-65.2-11c-3.6-0.2-5.7-0.2-6-0.2c0.4-1.2,0.4-2.1,0.4-2.1
			s1.5,0.1,6.1,0.2c38.1,1.4,60.7,9.3,65.9,11.3c1.2,0.5,1.1,1.6,1.1,1.6v37.8C169,89.1,169.1,90.2,167.9,90.8z"/>
	</g>
</g>
<g>
	<path class="st3" d="M99.1,105.3H45.7c-1.8,0-3.5,0.2-5.2,0.7c-1.6,0.4-3.3,0.9-4.8,1.6c-0.4,0.1-0.7,0.1-0.9,0
		c-0.2-0.2-0.2-0.4,0-0.8c0.1-0.1,0.2-0.3,0.6-0.7c0.3-0.4,0.6-0.8,0.9-1.4c0.3-0.5,0.4-1,0.3-1.5c-0.1-0.5-0.5-0.8-1.1-1.2
		c-0.6-0.3-1.2-0.6-1.9-0.8c-0.7-0.2-1.4-0.4-1.9-0.5c-0.6-0.1-0.9-0.2-1-0.2c-0.3-0.2-0.4-0.3-0.4-0.5c0-0.2,0.2-0.3,0.4-0.5
		c0.1,0,0.4-0.1,1-0.2c0.6-0.1,1.2-0.3,1.9-0.5c0.7-0.2,1.4-0.5,1.9-0.8c0.6-0.3,0.9-0.7,1.1-1.2c0.1-0.5-0.2-1-0.5-1.5
		c-0.3-0.5-1.2-1.9-1.2-2c-0.6-0.9,0.1-1.2,0.8-0.8c1.5,0.8,3.2,1.1,4.8,1.6c1.7,0.4,3.4,0.6,5.2,0.6h53.4V105.3z"/>
	<path class="st3" d="M91.7,105.3h32.7c1.8,0,3.5,0.2,5.2,0.7c1.7,0.4,3.3,0.9,4.8,1.6c0.4,0.1,0.7,0.1,0.9,0c0.2-0.2,0.2-0.4,0-0.8
		c-0.1-0.1-0.2-0.3-0.6-0.7c-0.3-0.4-0.6-0.8-0.9-1.4c-0.3-0.5-0.4-1-0.3-1.5c0.1-0.5,0.5-0.8,1.1-1.2c0.6-0.3,1.2-0.6,2-0.8
		c0.7-0.2,1.4-0.4,1.9-0.5c0.6-0.1,0.9-0.2,1-0.2c0.3-0.2,0.4-0.3,0.4-0.5c0-0.2-0.2-0.3-0.4-0.5c-0.1,0-0.4-0.1-1-0.2
		c-0.6-0.1-1.2-0.3-1.9-0.5c-0.7-0.2-1.4-0.5-2-0.8c-0.6-0.3-0.9-0.7-1.1-1.2c-0.1-0.5,0.2-1,0.5-1.5c0.3-0.5,1.2-1.9,1.2-2
		c0.6-0.9-0.1-1.2-0.8-0.8c-1.5,0.8-3.2,1.1-4.8,1.6c-1.6,0.4-3.4,0.6-5.2,0.6H91.7V105.3z"/>
</g>
<g>
	<path class="st1" d="M44.3,102.2c0,0.2-0.1,0.2-0.3,0.3h-2.9c-0.5,0-0.9-0.1-1.1-0.4c-0.2-0.3-0.4-0.7-0.4-1.2v-2
		c0-0.5,0.1-0.9,0.3-1.2c0.2-0.3,0.6-0.4,1.2-0.4h3c0.2,0,0.2,0.1,0.3,0.3v0.7c0,0.2-0.1,0.2-0.3,0.3h-2.7c-0.2,0-0.3,0-0.4,0.1
		c-0.1,0.1-0.1,0.2-0.1,0.3v2c0,0.2,0.1,0.3,0.2,0.3c0.1,0.1,0.2,0.1,0.4,0.1H44c0.2,0,0.2,0.1,0.3,0.3V102.2z"/>
	<path class="st1" d="M51,100.8c0,0.5-0.1,0.9-0.3,1.2c-0.2,0.3-0.6,0.4-1.2,0.4h-2.2c-0.5,0-0.9-0.1-1.2-0.4
		c-0.2-0.3-0.3-0.7-0.3-1.2v-2c0-0.5,0.1-0.9,0.3-1.2c0.2-0.3,0.6-0.4,1.2-0.4h2.2c0.5,0,0.9,0.1,1.2,0.4c0.2,0.3,0.3,0.7,0.3,1.2
		V100.8z M49.8,100.9v-2c0-0.2-0.1-0.3-0.1-0.3c-0.1-0.1-0.2-0.1-0.4-0.1h-1.6c-0.2,0-0.3,0-0.4,0.1c-0.1,0.1-0.1,0.2-0.2,0.3v2
		c0,0.2,0.1,0.3,0.2,0.3c0.1,0.1,0.2,0.1,0.4,0.1h1.6c0.2,0,0.3,0,0.4-0.1C49.7,101.1,49.8,101,49.8,100.9z"/>
	<path class="st1" d="M57.3,98.2c0,0.1,0,0.1-0.1,0.2c-0.1,0.1-0.1,0.1-0.2,0.1h-3.2v0.8h2.1c0.1,0,0.1,0,0.2,0.1
		c0.1,0.1,0.1,0.1,0.1,0.2v0.7c0,0.1,0,0.1-0.1,0.2c-0.1,0-0.1,0.1-0.2,0.1h-2.1v1.7c0,0.1,0,0.1-0.1,0.2c-0.1,0.1-0.1,0.1-0.2,0.1
		h-0.7c-0.1,0-0.1,0-0.2-0.1c-0.1-0.1-0.1-0.1-0.1-0.2v-4.7c0-0.1,0-0.1,0.1-0.2c0.1,0,0.1-0.1,0.2-0.1h4.2c0.1,0,0.1,0,0.2,0.1
		c0.1,0,0.1,0.1,0.1,0.2V98.2z"/>
	<path class="st1" d="M63.2,98.2c0,0.1,0,0.1-0.1,0.2c-0.1,0.1-0.1,0.1-0.2,0.1h-3.2v0.8h2.1c0.1,0,0.1,0,0.2,0.1
		c0.1,0.1,0.1,0.1,0.1,0.2v0.7c0,0.1,0,0.1-0.1,0.2c-0.1,0-0.1,0.1-0.2,0.1h-2.1v1.7c0,0.1,0,0.1-0.1,0.2c-0.1,0.1-0.1,0.1-0.2,0.1
		h-0.7c-0.1,0-0.1,0-0.2-0.1c-0.1-0.1-0.1-0.1-0.1-0.2v-4.7c0-0.1,0-0.1,0.1-0.2c0.1,0,0.1-0.1,0.2-0.1h4.2c0.1,0,0.1,0,0.2,0.1
		c0.1,0,0.1,0.1,0.1,0.2V98.2z"/>
	<path class="st1" d="M69.1,98.2c0,0.1,0,0.1-0.1,0.2c-0.1,0.1-0.1,0.1-0.2,0.1h-3.2v0.8h2.1c0.1,0,0.1,0,0.2,0.1
		c0.1,0.1,0.1,0.1,0.1,0.2v0.7c0,0.1,0,0.1-0.1,0.2c-0.1,0-0.1,0.1-0.2,0.1h-2.1v0.8h3.2c0.1,0,0.1,0,0.2,0.1c0.1,0,0.1,0.1,0.1,0.2
		v0.7c0,0.1,0,0.1-0.1,0.2c-0.1,0-0.1,0.1-0.2,0.1h-4.2c-0.1,0-0.1,0-0.2-0.1c-0.1-0.1-0.1-0.1-0.1-0.2v-4.7c0-0.1,0-0.1,0.1-0.2
		c0.1,0,0.1-0.1,0.2-0.1h4.2c0.1,0,0.1,0,0.2,0.1c0.1,0,0.1,0.1,0.1,0.2V98.2z"/>
	<path class="st1" d="M75.4,98.2c0,0.1,0,0.1-0.1,0.2c-0.1,0.1-0.1,0.1-0.2,0.1h-3.2v0.8H74c0.1,0,0.1,0,0.2,0.1
		c0.1,0.1,0.1,0.1,0.1,0.2v0.7c0,0.1,0,0.1-0.1,0.2c-0.1,0-0.1,0.1-0.2,0.1h-2.1v0.8h3.2c0.1,0,0.1,0,0.2,0.1c0.1,0,0.1,0.1,0.1,0.2
		v0.7c0,0.1,0,0.1-0.1,0.2c-0.1,0-0.1,0.1-0.2,0.1h-4.2c-0.1,0-0.1,0-0.2-0.1c-0.1-0.1-0.1-0.1-0.1-0.2v-4.7c0-0.1,0-0.1,0.1-0.2
		c0.1,0,0.1-0.1,0.2-0.1h4.2c0.1,0,0.1,0,0.2,0.1c0.1,0,0.1,0.1,0.1,0.2V98.2z"/>
	<path class="st1" d="M85.5,98.9c0,0.5-0.1,0.9-0.3,1.1c-0.2,0.3-0.6,0.4-1,0.4l1.2,1.8c0,0.1,0,0.1,0,0.2c0,0.1-0.1,0.1-0.2,0.1
		h-0.9c-0.1,0-0.2,0-0.2,0c-0.1,0-0.1,0-0.2-0.1l-1.3-1.9h-1v1.7c0,0.1,0,0.1-0.1,0.2c0,0.1-0.1,0.1-0.2,0.1h-0.7
		c-0.1,0-0.1,0-0.2-0.1c-0.1-0.1-0.1-0.1-0.1-0.2v-4.7c0-0.1,0-0.1,0.1-0.2c0.1,0,0.1-0.1,0.2-0.1H84c0.6,0,0.9,0.1,1.2,0.4
		C85.4,97.9,85.5,98.4,85.5,98.9z M84.2,98.9c0-0.2-0.1-0.3-0.2-0.3c-0.1-0.1-0.2-0.1-0.4-0.1h-2.1v0.8h2.1c0.2,0,0.3,0,0.4-0.1
		C84.2,99.1,84.2,99,84.2,98.9z"/>
	<path class="st1" d="M92.2,100.8c0,0.5-0.1,0.9-0.3,1.2c-0.2,0.3-0.6,0.4-1.2,0.4h-2.2c-0.5,0-0.9-0.1-1.2-0.4
		c-0.2-0.3-0.3-0.7-0.3-1.2v-2c0-0.5,0.1-0.9,0.3-1.2c0.2-0.3,0.6-0.4,1.2-0.4h2.2c0.5,0,0.9,0.1,1.2,0.4c0.2,0.3,0.3,0.7,0.3,1.2
		V100.8z M91,100.9v-2c0-0.2-0.1-0.3-0.2-0.3c-0.1-0.1-0.2-0.1-0.4-0.1h-1.6c-0.2,0-0.3,0-0.4,0.1c-0.1,0.1-0.1,0.2-0.1,0.3v2
		c0,0.2,0.1,0.3,0.1,0.3c0.1,0.1,0.2,0.1,0.4,0.1h1.6c0.2,0,0.3,0,0.4-0.1C90.9,101.1,91,101,91,100.9z"/>
	<path class="st1" d="M99,102.2c0,0.1,0,0.1-0.1,0.2c-0.1,0.1-0.1,0.1-0.2,0.1H98c-0.1,0-0.1,0-0.2-0.1c0-0.1-0.1-0.1-0.1-0.2v-1.5
		H95v1.5c0,0.1,0,0.1-0.1,0.2c-0.1,0.1-0.1,0.1-0.2,0.1h-0.7c-0.1,0-0.1,0-0.2-0.1c-0.1-0.1-0.1-0.1-0.1-0.2v-3.3
		c0-0.5,0.1-0.9,0.3-1.2c0.2-0.3,0.6-0.4,1.2-0.4h2.2c0.5,0,0.9,0.1,1.2,0.4c0.2,0.3,0.3,0.7,0.3,1.2V102.2z M97.7,99.5v-0.7
		c0-0.2-0.1-0.3-0.2-0.3c-0.1-0.1-0.2-0.1-0.4-0.1h-1.6c-0.2,0-0.3,0-0.4,0.1c-0.1,0.1-0.1,0.2-0.2,0.3v0.7H97.7z"/>
	<path class="st1" d="M105.7,100.8c0,0.5-0.1,0.9-0.3,1.2c-0.2,0.3-0.6,0.4-1.2,0.4h-3.3c-0.2,0-0.2-0.1-0.3-0.3v-0.7
		c0-0.2,0.1-0.2,0.3-0.3h3.1c0.2,0,0.3,0,0.4-0.1c0.1-0.1,0.1-0.2,0.2-0.3c0-0.2-0.1-0.3-0.2-0.3c-0.1-0.1-0.2-0.1-0.4-0.1H102
		c-0.5,0-0.9-0.1-1.1-0.4c-0.2-0.3-0.3-0.7-0.3-1.2c0-0.5,0.1-0.9,0.3-1.2c0.2-0.3,0.6-0.4,1.2-0.4h3c0.1,0,0.1,0,0.2,0.1
		c0.1,0,0.1,0.1,0.1,0.2v0.7c0,0.1,0,0.1-0.1,0.2c-0.1,0.1-0.1,0.1-0.2,0.1h-2.7c-0.2,0-0.3,0-0.4,0.1c-0.1,0.1-0.1,0.2-0.1,0.3
		c0,0.2,0.1,0.3,0.2,0.3c0.1,0.1,0.2,0.1,0.4,0.1h1.9c0.5,0,0.9,0.1,1.2,0.4C105.6,99.9,105.7,100.3,105.7,100.8z"/>
	<path class="st1" d="M111.5,98.2c0,0.2-0.1,0.2-0.3,0.3h-1.6v3.7c0,0.1,0,0.1-0.1,0.2c-0.1,0.1-0.1,0.1-0.2,0.1h-0.7
		c-0.1,0-0.1,0-0.2-0.1c0-0.1-0.1-0.1-0.1-0.2v-3.7h-1.6c-0.1,0-0.1,0-0.2-0.1c-0.1,0-0.1-0.1-0.1-0.2v-0.7c0-0.1,0-0.1,0.1-0.2
		c0.1-0.1,0.1-0.1,0.2-0.1h4.5c0.2,0,0.2,0.1,0.3,0.3V98.2z"/>
	<path class="st1" d="M117,98.2c0,0.1,0,0.1-0.1,0.2c-0.1,0.1-0.1,0.1-0.2,0.1h-3.2v0.8h2.1c0.1,0,0.1,0,0.2,0.1
		c0.1,0.1,0.1,0.1,0.1,0.2v0.7c0,0.1,0,0.1-0.1,0.2c-0.1,0-0.1,0.1-0.2,0.1h-2.1v0.8h3.2c0.1,0,0.1,0,0.2,0.1c0.1,0,0.1,0.1,0.1,0.2
		v0.7c0,0.1,0,0.1-0.1,0.2c-0.1,0-0.1,0.1-0.2,0.1h-4.2c-0.1,0-0.1,0-0.2-0.1c-0.1-0.1-0.1-0.1-0.1-0.2v-4.7c0-0.1,0-0.1,0.1-0.2
		c0.1,0,0.1-0.1,0.2-0.1h4.2c0.1,0,0.1,0,0.2,0.1c0.1,0,0.1,0.1,0.1,0.2V98.2z"/>
	<path class="st1" d="M123.7,98.9c0,0.5-0.1,0.9-0.3,1.1c-0.2,0.3-0.6,0.4-1,0.4l1.2,1.8c0,0.1,0,0.1,0,0.2c0,0.1-0.1,0.1-0.2,0.1
		h-0.9c-0.1,0-0.2,0-0.2,0c-0.1,0-0.1,0-0.2-0.1l-1.3-1.9h-1v1.7c0,0.1,0,0.1-0.1,0.2c0,0.1-0.1,0.1-0.2,0.1h-0.7
		c-0.1,0-0.1,0-0.2-0.1c-0.1-0.1-0.1-0.1-0.1-0.2v-4.7c0-0.1,0-0.1,0.1-0.2c0.1,0,0.1-0.1,0.2-0.1h3.3c0.5,0,0.9,0.1,1.2,0.4
		C123.6,97.9,123.7,98.4,123.7,98.9z M122.5,98.9c0-0.2-0.1-0.3-0.2-0.3c-0.1-0.1-0.2-0.1-0.4-0.1h-2.1v0.8h2.1c0.2,0,0.3,0,0.4-0.1
		C122.4,99.1,122.5,99,122.5,98.9z"/>
	<path class="st1" d="M130.5,100.8c0,0.5-0.1,0.9-0.3,1.2c-0.2,0.3-0.6,0.4-1.2,0.4h-3.3c-0.2,0-0.2-0.1-0.3-0.3v-0.7
		c0-0.2,0.1-0.2,0.3-0.3h3.1c0.2,0,0.3,0,0.4-0.1c0.1-0.1,0.1-0.2,0.2-0.3c0-0.2-0.1-0.3-0.2-0.3c-0.1-0.1-0.2-0.1-0.4-0.1h-1.9
		c-0.5,0-0.9-0.1-1.1-0.4c-0.2-0.3-0.3-0.7-0.3-1.2c0-0.5,0.1-0.9,0.3-1.2c0.2-0.3,0.6-0.4,1.2-0.4h3c0.1,0,0.1,0,0.2,0.1
		c0.1,0,0.1,0.1,0.1,0.2v0.7c0,0.1,0,0.1-0.1,0.2c-0.1,0.1-0.1,0.1-0.2,0.1h-2.7c-0.2,0-0.3,0-0.4,0.1c-0.1,0.1-0.1,0.2-0.1,0.3
		c0,0.2,0.1,0.3,0.2,0.3c0.1,0.1,0.2,0.1,0.4,0.1h1.9c0.5,0,0.9,0.1,1.2,0.4C130.4,99.9,130.5,100.3,130.5,100.8z"/>
</g>
<g>
	<path class="st2" d="M74.1,60.3h3.6c0.3,0,0.6,0,0.8-0.2c0.2-0.1,0.3-0.4,0.3-0.7v-4.4c0-0.4-0.1-0.6-0.3-0.7
		c-0.2-0.1-0.5-0.2-0.8-0.2h-3.6c-0.3,0-0.6,0-0.8,0.2c-0.2,0.1-0.3,0.4-0.3,0.7v4.4c0,0.4,0.1,0.6,0.3,0.7
		C73.5,60.3,73.8,60.3,74.1,60.3z"/>
	<path class="st2" d="M51.5,70.9c-0.4-0.2-0.8-0.3-1.4-0.3h-6.1c-0.6,0-1,0.1-1.4,0.3c-0.4,0.2-0.5,0.6-0.6,1.2v2.4h10v-2.4
		C52.1,71.5,51.9,71.1,51.5,70.9z"/>
	<path class="st2" d="M109.1,54.2h-3.6c-0.3,0-0.6,0-0.8,0.2c-0.2,0.1-0.3,0.4-0.3,0.7v1.4h5.8v-1.4c0-0.4-0.1-0.6-0.3-0.7
		C109.7,54.3,109.4,54.2,109.1,54.2z"/>
	<path class="st2" d="M150.8,70.9c-0.4-0.2-0.8-0.3-1.4-0.3h-7.7v3h7.6c0.6,0,1.1-0.1,1.5-0.3c0.4-0.2,0.6-0.6,0.6-1.3
		C151.3,71.5,151.1,71.1,150.8,70.9z"/>
	<path class="st2" d="M165.3,52.1c-3.2-1.2-25.2-8.8-63.9-10.4c-5.1-0.2-5-0.2-5-0.2l-1.4,0c-1.7,3.9-5.6,6.6-10.1,6.6
		c-4.5,0-8.4-2.7-10.1-6.6c-0.8,0-1.3,0.1-1.3,0.1s0.1,0-4.9,0.2C29.9,43.4,7.8,51,4.7,52.1c-0.2,0.1-0.4,0.3-0.4,0.5v35.1
		c0,0.3,0.2,0.5,0.4,0.5c2.1,0.8,12.1,4.2,29.5,7c-0.1-0.2-0.2-0.4-0.4-0.6c-0.5-0.9-0.4-0.7-0.8-1.3c-0.8-1.3-0.1-3.2,2.3-2.3
		c2.5,0.9,5.6,1.6,6.2,1.7c1.2,0.2,3,0.4,4.2,0.4h37.8h2.8h37.8c1.2,0,3-0.2,4.2-0.4c0.6-0.1,3.8-0.8,6.2-1.7c2.4-0.9,3,1,2.3,2.3
		c-0.4,0.6-0.3,0.4-0.8,1.3c-0.1,0.2-0.3,0.4-0.4,0.6c17.5-2.8,27.5-6.3,29.6-7c0.2-0.1,0.4-0.3,0.4-0.5l0-35.1
		C165.7,52.4,165.5,52.2,165.3,52.1z M33.1,84.5c0,0.3-0.1,0.5-0.3,0.7c-0.2,0.2-0.4,0.3-0.7,0.3h-2.6c-0.3,0-0.5-0.1-0.7-0.3
		c-0.2-0.2-0.3-0.4-0.3-0.7V78h-10v6.5c0,0.3-0.1,0.5-0.3,0.7c-0.2,0.2-0.4,0.3-0.7,0.3H15c-0.3,0-0.5-0.1-0.7-0.3
		c-0.2-0.2-0.3-0.4-0.3-0.7V67.1c0-0.3,0.1-0.5,0.3-0.7c0.2-0.2,0.4-0.3,0.7-0.3h2.5c0.3,0,0.5,0.1,0.7,0.3c0.2,0.2,0.3,0.4,0.3,0.7
		v6.5h10v-6.5c0-0.3,0.1-0.5,0.3-0.7c0.2-0.2,0.4-0.3,0.7-0.3h2.5c0.3,0,0.5,0.1,0.7,0.3c0.2,0.2,0.3,0.4,0.3,0.7V84.5z M117.1,52.5
		c0.5-0.6,1.3-0.9,2.5-0.9h6.4c0.2,0,0.3,0.1,0.4,0.2c0.1,0.1,0.2,0.2,0.2,0.4v1.5c0,0.2-0.1,0.3-0.2,0.4c-0.1,0.1-0.3,0.2-0.4,0.2
		h-5.8c-0.3,0-0.6,0-0.8,0.2c-0.2,0.1-0.3,0.4-0.3,0.7c0,0.4,0.1,0.6,0.3,0.7c0.2,0.1,0.5,0.2,0.8,0.2h4.1c1.2,0,2,0.3,2.5,0.9
		c0.5,0.6,0.8,1.4,0.8,2.5c0,1.1-0.2,2-0.7,2.6c-0.5,0.6-1.3,0.9-2.5,0.9h-7.2c-0.3,0-0.5-0.2-0.6-0.5v-1.5c0-0.3,0.2-0.5,0.6-0.6
		h6.6c0.3,0,0.6,0,0.8-0.2c0.2-0.1,0.3-0.4,0.3-0.7c0-0.4-0.1-0.6-0.4-0.7c-0.2-0.1-0.5-0.2-0.8-0.2h-4.1c-1.1,0-2-0.3-2.5-0.9
		c-0.5-0.6-0.8-1.4-0.7-2.5C116.4,54,116.6,53.1,117.1,52.5z M70.3,55.2c0-1.2,0.2-2,0.7-2.6c0.5-0.6,1.3-0.9,2.5-0.9h4.7
		c1.2,0,2,0.3,2.5,0.9c0.5,0.6,0.7,1.5,0.7,2.6v4.2c0,1.1-0.2,2-0.7,2.6c-0.5,0.6-1.3,0.9-2.5,0.9h-4.7c-1.2,0-2-0.3-2.5-0.9
		c-0.5-0.6-0.7-1.5-0.7-2.6V55.2z M42.4,52.2c0-0.2,0.1-0.3,0.2-0.4c0.1-0.1,0.3-0.2,0.4-0.2h9.8c0.3,0,0.5,0.2,0.6,0.6v1.4
		c0,0.3-0.2,0.5-0.6,0.6h-3.6v8.1c0,0.2-0.1,0.3-0.2,0.4c-0.1,0.1-0.2,0.2-0.4,0.2h-1.5c-0.2,0-0.3-0.1-0.4-0.2
		c-0.1-0.1-0.2-0.3-0.2-0.4v-8.1H43c-0.2,0-0.3-0.1-0.4-0.2c-0.1-0.1-0.2-0.2-0.2-0.4V52.2z M56.6,84.4c0,0.3-0.1,0.5-0.3,0.7
		c-0.2,0.2-0.4,0.3-0.7,0.3h-2.5c-0.3,0-0.5-0.1-0.7-0.3c-0.2-0.2-0.3-0.4-0.3-0.7v-5.5h-10v5.5c0,0.3-0.1,0.5-0.3,0.7
		c-0.2,0.2-0.4,0.3-0.7,0.3h-2.6c-0.3,0-0.5-0.1-0.7-0.3c-0.2-0.2-0.3-0.4-0.3-0.7V72.2c0-2,0.4-3.4,1.2-4.5c0.8-1,2.3-1.5,4.3-1.5
		h8c2,0,3.4,0.5,4.3,1.5c0.8,1,1.2,2.5,1.2,4.5V84.4z M58.3,62.4c0,0.2-0.1,0.3-0.2,0.4c-0.1,0.1-0.3,0.2-0.4,0.2h-1.5
		c-0.2,0-0.3-0.1-0.4-0.2c-0.1-0.1-0.2-0.3-0.2-0.4V52.2c0-0.2,0.1-0.3,0.2-0.4c0.1-0.1,0.3-0.2,0.4-0.2h1.5c0.2,0,0.3,0.1,0.4,0.2
		c0.1,0.1,0.2,0.2,0.2,0.4V56h5.8v-3.8c0-0.2,0.1-0.3,0.2-0.4c0.1-0.1,0.3-0.2,0.4-0.2h1.5c0.2,0,0.3,0.1,0.4,0.2
		c0.1,0.1,0.2,0.2,0.2,0.4v10.2c0,0.2-0.1,0.3-0.2,0.4c-0.1,0.1-0.3,0.2-0.4,0.2h-1.5c-0.2,0-0.3-0.1-0.4-0.2
		c-0.1-0.1-0.2-0.3-0.2-0.4v-3.8h-5.8V62.4z M83.7,84.4c0,0.3-0.1,0.5-0.3,0.7c-0.2,0.2-0.4,0.3-0.7,0.3h-2.6
		c-0.3,0-0.5-0.1-0.7-0.3c-0.2-0.2-0.3-0.4-0.3-0.7V72.1c0-0.6-0.2-1-0.6-1.2c-0.4-0.2-0.8-0.3-1.4-0.3h-2.6v13.8
		c0,0.3-0.1,0.5-0.3,0.7c-0.2,0.2-0.4,0.3-0.7,0.3H71c-0.3,0-0.5-0.1-0.7-0.3c-0.2-0.2-0.3-0.4-0.3-0.7V70.6h-4.5v13.8
		c0,0.3-0.1,0.5-0.3,0.7c-0.2,0.2-0.4,0.3-0.7,0.3H62c-0.3,0-0.5-0.1-0.7-0.3c-0.2-0.2-0.3-0.4-0.3-0.7V67.1c0-0.3,0.1-0.5,0.3-0.7
		c0.2-0.2,0.4-0.3,0.7-0.3h16.2c2,0,3.4,0.5,4.3,1.5c0.8,1,1.2,2.5,1.2,4.5V84.4z M87.6,62.3c0,0.2-0.1,0.3-0.2,0.4
		c-0.1,0.1-0.2,0.2-0.4,0.2h-1.5c-0.2,0-0.3-0.1-0.4-0.2c-0.1-0.1-0.2-0.3-0.2-0.4V52.2c0-0.2,0.1-0.3,0.2-0.4
		c0.1-0.1,0.3-0.2,0.4-0.2H95c1.2,0,2,0.3,2.5,0.9c0.5,0.6,0.7,1.5,0.7,2.6v7.2c0,0.2-0.1,0.3-0.2,0.4c-0.1,0.1-0.3,0.2-0.4,0.2
		h-1.5c-0.2,0-0.3-0.1-0.4-0.2c-0.1-0.1-0.2-0.3-0.2-0.4v-7.2c0-0.4-0.1-0.6-0.3-0.7c-0.2-0.1-0.5-0.2-0.8-0.2h-1.5v8.1
		c0,0.2-0.1,0.3-0.2,0.4c-0.1,0.1-0.2,0.2-0.4,0.2h-1.5c-0.2,0-0.3-0.1-0.4-0.2c-0.1-0.1-0.2-0.3-0.2-0.4v-8.1h-2.6V62.3z
		 M110.8,84.4c0,0.3-0.1,0.5-0.3,0.7c-0.2,0.2-0.4,0.3-0.7,0.3h-2.6c-0.3,0-0.5-0.1-0.7-0.3c-0.2-0.2-0.3-0.4-0.3-0.7V72.1
		c0-0.6-0.2-1-0.5-1.2c-0.4-0.2-0.8-0.3-1.4-0.3h-2.6v13.8c0,0.3-0.1,0.5-0.3,0.7c-0.2,0.2-0.4,0.3-0.7,0.3h-2.6
		c-0.3,0-0.5-0.1-0.7-0.3c-0.2-0.2-0.3-0.4-0.3-0.7V70.6h-4.5v13.8c0,0.3-0.1,0.5-0.3,0.7c-0.2,0.2-0.4,0.3-0.7,0.3h-2.6
		c-0.3,0-0.5-0.1-0.7-0.3c-0.2-0.2-0.3-0.4-0.3-0.7V67.1c0-0.3,0.1-0.5,0.3-0.7c0.2-0.2,0.4-0.3,0.7-0.3h16.2c2,0,3.4,0.5,4.3,1.5
		c0.8,1,1.2,2.5,1.2,4.5V84.4z M112.9,62.3c0,0.2-0.1,0.3-0.2,0.4c-0.1,0.1-0.3,0.2-0.4,0.2h-1.5c-0.2,0-0.3-0.1-0.4-0.2
		c-0.1-0.1-0.2-0.3-0.2-0.4v-3.2h-5.8v3.2c0,0.2-0.1,0.3-0.2,0.4c-0.1,0.1-0.2,0.2-0.4,0.2h-1.5c-0.2,0-0.3-0.1-0.4-0.2
		c-0.1-0.1-0.2-0.3-0.2-0.4v-7.2c0-1.2,0.2-2,0.7-2.6c0.5-0.6,1.3-0.9,2.5-0.9h4.7c1.2,0,2,0.3,2.5,0.9c0.5,0.6,0.7,1.5,0.7,2.6
		V62.3z M132.7,69.6c0,0.3-0.1,0.5-0.3,0.7c-0.2,0.2-0.4,0.3-0.7,0.3h-11.9v3h7.7c0.3,0,0.5,0.1,0.7,0.3c0.2,0.2,0.3,0.4,0.3,0.7
		v2.5c0,0.3-0.1,0.5-0.3,0.7c-0.2,0.2-0.4,0.3-0.7,0.3h-7.7v3h11.9c0.3,0,0.5,0.1,0.7,0.3c0.2,0.2,0.3,0.4,0.3,0.7v2.5
		c0,0.3-0.1,0.5-0.3,0.7c-0.2,0.2-0.4,0.3-0.7,0.3h-15.4c-0.3,0-0.5-0.1-0.7-0.3c-0.2-0.2-0.3-0.4-0.3-0.7V67.1
		c0-0.3,0.1-0.5,0.3-0.7c0.2-0.2,0.4-0.3,0.7-0.3h15.4c0.3,0,0.5,0.1,0.7,0.3c0.2,0.2,0.3,0.4,0.3,0.7V69.6z M155.3,84.5
		c0.1,0.2,0.2,0.4,0.1,0.6c-0.1,0.2-0.3,0.3-0.6,0.3h-3.2c-0.3,0-0.6,0-0.8,0c-0.2,0-0.4-0.1-0.6-0.3l-4.8-7.1h-3.8v6.4
		c0,0.3-0.1,0.5-0.3,0.7c-0.2,0.2-0.4,0.3-0.7,0.3H138c-0.3,0-0.5-0.1-0.7-0.3c-0.2-0.2-0.3-0.4-0.3-0.7V67.1c0-0.3,0.1-0.5,0.3-0.7
		c0.2-0.2,0.4-0.3,0.7-0.3h12.3c2,0,3.5,0.5,4.3,1.5c0.8,1,1.3,2.5,1.2,4.5c0,1.8-0.4,3.2-1.2,4.2c-0.8,1-2.1,1.5-3.9,1.6
		L155.3,84.5z"/>
</g>
<g>
	<path class="st4" d="M84.9,54.6"/>
</g>
</svg>
