<svg xmlns="http://www.w3.org/2000/svg" width="170" height="123" viewBox="-1 -50 170 123">
  <defs>
    <style>
      .a {
        fill: #fff;
      }
    </style>
  </defs>
  <title>logo-Openeye</title>
  <g>
    <path class="a" d="M30.84,60.25a20.13,20.13,0,0,1-1.15,6.68,16.84,16.84,0,0,1-3.34,5.73,16.38,16.38,0,0,1-5.58,4.09,17.91,17.91,0,0,1-7.34,1.42q-5.65,0-8.85-2.92a10.34,10.34,0,0,1-3.2-8A19.25,19.25,0,0,1,2.6,60.37a17.38,17.38,0,0,1,3.5-5.71,16.31,16.31,0,0,1,5.51-3.82,17.74,17.74,0,0,1,7.15-1.43q5.67,0,8.87,2.93A10.21,10.21,0,0,1,30.84,60.25ZM20.36,69.31a12.11,12.11,0,0,0,1.85-3.59A15.26,15.26,0,0,0,22.87,61a6.57,6.57,0,0,0-1.33-4.36,4.67,4.67,0,0,0-3.78-1.58,6.72,6.72,0,0,0-3.07.74A8.43,8.43,0,0,0,12,58.07a11.31,11.31,0,0,0-1.92,3.59,15,15,0,0,0-.73,4.83A6.54,6.54,0,0,0,10.7,71a4.81,4.81,0,0,0,3.77,1.52,6.7,6.7,0,0,0,3.2-.83A8.16,8.16,0,0,0,20.36,69.31Z" transform="translate(-1.38 -49.4)"/>
    <path class="a" d="M106.06,50.25h22.15L127,56.13H112.66l-0.91,4.33H125.1L124,66H110.57l-1.13,5.35H124.1l-1.19,5.7H100.46Z" transform="translate(-1.38 -49.4)"/>
    <path class="a" d="M139.08,78.26c-1.65,3.23-2.82,5.11-9.54,5.11-1.16,0-2.29-.07-3.45-0.19l1.13-5.86c0.6,0,1.24.11,1.84,0.11,1.58,0,2.7-.08,2.7-2L128.3,57.57h7.51l1.28,11.68h0.08l5-11.68h7.74Z" transform="translate(-1.38 -49.4)"/>
    <path class="a" d="M168.52,71.39c-0.49,1.31-2,6.16-10.36,6.16-6.91,0-9.69-3.87-9.69-8.6,0-8.94,6.83-11.87,11.68-11.87,4.32,0,9.54,2.4,9.54,8.52a12.14,12.14,0,0,1-.37,3.38H155.42c0,2.06.71,3.79,3,3.79a3.18,3.18,0,0,0,2.93-1.39h7.13Zm-5.86-6.27a3.71,3.71,0,0,0,.08-0.64,2.54,2.54,0,0,0-2.82-2.63c-2,0-3.3,1.2-3.87,3.27h6.61Z" transform="translate(-1.38 -49.4)"/>
    <path class="a" d="M74.44,71.39c-0.49,1.31-2,6.16-10.36,6.16-6.91,0-9.69-3.87-9.69-8.6,0-8.94,6.84-11.87,11.68-11.87,4.32,0,9.54,2.4,9.54,8.52A12.16,12.16,0,0,1,75.23,69H61.33c0,2.06.71,3.79,3,3.79a3.18,3.18,0,0,0,2.93-1.39h7.13Zm-5.86-6.27a3.92,3.92,0,0,0,.08-0.64,2.54,2.54,0,0,0-2.82-2.63c-2,0-3.3,1.2-3.87,3.27h6.61Z" transform="translate(-1.38 -49.4)"/>
    <path class="a" d="M50.45,59a6.93,6.93,0,0,0-4.9-2c-1.7,0-4.18.62-5.28,1.72l0.27-1.15H34.08l-6,25.77h6.45l1.57-6.78a9.29,9.29,0,0,0,2.42,1A11.09,11.09,0,0,0,41.5,78,9.38,9.38,0,0,0,46,76.88a12.28,12.28,0,0,0,3.64-3.08,12.76,12.76,0,0,0,2.22-4.25,16.78,16.78,0,0,0,.77-5.45A7.15,7.15,0,0,0,50.45,59ZM46,66.36c-0.12,2.78-1.4,6.81-4.9,6.66-2.87-.12-3.06-2.88-3-3.67,0.08-1.91,1-7.12,4.91-7C45.56,62.51,46.11,64.24,46,66.36Z" transform="translate(-1.38 -49.4)"/>
    <path class="a" d="M97.76,57.88a6.15,6.15,0,0,0-4.17-1.3,15.52,15.52,0,0,0-4.84.55,8.83,8.83,0,0,0-2.08,1.17l0.27-1.14H80.52l-4.57,19.9h6.66l2.2-10.42c0.58-2.58,1.58-4.74,4.59-4.74,1.53,0,2.68.81,2.68,2.39a28.63,28.63,0,0,1-.77,4.11l-1.85,8.64H96l3-13a11.57,11.57,0,0,0,.23-1.29,10.3,10.3,0,0,0,.07-1.15A4.7,4.7,0,0,0,97.76,57.88Z" transform="translate(-1.38 -49.4)"/>
  </g>
</svg>
