<svg xmlns="http://www.w3.org/2000/svg" width="170" height="123" viewBox="0 -20 170 123">
  <defs>
    <style>
      .a {
        fill: #ededed;
      }
    </style>
  </defs>
  <title>logo-UnifestCo</title>
  <g>
    <polygon class="a" points="89.64 27.34 89.63 27.35 89.63 27.35 89.64 27.34"/>
    <path class="a" d="M101.48,54l-0.06.11,0.06-.11h0Z" transform="translate(-3.46 -13.34)"/>
    <path class="a" d="M100.48,57.2l0,0h0Z" transform="translate(-3.46 -13.34)"/>
    <path class="a" d="M100.41,57.06l0.06,0Z" transform="translate(-3.46 -13.34)"/>
    <path class="a" d="M80.74,89.71v0h0Z" transform="translate(-3.46 -13.34)"/>
    <path class="a" d="M82,75.62l0,0.06S81.94,75.69,82,75.62Z" transform="translate(-3.46 -13.34)"/>
    <path class="a" d="M82.81,73.26v0Z" transform="translate(-3.46 -13.34)"/>
    <path class="a" d="M120.84,74.65l0-.18,0,0.18h0Z" transform="translate(-3.46 -13.34)"/>
    <path class="a" d="M121.26,69.34v0Z" transform="translate(-3.46 -13.34)"/>
    <path class="a" d="M70.47,71.66c0.1-.77.16-1.06,0.18-1.17s-0.06.29-.1,0.58S70.47,71.66,70.47,71.66Z" transform="translate(-3.46 -13.34)"/>
    <path class="a" d="M109.73,60c0.47-.55,1.08-1.24,1.92-2.27l-0.47.57-1.35,1.59Z" transform="translate(-3.46 -13.34)"/>
    <path class="a" d="M112,57.25l0.46-.58Z" transform="translate(-3.46 -13.34)"/>
    <path class="a" d="M51.83,56.22a1.36,1.36,0,0,0,0-.15,1.3,1.3,0,0,1,0,.18S51.83,56.23,51.83,56.22Z" transform="translate(-3.46 -13.34)"/>
    <polygon class="a" points="48.25 42.44 48.25 42.44 48.25 42.44 48.25 42.44"/>
    <path class="a" d="M51.65,55.67h0a0.63,0.63,0,0,1,.08.11Z" transform="translate(-3.46 -13.34)"/>
    <path class="a" d="M51.83,56.37s0-.08,0-0.12a2.07,2.07,0,0,1,0,.4A2.72,2.72,0,0,0,51.83,56.37Z" transform="translate(-3.46 -13.34)"/>
    <path class="a" d="M87.42,77V76.93l0,0.48Z" transform="translate(-3.46 -13.34)"/>
    <path class="a" d="M87.88,66.4l-0.05,1.93Z" transform="translate(-3.46 -13.34)"/>
    <path class="a" d="M41.65,89.58l-0.17,0Z" transform="translate(-3.46 -13.34)"/>
    <path class="a" d="M40.46,88.92s0,0.1,0,.15a1.14,1.14,0,0,0,.07.24,1,1,0,0,1-.07-0.22C40.47,89,40.46,89,40.46,88.92Z" transform="translate(-3.46 -13.34)"/>
    <path class="a" d="M41.3,89.66h0a1.22,1.22,0,0,1-.27,0A0.91,0.91,0,0,0,41.3,89.66Z" transform="translate(-3.46 -13.34)"/>
    <path class="a" d="M40.77,89.6h0l0,0Z" transform="translate(-3.46 -13.34)"/>
    <path class="a" d="M40.6,89.43l0,0-0.06-.09Z" transform="translate(-3.46 -13.34)"/>
    <path class="a" d="M41,89.69h0Z" transform="translate(-3.46 -13.34)"/>
    <path class="a" d="M47.21,56.44s0,0.06-.05.09l0.13-.16Z" transform="translate(-3.46 -13.34)"/>
    <path class="a" d="M49.61,55.52a7.42,7.42,0,0,0-.73.18h0c0.27-.07.55-0.14,0.82-0.19Z" transform="translate(-3.46 -13.34)"/>
    <path class="a" d="M45.78,87.74l0,0h0C45.49,88,45.61,88,45.78,87.74Z" transform="translate(-3.46 -13.34)"/>
    <path class="a" d="M50.29,55.41l-0.19,0,0.51-.07Z" transform="translate(-3.46 -13.34)"/>
    <path class="a" d="M71.54,56.09a1.25,1.25,0,0,1,.27-0.1h0A1.06,1.06,0,0,0,71.54,56.09Z" transform="translate(-3.46 -13.34)"/>
    <polygon class="a" points="69.74 97.96 69.74 97.96 69.74 97.96 69.74 97.96"/>
    <path class="a" d="M74.78,111.9H74.62Z" transform="translate(-3.46 -13.34)"/>
    <path class="a" d="M46.11,87.13s0,0.09-.05.14,0-.08.06-0.12a1.87,1.87,0,0,0,.12-0.62A2.77,2.77,0,0,1,46.11,87.13Z" transform="translate(-3.46 -13.34)"/>
    <path class="a" d="M49.84,55.48l-0.14,0,0.4-.07Z" transform="translate(-3.46 -13.34)"/>
    <path class="a" d="M90.6,45.11h0Z" transform="translate(-3.46 -13.34)"/>
    <path class="a" d="M91,44.17a0.09,0.09,0,0,1,0,.06h0Z" transform="translate(-3.46 -13.34)"/>
    <polygon class="a" points="87.26 31.44 87.26 31.44 87.26 31.45 87.26 31.44"/>
    <path class="a" d="M120.25,36.48c-0.23.42-.39,0.73-0.51,1C119.89,37.15,120.06,36.83,120.25,36.48Z" transform="translate(-3.46 -13.34)"/>
    <path class="a" d="M62.81,57.82c0,0.06,0,.14.05,0.23s0,0.09,0,.13a1.85,1.85,0,0,0-.08-0.38l0-.08v0.09Z" transform="translate(-3.46 -13.34)"/>
    <path class="a" d="M122.3,41.15c0-.11.07-0.22,0.11-0.33v0Z" transform="translate(-3.46 -13.34)"/>
    <path class="a" d="M103.08,51.28a0.15,0.15,0,0,1,0,.07h0Z" transform="translate(-3.46 -13.34)"/>
    <polygon class="a" points="97.26 43.76 97.26 43.75 97.26 43.76 97.26 43.76"/>
    <path class="a" d="M89.2,48.58c0.07-.1,0,0,0-0.05S89.18,48.62,89.2,48.58Z" transform="translate(-3.46 -13.34)"/>
    <polygon class="a" points="85.76 35.19 85.76 35.19 85.76 35.19 85.76 35.19"/>
    <path class="a" d="M100.68,57.15c0.11-.09,0,0,0-0.05S100.64,57.18,100.68,57.15Z" transform="translate(-3.46 -13.34)"/>
    <path class="a" d="M94.82,48.53l-0.2.43Z" transform="translate(-3.46 -13.34)"/>
    <path class="a" d="M100.68,34.18c0-.07,0-0.27.08-0.54a5.16,5.16,0,0,0,0-.75,7.21,7.21,0,0,1-.1,1.12A0.91,0.91,0,1,0,100.68,34.18Z" transform="translate(-3.46 -13.34)"/>
    <path class="a" d="M94.83,48.51h0v0h0Z" transform="translate(-3.46 -13.34)"/>
    <path class="a" d="M100.8,32.87h0Z" transform="translate(-3.46 -13.34)"/>
    <path class="a" d="M117.25,45.23v0Z" transform="translate(-3.46 -13.34)"/>
    <path class="a" d="M125.06,58.38c0,0.1,0,.17,0,0.2A0.9,0.9,0,0,0,125.06,58.38Z" transform="translate(-3.46 -13.34)"/>
    <path class="a" d="M77.81,105.35l0.15-.08-0.28.14Z" transform="translate(-3.46 -13.34)"/>
    <path class="a" d="M62.91,58.25v0S62.91,58.26,62.91,58.25Z" transform="translate(-3.46 -13.34)"/>
    <path class="a" d="M71.42,56.16l0.12-.07Z" transform="translate(-3.46 -13.34)"/>
    <path class="a" d="M62.82,59.2c0,0.24,0,.35,0,0.14s0.1-.6.11-0.91c0-.05,0-0.1,0-0.15A5,5,0,0,1,62.82,59.2Z" transform="translate(-3.46 -13.34)"/>
    <path class="a" d="M124.78,42l0,0a0.58,0.58,0,0,1-.08-0.16S124.76,42,124.78,42Z" transform="translate(-3.46 -13.34)"/>
    <path class="a" d="M98.91,30.32l-0.22-.11,0.23,0.12h0Z" transform="translate(-3.46 -13.34)"/>
    <path class="a" d="M124.93,42.15l0,0a0.5,0.5,0,0,1-.13-0.1A0.28,0.28,0,0,0,124.93,42.15Z" transform="translate(-3.46 -13.34)"/>
    <path class="a" d="M125,42.18l0.06,0-0.08,0h0Z" transform="translate(-3.46 -13.34)"/>
    <path class="a" d="M99.5,30.69a5.31,5.31,0,0,1,.42.33S99.75,30.87,99.5,30.69Z" transform="translate(-3.46 -13.34)"/>
    <path class="a" d="M118,42.05c0,0.2-.13.55-0.22,1C117.88,42.72,117.95,42.4,118,42.05Z" transform="translate(-3.46 -13.34)"/>
    <path class="a" d="M118.08,41.87l0,0.18Z" transform="translate(-3.46 -13.34)"/>
    <path class="a" d="M40,77.76l0.72-1.07Z" transform="translate(-3.46 -13.34)"/>
    <path class="a" d="M39.28,79a2.75,2.75,0,0,1,.17-0.34L39.28,79h0Z" transform="translate(-3.46 -13.34)"/>
    <path class="a" d="M47.56,56.13h0l0,0Z" transform="translate(-3.46 -13.34)"/>
    <path class="a" d="M47.59,56.11L47.8,56Z" transform="translate(-3.46 -13.34)"/>
    <path class="a" d="M36.49,41c0-.12.13-0.32,0.26-0.61A5.57,5.57,0,0,0,36.49,41Z" transform="translate(-3.46 -13.34)"/>
    <path class="a" d="M39.4,53.32c0-.28.09-0.52,0.11-0.71Z" transform="translate(-3.46 -13.34)"/>
    <path class="a" d="M57.17,57L57,57.13l0,0Z" transform="translate(-3.46 -13.34)"/>
    <path class="a" d="M56.94,57.15c-0.21.16-.41,0.31-0.57,0.45l-0.16.14C56.45,57.53,56.69,57.33,56.94,57.15Z" transform="translate(-3.46 -13.34)"/>
    <path class="a" d="M125.44,35.34l-0.23.36,0.18-.27Z" transform="translate(-3.46 -13.34)"/>
    <path class="a" d="M55.86,58l0.35-.3Z" transform="translate(-3.46 -13.34)"/>
    <path class="a" d="M122.3,41.15c-0.1.31-.14,0.51-0.14,0.51Z" transform="translate(-3.46 -13.34)"/>
    <path class="a" d="M125.21,35.7l-0.41.6C124.94,36.1,125.08,35.9,125.21,35.7Z" transform="translate(-3.46 -13.34)"/>
    <path class="a" d="M148.56,66.41v0h0Z" transform="translate(-3.46 -13.34)"/>
    <path class="a" d="M148.44,69.77h0Z" transform="translate(-3.46 -13.34)"/>
    <path class="a" d="M104.87,76.79v0Z" transform="translate(-3.46 -13.34)"/>
    <polygon class="a" points="148.75 54.82 148.75 54.8 148.75 54.8 148.75 54.82"/>
    <path class="a" d="M140.85,65.29h0l0,0.2Z" transform="translate(-3.46 -13.34)"/>
    <path class="a" d="M89.37,88.74h0v0Z" transform="translate(-3.46 -13.34)"/>
    <path class="a" d="M75.7,48.2h0l0,0Z" transform="translate(-3.46 -13.34)"/>
    <polygon class="a" points="70.35 38.71 70.35 38.71 70.34 38.71 70.35 38.71"/>
    <path class="a" d="M72.13,50.85v0l0,0h0Z" transform="translate(-3.46 -13.34)"/>
    <path class="a" d="M72.36,49.33h0Z" transform="translate(-3.46 -13.34)"/>
    <path class="a" d="M72.38,50.93s0.31,0,.33,0S73,51,73,51a1.15,1.15,0,0,0-.23.08s-0.11,0-.08,0-0.08,0-.07,0a0.08,0.08,0,0,1,0,.08s0,0.11.07,0.1v0a0,0,0,0,1,0,0,0.05,0.05,0,0,1,0,0h0a1.37,1.37,0,0,0,.37.31,0.48,0.48,0,0,0,.23,0l0.08,0.14H73.4l0.06,0a0.69,0.69,0,0,0,.35.12,1,1,0,0,1,.14,0l0,0A0.7,0.7,0,0,0,74.16,52s0.06,0,.05,0v0a0.12,0.12,0,0,1,.07,0l0,0v0A0.56,0.56,0,0,1,74.51,52l0.19-.15,0.17-.14a0.18,0.18,0,0,1,.05-0.07h0A0.17,0.17,0,0,1,75,51.5h0a0.19,0.19,0,0,0,.06-0.07s0.06,0,.06,0,0.06,0,.06,0a3.17,3.17,0,0,0,.61-0.77A1.79,1.79,0,0,0,76,49.29s0-.06,0,0a0.11,0.11,0,0,0,0-.05,0.31,0.31,0,0,1-.07,0v0s0,0,0,0h0a0.06,0.06,0,0,1,0,0h0s0.05,0,0,.08h-0.1c0-.05,0-0.1,0-0.16a0.88,0.88,0,0,0,0-.43h0l0,0h0s0,0,0,0l0-.07h0s0,0,0,0-0.08-.09,0-0.1l-0.09-.12s0-.07,0,0a0.1,0.1,0,0,0-.06,0s0,0,0,0l0,0h0s0,0,0,0h0v0s0,0,0,0h0l0,0s0,0,0,0l-0.05,0v0c-0.05,0,0,0,0,0v0A0.5,0.5,0,0,0,75.49,48s0,0,0,0A0.38,0.38,0,0,0,75.38,48a0.07,0.07,0,0,0,0-.07,0,0,0,0,0-.05,0s0.05,0,.06,0a0.66,0.66,0,0,0,.09,0h0l-0.14,0c0-.05-0.16,0-0.19-0.06H75a0,0,0,0,1,0,0l-0.1,0v0a0.16,0.16,0,0,1-.06,0h0a0.16,0.16,0,0,0,0,0,0.06,0.06,0,0,1,0,0s0,0,0,0,0,0,0,0l-0.09,0a0,0,0,0,1,0,0H74.59l0,0v0h0a0.37,0.37,0,0,0-.13,0h0a0.57,0.57,0,0,0-.1,0,0.05,0.05,0,0,0,0,0h0v0l0,0,0,0h0a0.26,0.26,0,0,0-.11,0v0c-0.1,0-.23,0-0.35.05v0l0,0s0,0,0,0a0.4,0.4,0,0,1-.07.06s0,0,0,0a1,1,0,0,1-.17.09h0l-0.11.07a0,0,0,0,1,0,0,0.08,0.08,0,0,0,0,0v0a0.22,0.22,0,0,1-.09.06s0,0,0,0a0.23,0.23,0,0,0-.09.08v0l0,0h0l-0.06.08a0.49,0.49,0,0,0-.07.06s0,0,0,0,0,0,0,0h0l0,0v0a0.05,0.05,0,0,0,0,.06,0.27,0.27,0,0,1-.06,0h0a0.46,0.46,0,0,0-.12.14s0,0,0,0l0,0v0l0,0.08H72.48a2.2,2.2,0,0,0-.34.17c0,0.06.21,0.05,0.2,0.1h0.13l0,0h0a0.66,0.66,0,0,0,0,.07,0.15,0.15,0,0,0,0,.07s0,0,0,0a0.43,0.43,0,0,1,0,.09h0s0,0,0,.07h0c0,0.06,0,.05,0,0.1s0,0.06,0,.05,0,0.06,0,.12h0a1.28,1.28,0,0,0-.07.34l0,0,0,0a2,2,0,0,0,0,.35,0.31,0.31,0,0,1,0,.12h0a2.05,2.05,0,0,1,0,.25h0a0.09,0.09,0,0,1,0,.07v0a0.07,0.07,0,0,1,0,.07l0,0h0l0,0a0.17,0.17,0,0,0,.05.07,0.32,0.32,0,0,1-.17,0l-0.1.12a0.41,0.41,0,0,1,.18.05S72.39,50.91,72.38,50.93Zm3.49-1.51,0,0a0.4,0.4,0,0,0,0,.07h0S75.87,49.46,75.87,49.42Zm-0.43-.05h0Z" transform="translate(-3.46 -13.34)"/>
    <polygon class="a" points="68.67 35.3 68.67 35.29 68.67 35.29 68.67 35.3"/>
    <path class="a" d="M74.83,47.72h0Z" transform="translate(-3.46 -13.34)"/>
    <path class="a" d="M154.43,69.62h0v0Z" transform="translate(-3.46 -13.34)"/>
    <polygon class="a" points="150.58 55.76 150.59 55.75 150.58 55.75 150.58 55.76"/>
    <polygon class="a" points="151.61 53.95 151.61 53.95 151.61 53.95 151.61 53.95"/>
    <path class="a" d="M154.9,70h0Z" transform="translate(-3.46 -13.34)"/>
    <path class="a" d="M150.77,50.1h0l0,0Z" transform="translate(-3.46 -13.34)"/>
    <path class="a" d="M147.51,62.13a0.15,0.15,0,0,1,0,.08h0V62.13Z" transform="translate(-3.46 -13.34)"/>
    <polygon class="a" points="144.24 43.2 144.23 43.21 144.24 43.22 144.24 43.2"/>
    <path class="a" d="M153.76,66.23c0.08,0,.17,0,0.15-0.12h-0.12Z" transform="translate(-3.46 -13.34)"/>
    <path class="a" d="M153.69,66.25l0,0.21a0.67,0.67,0,0,1,0-.1l0-.13h-0.07Z" transform="translate(-3.46 -13.34)"/>
    <path class="a" d="M153.66,65.82a0.08,0.08,0,0,1,0,0,0.25,0.25,0,0,1,0-.11s0,0,0,0a0,0,0,0,1,0,0l0,0.06v0a0.13,0.13,0,0,0,0-.05s0,0,0,0l0-.06s0,0,0,0,0,0,0,0a0.19,0.19,0,0,1,0,0l0,0a0,0,0,0,1,0,0s0,0-.06,0h0a0,0,0,0,1,0,0l0,0a1.13,1.13,0,0,0-.2-0.12l-0.11,0,0,0,0,0h0l-0.5.06a0,0,0,0,1,0,0l-0.13.16a0,0,0,0,1,0,0s0,0,0,0a0.06,0.06,0,0,0,0,0s0,0,0,0,0,0,0,0a1.49,1.49,0,0,0-.18.37,0.79,0.79,0,0,0,.63,1.1c0-.17,0-0.17.11,0a0.26,0.26,0,0,0,.11.11,0.17,0.17,0,0,0,.14,0,0.56,0.56,0,0,0,.48-0.32l0.05-.08a0.38,0.38,0,0,1,.26-0.09H153.5l0.12-.34a0.14,0.14,0,0,1,0-.06l0,0v0A3.84,3.84,0,0,0,153.66,65.82Z" transform="translate(-3.46 -13.34)"/>
    <path class="a" d="M152.35,65.25h0Z" transform="translate(-3.46 -13.34)"/>
    <path class="a" d="M154.94,70h0Z" transform="translate(-3.46 -13.34)"/>
    <polygon class="a" points="150.59 55.7 150.59 55.7 150.59 55.7 150.59 55.7"/>
    <path class="a" d="M154.05,69h0S154.06,69.05,154.05,69Z" transform="translate(-3.46 -13.34)"/>
    <path class="a" d="M113.75,29.8s0,0,0,0,0,0.07.06,0.05v0Z" transform="translate(-3.46 -13.34)"/>
    <path class="a" d="M94.91,48.32l-0.08.17Z" transform="translate(-3.46 -13.34)"/>
    <path class="a" d="M97.78,29.86h0l0.07,0Z" transform="translate(-3.46 -13.34)"/>
    <path class="a" d="M47.35,56.3h0l0,0Z" transform="translate(-3.46 -13.34)"/>
    <path class="a" d="M95,48.15l-0.08.17Z" transform="translate(-3.46 -13.34)"/>
    <path class="a" d="M167.43,17.39c0,0.09,0,0,0,.06a0.18,0.18,0,0,0,0,0,0.11,0.11,0,0,1,0,.07,0.32,0.32,0,0,1-.07.14s0,0,0,0a0.08,0.08,0,0,1,0,0l0,0.08s0,0.08-.08.09a1.28,1.28,0,0,0,.27-0.52,0.91,0.91,0,0,0-.26-0.29l0-.07a0.87,0.87,0,0,0-.18-0.1s0.16,0,.12,0a0.2,0.2,0,0,1,.06.07s0-.09,0-0.12,0,0,0,0l-0.15,0s-0.09,0,0,0l-0.14-.07a0.37,0.37,0,0,1-.14-0.09l-0.22-.12c0.06,0,0,0,0,0l-0.09,0-0.33-.19a0.88,0.88,0,0,0-.06-0.07,1.5,1.5,0,0,1-.19-0.13l-0.22-.1a0.19,0.19,0,0,0-.08-0.07l-0.07,0a1,1,0,0,1-.13-0.07l-0.07,0c-0.07-.06-0.14-0.05-0.22-0.12l-0.13-.06-0.1,0c0.06,0,0,0-.07,0l-0.11,0a0.7,0.7,0,0,1-.14-0.07l-0.19-.07,0,0-0.08,0-0.19-.08c-0.09,0-.06,0-0.26-0.1a0.44,0.44,0,0,0-.15-0.06c-0.15,0-.33-0.12-0.52-0.16a0.1,0.1,0,0,1-.06,0,0.15,0.15,0,0,1-.09,0l-0.29,0-0.18,0h-0.06a0.62,0.62,0,0,0-.66.66,0.43,0.43,0,0,1,0,.3s0,0.18,0,.15a1.22,1.22,0,0,0,0,.43l0.17,0a0.33,0.33,0,0,0-.25.25l-0.05.26a0.6,0.6,0,0,1-.12-0.17,3.06,3.06,0,0,1,0,1.18,2.63,2.63,0,0,0-1.06.31,1.29,1.29,0,0,0-.52.07c-0.08,0-7.15,1.12-15.85,3L144.53,19c0.14-.46.27-0.92,0.39-1.39a4.38,4.38,0,0,0,.16-1.51,2.45,2.45,0,0,0-.67-1.41,5.55,5.55,0,0,0-1.17-.92,3.08,3.08,0,0,0-1.45-.46,2.28,2.28,0,0,0-1.48.45,2.94,2.94,0,0,0-.9,1.2c-0.19.42-.38,0.85-0.53,1.3-0.28.92-.44,1.79-0.67,2.68l-0.62,2.63-0.11.66-0.1.55-2.1.54c-5.91,1.56-16.2,5.13-16.2,5.13l-0.18,0-0.05,0-0.24.11-0.32.07-0.36.14-0.51.13a6.08,6.08,0,0,1-.19.84c-0.05.13-.11,0.39-0.16,0.55s-0.17.52-.25,0.79l0.53-.13h0a0.12,0.12,0,0,0,.1,0l0.92-.22,1.75-.57c1.19-.26,11.32-3.68,15.78-4.74l1.05-.25c-0.1.54-.19,1-0.25,1.41h0c-0.28,1.26-.51,2.38-0.78,3.47-0.74,3.13-1.51,6.26-2.25,9.4-0.25,1.05-.39,2.13-0.67,3.17-0.39,1.45-.52,3-1.71,4.14-0.93.91-1.69,2-2.54,3-1.33,1.57-2.65,3.13-4,4.68a1.3,1.3,0,0,1-.22.2c-0.18.13-.42,0.25-0.74,0.45,0-1.66-.7-2.91-0.83-4.34s-0.79-2.54-1-3.84a14.57,14.57,0,0,1-.06-4.43,11.79,11.79,0,0,1,.58-2c0,0.13-.09.26-0.13,0.39a14.17,14.17,0,0,1,.69-1.68c0.1-.2.2-0.4,0.3-0.59L123.7,38l0-.08c0.28-.48.58-0.94,0.88-1.41,0.19-.28.46-0.68,0.68-1a3.29,3.29,0,0,0,.26-0.46s-0.05.12-.13,0.26l0-.07c0.1-.19.17-0.38,0.25-0.55l0-.07s0,0,.05,0l0.12,0.08,0.23,0.17c0,0.21,0,.45,0,0.68a3.86,3.86,0,0,1-.15.66l-0.36,1.33-0.73,2.65-0.2.64a1.68,1.68,0,0,0,0,1,1.37,1.37,0,0,1-.05-0.33,1.57,1.57,0,0,0,.06.35,0.45,0.45,0,0,0,.27.3,2.3,2.3,0,0,0,.38.19,3,3,0,0,0,.88.21,3.31,3.31,0,0,0,1.88-.38,2.75,2.75,0,0,0,1.26-1.44c0.44-1.17.94-2.18,1.2-2.85a1.41,1.41,0,1,1,.25-0.63,5.65,5.65,0,0,0,.35-2.15,2.72,2.72,0,0,0-.73-1.74,3.79,3.79,0,0,0-1.49-.92,7.16,7.16,0,0,0-1.67-.38,13.77,13.77,0,0,0-1.77-.07l-0.94,0a0.92,0.92,0,0,0-.49.09,3,3,0,0,0-.4.31A15.85,15.85,0,0,0,122,33.93l-0.2.26h0l0,0a17.49,17.49,0,0,0-1.27,1.83c0.76-1.24,1-1.47.82-1.27a18.46,18.46,0,0,0-1,1.59c-0.41.7-.76,1.43-0.85,1.63s0,0.06,0-.06a21.63,21.63,0,0,0-.84,2.1,27.35,27.35,0,0,0-.86,3.21,7.07,7.07,0,0,1-.24,1.37,13,13,0,0,1,.25-1.62c0,0.17-.2.35-0.23,0.53-0.15.79-.31,1.58-0.33,1.67s0.07,0.76.06,1.43c0,0.37.06,0.74,0.06,1s0,0.46,0,.46a4.74,4.74,0,0,1-.32,1.41c-0.1.24-.13,0.31-0.17,0.39s-0.16.32-1,1.7l-0.35.61-0.58.93-0.59.92a23.34,23.34,0,0,1-2,2.78l0,0-0.89,1.11-0.4.48c-0.11.12-2,2.36-1.38,1.6-0.8.92-1.22,1.38-1.8,2a7.52,7.52,0,0,1-3.55,2l0.37-.11,0.36-.12a6,6,0,0,1-1.59.43,2.76,2.76,0,0,1-.84-0.08c-0.34-.1-0.33-0.11-0.3-0.1a0.3,0.3,0,1,0-.1-0.05,3.49,3.49,0,0,1-.52-0.28,3.17,3.17,0,0,1-.89-0.91s0.15,0.24.15,0.24a1.72,1.72,0,0,1-.35-2.11c0.5-.57,1-1.12,1.53-1.65A36.76,36.76,0,0,0,105,56.22c1.63-2.05,3.17-3.9,4.68-5.86l-1.33,1.72,0.07-.09c0.33-.42.71-0.85,1.06-1.34l1.11-1.55L113,45.75l0.62-.86a3.43,3.43,0,0,0,.56-0.92,2,2,0,0,0,0-1.07,1.39,1.39,0,0,0-.24-0.48,1.23,1.23,0,0,0-.42-0.32,10.41,10.41,0,0,0-1.74-.87,3.09,3.09,0,0,0-1.77-.08,11,11,0,0,0-2.07.67,12.1,12.1,0,0,0-3.61,2.46,21.43,21.43,0,0,0-2.17,2.45c-0.41.53-.63,0.85-0.94,1.3a36,36,0,0,1-3.54,4.57A25.49,25.49,0,0,1,95,55l0.18-.15L95,55h0a42.57,42.57,0,0,1-3.75,2.69L91,57.84l0.24-.13c-0.4.25-.78,0.5-1.16,0.71s-0.66.29-.91,0.42L92,53.75,93.45,51c0.51-.94,1.1-1.89,1.58-3l0,0.09,0.13-.29,0.48-1.11c0.16-.34-0.23.55-0.26,0.66s0.27-.65.71-1.59,1.09-2.18,1.71-3.44,1.16-2.55,1.55-3.52,0.61-1.64.61-1.64-0.18.52-.38,1l-0.41,1a29.22,29.22,0,0,0,1.07-3,14.75,14.75,0,0,0,.61-3.4,2.27,2.27,0,0,0,0-.29,2.08,2.08,0,0,0-.51-1.21,5.19,5.19,0,0,0-1-.83,5.69,5.69,0,0,0-.9-0.47l0.32,0.13L98.27,30,98.09,30,98.28,30l-0.48-.17-0.45-.12a0.79,0.79,0,1,0-.18,0c-0.26-.06-0.51-0.09-0.73-0.12a1.68,1.68,0,0,0-.65,0,1.25,1.25,0,0,0-.51.24,2.32,2.32,0,0,0-.28.37l-0.7,1a18.17,18.17,0,0,0-1.6,2.89l0.62-1.25c0.33-.62.71-1.21,0.71-1.21,0.46-.7-0.67,1-1.41,2.71-0.2.4-.78,1.58-0.16,0.3l-4.3,8.85c-0.8,1.63-.55,1.09-0.12.2-1.55,3.22-1.85,4-2.17,4.73S85.2,49.93,84,53.33l0-.12L83.3,55.55l-1.1,3.33,0.4-1.19-1,3c-0.36.91-.83,1.88-1.38,3.13l0.44-1c-1.38,3-2.07,4.8-3,6.45a26.86,26.86,0,0,1-1.5,2.52,17.84,17.84,0,0,1-2.48,3c-0.31.3,0.39-.39,0.73-0.75-0.5.53-.94,1-1.32,1.33l-0.53.51a1.14,1.14,0,0,1-1.37.19,1.78,1.78,0,0,1-.58-0.53,2.08,2.08,0,0,1-.35-0.71,5.72,5.72,0,0,1,0-1,20.07,20.07,0,0,1,.3-3.13,0.47,0.47,0,0,1,0-.14s0.12-.65.28-1.3,0.36-1.28.36-1.28l0,0.2s0.15-.52.33-1,0.37-1,.37-1,0.16-.38.33-0.75l0.34-.75,0.39-1c0.55-1.32,1.11-3,1.65-4.74A11.61,11.61,0,0,0,75,57.47a2,2,0,0,0,0-.79A1.05,1.05,0,0,0,74.47,56a3,3,0,0,0-1.53-.22c-0.25,0-.49.08-0.74,0.11L71.81,56a2.9,2.9,0,0,1,.33-0.05,1.57,1.57,0,0,0-.66.21,1.15,1.15,0,0,0-.43.58c-0.14.43-.23,0.83-0.35,1.25L70,60.52l-0.72,2.63a17.28,17.28,0,0,1-.87,2.64c-0.93,1.63-2,3.27-3,5L64.65,72a12.27,12.27,0,0,1-.89,1.17c-0.66.68-1.3,1.72-2.18,1.57a0.9,0.9,0,0,1-.29-0.49,2.92,2.92,0,0,1-.13-0.7,13,13,0,0,1-.08-1.47,20.93,20.93,0,0,1,.24-3c0.14-1,.32-2,0.48-2.95s0.29-2,.44-2.94v0.21l0.68-4.88a1.82,1.82,0,0,0,0-.52,2,2,0,0,0-.07-0.27l-0.06-.16,0,0.1s0-.06,0-0.08a2.41,2.41,0,0,0-.69-0.88A3.76,3.76,0,0,0,61,56.16,3.22,3.22,0,0,0,59.61,56a3.9,3.9,0,0,0-1.25.33,8.52,8.52,0,0,0-1.63,1L55.86,58c-0.25.23-.5,0.46-0.75,0.7a25.87,25.87,0,0,0-3.21,3.93c-0.95,1.38-1.76,2.79-2.52,4L49,67.27a1.77,1.77,0,0,1-.1.16c0-.07,0-0.13,0-0.2s0-.13,0-0.18l0-.11,0-.21c0.05-.27.13-0.53,0.2-0.77,0,0.1,0,0,.26-0.92L49.18,66a0.77,0.77,0,1,0,0-.13l1.73-6.15L51.4,58l0.23-.82a4.36,4.36,0,0,0,.19-0.86,1.16,1.16,0,0,0-.07-0.48,0.73,0.73,0,0,0-.36-0.38,1.2,1.2,0,0,0-.45-0.11h0.17a2.17,2.17,0,0,0-.41,0h0.18a3,3,0,0,0-.41,0,10.94,10.94,0,0,0-1.6.3l-0.33.08L47.93,56l-0.3.12-0.15.09,0.07-.05-0.06,0a1,1,0,0,0-.1.1l0,0-0.07.06h0l0,0h0l0,0,0,0a2.14,2.14,0,0,0-.31.44,2.42,2.42,0,0,1,.14-0.24l0,0.05a3.14,3.14,0,0,0-.2.37l0,0c-0.07.15-.13,0.3-0.19,0.43a4.13,4.13,0,0,1,.16-0.39s-0.06.09-.08,0.14-0.09.23-.14,0.35a1.48,1.48,0,0,0-.08.42c0,0.28,0,.54,0,0.78a4.05,4.05,0,0,1-.14.74l-0.18.78L45.95,61.7c-0.48,2-.83,3.69-0.92,4,0.09-.38.07-0.22-0.52,2.51L44.34,69c0,0.13-.11.28-0.17,0.49s-0.09.39-.13,0.61a7.87,7.87,0,0,1-.32,1.34c-0.19.43-.5,0.91-0.76,1.4L41.2,76c-0.1.16-.21,0.32-0.31,0.48l0,0.07-0.12.18,0.14-.21c-0.36.55-.74,1.1-1.08,1.64L40,77.76c-0.21.32-.41,0.63-0.54,0.87,0.07-.12.15-0.24,0.23-0.37-0.14.23-.28,0.46-0.4,0.7s-0.11.2-.15,0.3a11.7,11.7,0,0,1-1.3,2.17c-0.15.2-.46,0.61-0.91,1.13-0.32.37-.7,0.79-1.12,1.23a5,5,0,0,1-.65.63,1.29,1.29,0,0,1-.79.28,1.22,1.22,0,0,1-.94-1.2c0-.56.05-1.16,0.08-1.64,0.07-1,.13-1.62.13-1.62,0.07-.77.39-3.2,0.8-5.34s0.84-4,.77-3.63c0.88-3.61-.76,3,0.36-1.54,0.32-1.21,1.12-4.11,1.08-3.92l-0.13.49,0.43-1.59c0.21-.8.4-1.6,0.4-1.6s-0.11.51-.24,1l-0.25,1c0.38-1.37.63-2.58,0.81-3.45s0.29-1.42.3-1.49c0.49-2.22,1.17-5.25,1.45-6.86l0,0.27,0-.28h0a85.91,85.91,0,0,0,.87-9.52l0.1-2.16,0-1.08A2.07,2.07,0,0,0,40,39.48,2.16,2.16,0,0,0,39,38.74a1,1,0,0,0-.66,0,1.61,1.61,0,0,0-.54.3,4.26,4.26,0,0,0-1.3,1.87,1.06,1.06,0,0,1-.1.25L36.49,41l0,0.08,0,0.06h0c-0.14.42-.28,1-0.43,1.49l-0.61,2.25,0.28-1.08-2,7.45,0-.1-2.44,8.94c-0.48,1.66-.85,3.39-1.27,5.09l-1.2,5,0.23-1c-0.44,1.74-.66,3-0.93,4.07s-0.48,1.79-.71,2.49-0.47,1.33-.8,2.08l-1.32,2.8,0.23-.5-2,4.26,0.43-.94c-1.47,3.16-4.28,9-3.35,7.06-0.41.9-1,2.1-1.55,3.12s-1.08,1.86-1.23,2.11c-1.41,2.13-1.65,2.34-1.68,2.41s0.07-.08-0.91,1.17c-0.57.73-1,1.29-1.47,1.8s-0.84,1-1.23.72a3.81,3.81,0,0,1-1-1.45l0.08,0-0.08,0-0.09-.18a9.9,9.9,0,0,1-.8-2.88l0,0.1a17.24,17.24,0,0,1-.07-3.15c0-1.06.13-2.24,0.29-3.87l-0.09,1c0.49-5.32.79-6.62,1.27-10.79,0.13-1.11.48-2.71,0.63-4s0.29-2.32.29-2.21c0.37-3.32.84-6.23,1.2-9.18a37.19,37.19,0,0,1,.59-4.41c0.3-1.48.67-3,1.08-4.6,0.3-1,.36-1.37,1.42-5.24l-0.09.28c0.18-.68.38-1.35,0.53-2.07a14.47,14.47,0,0,0,.25-2.18c0-.74,0-1.48,0-2.22a2.4,2.4,0,0,0-1-2.12,0.92,0.92,0,0,0-.51-0.09,1.14,1.14,0,0,0-.24,0,0.42,0.42,0,0,0-.27.2,24.82,24.82,0,0,0-1,2.43L14,47.61l-1.78,4.92c-0.6,1.65-1.21,3.3-1.75,5L9.68,60,9.27,61.26c-0.13.42-.22,0.84-0.34,1.27l-0.09.27-0.49,2L7.29,69c-0.37,1.43-.61,2.92-0.92,4.42s-0.64,3-.87,4.53L4.83,82.49c-0.42,3-.92,6-1.18,8.72A27.65,27.65,0,0,0,3.8,98.8a21.09,21.09,0,0,0,.58,2.4,10,10,0,0,0,1.23,2.67,6.86,6.86,0,0,0,1.06,1.23,5.46,5.46,0,0,0,1.38,1,4,4,0,0,0,1.74.33,6,6,0,0,0,1.61-.25,8.25,8.25,0,0,0,1.13-.42l1.39-.62a12,12,0,0,0,2.71-1.56,19.5,19.5,0,0,0,3.93-4.93q0.41-.68.79-1.38l0.73-1.42L23.56,93c1-1.91,2-3.81,3-5.78-0.24.49,0.16-.28-0.28,0.59l1.6-3.2,0.38-.75,0-.06,0,0v0a8.13,8.13,0,0,0,.35,1.14l-0.12-.33-0.11-.35-0.09-.35,0-.15a0.31,0.31,0,0,1,0,.11l0.1,0.38c0.05,0.17.11,0.34,0.17,0.51a8.19,8.19,0,0,0,1,1.91,9.8,9.8,0,0,0,1.26,1.44,3,3,0,0,0,1.2.75,3.23,3.23,0,0,0,.64.15,3.61,3.61,0,0,0,1.44-.08,2.6,2.6,0,0,0,.72-0.32c0.22-.15.36-0.28,0.52-0.4l0.48-.4,0.55-.46-0.3.26,0.3-.26L37,86.86s0.39-.36.75-0.75a7.23,7.23,0,0,0,.66-0.86c0.14-.21.4-0.65,0.73-1.21s0.68-1.29,1.06-2l2-3.65,0.08-.14s0,0,0,0,0,0,0,0l0,0.11v0.07l0,0.1,0-.27-0.07.53,0,0.14-0.44,2.43a0.62,0.62,0,0,0-.16.34,2.4,2.4,0,0,0,0,.32,1,1,0,0,1,0,.24l-0.19,1.12L41,85.62c-0.11.76-.27,1.47-0.42,2.24a5.27,5.27,0,0,0-.1,1,3.6,3.6,0,0,1,0-.57l0.06-.35c0-.07,0,0.15-0.07.56a1.88,1.88,0,0,0,.06.82,0.57,0.57,0,0,0,.51.39,2.29,2.29,0,0,0,.53-0.1A12.94,12.94,0,0,0,45.46,88a3.45,3.45,0,0,1-.78.46l-0.37.17a0.83,0.83,0,1,0,.18-0.07,4.92,4.92,0,0,0,.91-0.48,2,2,0,0,0,.33-0.35,2.21,2.21,0,0,0,.45-1c0.07-.43,0-0.82.06-1.24a21.53,21.53,0,0,1,.29-2.62,32.2,32.2,0,0,1,.95-3.9l-0.2.7-0.19.71c0.41-1.6.83-2.75,1.21-3.9l1.28-3.85c0.24-.72.36-1.4,0.57-1.94s0.52-1,.7-1.37c0.39-.74.58-1.09,0.42-0.83,2-3.76.8-1.44,1.45-2.65l1-1.86L54,63.41a1,1,0,0,1,.43-0.34L54.59,63l0.14,0a1,1,0,0,0,.41-0.19l0.5-.49,1.78-1.75,0.64-.62a1.55,1.55,0,0,1,.37-0.26,2.45,2.45,0,0,1,.42-0.2c0.11,0,0-.06.21,0.17a4.47,4.47,0,0,1,.3.66l0.14,0.36a1.45,1.45,0,0,1,0,.36c-0.16,1.2-.27,2.58-0.54,3.88s-0.57,2.58-.74,3.6a18.77,18.77,0,0,0-.25,2s-0.09.88-.09,1.77A12.79,12.79,0,0,0,58,74c0,0.06,0,.26.12,0.8,0,0.28.06,0.62,0.16,1.11a2.54,2.54,0,0,0,1.07,1.53,2.72,2.72,0,0,0,1.5.44,3.56,3.56,0,0,0,.71-0.08,4.21,4.21,0,0,0,.73-0.21,4.49,4.49,0,0,0,1.55-1.07,20.66,20.66,0,0,0,2.55-3.67,11.16,11.16,0,0,0,.49-1.06c0.14-.37.26-0.72,0.42-1.07s0.36-.76.55-1.14l0,0.16c-0.08.43-.14,0.87-0.2,1.31a16.13,16.13,0,0,0-.12,2.69,12.52,12.52,0,0,0,.14,1.36A4.4,4.4,0,0,0,68,76.45a2.66,2.66,0,0,0,1,1.07,3.44,3.44,0,0,0,1.39.42,5.07,5.07,0,0,0,2.81-.49,5.37,5.37,0,0,0,1.18-.82,12.36,12.36,0,0,0,1-1,17.71,17.71,0,0,0,3-4.76L79,69.66c0.05-.13,0,0,0,0.08L79,70.12c-0.37,1.81-.86,3.6-1.28,5.38L75.16,85.87l-1.31,5.85-0.7,3.12c-0.21,1.06-.41,2.14-0.6,3.23a49.15,49.15,0,0,0-.72,6.7,30,30,0,0,0,.08,3.39,7.78,7.78,0,0,0,.26,1.71,3.13,3.13,0,0,0,1,1.44,2.85,2.85,0,0,0,.35.24,2.8,2.8,0,0,0,1.15.35H75l0.15,0h0.06l0.26,0c0.19,0,.37-0.07.55-0.12a8.77,8.77,0,0,0,1.25-.4,8.09,8.09,0,0,0,2.27-1.4,8.38,8.38,0,0,0,1.68-2,20.85,20.85,0,0,0,1.22-2.44A33.59,33.59,0,0,0,84.26,100c0.23-1,.42-1.94.62-2.93s0.36-2,.48-3,0.22-2,.38-3.07a14.35,14.35,0,0,0,.2-1.57,11,11,0,0,1,.16-1.53l0-.23-0.13,0a25.85,25.85,0,0,1,.73-5.16A40.15,40.15,0,0,0,87.42,77l0.3-6.34c0.08-1.23.11-2.43,0.2-6.08l0,1.42,0-1.07A2.17,2.17,0,0,1,88.06,64a0.78,0.78,0,0,1,.23-0.31l0.36-.32,0.74-.6c0.49-.39,1-0.78,1.42-1.2l1.25-1.26,2.45-2.47,1.26-1.27,0.65-.65a1.34,1.34,0,0,0,.17-0.19l0,0.11c-0.12.38-.25,0.8-0.35,1.25A27.61,27.61,0,0,0,95.71,60a7.33,7.33,0,0,0,0,2.19,8.19,8.19,0,0,0,.65,2.27l0.17,0.3a2.61,2.61,0,0,0,.18.29,5.37,5.37,0,0,0,1.12,1.31,4.79,4.79,0,0,0,1.72.93,5.91,5.91,0,0,0,1.83.23s0.23,0,.56,0a8.85,8.85,0,0,0,1.21-.24,10.06,10.06,0,0,0,1.67-.62l0.28-.12a19.28,19.28,0,0,0,3.6-2.37,25.29,25.29,0,0,0,3.53-3.68c0.53-.66,1-1.33,1.48-2s0.84-1.27,1.22-1.83l1.68-2.53a11,11,0,0,0,1.07-2l0-.1s0,0,0,0l0.3,0.88c0.52,1.53,1,3.16,1.45,4.86l0.16,0.64,0.08,0.32a1.12,1.12,0,0,1,0,.27,2.19,2.19,0,0,1-.36,1.14l-1.64,2.24L114.38,67A35.16,35.16,0,0,0,109,77.49a20.38,20.38,0,0,0-1.19,5.7,5.63,5.63,0,0,0,.55,2.85,3.89,3.89,0,0,0,2.14,1.89,4.94,4.94,0,0,0,.88.22c0.34,0,.68.06,1,0.1a12.52,12.52,0,0,0,2.44.16,3.71,3.71,0,0,0,1.34-.37c0.43-.24.75-0.46,1.16-0.67a24.92,24.92,0,0,0,2.26-1.3s0.19-.12.45-0.34A12.17,12.17,0,0,0,121,84.9a13.13,13.13,0,0,0,1.17-1.35,16.49,16.49,0,0,0,2.3-4.59,42.31,42.31,0,0,0,1.2-4.79l-0.07.36c0.17-.83.33-1.67,0.42-2.5a23.81,23.81,0,0,0,.1-2.49c0-1.64-.09-3.24-0.2-4.82a38.49,38.49,0,0,0-.66-4.89,9.13,9.13,0,0,1-.2-1.44,4.36,4.36,0,0,1,0-1.11,3.36,3.36,0,0,1,.4-1.1,5.72,5.72,0,0,1,.85-1.06c1.31-1.43,2.46-2.92,2.46-2.92l1.78-2.29,0.72-.91s0,0,0,0l-0.06.39c-0.12.67-.28,1.4-0.38,2.19L130.56,54l-0.77,5.8a34.28,34.28,0,0,0-.36,6.91,19.67,19.67,0,0,0,.61,3.8,5.51,5.51,0,0,0,.81,1.9,3.57,3.57,0,0,0,1.71,1.33,4.21,4.21,0,0,0,4.27-.71,11.37,11.37,0,0,0,2.12-3.24c0.06,0.23.13,0.46,0.2,0.67a4.39,4.39,0,0,0,.2.42s0.08,0.16.08,0.16a2.44,2.44,0,0,0,.37.35,1.29,1.29,0,0,0,.49.22,1.24,1.24,0,0,1,.34.07l0.44,0a2,2,0,0,0,.43-0.14,4.4,4.4,0,0,0,1-.64,7,7,0,0,0,1.65-2.08h0a17.83,17.83,0,0,0,1.11-3.11c0,0.09,0,.17,0,0.23s-0.09.26-.08,0.4,0.11,0.56.11,0.86c0,0,0,0,0,0a1.2,1.2,0,0,1,0,.24l0-.08a0.8,0.8,0,0,1,0,.25l0,0.13v0.12a1.59,1.59,0,0,0,.06.27s0,0.14,0,0a2.79,2.79,0,0,0,.1.52l0-.08a0.81,0.81,0,0,1,.1.22c-0.06-.1,0,0,0,0s0-.07,0,0a2.25,2.25,0,0,0,.21.3l0,0a1.09,1.09,0,0,0,.25.25c0.12,0.06.21,0.1,0.19,0.06,0.18,0.06.06,0,.12,0.06l0.37,0.06a3.7,3.7,0,0,0,.49,0h0.14a0.19,0.19,0,0,1,.13-0.05,0.18,0.18,0,0,1,.11,0l0.06,0a4.15,4.15,0,0,0,1.82-.84,5.32,5.32,0,0,0,.64-0.71l0,0,0.2-.25-0.15.18,0.11-.16a4.81,4.81,0,0,0,.64-1.05c0.07-.26.11-0.15,0.18-0.41v0.05a4.32,4.32,0,0,0,.18-0.69,0.42,0.42,0,0,0,.06-0.15v0a0.88,0.88,0,0,1,.07-0.18,0.36,0.36,0,0,1,0-.13c0-.16.06-0.51,0.11-0.59,0-.39.08-1,0.13-1.5a2.51,2.51,0,0,1,0-.32l0-.12a1.63,1.63,0,0,1,0-.33,2.63,2.63,0,0,0,0-.33,0.28,0.28,0,0,1,0-.21,0.76,0.76,0,0,1,0-.27,19.93,19.93,0,0,0,.23-3.27V57.94a14.18,14.18,0,0,0-.28-3.72c-0.06-.94-0.18-1.88-0.26-2.82l-0.06-.14a1.94,1.94,0,0,1-.09-0.38,0,0,0,0,0,0,0,1.93,1.93,0,0,0-.51-0.73l0,0-0.09-.1L150.55,50l0.1,0a2.37,2.37,0,0,0-.68-0.18h0a1.7,1.7,0,0,0-.41,0,6.15,6.15,0,0,0-.65.05l0.06,0c-0.51.07-1.46,0.1-1.38,0.85a0.47,0.47,0,0,0-.22.35s0-.06,0-0.09l0,0a0.09,0.09,0,0,1,0,0,3.34,3.34,0,0,0-.14.5c0-.15,0,0.12-0.06.14l0-.08c0,0.11,0,.11,0,0.1a1.67,1.67,0,0,0-.08.22l0-.09s0,0,0,.11,0,0.06,0,0l-0.1.32c0,0.06,0,0,0,0-0.07.25,0,.09-0.1,0.34l0,0.08-0.05.11-0.3.9a1,1,0,0,1-.14.61,14,14,0,0,0-.73,3c0,0.3-.06.6-0.09,0.89l-0.11,1.27a7.65,7.65,0,0,1,.09,1.61,4.6,4.6,0,0,0-.11.94c-0.22.66-.58,1.71-0.94,2.57s-0.7,1.51-1,2.1a0.39,0.39,0,0,0-.09.17l-0.19.34a1.08,1.08,0,0,0-.18.3,5.18,5.18,0,0,1-.36.73,6,6,0,0,1-1.52,2c0,0.06-.18.08-0.13,0.09a0.22,0.22,0,0,1-.13-0.05c0.1,0.08-.07,0,0,0.09h0l0,0a0.62,0.62,0,0,0,.17,0c0.08-.06.11-0.11,0.3-0.25l0,0a0.18,0.18,0,0,1,.13-0.09l0,0,0.13-.1a0.33,0.33,0,0,0-.15.16,0.22,0.22,0,0,0,.07-0.09c0.08-.08.07,0,0.07,0l0.13-.14s-0.09.09,0,0l0.15-.19a3.62,3.62,0,0,0,.24-0.29l0,0.06c-0.51.68-1,1.15-1.28,0.85-0.21-.91-0.42-1.4-0.51-2.07l0,0.06,0-.18V68s0-.14,0,0l0-.35,0,0c0-.08,0-0.09,0,0a1.61,1.61,0,0,1,0-.47c0-.26,0-0.37,0-0.67,0,0,0,0,0,0s0-.11,0-0.16a0.29,0.29,0,0,1,0,.06,4.29,4.29,0,0,0,0-.75,10.3,10.3,0,0,1,0-1.38,38.73,38.73,0,0,1,.93-6.24,1.28,1.28,0,0,1,.11-0.65c0.2-.71.39-1.43,0.58-2.14,0.05-.13,0,0,0,0.11a6,6,0,0,1,.24-0.77c0.05-.16.15-0.37,0.22-0.54a0.26,0.26,0,0,1,0,.1,1.73,1.73,0,0,0,.08-0.2V54a3.73,3.73,0,0,1,.17-0.4s0,0,0,0a0.16,0.16,0,0,1,0,0h0.06s0,0,0,.05a0.21,0.21,0,0,1,0,0,0.72,0.72,0,0,0,0,.15v0l0.06,0.46c0,0.07,0,.44,0,0.41a0.27,0.27,0,0,1,0,.07,0.94,0.94,0,0,1,0,.18v0l0,0.15,0-.1a0.5,0.5,0,0,0,.07.23,1.1,1.1,0,0,0,.14.38,0.68,0.68,0,0,0,.5.26,1.12,1.12,0,0,0,.47-0.07s0,0,0,0l0.23-.07v0a3.77,3.77,0,0,0,.42-0.19,4,4,0,0,1,.29-0.35,1.59,1.59,0,0,0,.16-0.7,2.73,2.73,0,0,0-.1-1.22v0.16a0.82,0.82,0,0,0-.24-0.28,1.16,1.16,0,0,0-.1-0.36,0.57,0.57,0,0,0-.18-0.06l0-.11a1.52,1.52,0,0,0-.52-0.34,2.55,2.55,0,0,1-.32-0.14,3.19,3.19,0,0,0-.95,0,0.66,0.66,0,0,0-.28,0l0,0c-0.46.09-1,.67-1.38,0.71h0l-0.06.08a6.69,6.69,0,0,0-.73,2q-0.34,1.14-.63,2.29-0.36,1.44-.64,2.9c-0.18.92-.48,4.11-0.48,4.2a12.67,12.67,0,0,0,0,1.53c0,0.34,0,.23,0,0.56V66.27c0,0.35,0,.54.08,0.9a0.63,0.63,0,0,0,0,.2l0,0a1.71,1.71,0,0,1,0,.24v0l-0.12.22a7.86,7.86,0,0,1-.77,1.2c-0.45.59-1.62,2.38-2.33,2.41a0.58,0.58,0,0,1-.64-0.47c-0.06-.35-0.1-0.81-0.15-1.21-0.09-.83-0.2-1.66-0.3-2.5a18.17,18.17,0,0,1,0-5.09c0.36-1.71.61-3.5,0.85-5.29,0.12-.89.26-1.79,0.42-2.68s0.39-1.79.59-2.69l1.22-5.49,0.62-2.79c0.21-.93.47-1.86,0.71-2.8l1.46-5.66c0.52-1.9.91-3.84,1.37-5.78,0.1-.48.26-0.94,0.41-1.42s0.23-.82.33-1.2l0.84-2.65c8.34-1.81,17.16-3.55,17.3-3.57a7.6,7.6,0,0,1,.78,0c0.27,0,.56-0.08.82-0.09a0.13,0.13,0,0,1-.05.15L162,20.48a0.26,0.26,0,0,1,.23.24,4.28,4.28,0,0,0,.39.81l0.07,0.23,0-.18a0.59,0.59,0,0,0,.4.35l-0.13,0a1.25,1.25,0,0,0,.22.34,0.49,0.49,0,0,0,.34.13,1.6,1.6,0,0,0,.2-0.11,2.29,2.29,0,0,0,.22-0.25s0.06-.06.06-0.06A0.34,0.34,0,0,1,164,22a0.13,0.13,0,0,1,0,0,1.22,1.22,0,0,1,.19-0.19c0.11-.15.3-0.36,0.45-0.53l0.09-.12,0,0a0.62,0.62,0,0,1,.09-0.12,1,1,0,0,0,.09-0.12s0.08-.08.08-0.06a0.28,0.28,0,0,1,.08-0.09,19.41,19.41,0,0,0,2.23-3.05s0-.11,0-0.08A0.45,0.45,0,0,0,167.43,17.39Zm-88,65.55v0l0,0.06v0ZM77.34,94.88l0.08-1.2,0-.29,0-.07c0,0.06,0,.13,0,0.1l0,0.06a2.31,2.31,0,0,1,0,.31,2.77,2.77,0,0,1,0,.62v-0.1a0.34,0.34,0,0,1,0,.24V94.49l0,0.25a0.68,0.68,0,0,0,0-.34,0.48,0.48,0,0,0,0,.18c0,0.17,0,.12,0,0.11l0,0.3A0.85,0.85,0,0,1,77.34,94.88Zm-0.08,1c0-.28,0-0.56.07-0.84v0.28c0,0.07,0,.41-0.06.58v0Zm7.75-23,0,0c0,0.66-.08,1.41-0.13,2.14l0,0v0.15c-0.07.78-.2,1.78-0.31,2.4a8.22,8.22,0,0,1-.12.83v0c-0.09.56-.21,1.14-0.35,1.75,0,0,0,0,0,0a4.18,4.18,0,0,1-.11.49l0-.15a2.85,2.85,0,0,1-.12.51l0,0.28,0,0v0.05l-0.05.14c0,0.07-.08.43-0.09,0.55s-0.07.28,0,.08l-0.22,1,0-.15a1.83,1.83,0,0,1-.08.44c0-.21,0,0-0.05.06s0-.11,0,0-0.1.53-.13,0.62l0-.1c0,0.23-.1.33-0.15,0.56a0.59,0.59,0,0,0,0,.32,0.27,0.27,0,0,1-.07.2,4.11,4.11,0,0,1-.14.6c0,0.17-.19.79-0.17,0.86l-0.07.24a0.5,0.5,0,0,1,0,.26,0.47,0.47,0,0,1-.08.19v0.13c-0.27,1.06-.56,2.48-0.84,3.64-0.11.52-.23,1.19-0.37,1.8V92.56l-0.14.6,0.11-.44-0.07.37c-0.16.66-.37,1.55-0.54,2.37-0.08.54-.11,0.34-0.2,0.86v-0.1l-0.26,1.4a1.6,1.6,0,0,0-.09.3v0a3.22,3.22,0,0,1-.11.36l0,0.25,0,0c-0.07.32-.21,1-0.28,1.17a22.78,22.78,0,0,1-.78,3c0,0.14-.12.42-0.2,0.64l-0.1.22a5.84,5.84,0,0,1-.24.66v0c-0.09.22-.19,0.42-0.26,0.63a1,1,0,0,1-.22.38,2.91,2.91,0,0,1-.26.48,1.56,1.56,0,0,0-.58.5,2,2,0,0,1-1,1.14c0-.13,0-0.27,0-0.4a2.54,2.54,0,0,0,.19-0.79c0-.42.15-0.86,0.17-1.31s0.15-.92.19-1.39c0.08-.94.2-1.91,0.28-2.87s0.14-1.88.29-2.72c0.06-.43.14-0.84,0.18-1.24s0.05-.77.07-1.11c0-.69.06-1.26,0.06-1.68a0.57,0.57,0,0,0,0-.3c0-.24,0-0.34,0-0.39a1.47,1.47,0,0,1-.08.21V93.32l0-.09,0,0.06V93.2a0.2,0.2,0,0,0,0,.09l0,0c0.55-3.57,1.22-7,1.95-10.33,0,0,.12-0.34.15-0.37l-0.05.16c0.08-.22.08-0.22,0.06-0.21,0.1-.28.11-0.18,0.19-0.45l-0.07.18a0.3,0.3,0,0,1,.06-0.21s0.05-.11,0,0L80,81.45c0.06-.15.06-0.11,0,0,0.16-.58.36-0.51-0.14-0.54,0.13-.54.25-1.07,0.38-1.6l0-.07s0,0,0,0l0.07-.18v0l0-.15,0.07-.1,0-.07c0.11-.15.23-0.47,0.34-0.65h0A2,2,0,0,1,81,77.77l0,0.14V78l0.08,0.33c0.82,0.2.54-.57,0.59-0.72l0,0,0-.35c0-.18,0,0.11,0,0.05,0-.37,0-0.16,0-0.58,0-.22,0,0.08,0,0.18a3.56,3.56,0,0,1,.2-1.22s0,0,0,0c0.08-.25.22-0.58,0.33-0.86a0.57,0.57,0,0,1,0,.15c0-.1.1-0.24,0.12-0.33l0,0.11c0.09-.22.22-0.64,0.25-0.68s0,0,0-.18,0.16-.52.27-0.82v0c0-.09.05-0.18,0.07-0.27v0l0.2-.72c0.06-.1.2-0.67,0.2-0.62a0.56,0.56,0,0,1,0-.11,2.08,2.08,0,0,1,.1-0.27v0L83.49,71l0,0.15a1.24,1.24,0,0,0,.07-0.35c0.07-.18.14-0.44,0.18-0.51l0,0.07c0.16-.51.33-0.82,0.45-1.22,0,0,0,0,0,0l0.12-.3,0,0.08,0.18-.52h0a3.36,3.36,0,0,0,.22-0.6v0c0-.07,0,0,0,0a0.23,0.23,0,0,0,0,.07h0V68h0a0.1,0.1,0,0,1,0,.07,0.27,0.27,0,1,0,0,.11c0,0.14.07,0.37,0.09,0.41a1.6,1.6,0,0,1,0,.31c0,0.26.06,0.3,0.08,0.66h0L84.93,70V69.94c0.05,0.37,0,.47.07,0.76a2.44,2.44,0,0,1,0,.44c0,0.47,0,.83.06,1.3A1.78,1.78,0,0,0,85,72.83Zm9.57-36a0.31,0.31,0,0,1,0,.11c0-.05,0,0,0,0h0Zm-4.7,10h0V46.8A0.29,0.29,0,0,0,90,46.73v0l0,0s0,0,0-.08h0l0-.06c0,0.06,0-.05,0,0l0,0.09,0-.09h0l0.05-.15,0-.11c0-.13,0,0.68.06-0.22h0a0.32,0.32,0,0,0,.14-0.23,0.21,0.21,0,0,0,0,.11,2.54,2.54,0,0,0,.11-0.31,0.18,0.18,0,0,0,.09-0.11,0.17,0.17,0,0,0,0-.1,1,1,0,0,1,.09-0.19,0.19,0.19,0,0,1,0-.07h0c0.08-.6.06-0.23,0.14-0.34v0s0,0,0,0l0.1-.24,0,0a0.6,0.6,0,0,1,0-.14c0,0.1,0-.08.06-0.09v0.05c0-.07,0-0.07,0-0.07a0.18,0.18,0,0,1,0-.08s0,0,0-.07,0,0,0,0,0.07-.18.08-0.21,0,0,0,0c0-.16,0-0.07.08-0.23h0V43.67l0-.07,0,0a1,1,0,0,1,.05-0.14v0a2.8,2.8,0,0,0,.13-0.3s0,0,0,0,0.06-.08.09-0.22h0V43h0l0.06-.06,0.1,0v0a0.33,0.33,0,0,1,.07-0.21H91.53a3.89,3.89,0,0,0,.16-0.73h0l0.18-.11s0.08,0,.09,0,0-.06.08-0.19,0,0,0,.06a2.93,2.93,0,0,1,.17-0.39h0a3,3,0,0,1,.12-0.27,3,3,0,0,0-.36.05A1.15,1.15,0,0,0,91.71,41a1.85,1.85,0,0,1,.43-0.18,0.26,0.26,0,0,0,.18-0.06,1.14,1.14,0,0,0,.21-0.25,0.08,0.08,0,0,1,0,0,0.64,0.64,0,0,0,.06-0.11l0,0,0.09-.22s0.1-.21.11-0.18,0,0.06,0,0a0.24,0.24,0,0,1,.05-0.08h0l0-.07v0.05a0.16,0.16,0,0,0,0-.12A1,1,0,0,1,93,39.67v0a3.11,3.11,0,0,0,.21-0.37s0,0,0,0l0-.09v0l0.06-.17h0c0.06-.1.13-0.27,0.2-0.4v0c0.06-.15.08-0.14,0.13-0.25h0l0.05-.1v0a0.75,0.75,0,0,1,.09-0.15,0.64,0.64,0,0,0,0-.14,0.18,0.18,0,0,1,.07-0.08,1.72,1.72,0,0,1,.1-0.19h0l0.07-.15v0a0.87,0.87,0,0,0,.11-0.22,0.34,0.34,0,0,1,.09-0.11L94.46,37A0.09,0.09,0,0,0,94.52,37s0,0,0,0a0.69,0.69,0,0,1-.05.2v0c0,0.07-.06.1-0.08,0.17s0,0.11,0,.11,0,0,0,.06a0.44,0.44,0,0,1-.07.19c0,0.06-.1.24-0.07,0.27l0,0.07a0.08,0.08,0,0,1,0,.09,0.08,0.08,0,0,1-.06,0l0,0.05c-0.16.32-.29,0.77-0.47,1.11-0.06.16-.12,0.37-0.2,0.56v0L93.38,40l0.07-.13a1,1,0,0,1,0,.12,6.74,6.74,0,0,0-.32.72,2.33,2.33,0,0,1-.12.26s0,0,0,0c-0.06.17-.09,0.26-0.15,0.44,0,0,0,.11-0.06.08v0a0.36,0.36,0,0,1-.08.1v0.08h0a1.39,1.39,0,0,1-.19.34,8.37,8.37,0,0,1-.43.91,1,1,0,0,1-.08.2l-0.06.06a0.93,0.93,0,0,1-.09.21,0,0,0,0,1,0,0,1.11,1.11,0,0,0-.09.21c0,0.08-.09.14-0.09,0.11a0.32,0.32,0,0,1-.09.16l-1.11,2-0.58,1.05V46.87Zm-0.13.19c0,0.13.08-.13,0,0a0.56,0.56,0,0,0,0-.16c0-.05,0,0,0,0l-0.18.34Zm-0.56,1.47h0v0l0.05-.06,0,0s0,0,0,0l0-.08s0,0.06,0,0l0-.11s0.05-.12.11-0.16v0L89,48.94Zm11.49,7.26s0,0,0,.06V55.74l0-.05s0-.08,0,0l0.06-.22h0c0-.05,0-0.06,0,0a0.63,0.63,0,0,1,.11-0.29,3.57,3.57,0,0,1,.15-0.45c0,0.16.1-.17,0,0a1,1,0,0,0,.07-0.2c0-.07,0,0,0,0.06l0-.09h0l0-.08a0.44,0.44,0,0,0,.08-0.09v0l0-.05s0,0,0-.1h0l0-.08c0,0.08,0-.07,0,0l0.09-.18,0-.09c0.06-.16,0,0.38.09-0.22h0a0.52,0.52,0,0,0,.22-0.31,0.14,0.14,0,0,0,0,.12c0.05-.11.15-0.26,0.2-0.39a0.29,0.29,0,0,0,.13-0.13,0.28,0.28,0,0,0,.05-0.13,1.51,1.51,0,0,1,.14-0.23s0-.07.06-0.12h0c0.12-.12.12-0.25,0.23-0.38v0l0-.06s0,0,0,0l0.17-.28,0,0a1,1,0,0,1,.09-0.17c0,0.12.06-.09,0.09-0.1l0,0.06c0-.08,0-0.08,0-0.08a0.29,0.29,0,0,1,.07-0.09s0,0,0-.09,0,0,0,0,0.13-.2.15-0.24,0,0,0,0l0.16-.26h0l0-.07,0.07-.07,0,0a1.15,1.15,0,0,1,.1-0.16v0c0.1-.16.15-0.17,0.23-0.33,0,0,0,0,0,0,0.08-.15.09-0.09,0.17-0.25,0,0,0,0,0,0l0-.07V49.87l0,0v0a2.53,2.53,0,0,0,.22-0.23h0a8.35,8.35,0,0,1,.61-0.79v0l0.07-.12c0.06,0,0,0,0,0a2.27,2.27,0,0,1,.13-0.21c0.07-.06,0,0,0,0.07a3.71,3.71,0,0,1,.33-0.41s0,0,0,0,0.17-.19.25-0.28a0.11,0.11,0,0,1,0,.06,0.63,0.63,0,0,0,.09-0.11l0,0a1.27,1.27,0,0,1,.2-0.21s0,0,0-.07a2.69,2.69,0,0,0,.24-0.25l0,0,0.09-.12v0l0.2-.23c0.05,0,.2-0.2.2-0.17s-0.07.05,0,0a0.37,0.37,0,0,1,.09-0.07h0l0.07-.07,0,0.06a0.23,0.23,0,0,0,.08-0.13,1.45,1.45,0,0,1,.18-0.14l0,0a4,4,0,0,0,.41-0.34s0,0,0,0l0.1-.09,0,0,0.16-.16h0l0.43-.37,0,0c0.15-.14.16-0.12,0.28-0.22h0l0.11-.08,0,0a1.22,1.22,0,0,1,.18-0.13,1.17,1.17,0,0,0,.12-0.13,0.24,0.24,0,0,1,.11-0.06,1.93,1.93,0,0,1,.22-0.16h0l0.17-.12,0,0a1.55,1.55,0,0,0,.26-0.17,0.51,0.51,0,0,1,.17-0.07l0.45-.27a0.31,0.31,0,0,0,.15-0.06h0c0.24-.12.54-0.22,0.81-0.34h0l0,0,0.48-.19A0.89,0.89,0,0,1,112,43.6a0.19,0.19,0,0,1,.16,0,0.5,0.5,0,0,1,.07.48s0,0,0,0a0.42,0.42,0,0,1,0,.17l0-.05a0.36,0.36,0,0,1-.07.19l0,0.11v0l0,0a1.46,1.46,0,0,0-.05.21s-0.06.1,0,0l-0.09.18-0.1.18,0-.05a0.28,0.28,0,0,1-.07.16c0-.08,0,0,0,0s0,0,0,0a1,1,0,0,1-.13.22l0,0c0,0.09-.1.11-0.15,0.19s-0.08.13,0,.13,0,0-.07.06a0.64,0.64,0,0,1-.15.21c0,0.08-.2.27-0.18,0.31l-0.07.07a0.52,0.52,0,0,0-.13.11c-0.05.06,0.72,0-.18,0v0.06a2.82,2.82,0,0,1-.83,1.21c-0.12.18-.23,0.41-0.39,0.6l0,0-0.15.19,0.14-.13a1.45,1.45,0,0,1-.08.13c-0.19.2-.43,0.48-0.64,0.74h0a3.17,3.17,0,0,1-.24.27l0,0c-0.14.18-.56,0.28-0.7,0.46a3.67,3.67,0,0,0-.45.08v0a0.4,0.4,0,0,0,.22.09l0.12,0.09h0.07a1.92,1.92,0,0,1-.31.34,10.71,10.71,0,0,1-.87.91,1.53,1.53,0,0,1-.18.2l-0.08.06a1.28,1.28,0,0,1-.2.21h0a1.84,1.84,0,0,0-.2.2c-0.08.07-.16,0.14-0.15,0.1a0.49,0.49,0,0,1-.17.15l-2.23,1.93c-0.59.52-1.2,1.07-1.73,1.55l-0.71.67-0.27.27-0.07.08a0.08,0.08,0,0,1,0,0s-0.08,0-.06,0a0.68,0.68,0,0,0-.12-0.08,0.42,0.42,0,0,1,0,.1l-0.07,0a0.28,0.28,0,0,1,.08.05l0,0,0.08,0.07c0.05,0,.05-0.07.14-0.11l0,0c0.07-.06.06,0,0.08,0l0,0,0.09-.06,0,0s0,0,.05,0l0.09-.08s-0.06.05,0,0l0.11-.11s0.12-.12.19-0.15l0,0-0.58.51-0.27-.16C100.43,56.7,100.55,56.24,100.68,55.79Zm20.6,16v0.07c0,0.06,0,.11,0,0.17s0,0.1,0,0l0,0.35,0,0c0,0.08,0,.09,0,0a1.42,1.42,0,0,1-.06.46c0,0.27,0,.37-0.06.7,0-.25-0.07.28,0,0a2.38,2.38,0,0,0,0,.31c0,0.11,0,.06,0-0.07v0.15h0V74a1,1,0,0,0-.05.16l0,0,0,0.09s0,0,0,.15h0l0,0.12c0-.12,0,0.11,0,0.05l0,0.3,0,0a0.73,0.73,0,0,1-.06.2h0c-0.08.28-.07,0.49-0.13,0.69,0-.12,0-0.09,0-0.09,0,0.18-.09.48-0.11,0.67a0.75,0.75,0,0,0-.1.27,0.62,0.62,0,0,0,0,.21,3.9,3.9,0,0,1-.09.39s0,0.12,0,.2h0c-0.09.23-.06,0.41-0.14,0.65v0.06s0,0,0,0l-0.1.47,0-.09a2.15,2.15,0,0,1,0,.28c0-.2,0,0.16-0.06.18v-0.1c0,0.14,0,.14,0,0.13a2.44,2.44,0,0,0-.07.29l0-.12s0,0.06,0,.13,0,0.07,0,0c0,0.14-.07.36-0.08,0.42s0,0,0,0c0,0.31,0,.14-0.07.44h0v0.1l-0.06.13,0,0a1.35,1.35,0,0,1-.1.25v0c-0.11.25-.16,0.28-0.28,0.51,0,0,0,0,0,0-0.11.22-.12,0.14-0.24,0.36,0,0,0,0,0,0l-0.06.1v0l0,0.09-0.06,0,0,0c-0.1.07-.19,0.23-0.33,0.34h0c-0.24.35-.67,0.71-1,1.11v0l-0.12.17c-0.09.07,0-.06,0,0-0.14.18,0,.09-0.21,0.29s0,0,.06-0.1c-0.16.19-.39,0.47-0.52,0.59s0,0,0,0-0.25.29-.38,0.42a0.25,0.25,0,0,1,.05-0.08c0,0.05-.11.11-0.14,0.15l0-.06a2,2,0,0,1-.31.29s0,0-.07.09-0.24.21-.4,0.3l0.09-.08a2.32,2.32,0,0,0-.21.16v0l-0.18.12-0.19.11c-0.07,0-.37.18-0.35,0.14-0.14.06,0.13,0-.06,0a0.55,0.55,0,0,1-.16,0h0l-0.13,0,0.08,0a0.52,0.52,0,0,0-.19.1,1.77,1.77,0,0,1-.32.06h0c-0.31.08-.52,0-0.76,0.09,0,0,0,0,0,0h-0.19l0,0-0.16,0h-0.16a4.37,4.37,0,0,1-.8-0.09h0a2,2,0,0,1-.46-0.14h0l-0.17-.08h0a1.11,1.11,0,0,1-.26-0.16L111,85.3a0.33,0.33,0,0,1-.11-0.13,1.28,1.28,0,0,1-.23-0.28h0a1.62,1.62,0,0,1-.14-0.24l0,0c-0.11-.18-0.08-0.25-0.17-0.4a0.65,0.65,0,0,1,0-.25,3,3,0,0,1-.07-0.75,0.67,0.67,0,0,0,0-.23h0c0-.4.1-0.85,0.16-1.29h0V81.68c0.08-.47.21-1.07,0.31-1.44a3.73,3.73,0,0,1,.1-0.5v0c0.08-.34.17-0.69,0.29-1,0,0,0,0,0,0a1.51,1.51,0,0,1,.09-0.29l0,0.09a1,1,0,0,1,.11-0.3l0.1-.17,0.09,0v0l0-.08s0-.26,0-0.33a0.38,0.38,0,0,0,0-.08l0.18-.55,0,0.09a0.67,0.67,0,0,1,.07-0.26c0,0.13,0,0,0,0s0,0.06,0,0a2.35,2.35,0,0,1,.11-0.37v0.06c0-.14.09-0.19,0.14-0.32s0.08-.21,0-0.19c0.06-.17,0-0.06.07-0.11a1.67,1.67,0,0,1,.15-0.35c0-.11.18-0.48,0.16-0.53l0.06-.15a0.33,0.33,0,0,1,.07-0.29l0-.09a3.22,3.22,0,0,0,.09-0.56c0-.1,0-0.2,0-0.31a1.36,1.36,0,0,1,0-.25,3,3,0,0,1,.43-1c0.15-.29.34-0.66,0.53-1l0,0,0.2-.32-0.15.23,0.1-.2c0.22-.35.52-0.81,0.78-1.25v0h0c0.14-.3.15-0.17,0.3-0.45l0,0.06,0.44-.75a0.61,0.61,0,0,0,.13-0.15v0a0.63,0.63,0,0,1,.15-0.15l0.07-.11h0c0.11-.9.35-0.54,0.45-0.61,0.27-.42.75-1,1.13-1.54a3.75,3.75,0,0,1,.24-0.34l0.11-.11a3.25,3.25,0,0,1,.25-0.35v0c0.09-.12.18-0.22,0.26-0.34a0.4,0.4,0,0,1,.19-0.19,1.1,1.1,0,0,1,.22-0.26l0.58-.69,0.63-.73c0.06-.07.28-0.17,0.46-0.33l0.2-.17h0a1.19,1.19,0,0,1,.09.52l0.09,1,0.2,2.06c0.13,1.32.27,2.47,0.38,3.06,0,0.07.05,0.25,0.06,0.18a2.38,2.38,0,0,0,0,.24,0.68,0.68,0,0,1,.05-0.14l0,0.12a0.63,0.63,0,0,1,0-.14l0,0a0.84,0.84,0,0,1,0-.19A1.41,1.41,0,0,1,121.2,69c0-.18,0-0.11,0-0.15V68.78c0,0.12,0,.31,0,0.21s0,0.06,0-.11,0-.07,0-0.07l0-.18s0,0.12,0,0l0-.23s0-.25,0-0.36v0.06c0,0.52.09,1,.14,1.57A20.25,20.25,0,0,1,121.28,71.77Zm26.53-3.47s0,0,0,0,0.05,0,.05,0h-0.07Zm0.18,0h0Zm0.09,0h0ZM147,66.69l0.16,0c0-.05.06-0.06,0.06,0a0.52,0.52,0,0,1,0-.3c0-.17,0-0.24,0-0.45,0,0.16,0-.19,0,0a0.88,0.88,0,0,0,0-.2c0-.07,0,0,0,0V65.66h0V65.58a0.44,0.44,0,0,0,0-.11l0,0V65.39s0,0,0-.1h0V65.22c0,0.08,0-.07,0,0V65a0.35,0.35,0,0,1,0-.14h0c0-.19,0-0.32,0-0.45,0,0.08,0,.06,0,0.06s0-.31,0-0.44a0.35,0.35,0,0,0,0-.18,0.28,0.28,0,0,0,0-.14,1.77,1.77,0,0,1,0-.26s0-.08,0-0.13h0c0-.16,0-0.27,0-0.43v0s0,0,0,0V62.65a1,1,0,0,1,0-.18c0,0.12,0-.1,0-0.12v0.07c0-.09,0-0.09,0-0.08a0.28,0.28,0,0,1,0-.11s0,0,0-.08,0,0,0,0,0-.23,0-0.27,0,0,0,0V61.55h0V61.48l0-.1v0a1.5,1.5,0,0,1,0-.18v0c0-.18,0-0.21,0-0.39,0,0,0,0,0,0,0-.16,0-0.12,0-0.29,0,0,0,0,0,0V60.54h0l0-.06,0,0v0a2.18,2.18,0,0,0,0-.3l0,0c-0.06-.27,0-0.63,0-1h0l0-.13c0-.07,0,0,0,0a2.18,2.18,0,0,1,0-.23c0-.09,0,0,0,0.07a3.57,3.57,0,0,1,0-.5h0c0-.11,0-0.24,0-0.36a0.1,0.1,0,0,1,0,.06,0.67,0.67,0,0,0,0-.13l0,0a1.41,1.41,0,0,1,0-.28s0,0,0-.07a3,3,0,0,0,0-.33v0s0-.08,0-0.11V57s0-.27,0-0.25,0,0.08,0,0a0.5,0.5,0,0,1,.08-0.11l0-.08,0,0.06a0.17,0.17,0,0,0-.09-0.14,0.52,0.52,0,0,0,0-.2c0-.19.15-0.33,0.14-0.49a0,0,0,0,1,0,0l0-.13,0,0V55.4h-0.1a3.85,3.85,0,0,0,0-.52,1.41,1.41,0,0,1,.17-0.33h0.14l0.14-.14,0,0c0-.1,0-0.26,0-0.2a0.53,0.53,0,0,0,0-.16c0-.14-0.23,0-0.21-0.12s-0.18-.13-0.19-0.26a2.49,2.49,0,0,0,.26-0.19l0.11,0a2.25,2.25,0,0,0,.11-0.3,0.4,0.4,0,0,1,.09-0.17,3.42,3.42,0,0,1,.13-0.48,0.3,0.3,0,0,0,.07-0.13V52.7a0.87,0.87,0,0,1,.39-0.55h0V51.87a1.21,1.21,0,0,1,.2-0.39,0.41,0.41,0,0,1,0-.05,0.14,0.14,0,0,1,.08,0,0.61,0.61,0,0,1,.16.23,4.27,4.27,0,0,1,.29.6s0,0,0,0a0.57,0.57,0,0,1,.07.17V52.4a0.37,0.37,0,0,1,.05.19l0,0.09a0.13,0.13,0,0,1,0,0v0.07a1.77,1.77,0,0,0,.07.19s0,0.1,0,0a1.52,1.52,0,0,1,0,.18c0,0.1,0,.2,0,0.2V53.32a0.3,0.3,0,0,1,0,.17c0-.08,0,0,0,0s0,0,0,0a1.21,1.21,0,0,1,0,.25v0c0,0.09,0,.14,0,0.23s0,0.14,0,.12,0,0,0,.09a0.69,0.69,0,0,1,0,.24c0,0.06,0,.32,0,0.34l0,0.1a0.1,0.1,0,0,1,0,.1,0.11,0.11,0,0,1,0,.08l0,0c0,0.43,0,1,0,1.46,0,0.21,0,.47,0,0.72v0c0,0.05,0,.09,0,0.15a9.32,9.32,0,0,0,0,1c0,0.21,0,.14,0,0.35v0l0,0.56a0.28,0.28,0,0,0,0,.12l0,0a0.54,0.54,0,0,1,0,.15l0,0.1h0a2.14,2.14,0,0,1,0,.47c0,0.32,0,.82,0,1.22a1.62,1.62,0,0,1,0,.26l0,0.1a1.39,1.39,0,0,1,0,.28h0a1.79,1.79,0,0,0,0,.27c0,0.1,0,.2,0,0.17a0.49,0.49,0,0,1,0,.22l-0.07.84a14.53,14.53,0,0,1-.26,1.92,21.75,21.75,0,0,1-.67,2.1,1.3,1.3,0,0,1-1.12.74s-0.17,0-.12,0a1.2,1.2,0,0,0-.16,0,0.46,0.46,0,0,1,.09.06h-0.08a0.33,0.33,0,0,1,.09,0l0,0,0.13,0a0.73,0.73,0,0,1,.25-0.06h0c0.12,0,.08,0,0.1,0h0.08l-0.15,0a2.31,2.31,0,0,1-.49.06c0-.44,0-0.89,0-1.33V67s-0.14-.05-0.14-0.08-0.12-.07-0.12,0V66.69ZM162.5,18.6v0h0v0Zm0,0.9V19.44h0v0.07h0Z" transform="translate(-3.46 -13.34)"/>
    <path class="a" d="M161.93,21c0,0.05.08,0.05,0.07,0s0,0,0,0h0Z" transform="translate(-3.46 -13.34)"/>
    <path class="a" d="M115.73,31.53a0.64,0.64,0,0,0,0-.18l0.28-.07c0-.13.07-0.25,0.1-0.4a11.74,11.74,0,0,0,.6-1.8l-0.17,0-0.31.09a0.2,0.2,0,0,1-.06,0,0.68,0.68,0,0,0-.22.08l-0.15,0,0-.08-0.08,0a1.3,1.3,0,0,0-.05.36c-0.2.66-.4,1.34-0.63,2l0.2,0A0.55,0.55,0,0,0,115.73,31.53Z" transform="translate(-3.46 -13.34)"/>
    <path class="a" d="M102.47,29.65a0.21,0.21,0,0,1,0,.09A4.42,4.42,0,0,0,104.36,31a10.76,10.76,0,0,1,1.76.66,0.25,0.25,0,0,1-.12.23,0.86,0.86,0,0,1,0,.35,1.1,1.1,0,0,0,.23.22,0.49,0.49,0,0,0,0,.06,2,2,0,0,0-.11.26,0.86,0.86,0,0,1,.15.31,1.19,1.19,0,0,1,.28.2,0.18,0.18,0,0,1,0-.11,0.29,0.29,0,0,1,.3.06l0.2,0a21.35,21.35,0,0,1-1.82,2.15,4.58,4.58,0,0,0-1.08,2,0.21,0.21,0,0,1,0,.09s0,0,.06,0,0,0.08,0,.12,0.1-.07.16,0c0.51-.5,1-1,1.44-1.54a2.59,2.59,0,0,0-.38,1,0.21,0.21,0,0,1,0,.09s0,0,.06,0,0,0.08,0,.12,0.1-.07.16,0c0.58-.57,1.11-1.16,1.63-1.76a2.44,2.44,0,0,0-.35.93,0.2,0.2,0,0,1,0,.09s0,0,.06,0,0,0.08,0,.12,0.09-.06.15,0c0.54-.54,1-1.09,1.52-1.66a2.68,2.68,0,0,0-.46,1.12,0.21,0.21,0,0,1,0,.09s0,0,.06,0,0,0.08,0,.12,0.1-.07.16,0c0.28-.27.53-0.56,0.79-0.84a2.45,2.45,0,0,0-.12.46,0.2,0.2,0,0,1,0,.09s0,0,.06,0,0,0.08,0,.12,0.09-.06.15,0a31.24,31.24,0,0,0,2.39-2.76c0.11-.14.26-0.37,0.37-0.48l0.15-.21,0.15,0.12s0-.34,0-0.37h0a2.36,2.36,0,0,0,.39-0.24l1.51-.37a11.89,11.89,0,0,1,.3-1.57,2.54,2.54,0,0,1,.23-0.74h0a1.79,1.79,0,0,0-.66.23,0.91,0.91,0,0,0-.38.15c0.07,0,.15,0,0.23,0l-1.73.46a5,5,0,0,0-.8-0.42c-0.16,0-.41-0.18-0.59-0.26a32.51,32.51,0,0,0-3.62-1.31c0,0.1-.12,0-0.14.09s0,0.07.06,0.11-0.07,0-.07,0a0.21,0.21,0,0,1,0,.09,2.4,2.4,0,0,0,.27.29c-0.29-.1-0.58-0.2-0.88-0.29,0,0.09-.1,0-0.12.08s0,0.07.05,0.1-0.06,0-.06,0a0.19,0.19,0,0,1,0,.08,2.62,2.62,0,0,0,1.1.82c-0.79-.31-1.59-0.6-2.42-0.83,0,0.1-.12,0-0.14.09s0,0.08.06,0.11-0.07,0-.07,0a0.21,0.21,0,0,1,0,.09,3,3,0,0,0,1.3,1,26.92,26.92,0,0,0-2.66-.94c0,0.09-.1,0-0.12.08s0,0.07.05,0.1-0.06,0-.06,0a0.19,0.19,0,0,1,0,.08,2.26,2.26,0,0,0,.73.64c-0.56-.2-1.12-0.39-1.7-0.56,0,0.1-.12,0-0.14.09s0,0.08.06,0.11S102.47,29.61,102.47,29.65Zm11.78,0.07h0l-0.1,0ZM109,33.25a5.73,5.73,0,0,0,.32-0.58h0.08l0.09,0Zm1.59-.73c-0.19.25-.39,0.51-0.6,0.76a5,5,0,0,0,.47-0.73Zm-0.52-1.87-0.09,0a4.87,4.87,0,0,0-.63-0.32,4.24,4.24,0,0,1-.47-0.2C109.33,30.31,109.73,30.48,110.11,30.64Zm-2.72.65h0Zm0.31,2.33a5.66,5.66,0,0,0,.37-0.69l0.2,0C108.08,33.14,107.9,33.38,107.71,33.62Zm1-2.65-0.26.07a4.68,4.68,0,0,0-1-.55l-0.2-.08A12.86,12.86,0,0,1,108.68,31Zm-2.48.7h0a0,0,0,0,1,0,0h0Z" transform="translate(-3.46 -13.34)"/>
  </g>
</svg>
