<svg xmlns="http://www.w3.org/2000/svg" width="170" height="123" viewBox="-1 -40 170 123">
  <defs>
    <style>
      .a {
        fill: #4b6c6e;
      }

      .b {
        fill: #b2bfb5;
      }

      .c {
        fill: #f37f42;
      }

      .d {
        fill: #ededed;
      }
    </style>
  </defs>
  <title>logo-Uxiliary</title>
  <g>
    <polygon class="a" points="35.64 21.19 29.85 21.19 38.34 35.96 22.36 35.96 25.01 40.54 46.8 40.54 35.64 21.19"/>
    <polygon class="b" points="8.58 35.96 17.09 21.19 11.18 21.19 0 40.54 25.01 40.54 22.36 35.96 8.58 35.96"/>
    <polygon class="c" points="23.48 10.12 29.85 21.19 35.64 21.19 23.43 0 11.18 21.19 17.09 21.19 23.48 10.12"/>
  </g>
  <g>
    <path class="d" d="M58.46,41.65V67.92c0,2.43.94,3.31,2.44,3.31s2.44-.88,2.44-3.31V41.65H67.8V67.58c0,5.45-2.4,8.56-7,8.56s-7-3.11-7-8.56V41.65h4.71Z" transform="translate(-0.25 -36.68)"/>
    <path class="d" d="M86.73,41.65L81.8,58.19,87.07,75.7h-5L78.25,62.23,74.35,75.7H69.94l5.27-17.51L70.28,41.65h4.88L78.72,54.2l3.64-12.55h4.37Z" transform="translate(-0.25 -36.68)"/>
    <path class="d" d="M89.43,41.65h4.71V75.7H89.43V41.65Z" transform="translate(-0.25 -36.68)"/>
    <path class="d" d="M97.57,41.65h4.71V70.84H110V75.7H97.57V41.65Z" transform="translate(-0.25 -36.68)"/>
    <path class="d" d="M112.09,41.65h4.71V75.7h-4.71V41.65Z" transform="translate(-0.25 -36.68)"/>
    <path class="d" d="M135.47,75.7h-4.75l-0.81-6.18h-5.78l-0.81,6.18H119l4.8-34.05h6.9ZM124.72,64.9h4.54L127,47.68Z" transform="translate(-0.25 -36.68)"/>
    <path class="d" d="M147.51,75.7a11.79,11.79,0,0,1-.43-4.18V66.17c0-3.16-.94-4.33-3.08-4.33h-1.63V75.7h-4.71V41.65h7.11c4.88,0,7,2.58,7,7.83v2.68c0,3.5-1,5.79-3.08,6.91,2.36,1.12,3.13,3.7,3.13,7.25v5.25a11.28,11.28,0,0,0,.51,4.13h-4.8Zm-5.14-29.19V57h1.84c1.76,0,2.83-.88,2.83-3.6V50c0-2.43-.73-3.5-2.4-3.5h-2.27Z" transform="translate(-0.25 -36.68)"/>
    <path class="d" d="M158.86,64.41l-6-22.77h4.93l3.6,15.52L165,41.65h4.5l-6,22.77V75.7h-4.71V64.41Z" transform="translate(-0.25 -36.68)"/>
  </g>
</svg>
