<svg xmlns="http://www.w3.org/2000/svg" width="170" height="123" viewBox="-1 -40 170 123">
<style type="text/css">
	.st0{fill:#EDEDED;}
	.st1{fill:#E21433;}
</style>
<title>logo-Risklens</title>
<g>
	<path class="st0" d="M25.9,0l1.7,0.2c2.9,0.3,5.7,1.2,8.3,2.5C40.7,5.1,44.6,9.1,47,14c1.8,3.6,2.6,7.5,2.5,11.5
		c-0.1,4.7-1.5,9.2-4.2,13.1c-3.6,5.6-9.4,9.4-16,10.5c-7.8,1.6-15.8-0.8-21.5-6.3c-4-3.7-6.6-8.6-7.4-14c-0.1-0.8-0.2-1.6-0.3-2.4
		c0-0.1,0-0.2-0.1-0.2v-2.5c0-0.1,0-0.2,0.1-0.3c0.1-1,0.2-1.9,0.3-2.8C1.7,13,6.2,6.7,12.8,3.1c2.8-1.6,5.8-2.5,9-2.9L23.5,0
		L25.9,0L25.9,0z M45.9,24.8c0-11.8-9.5-21.3-21.2-21.3S3.4,12.9,3.4,24.7C3.3,36.4,12.8,46,24.6,46c0,0,0,0,0,0l0,0
		C36.4,46,45.9,36.6,45.9,24.8L45.9,24.8z"/>
	<path class="st0" d="M68.8,27.6l0.2,0.3l5.2,5.9c0.1,0.1,0.1,0.1,0.1,0.2c0.1,0.2,0.1,0.3-0.2,0.3h-3.9c-0.1,0-0.3-0.1-0.4-0.2
		l-5-5.7c-0.2-0.2-0.5-0.4-0.8-0.4h-2.6c-0.2,0-0.3,0.1-0.3,0.2c0,0,0,0.1,0,0.1v5.6c0,0.2,0,0.3-0.2,0.4c-0.1,0-0.1,0-0.2,0h-2.8
		c-0.2,0-0.3,0-0.3-0.3V15.7c0-0.2,0-0.3,0.3-0.3c3,0,6,0,9.1,0c2.3-0.1,4.5,1.1,5.6,3.2c1.2,2.2,1,5-0.6,7
		c-0.8,0.9-1.9,1.6-3.1,1.8L68.8,27.6z M61.4,21.7L61.4,21.7v2.7c0,0.3,0.1,0.4,0.4,0.4h1.6c1.3,0,2.7,0,4-0.1c1,0,2-0.7,2.4-1.6
		c0.8-1.5,0.3-3.3-1.2-4.1c-0.5-0.3-1.1-0.4-1.7-0.4h-5.2c-0.1,0-0.3,0-0.3,0.2c0,0.1,0,0.1,0,0.2C61.3,19.9,61.3,20.8,61.4,21.7
		L61.4,21.7L61.4,21.7z"/>
	<path class="st0" d="M137.8,28.8h-10.3c0,0.2,0.1,0.5,0.2,0.7c0.4,1.1,1.4,1.8,2.5,2c1.4,0.3,2.9,0.1,4.2-0.5
		c0.1-0.1,0.2-0.1,0.3-0.2l0.3-0.2l2,2.2c-0.4,0.3-0.7,0.6-1.1,0.8c-2.4,1.5-5.4,1.6-8,0.5c-2.1-0.9-3.5-2.8-3.7-5.1
		c-0.2-1.3-0.1-2.7,0.4-4c0.8-2.2,2.8-3.8,5.2-4.1c1.3-0.2,2.6-0.2,3.9,0.2c1.9,0.5,3.4,2.1,3.9,4C137.8,26.2,137.9,27.5,137.8,28.8
		z M127.5,26.1h7.1c0-0.1,0-0.1,0-0.2c-0.1-0.8-0.6-1.5-1.4-1.9c-1.4-0.8-3.1-0.7-4.5,0.2C128.2,24.6,127.7,25.3,127.5,26.1
		L127.5,26.1L127.5,26.1z"/>
	<path class="st0" d="M98.3,28.2v5.6c0,0.3-0.1,0.4-0.4,0.4h-2.6c-0.2,0-0.3,0-0.4-0.2c0,0,0-0.1,0-0.1v-18c0-0.4,0-0.4,0.4-0.4h2.8
		v10.7h0.1l0.2-0.2l4-4.8c0.1-0.1,0.2-0.2,0.3-0.2h3.8c-0.1,0.1-0.2,0.3-0.3,0.4l-4.8,5.4l-0.3,0.4l1.3,1.4l4.7,5.2
		c0.1,0.1,0.2,0.3,0.3,0.5h-3.7c-0.2,0-0.4-0.1-0.5-0.2l-4.6-5.3L98.3,28.2z"/>
	<path class="st0" d="M143.5,34.2h-3.2V20.9h2.9l0.2,1.8l0.3-0.2c0.8-0.8,1.9-1.4,3.1-1.7c2.7-0.6,5.4,1.1,6.2,3.7
		c0.2,0.8,0.4,1.6,0.4,2.4c0,2.3,0,4.6,0,6.9v0.3h-2.9c-0.2,0.1-0.3,0-0.4-0.2c0-0.1,0-0.1,0-0.2v-6.7c0-1-0.4-2-1.1-2.7
		c-1.4-1.1-3.5-0.8-4.6,0.6c-0.1,0.2-0.3,0.4-0.4,0.6c-0.3,0.6-0.4,1.4-0.4,2.1L143.5,34.2L143.5,34.2z"/>
	<path class="st0" d="M122.4,34.2h-12.8c-0.4,0-0.4,0-0.4-0.4V15.9c0-0.4,0-0.4,0.4-0.4h2.7c0.5,0,0.5,0,0.5,0.5v14.2
		c0,0.9,0,0.9,0.9,0.9h8.4c0.4,0,0.4,0,0.4,0.4L122.4,34.2L122.4,34.2z"/>
	<path class="st0" d="M166.7,22.3l-1.8,2.1l-0.3-0.2c-1.3-1-3-1.3-4.5-0.8c-0.6,0.1-1,0.6-1,1.2c0,0.4,0.2,0.8,0.6,1
		c0.5,0.2,1,0.3,1.5,0.4c1,0.2,2,0.3,2.9,0.4c0.4,0.1,0.8,0.3,1.2,0.5c1.1,0.6,1.8,1.7,1.8,3c0.1,2.2-1.4,4.1-3.6,4.4
		c-1.8,0.4-3.7,0.3-5.5-0.3c-1-0.4-1.8-0.9-2.5-1.7c-0.1-0.1-0.1-0.2-0.1-0.3c0.5-0.7,1-1.4,1.5-2.1c0.5,0.4,1.1,0.7,1.7,1
		c1,0.5,2,0.7,3.1,0.7c0.5,0,1.1-0.1,1.5-0.4c0.1-0.1,0.2-0.2,0.3-0.3c0.5-0.4,0.5-1.1,0.1-1.6c-0.1-0.2-0.3-0.3-0.5-0.3
		c-0.6-0.2-1.2-0.3-1.8-0.3c-1.1-0.1-2.2-0.3-3.2-0.8c-1.1-0.4-2-1.4-2.2-2.6c-0.4-1.7,0.5-3.5,2.1-4.2c1.4-0.6,3-0.9,4.5-0.7
		c1.3,0.1,2.6,0.6,3.6,1.4l0.3,0.3L166.7,22.3z"/>
	<path class="st0" d="M90.6,24.5c-0.9-0.8-2-1.2-3.2-1.2c-0.6,0-1.1,0.1-1.7,0.2c-0.5,0.1-0.9,0.6-0.9,1.2c0,0.4,0.2,0.8,0.6,0.9
		c0.5,0.2,1,0.3,1.6,0.4c1,0.2,2,0.2,2.9,0.5c0.9,0.2,1.7,0.7,2.3,1.4c1.3,1.8,0.9,4.4-0.9,5.7c0,0,0,0,0,0l-0.2,0.2
		c-1.1,0.6-2.3,1-3.5,0.9c-1.5,0.1-3.1-0.2-4.5-0.9c-0.6-0.4-1.2-0.8-1.8-1.3c-0.1-0.1-0.1-0.2-0.1-0.3c0.5-0.7,1-1.4,1.5-2.2
		c0.2,0.1,0.3,0.2,0.4,0.3c1.2,1,2.8,1.5,4.3,1.5c0.5,0,0.9-0.1,1.4-0.3c0.2-0.1,0.5-0.3,0.6-0.5c0.4-0.4,0.4-1.1-0.1-1.5
		c-0.1-0.1-0.2-0.2-0.4-0.2c-0.6-0.2-1.2-0.3-1.9-0.4c-1.2-0.1-2.3-0.4-3.4-0.9c-1.3-0.5-2.2-1.8-2.1-3.2c0-1.4,0.7-2.7,2-3.3
		c1.1-0.6,2.3-0.9,3.5-0.9c1.3-0.1,2.5,0.1,3.7,0.7c0.6,0.3,1.1,0.7,1.7,1L90.6,24.5z"/>
	<path class="st0" d="M75.7,34.2V20.9h3.2v13.3H75.7z"/>
	<path class="st0" d="M77.3,19.1c-1,0-1.9-0.9-1.9-1.9c0-1,0.9-1.9,1.9-1.9c1,0,1.9,0.9,1.9,1.9c0,1-0.7,1.9-1.7,1.9c0,0,0,0,0,0
		L77.3,19.1L77.3,19.1z"/>
	<path class="st1" d="M38.5,13.6v22.5c0,0.2-0.1,0.4-0.2,0.5c-2.1,2.2-4.8,3.8-7.7,4.7h-0.2V41c0-7.9,0-15.7,0-23.6
		c0-0.3,0.1-0.5,0.4-0.6l7.4-3L38.5,13.6z"/>
	<path class="st1" d="M28,18v23.6c0,0.2-0.1,0.3-0.2,0.3h-0.1c-2.5,0.3-5.1,0.2-7.5-0.5c-0.2,0-0.3-0.2-0.3-0.4V21.6
		c0-0.2,0.1-0.4,0.3-0.4l7.5-3.1L28,18z"/>
	<path class="st1" d="M17.4,22.3v18l-0.3-0.1c-3.1-1.5-5.7-3.8-7.5-6.8c-0.1-0.2-0.2-0.4-0.2-0.7V26c0-0.2,0.1-0.4,0.3-0.4l7.4-3.1
		L17.4,22.3z"/>
</g>
</svg>
