<svg xmlns="http://www.w3.org/2000/svg" width="170" height="123" viewBox="-20 0 170 123">
  <defs>
    <style>
      .a {
        fill: #fff;
      }
    </style>
  </defs>
  <title>logo-INT</title>
  <g>
    <path class="a" d="M83.73,0.34A61.07,61.07,0,1,0,144.8,61.42,61.07,61.07,0,0,0,83.73.34Zm0,117.19a56.11,56.11,0,1,1,56.11-56.11A56.11,56.11,0,0,1,83.73,117.53Z" transform="translate(-22.65 -0.34)"/>
    <path class="a" d="M83.73,21a40.44,40.44,0,1,0,40.44,40.44A40.44,40.44,0,0,0,83.73,21Zm-18.93,54h-6V50.69h6V74.94Zm26.44,0H85.49l-10-14.46V74.94H69.72V50.69h5.75l10,14.46V50.69h5.75V74.94Zm15.37-19.52V74.94h-6V55.42H94.12V50.69h19v4.73h-6.52Z" transform="translate(-22.65 -0.34)"/>
    <g>
      <path class="a" d="M43.21,78.1l1,2.18L35.33,84.2l-1-2.18Z" transform="translate(-22.65 -0.34)"/>
      <path class="a" d="M40.83,70.43l-4.6,5.31,5.59-1.43,0.57,2.22L33,78.94l-0.57-2.22L37,71.41l-5.59,1.43-0.57-2.22,9.38-2.4Z" transform="translate(-22.65 -0.34)"/>
      <path class="a" d="M30.37,64.75l7.78-.44L38,60.76l1.89-.11,0.33,5.94-9.67.54Z" transform="translate(-22.65 -0.34)"/>
      <path class="a" d="M38.78,53.26l-0.51,3.67L40,57.78,39.7,60.22,30.61,55.3,31,52.71l10.09-2.22-0.34,2.43Zm-2.3,2.8,0.35-2.46-4.22.66Z" transform="translate(-22.65 -0.34)"/>
      <path class="a" d="M43.6,43.88l-6.82,1.65,5.38,2.08-0.83,2.14-9-3.49,0.83-2.14,6.82-1.65-5.38-2.08,0.83-2.14,9,3.49Z" transform="translate(-22.65 -0.34)"/>
      <path class="a" d="M37.15,34.94l1.66-2.44a7.26,7.26,0,0,1,1.62-1.74,5.57,5.57,0,0,1,1.85-.95A4.55,4.55,0,0,1,48,33.71a5.56,5.56,0,0,1-.19,2.07,7.26,7.26,0,0,1-1,2.15l-1.66,2.44Zm8.19,1.81a4.08,4.08,0,0,0,.57-1.21A3,3,0,0,0,46,34.36a2.54,2.54,0,0,0-.39-1.07,3.43,3.43,0,0,0-2.06-1.39,2.54,2.54,0,0,0-1.14,0,3,3,0,0,0-1.06.52,4.08,4.08,0,0,0-.91,1l-0.4.59,4.88,3.31Z" transform="translate(-22.65 -0.34)"/>
      <path class="a" d="M50.62,27.67a1.37,1.37,0,0,1-.38-0.9,1.4,1.4,0,0,1,1.43-1.32,1.42,1.42,0,0,1,1.24,1.34,1.4,1.4,0,0,1-1.43,1.32A1.37,1.37,0,0,1,50.62,27.67Z" transform="translate(-22.65 -0.34)"/>
      <path class="a" d="M64,22.39l-6.32-3.07,2.83,5-2,1.13L53.75,17l2-1.13L62.07,19l-2.83-5,2-1.13L66,21.26Z" transform="translate(-22.65 -0.34)"/>
      <path class="a" d="M75.15,13.42a5.57,5.57,0,0,1,.21,2,4.71,4.71,0,0,1-.5,1.8,4.56,4.56,0,0,1-1.19,1.46,5.19,5.19,0,0,1-1.9,1,5.24,5.24,0,0,1-2.13.19,4.54,4.54,0,0,1-1.79-.62,4.61,4.61,0,0,1-1.36-1.27,5.92,5.92,0,0,1-1.06-3.73,4.62,4.62,0,0,1,.49-1.79,4.55,4.55,0,0,1,1.2-1.47,5.7,5.7,0,0,1,4-1.14,4.57,4.57,0,0,1,1.78.62,4.71,4.71,0,0,1,1.36,1.27A5.58,5.58,0,0,1,75.15,13.42Zm-3.9,4.35a2.5,2.5,0,0,0,1-.52,2.29,2.29,0,0,0,.6-0.84,2.78,2.78,0,0,0,.2-1.08,5,5,0,0,0-.69-2.42,2.78,2.78,0,0,0-.74-0.82,2.29,2.29,0,0,0-1-.4,2.76,2.76,0,0,0-2.13.6,2.3,2.3,0,0,0-.59.84,2.77,2.77,0,0,0-.2,1.08,5,5,0,0,0,.69,2.42,2.78,2.78,0,0,0,.74.82,2.3,2.3,0,0,0,.95.4A2.49,2.49,0,0,0,71.25,17.78Z" transform="translate(-22.65 -0.34)"/>
      <path class="a" d="M84.52,11a2.75,2.75,0,0,1-.45,1.73A3.36,3.36,0,0,1,82.61,14L86,17.58l-2.93.16-2.84-3.21-0.44,0L80,17.91,77.59,18,77.07,8.37l3.08-.17a7,7,0,0,1,1.68.1,4.19,4.19,0,0,1,1.37.49A2.63,2.63,0,0,1,84.52,11Zm-2.29.17a1.06,1.06,0,0,0-.56-0.94A2.73,2.73,0,0,0,80.23,10l-0.68,0,0.15,2.71,0.58,0a2.57,2.57,0,0,0,1.47-.46A1.22,1.22,0,0,0,82.23,11.21Z" transform="translate(-22.65 -0.34)"/>
      <path class="a" d="M94.44,9l-0.25,1.87-2.58-.34-1,7.72L88.24,18l1-7.72-2.58-.34,0.25-1.87Z" transform="translate(-22.65 -0.34)"/>
      <path class="a" d="M99.63,20.74L100.92,17l-3.35-1.16-1.29,3.72L94,18.81l3.16-9.15,2.25,0.78L98.21,14l3.35,1.16,1.24-3.59,2.25,0.78-3.17,9.15Z" transform="translate(-22.65 -0.34)"/>
      <path class="a" d="M112.78,24.87l5.05-4.67,2,1.39L112.13,28l-2-1.38,2.53-7.09-5.75,4.86-2-1.38,3.31-9.48,2,1.39-2.59,6.37,5.31-4.49,2.17,1.51Z" transform="translate(-22.65 -0.34)"/>
      <path class="a" d="M121.83,24l4,4.53-1.42,1.25L122,27.08l-1.46,1.29L122.82,31l-1.42,1.25-2.29-2.61L117.56,31,120,33.75,118.58,35l-4-4.56Z" transform="translate(-22.65 -0.34)"/>
      <path class="a" d="M125.2,40.06a2.87,2.87,0,0,1-1.15.41,2.81,2.81,0,0,1-1.21-.12,3.57,3.57,0,0,1-1.17-.65,4.67,4.67,0,0,1-1-1.2A7.47,7.47,0,0,1,120,37a6.53,6.53,0,0,1-.34-1.53l1.8-.54a7,7,0,0,0,.24,1.2,5,5,0,0,0,.57,1.27,2,2,0,0,0,.72.74,0.78,0.78,0,0,0,.83,0,0.87,0.87,0,0,0,.38-0.64,4.28,4.28,0,0,0-.11-1.39,5.55,5.55,0,0,1,0-2.41,2.46,2.46,0,0,1,1.16-1.48,2.6,2.6,0,0,1,2.32-.34,4,4,0,0,1,2,1.79,6.75,6.75,0,0,1,.67,1.44,5.1,5.1,0,0,1,.27,1.34l-1.74.59a5.8,5.8,0,0,0-.24-1.16,5,5,0,0,0-.52-1.14,1.78,1.78,0,0,0-.61-0.64,0.65,0.65,0,0,0-.7,0,0.93,0.93,0,0,0-.27.23,0.72,0.72,0,0,0-.12.32,1.94,1.94,0,0,0,0,.5q0,0.3.11,0.75,0.11,0.65.16,1.25a4.16,4.16,0,0,1-.06,1.13,2.77,2.77,0,0,1-.38,1A2.48,2.48,0,0,1,125.2,40.06Z" transform="translate(-22.65 -0.34)"/>
      <path class="a" d="M134.72,45.39l-1.76.69-1-2.42-7.25,2.86-0.88-2.22,7.25-2.86-1-2.42,1.76-.69Z" transform="translate(-22.65 -0.34)"/>
      <path class="a" d="M130,52.24a1.37,1.37,0,0,1,1,.18,1.4,1.4,0,0,1,.33,1.92,1.42,1.42,0,0,1-1.81.31,1.4,1.4,0,0,1-.33-1.92A1.37,1.37,0,0,1,130,52.24Z" transform="translate(-22.65 -0.34)"/>
      <path class="a" d="M136.9,67.05L135,67l0.09-2.6-7.79-.26,0.08-2.38L135.17,62l0.09-2.6,1.89,0.06Z" transform="translate(-22.65 -0.34)"/>
      <path class="a" d="M136.51,69.62l-1.24,5.9-1.85-.39,0.75-3.57-1.91-.4-0.71,3.4-1.85-.39,0.71-3.4-2-.42L127.64,74l-1.85-.39L127,67.64Z" transform="translate(-22.65 -0.34)"/>
      <path class="a" d="M132.7,83.09a8.17,8.17,0,0,1-.72,1.35,5.09,5.09,0,0,1-.89,1.05l-1.48-1a6.42,6.42,0,0,0,.66-0.8,5.15,5.15,0,0,0,.54-1,3.36,3.36,0,0,0,.18-2.46,3.65,3.65,0,0,0-4.34-1.81A3.37,3.37,0,0,0,125,80.32a5.14,5.14,0,0,0-.31,1.07,6.37,6.37,0,0,0-.11,1l-1.75-.35A5.09,5.09,0,0,1,123,80.7a8.18,8.18,0,0,1,.45-1.46,6.2,6.2,0,0,1,1.21-1.94,4.53,4.53,0,0,1,1.59-1.1,4.39,4.39,0,0,1,1.84-.3,6.19,6.19,0,0,1,3.7,1.54A4.38,4.38,0,0,1,132.87,79a4.54,4.54,0,0,1,.34,1.91A6.21,6.21,0,0,1,132.7,83.09Z" transform="translate(-22.65 -0.34)"/>
      <path class="a" d="M118.55,87.87l3.23,2.25,2-2.91L120.58,85l1.36-2,7.95,5.53-1.36,2-3.11-2.17-2,2.91,3.11,2.17-1.36,2-7.95-5.53Z" transform="translate(-22.65 -0.34)"/>
      <path class="a" d="M111.51,95.23l6.84,1.59-3.87-4.28,1.7-1.54,6.5,7.18L121,99.72l-6.84-1.59,3.87,4.28-1.7,1.54-6.5-7.18Z" transform="translate(-22.65 -0.34)"/>
      <path class="a" d="M102.62,106.46a5.58,5.58,0,0,1-.64-1.86,4.71,4.71,0,0,1,.08-1.86,4.57,4.57,0,0,1,.84-1.69,5.7,5.7,0,0,1,3.68-2,4.55,4.55,0,0,1,1.88.2,4.62,4.62,0,0,1,1.61.94,5.92,5.92,0,0,1,1.86,3.4,4.62,4.62,0,0,1-.08,1.86,4.56,4.56,0,0,1-.84,1.7,5.7,5.7,0,0,1-3.68,2,4.57,4.57,0,0,1-1.88-.21,4.71,4.71,0,0,1-1.61-.93A5.58,5.58,0,0,1,102.62,106.46Zm2.83-5.12a2.51,2.51,0,0,0-.86.73,2.28,2.28,0,0,0-.4,1,2.78,2.78,0,0,0,0,1.1,5,5,0,0,0,1.21,2.21,2.78,2.78,0,0,0,.9.63,2.28,2.28,0,0,0,1,.18,2.75,2.75,0,0,0,1.94-1.06,2.3,2.3,0,0,0,.39-1,2.78,2.78,0,0,0,0-1.1,5,5,0,0,0-1.21-2.21,2.77,2.77,0,0,0-.9-0.63,2.3,2.3,0,0,0-1-.18A2.49,2.49,0,0,0,105.45,101.34Z" transform="translate(-22.65 -0.34)"/>
      <path class="a" d="M99.73,112.4L97.42,105,94,106l-0.56-1.8,5.68-1.76L102,111.7Z" transform="translate(-22.65 -0.34)"/>
      <path class="a" d="M83.83,110.28a5.58,5.58,0,0,1,.13-2,4.71,4.71,0,0,1,.8-1.68,4.56,4.56,0,0,1,1.43-1.24,5.18,5.18,0,0,1,2-.61,5.24,5.24,0,0,1,2.13.18,4.55,4.55,0,0,1,1.66.92,4.62,4.62,0,0,1,1.12,1.48,5.92,5.92,0,0,1,.4,3.86,4.62,4.62,0,0,1-.79,1.68,4.56,4.56,0,0,1-1.43,1.24,5.24,5.24,0,0,1-2,.61,5.18,5.18,0,0,1-2.12-.18,4.57,4.57,0,0,1-1.65-.92,4.72,4.72,0,0,1-1.13-1.48A5.58,5.58,0,0,1,83.83,110.28Zm4.59-3.62a2.5,2.5,0,0,0-1.07.35,2.28,2.28,0,0,0-.74.73,2.78,2.78,0,0,0-.38,1,5,5,0,0,0,.26,2.5,2.78,2.78,0,0,0,.59.93,2.29,2.29,0,0,0,.87.56,2.76,2.76,0,0,0,2.2-.23,2.3,2.3,0,0,0,.73-0.73,2.78,2.78,0,0,0,.38-1,5,5,0,0,0-.26-2.5,2.77,2.77,0,0,0-.59-0.93,2.3,2.3,0,0,0-.86-0.56A2.49,2.49,0,0,0,88.42,106.66Z" transform="translate(-22.65 -0.34)"/>
      <path class="a" d="M76.09,114.52a7.54,7.54,0,0,1-3.07-1l0.54-1.74a7.06,7.06,0,0,0,2.53.82,4.22,4.22,0,0,0,1.32,0,2.54,2.54,0,0,0,1.06-.46,2.65,2.65,0,0,0,.76-0.93,4.3,4.3,0,0,0,.41-1.44,3,3,0,0,0-.5-2.36,3.22,3.22,0,0,0-2.22-1.06,3.87,3.87,0,0,0-.64,0,3,3,0,0,0-.52.06l-0.34,2.68-2.12-.27,0.5-4a6.66,6.66,0,0,1,1.64-.3,10,10,0,0,1,2,.06,6.24,6.24,0,0,1,2.12.63,4.67,4.67,0,0,1,1.49,1.19,4.29,4.29,0,0,1,.82,1.65,5.32,5.32,0,0,1,.1,2,6,6,0,0,1-.62,2.05,4.44,4.44,0,0,1-1.24,1.48,4.67,4.67,0,0,1-1.79.83A6.39,6.39,0,0,1,76.09,114.52Z" transform="translate(-22.65 -0.34)"/>
      <path class="a" d="M70.07,103l2.29,0.68L69.6,113l-2.29-.68Z" transform="translate(-22.65 -0.34)"/>
      <path class="a" d="M61.35,102.55a2.87,2.87,0,0,1,.73-1,2.82,2.82,0,0,1,1.07-.59,3.57,3.57,0,0,1,1.33-.12,4.68,4.68,0,0,1,1.52.42,7.49,7.49,0,0,1,1.39.82,6.51,6.51,0,0,1,1.14,1.07l-1.19,1.46a7,7,0,0,0-.87-0.86,5,5,0,0,0-1.18-.73,2,2,0,0,0-1-.21,0.78,0.78,0,0,0-.66.51,0.87,0.87,0,0,0,0,.74,4.28,4.28,0,0,0,.87,1.09,5.55,5.55,0,0,1,1.39,2,2.46,2.46,0,0,1-.13,1.88,2.6,2.6,0,0,1-1.73,1.58,4,4,0,0,1-2.63-.37,6.77,6.77,0,0,1-1.37-.82,5.11,5.11,0,0,1-1-1L60.19,107a5.81,5.81,0,0,0,.85.82,5,5,0,0,0,1.07.65,1.78,1.78,0,0,0,.86.19,0.65,0.65,0,0,0,.55-0.43,0.93,0.93,0,0,0,.09-0.34,0.72,0.72,0,0,0-.08-0.34,2,2,0,0,0-.28-0.41l-0.51-.57q-0.45-.48-0.83-0.95a4.17,4.17,0,0,1-.58-1,2.78,2.78,0,0,1-.22-1A2.48,2.48,0,0,1,61.35,102.55Z" transform="translate(-22.65 -0.34)"/>
      <path class="a" d="M50.46,103.46l1.07-1.56,2.15,1.47,4.39-6.44,2,1.34-4.39,6.44,2.15,1.47-1.07,1.56Z" transform="translate(-22.65 -0.34)"/>
      <path class="a" d="M48.69,92.47a2.87,2.87,0,0,1,1-.68,2.82,2.82,0,0,1,1.21-.19,3.56,3.56,0,0,1,1.29.34,4.68,4.68,0,0,1,1.28.91,7.48,7.48,0,0,1,1,1.24,6.52,6.52,0,0,1,.71,1.4l-1.61,1a7,7,0,0,0-.52-1.11,5,5,0,0,0-.86-1.09,2,2,0,0,0-.88-0.54,0.78,0.78,0,0,0-.79.25,0.87,0.87,0,0,0-.22.71A4.28,4.28,0,0,0,50.78,96a5.55,5.55,0,0,1,.63,2.33,2.46,2.46,0,0,1-.76,1.72,2.6,2.6,0,0,1-2.16.9,4,4,0,0,1-2.35-1.25,6.77,6.77,0,0,1-1-1.24,5.1,5.1,0,0,1-.59-1.23l1.54-1a5.78,5.78,0,0,0,.52,1.06,5,5,0,0,0,.78,1,1.77,1.77,0,0,0,.75.47,0.65,0.65,0,0,0,.67-0.21,0.93,0.93,0,0,0,.2-0.29,0.72,0.72,0,0,0,0-.35,2,2,0,0,0-.12-0.49q-0.11-.29-0.29-0.71-0.27-.6-0.46-1.18A4.15,4.15,0,0,1,48,94.43a2.77,2.77,0,0,1,.14-1A2.48,2.48,0,0,1,48.69,92.47Z" transform="translate(-22.65 -0.34)"/>
      <path class="a" d="M45.26,89a1.37,1.37,0,0,1-.95.24,1.4,1.4,0,0,1-1.09-1.61,1.42,1.42,0,0,1,1.52-1,1.4,1.4,0,0,1,1.09,1.61A1.37,1.37,0,0,1,45.26,89Z" transform="translate(-22.65 -0.34)"/>
    </g>
  </g>
</svg>
