<svg xmlns="http://www.w3.org/2000/svg" width="170" height="123" viewBox="-5 0 170 123">
<style type="text/css">
	.st0{fill:#EDEDED;}
</style>
<title>logo-fellow</title>
<g>
	<path class="st0" d="M85.6,82.4c-5.5,0-10.8-1.1-15.9-3.2c-4.9-2.1-9.2-5-13-8.7c-3.7-3.7-6.7-8.1-8.7-13c-2.1-5-3.2-10.4-3.2-15.9
		c0-5.5,1.1-10.8,3.2-15.9c2.1-4.9,5-9.2,8.7-13c3.7-3.7,8.1-6.7,13-8.7c5-2.1,10.4-3.2,15.9-3.2c5.5,0,10.8,1.1,15.9,3.2
		c4.9,2.1,9.2,5,13,8.7s6.7,8.1,8.7,13c2.1,5,3.2,10.4,3.2,15.9c0,5.5-1.1,10.8-3.2,15.9c-2.1,4.9-5,9.2-8.7,13
		c-3.7,3.7-8.1,6.7-13,8.7C96.4,81.3,91.1,82.4,85.6,82.4z M85.6,2.6C75.1,2.6,65.3,6.7,58,14S46.5,31.2,46.5,41.6
		c0,10.4,4.1,20.2,11.4,27.6c7.4,7.4,17.2,11.4,27.6,11.4c10.4,0,20.2-4.1,27.6-11.4c7.4-7.4,11.4-17.2,11.4-27.6
		c0-10.4-4.1-20.2-11.4-27.6C105.8,6.7,96,2.6,85.6,2.6z"/>
	<g>
		<path class="st0" d="M88.2,5.8l-2.6,2.7L83,5.8C64.2,7.1,49.3,22.7,49.3,41.8c0,19,14.6,34.6,33.2,36l3-3.1l3,3.1
			c18.5-1.6,33-17.1,33-36C121.6,22.8,106.9,7.2,88.2,5.8z M75.3,67.1l-1.6-1.6h0.8l1.6,1.6H75.3z M77.5,67.1l-1.6-1.6h0.8l1.6,1.6
			H77.5z M79.7,67.1l-1.6-1.6h0.8l1.6,1.6H79.7z M81.9,67.1l-1.6-1.6h0.8l1.6,1.6H81.9z M84.1,67.1l-1.6-1.6h0.8l1.6,1.6H84.1z
			 M86.4,67.1l-1.6-1.6h0.8l1.6,1.6H86.4z M88.6,67.1L87,65.5h0.8l1.6,1.6H88.6z M84.9,56.7l0-0.8l1.8,1.8v0.8L84.9,56.7z
			 M86.7,59.9v0.8l-1.8-1.8l0-0.8L86.7,59.9z M84.9,54.4l0-0.8l1.8,1.8v0.8L84.9,54.4z M84.9,52.2l0-0.8l1.8,1.8V54L84.9,52.2z
			 M84.9,50l0-0.8l1.8,1.8v0.8L84.9,50z M84.9,47.8l0-0.8l1.8,1.8v0.8L84.9,47.8z M85.1,45.8L85.1,45.8c0,0,0.1-0.3,0.2-0.4l0,0
			l1.7,1.7l0,0c0,0-0.1,0.1-0.2,0.4l0,0.1L85.1,45.8z M86.3,44.7L86.3,44.7c0.1,0,0.2-0.1,0.7-0.1l0,0l1.6,1.7l-0.2,0c0,0,0,0-0.1,0
			c-0.1,0-0.2,0-0.5,0.1l0,0L86.3,44.7z M90.3,66.5l-1.8-1.8V64l1.8,1.8V66.5z M90.3,64.3l-1.8-1.8v-0.8l1.8,1.8V64.3z M90,46.3
			l-1.6-1.6h0.8l1.6,1.6L90,46.3z M92.3,46.3l-1.6-1.6l0.8,0l1.6,1.6L92.3,46.3z M84.9,34.4v-0.8l1.8,1.8v0.8L84.9,34.4z M86.7,37.7
			v0.8l-1.8-1.8v-0.8L86.7,37.7z M84.9,32.2v-0.8l1.8,1.8V34L84.9,32.2z M84.9,29.9v-0.8l1.8,1.8v0.8L84.9,29.9z M84.9,27.7v-0.8
			l1.8,1.8v0.8L84.9,27.7z M84.9,25.6L84.9,25.6c0,0,0.1-0.3,0.1-0.5l0-0.1l1.7,1.7l0,0c0,0-0.1,0.4-0.1,0.5l0,0.1L84.9,25.6z
			 M85.7,24.1L85.7,24.1c0.1,0,0.3-0.2,0.5-0.2l0,0l1.6,1.6l-0.1,0c0,0-0.2,0.1-0.4,0.2l0,0L85.7,24.1z M87.7,23.8h0.8l1.6,1.6h-0.8
			L87.7,23.8z M89.9,23.8h0.8l1.6,1.6h-0.8L89.9,23.8z M93.9,45.7l-1.8-1.8v-0.8l1.8,1.8L93.9,45.7z M94,43.5l-1.9-1.9v-0.8l1.9,1.9
			L94,43.5z M93.7,25.4L93.7,25.4l-1.6-1.6h0.8l1.6,1.6H93.7z M95.9,25.4L95.9,25.4l-1.6-1.6h0.8l1.6,1.6H95.9z M98.1,25.4
			L98.1,25.4l-1.6-1.6h0.8l1.6,1.6H98.1z M101.7,22.8v5.4h-1.8v-2c-0.2-2.9-2.6-3.4-3.3-3.4H85.5c-1.5,0-1.8,1.4-1.9,2.2v0.5
			c0,0,0,0,0,0h0v12.6l0,0c0,1.4,1.2,1.8,2.1,1.9H86l-1.2-1.2v-0.8l1.8,1.8V40h4.2v3.5h-5.4l0,0c-1.4,0-1.8,1.1-1.9,2v12.5
			c0.3,2.3,2,2.8,3,2.9h0.7v3.4h-3.6H80h-1.8h-1.8h-3.6V61H73c2.8-0.3,3.3-2.6,3.3-3.2V44.2l-2.5-2.3l2.5-2.4V26.4
			c-0.2-3-2.7-3.5-3.4-3.6h-0.2v-3.1h3.6h1.8H80h3.6h16.3h1.8V22.8z M103.6,30.9l-1.7-1.6h0.8l1.6,1.6H103.6z M104.8,29.8L103,28
			v-0.8l1.8,1.8V29.8z M104.8,27.6l-1.8-1.8V25l1.8,1.8V27.6z M104.8,25.3l-1.8-1.8v-0.8l1.8,1.8V25.3z M104.8,23.1l-1.8-1.8v-0.8
			l1.8,1.8V23.1z"/>
		<rect x="78.2" y="22.8" class="st0" width="1.8" height="38.2"/>
	</g>
</g>
<g>
	<path class="st0" d="M34.9,100.5c0-0.2,0-0.4,0-0.7C34.9,100.1,34.9,100.3,34.9,100.5z"/>
	<path class="st0" d="M32.8,121.4h4.3v-10.5h3.5v-4.4h-3.5V98h6.7v-4.3h-11V121.4z M34.9,99.9c0,0.2,0,0.4,0,0.7
		C34.9,100.3,34.9,100.1,34.9,99.9z"/>
	<polygon class="st0" points="48.9,121.4 59.9,121.4 59.9,117 53.2,117 53.2,110.9 56.7,110.9 56.7,106.5 53.2,106.5 53.2,98
		59.9,98 59.9,93.7 48.9,93.7 	"/>
	<polygon class="st0" points="69.3,93.7 67.4,93.7 67,93.7 65,93.7 65,121.4 76,121.4 76,119.3 76,119 76,117 69.3,117 	"/>
	<polygon class="st0" points="85.5,93.7 83.5,93.7 83.2,93.7 81.2,93.7 81.2,121.4 92.1,121.4 92.1,119.3 92.1,119 92.1,117
		85.5,117 	"/>
	<polygon class="st0" points="131.9,93.7 129.1,108.2 127.3,98.4 127,96.7 123.2,96.7 122.8,98.3 121,108.2 118.2,93.7 113.7,93.7
		118.8,119.8 119.1,121.4 122.9,121.4 123.2,119.7 125,110.1 126.9,119.7 127.2,121.4 131,121.4 131.3,119.8 136.3,93.7 	"/>
	<g>
		<path class="st0" d="M103.6,93.7h-0.3c-3.7,0-6.8,3-6.8,6.8v14.1c0,3.7,3.1,6.8,6.8,6.8h0.3c3.7,0,6.7-3.1,6.7-6.8v-14.1
			C110.3,96.7,107.3,93.7,103.6,93.7z M106,114.6c0,1.3-1.1,2.5-2.5,2.5h-0.3c-1.4,0-2.5-1.1-2.5-2.5v-14.1c0-1.4,1.1-2.5,2.5-2.5
			h0.3c1.3,0,2.5,1.1,2.5,2.5V114.6z"/>
	</g>
</g>
</svg>
